<?xml version="1.0" encoding="UTF-8"?>
<svg width="232px" height="208px" viewBox="0 0 232 208" version="1.1" xmlns="http://www.w3.org/2000/svg" xmlns:xlink="http://www.w3.org/1999/xlink">
    <!-- Generator: Sketch 53.2 (72643) - https://sketchapp.com -->
    <title>banner</title>
    <desc>Created with Sketch.</desc>
    <g id="Page-1" stroke="none" stroke-width="1" fill="none" fill-rule="evenodd">
        <g id="King-of-Good-Times-1-Copy" transform="translate(-72.000000, -196.000000)" fill-rule="nonzero">
            <g id="banner" transform="translate(72.000000, 196.000000)">
                <path d="M215.395833,21.1439524 L215.395833,128.48403 C183.068879,142.114032 149.282461,148.93042 116.108136,148.93042 C82.6507407,148.93042 48.8661601,141.9005 16.3958333,128.273271 L16.3958333,20.9304198 L18.7964136,21.9953071 C50.4175308,35.6280821 83.4981122,42.441697 116.108136,42.441697 C148.718159,42.441697 181.798741,35.6280821 213.419858,21.9953071 L215.395833,21.1439524 Z" id="Path" fill="#E63950"></path>
                <path d="M215.395833,20.9304198 L215.395833,128.449864 C183.16255,142.102642 149.474032,148.93042 116.395833,148.93042 L116.395833,42.2637532 C148.911366,42.2637532 181.896092,35.4387526 213.425584,21.7831971 L215.395833,20.9304198 Z" id="Path" fill="#CC2E43"></path>
                <polygon id="Path" fill="#663325" points="10.625 15.9375 21.25 15.9375 21.25 207.9375 10.625 207.9375"></polygon>
                <polygon id="Path" fill="#582B1F" points="210.083333 15.9375 220.708333 15.9375 220.708333 207.9375 210.083333 207.9375"></polygon>
                <path d="M15.9375,31.875 C7.14973958,31.875 0,24.7252604 0,15.9375 C0,7.14973958 7.14973958,0 15.9375,0 C24.7252604,0 31.875,7.14973958 31.875,15.9375 C31.875,24.7252604 24.7252604,31.875 15.9375,31.875 Z" id="Path" fill="#FFD400"></path>
                <path d="M215.395833,31.875 C206.608073,31.875 199.458333,24.7252604 199.458333,15.9375 C199.458333,7.14973958 206.608073,0 215.395833,0 C224.183594,0 231.333333,7.14973958 231.333333,15.9375 C231.333333,24.7252604 224.183594,31.875 215.395833,31.875 Z" id="Path" fill="#FDBF00"></path>
            </g>
        </g>
    </g>
</svg>