<?xml version="1.0" encoding="UTF-8"?>
<svg width="27px" height="27px" viewBox="0 0 27 27" version="1.1" xmlns="http://www.w3.org/2000/svg" xmlns:xlink="http://www.w3.org/1999/xlink">
    <!-- Generator: Sketch 53.2 (72643) - https://sketchapp.com -->
    <title>cricket (1)</title>
    <desc>Created with Sketch.</desc>
    <g id="Page-1" stroke="none" stroke-width="1" fill="none" fill-rule="evenodd">
        <g id="Select-match" transform="translate(-327.000000, -176.000000)" fill-rule="nonzero">
            <g id="Group-3" transform="translate(10.000000, 137.000000)">
                <g id="Group-2" transform="translate(11.000000, 37.000000)">
                    <g id="cricket-(1)" transform="translate(306.000000, 2.000000)">
                        <path d="M27,13.5 C27,18.7616777 23.9897637,23.3208281 19.597043,25.5480645 C18.2889141,26.2109355 16.8573867,26.6677207 15.3470215,26.8743867 C14.8053867,26.9487949 14.2537852,26.990666 13.693957,26.9983652 C13.6294629,26.9994727 13.5644941,27 13.5,27 C13.2322148,27 12.9660645,26.9923008 12.7021289,26.9763223 C11.7488496,26.9212148 10.822623,26.7669141 9.93267773,26.5233867 C9.36567773,26.3690859 8.81412891,26.1779238 8.27961328,25.9536445 C7.94184961,25.8120527 7.61120508,25.6566445 7.28778516,25.4885801 C6.28435547,24.9678809 5.3542793,24.3242578 4.51833398,23.578752 C3.91663477,23.0420742 3.36281836,22.4524512 2.86526953,21.8171602 C2.50435547,21.3565254 2.17265625,20.8710527 1.87344141,20.3652246 C1.16869922,19.1739023 0.641935547,17.8652461 0.328957031,16.4755898 C0.113484375,15.5184082 0,14.5226777 0,13.5 C0,12.4773223 0.113484375,11.4815918 0.328957031,10.5245156 C0.641935547,9.13485937 1.16869922,7.82615039 1.87344141,6.63488086 C2.17265625,6.12905273 2.50435547,5.64358008 2.86526953,5.18294531 C3.36281836,4.54760156 3.91663477,3.95803125 4.51833398,3.42135352 C4.90350586,3.07752539 5.30850586,2.75574023 5.73169922,2.45816016 C7.92808594,0.909193359 10.6076777,0 13.5,0 C20.9558496,0 27,6.04415039 27,13.5 Z" id="Path" fill="#F4A14E"></path>
                        <g id="Group" transform="translate(0.000000, 11.000000)" fill="#F9AF6B">
                            <path d="M0,3 C0,1.97931579 0.1176875,0.985526316 0.341140625,0.0303157895 L4.34284375,0.0303157895 C4.62683594,0.0303157895 4.88397656,0.140842105 5.07029688,0.320157895 C5.25601563,0.499421053 5.37146094,0.746894737 5.37146094,1.02026316 C5.37146094,1.56689474 4.91088281,2.01015789 4.34289844,2.01015789 L1.0285625,2.01015789 C0.460578125,2.01010526 0,2.45336842 0,3 Z" id="Path"></path>
                            <path d="M6.97145313,4.97978947 C6.97145313,5.52642105 6.510875,5.96968421 5.94289063,5.96968421 L0.341140625,5.96968421 C0.1176875,5.01447368 0,4.02068421 0,3 C0,3.54663158 0.460578125,3.98989474 1.0285625,3.98989474 L5.94283594,3.98989474 C6.22682813,3.98989474 6.48396875,4.10042105 6.67028906,4.27973684 C6.85600781,4.459 6.97145313,4.70647368 6.97145313,4.97978947 Z" id="Path"></path>
                        </g>
                        <path d="M27,13.7388099 C27,14.4969668 26.9381283,15.2405262 26.8199312,15.9656241 C26.4519318,18.2142808 25.5365104,20.2796104 24.2142649,22.0213802 C22.9527603,23.6829175 21.3205101,25.0500901 19.4406653,26 C11.0457662,23.1832756 5,15.2747659 5,5.95926245 C5,4.78164251 5.09676543,3.62645547 5.28243443,2.50159041 C7.52521692,0.925276644 10.2614116,0 13.2148303,0 C14.6377721,0 16.0106889,0.214776239 17.3019716,0.6140604 C21.0155132,1.76141203 24.0572432,4.43065885 25.6923474,7.89112158 C26.5313042,9.66541374 27,11.6477201 27,13.7388099 Z" id="Path" fill="#4BC999"></path>
                        <path d="M4,2.89713708 L4,24 C3.3175157,23.4504536 2.68934304,22.8466923 2.12499252,22.196168 C1.71562157,21.724488 1.3393879,21.2273745 1,20.7094174 L1,2.89713708 C1,2.40175153 1.44502044,2 1.99375935,2 L3.00624065,2 C3.55497956,2 4,2.40175153 4,2.89713708 Z" id="Path" fill="#C69A6A"></path>
                        <g id="Group" transform="translate(9.000000, 1.000000)" fill="#5BD3A2">
                            <path d="M16.9023095,7.141995 L3.06778797,7.141995 C2.79995415,7.141995 2.55744413,7.031745 2.38229226,6.8528775 C2.20662464,6.6740625 2.09826361,6.4272075 2.09826361,6.1545225 C2.09826361,5.6092575 2.53206877,5.1671025 3.06778797,5.1671025 L6.01674499,5.1671025 C6.2845788,5.1671025 6.52708883,5.0568525 6.70280802,4.877985 C6.87852722,4.6991175 6.98683668,4.452315 6.98683668,4.17963 C6.98683668,3.634365 6.55246418,3.19221 6.01679656,3.19221 L5.193851,3.19221 C4.92601719,3.19221 4.68350716,3.08196 4.50778797,2.9030925 C4.3326361,2.7242775 4.22375931,2.4774225 4.22375931,2.2047375 C4.22375931,1.6594725 4.65813181,1.2173175 5.19379943,1.2173175 L7.91804011,1.2173175 C8.18587393,1.2173175 8.42838395,1.1070675 8.60410315,0.9282 C8.77977077,0.74991 8.88813181,0.503055 8.88813181,0.2304225 C8.88813181,0.1591275 8.88060172,0.089985 8.86605731,0.0230475 C12.4228367,1.14555 15.3362063,3.7567425 16.9023095,7.141995 Z" id="Path"></path>
                            <path d="M17.9822579,15.0408825 C17.629788,17.2406325 16.7529971,19.2610425 15.4865501,20.96493 L12.6556504,20.96493 C12.3878166,20.96493 12.1453066,20.85468 11.9695874,20.6758125 C11.7944355,20.4969975 11.6855587,20.2501425 11.6855587,19.9774575 C11.6855587,19.4321925 12.1199312,18.9900375 12.6555989,18.9900375 L12.9250831,18.9900375 C13.1929169,18.9900375 13.4354269,18.8797875 13.6111461,18.70092 C13.786298,18.522105 13.8951748,18.27525 13.8951748,18.002565 C13.8951748,17.4573 13.4608023,17.015145 12.9251347,17.015145 L10.2811461,17.015145 C10.0133123,17.015145 9.77080229,16.904895 9.59508309,16.7260275 C9.41993123,16.5472125 9.31105444,16.3003575 9.31105444,16.0276725 C9.31105444,15.4824075 9.74542693,15.0407775 10.2810946,15.0407775 L17.9822579,15.0407775 L17.9822579,15.0408825 Z" id="Path"></path>
                            <path d="M11.1666017,10.269945 L11.1666017,10.26984 C11.1666017,9.724575 10.7323324,9.282525 10.1966648,9.282525 L0.981593123,9.282525 C0.445925501,9.282525 0.0116561605,9.724575 0.0116561605,10.26984 L0.0116561605,10.269945 C0.0116561605,10.81521 0.445925501,11.25726 0.981593123,11.25726 L2.51747278,11.25726 C3.0531404,11.25726 3.48740974,11.69931 3.48740974,12.244575 L3.48740974,12.24468 C3.48740974,12.789945 3.92167908,13.231995 4.4573467,13.231995 L12.1366418,13.231995 C12.6723095,13.231995 13.1065788,12.789945 13.1065788,12.24468 L13.1065788,12.244575 C13.1065788,11.69931 12.6723095,11.25726 12.1366418,11.25726 L12.1366418,11.25726 C11.6008711,11.25726 11.1666017,10.81521 11.1666017,10.269945 Z" id="Path"></path>
                        </g>
                        <path d="M4,2.00278067 C3.49334416,2.02850184 3.09091964,2.41458674 3.09091964,2.88842307 L3.09091964,22 C2.69394739,21.5329014 2.32910878,21.0406165 2,20.5276904 L2,2.88842307 C2,2.39784926 2.43154201,2 2.96366115,2 L3.94547722,2 C3.96427018,2 3.98184507,2.00165771 4,2.00278067 Z" id="Path" fill="#B58657"></path>
                        <path d="M10,2.8965885 L10,27 C9.35687369,26.8420959 8.73127305,26.6464698 8.12499252,26.416953 C7.74188017,26.2720548 7.36684279,26.1130174 7,25.9410283 L7,2.8965885 C7,2.40150586 7.44502044,2 7.99375935,2 L9.00624065,2 C9.55503938,2 10,2.40150586 10,2.8965885 Z" id="Path" fill="#C69A6A"></path>
                        <path d="M9,2.00275831 C8.49334416,2.02827267 8.09091964,2.41125337 8.09091964,2.88127996 L8.09091964,26 C7.71941069,25.8575757 7.35573214,25.7012538 7,25.5322013 L7,2.88127996 C7,2.39465047 7.43154201,2 7.96366115,2 L8.94547722,2 C8.96363215,2 8.98178707,2.00164438 9,2.00275831 Z" id="Path" fill="#B58657"></path>
                        <path d="M15,2.87943103 L15,26.8739133 C14.3856445,26.9486019 13.759984,26.9906308 13.1249925,26.9983591 C13.0518393,26.9994707 12.9781477,27 12.9049945,27 C12.6012561,27 12.2993719,26.9922718 12,26.976233 L12,2.87943103 C12,2.39382249 12.4450204,2 12.9937593,2 L14.0062407,2 C14.5549796,2 15,2.39382249 15,2.87943103 Z" id="Path" fill="#C69A6A"></path>
                        <path d="M15,2.00275252 C14.4933589,2.02821336 14.090946,2.41039056 14.090946,2.87943103 L14.090946,26.9983591 C14.0199524,26.9994707 13.9484949,27 13.8775593,27 C13.5830288,27 13.2902964,26.9922718 13,26.976233 L13,2.87943103 C13,2.39382249 13.4315295,2 13.9636332,2 L14.9454208,2 C14.9636332,2 14.9817876,2.00164093 15,2.00275252 Z" id="Path" fill="#B58657"></path>
                        <g id="Group" transform="translate(3.000000, 3.000000)" fill="#D3AA81">
                            <path d="M0.477837838,6.96332479 L0.477837838,6.96332479 C0.238702703,6.96332479 0.0448108108,6.74877778 0.0448108108,6.48403419 L0.0448108108,0.524282051 C0.0448108108,0.259598291 0.238648649,0.044991453 0.477837838,0.044991453 L0.477837838,0.044991453 C0.716972973,0.044991453 0.910864865,0.259538462 0.910864865,0.524282051 L0.910864865,6.48403419 C0.910810811,6.74871795 0.716972973,6.96332479 0.477837838,6.96332479 Z" id="Path"></path>
                            <path d="M6.09572973,6.96332479 L6.09572973,6.96332479 C5.85659459,6.96332479 5.6627027,6.74877778 5.6627027,6.48403419 L5.6627027,0.524282051 C5.6627027,0.259598291 5.85654054,0.044991453 6.09572973,0.044991453 L6.09572973,0.044991453 C6.33486486,0.044991453 6.52875676,0.259538462 6.52875676,0.524282051 L6.52875676,6.48403419 C6.5287027,6.74871795 6.33486486,6.96332479 6.09572973,6.96332479 Z" id="Path"></path>
                            <path d="M11.5178919,6.96332479 L11.5178919,6.96332479 C11.2787568,6.96332479 11.0848649,6.74877778 11.0848649,6.48403419 L11.0848649,0.524282051 C11.0848649,0.259598291 11.2787027,0.044991453 11.5178919,0.044991453 L11.5178919,0.044991453 C11.757027,0.044991453 11.9509189,0.259538462 11.9509189,0.524282051 L11.9509189,6.48403419 C11.9508649,6.74871795 11.757027,6.96332479 11.5178919,6.96332479 Z" id="Path"></path>
                        </g>
                        <path d="M26.6515415,2.03278098 L21.4051442,7.27859582 C21.1192959,7.56497217 20.9752891,7.93964305 20.9752891,8.31431394 C20.9752891,8.69009379 21.1192959,9.06529275 21.4051442,9.35114102 L19.8452561,10.9110287 L19.3381432,11.4186695 L18.6793138,12.0769707 L18.1722009,12.5846115 L8.08945865,22.6668756 C7.64529266,23.1110415 6.92573425,23.1110415 6.48156826,22.6668756 L4.33292649,20.5187625 C3.88928858,20.0745967 3.8887605,19.3550385 4.33292649,18.9108726 L4.64966738,18.5941318 L5.60649102,17.6373084 L8.14416748,15.0996327 L9.09101045,14.15279 L14.4156688,8.82802759 L14.9233097,8.32091491 L15.5816111,7.6620856 L16.0887239,7.15497291 L17.6486121,5.59508521 C18.2213649,6.16730983 19.1489331,6.16730983 19.7216859,5.59508521 L24.9675023,0.348161401 C25.1998036,0.116441057 25.5049268,0 25.8089938,0 C26.114117,0 26.419293,0.116441057 26.6515943,0.348161401 C27.116144,0.813344744 27.116144,1.56706956 26.6515415,2.03278098 Z" id="Path" fill="#FFD15C"></path>
                        <g id="Group" transform="translate(15.000000, 7.000000)" fill="#FF525D">
                            <polygon id="Path" points="5.97161538 4.13180769 5.41759615 4.68640385 1.31359615 0.582403846 1.86755769 0.0283846154"></polygon>
                            <polygon id="Path" points="4.69782692 5.40559615 4.14386538 5.96019231 0.0398076923 1.85613462 0.594403846 1.30217308"></polygon>
                        </g>
                        <path d="M9,17.6920954 C9,18.9665385 7.9665258,20 6.69206697,20 C6.02317444,20 5.42120566,19.71575 5,19.2610881 L5.89292446,18.3681747 L8.26112829,16 C8.71574655,16.4212498 9,17.0231618 9,17.6920954 Z" id="Path" fill="#EDBB4C"></path>
                        <path d="M9,15.4765921 L9,15.5000267 C9,16.8805317 7.88065119,18 6.50029357,18 C5.11934881,18 4,16.8805317 4,15.5000267 C4,14.4876421 4.60122765,13.6163455 5.46623966,13.2231356 C5.78137176,13.0798057 6.1316253,13 6.50024019,13 C7.87285829,13 8.98718975,14.1061229 9,15.4765921 Z" id="Path" fill="#EF4152"></path>
                        <path d="M10,15.6852265 C9.66404032,16.4623643 8.94001857,17 8.10006632,17 C6.94028386,17 6,15.9743308 6,14.7091014 C6,14.1509188 6.18294203,13.6392707 6.48733254,13.2419332 C6.80058363,13.0865287 7.14874652,13 7.51516116,13 C8.87958615,13 9.98726622,14.1993055 10,15.6852265 Z" id="Path" fill="#FF525D"></path>
                        <path d="M26.664637,1.95644882 L21.615407,7.00528013 C21.3403013,7.28090287 21.2017065,7.64150464 21.2017065,8.0021064 C21.2017065,8.36377549 21.3403013,8.7248855 21.615407,9 L18,5.38503719 C18.551228,5.93577443 19.4439368,5.93577443 19.9951647,5.38503719 L25.0438357,0.335138554 C25.2674576,0.112068625 25.5611138,0 25.8537535,0 C26.1474097,0 26.4411168,0.112068625 26.6646879,0.335087729 C27.1117792,0.782803156 27.1117792,1.50822514 26.664637,1.95644882 Z" id="Path" fill="#B58657"></path>
                        <path d="M16.7720248,11.2280152 L16.7720248,11.2280152 C16.4680027,10.9239949 15.9751878,10.9239949 15.6711657,11.2280152 L10.2280166,16.6711321 C9.92399447,16.9751525 9.92399447,17.4679645 10.2280166,17.7719848 L10.2280166,17.7719848 C10.5320387,18.0760051 11.0248536,18.0760051 11.3288757,17.7719848 L16.7720248,12.3288679 C17.0759917,12.0248475 17.0759917,11.5320355 16.7720248,11.2280152 Z" id="Path" fill="#FFDC8D"></path>
                        <g id="Group" transform="translate(7.000000, 14.000000)" fill="#FF6E7C">
                            <ellipse id="Oval" cx="1.41342857" cy="0.655322581" rx="1" ry="1"></ellipse>
                            <ellipse id="Oval" cx="0.455714286" cy="0.262645161" rx="1" ry="1"></ellipse>
                        </g>
                        <path d="M14.4699587,1.55390224 L12.7444959,1.55390224 C12.5533326,1.22581748 12.159108,1 11.7025257,1 C11.2459433,1 10.8517187,1.22581748 10.6605023,1.55390224 L7.33939147,1.55390224 C7.14817503,1.22581748 6.75395048,1 6.29736812,1 C5.84078576,1 5.4465612,1.22581748 5.25534477,1.55390224 L3.52998823,1.55390224 C3.23726773,1.55390224 3,1.75747978 3,2.00863621 C3,2.25979264 3.23726773,2.46337017 3.52998823,2.46337017 L5.26517117,2.46337017 C5.45999947,2.78220349 5.84880623,3 6.29747435,3 C6.74614247,3 7.13500235,2.78220349 7.32977753,2.46337017 L10.6702225,2.46337017 C10.8650508,2.78220349 11.2538575,3 11.7025257,3 C12.1511938,3 12.5400536,2.78220349 12.7348288,2.46337017 L14.4700118,2.46337017 C14.7627323,2.46337017 15,2.25979264 15,2.00863621 C15,1.75747978 14.7626792,1.55390224 14.4699587,1.55390224 Z" id="Path" fill="#C69A6A"></path>
                        <path d="M14.4699587,2.14693125 L12.7348288,2.14693125 C12.5400005,2.39980481 12.1511938,2.57254392 11.7025257,2.57254392 C11.2538575,2.57254392 10.8649977,2.39980481 10.6702225,2.14693125 L7.32972442,2.14693125 C7.13489611,2.39980481 6.74608936,2.57254392 6.29742123,2.57254392 C5.84875311,2.57254392 5.45989324,2.39980481 5.26511805,2.14693125 L3.52998823,2.14693125 C3.35497207,2.14693125 3.20029922,2.08895395 3.10378803,2 C3.03882756,2.05985686 3,2.13362973 3,2.21372804 C3,2.41292561 3.23726773,2.57438733 3.52998823,2.57438733 L5.26517117,2.57438733 C5.45999947,2.8272609 5.84880623,3 6.29747435,3 C6.74614247,3 7.13500235,2.8272609 7.32977753,2.57438733 L10.6702225,2.57438733 C10.8650508,2.8272609 11.2538575,3 11.7025257,3 C12.1511938,3 12.5400536,2.8272609 12.7348288,2.57438733 L14.4700118,2.57438733 C14.7627323,2.57438733 15,2.41292561 15,2.21372804 C15,2.13362973 14.9611724,2.05985686 14.896212,2 C14.7997008,2.08895395 14.6449748,2.14693125 14.4699587,2.14693125 Z" id="Path" fill="#B58657"></path>
                        <g id="Group" transform="translate(6.000000, 1.000000)" fill="#D3AA81">
                            <ellipse id="Oval" cx="0.505108333" cy="0.506176471" rx="1" ry="1"></ellipse>
                            <ellipse id="Oval" cx="6.52534167" cy="0.506176471" rx="1" ry="1"></ellipse>
                        </g>
                    </g>
                </g>
            </g>
        </g>
    </g>
</svg>