<?xml version="1.0" encoding="UTF-8"?>
<svg width="305px" height="90px" viewBox="0 0 305 90" version="1.1" xmlns="http://www.w3.org/2000/svg" xmlns:xlink="http://www.w3.org/1999/xlink">
    <!-- Generator: Sketch 53.2 (72643) - https://sketchapp.com -->
    <title>Group 2</title>
    <desc>Created with Sketch.</desc>
    <defs>
        <polyline id="path-1" points="2.01693103 4.55083682 0.150517241 1.26301255 1.62186973 0.344560669 4.68090038 3.00690377 2.01693103 4.55083682"></polyline>
        <polyline id="path-3" points="2.06933333 3.5209205 0.192885057 2.56707113 1.3353295 0.244769874 2.40864751 0.746736402 2.06933333 3.5209205"></polyline>
        <polyline id="path-5" points="0.955877395 4.61974895 0.0319616858 0.637154812 1.83259387 0.150251046 4.17991954 3.86020921 0.955877395 4.61974895"></polyline>
        <polyline id="path-7" points="4.08440613 5.94188285 0.161295019 1.73711297 1.77721839 0.286945607 7.03528736 3.46179916 4.08440613 5.94188285"></polyline>
        <polyline id="path-9" points="3.77259387 5.81535565 0.18508046 4.44615063 1.82293103 0.00790794979 3.86662069 0.71209205 3.77259387 5.81535565"></polyline>
        <polyline id="path-11" points="1.05956705 4.46987448 0.296203065 1.18054393 4.25387739 0.227447699 4.74259387 2.06435146 1.05956705 4.46987448"></polyline>
        <polyline id="path-13" points="3.76367433 6.04694561 0.136766284 4.78882845 1.64082375 0.302008368 3.70458238 0.94292887 3.76367433 6.04694561"></polyline>
        <path d="M1.11494253,2.25941423 C-0.322218391,2.25941423 -0.319988506,0 1.11494253,0 C2.55210345,0 2.54987356,2.25941423 1.11494253,2.25941423" id="path-15"></path>
        <path d="M1.84560153,2.4774477 C1.76569732,2.4774477 1.6857931,2.47066946 1.60737548,2.45748954 C1.52040996,2.44317992 1.4330728,2.42849372 1.34610728,2.4141841 C1.30485441,2.40853556 1.26471648,2.40175732 1.22606513,2.39422594 C1.21826054,2.39271967 1.21082759,2.39158996 1.20302299,2.39008368 C1.20748276,2.39083682 1.21157088,2.39121339 1.21603065,2.39196653 C1.04395785,2.3558159 0.893068966,2.29292887 0.739950192,2.17280335 C0.587574713,2.05343096 0.436314176,1.88322176 0.361613027,1.69117155 C0.360869732,1.68966527 0.360498084,1.68853556 0.359754789,1.68702929 C0.211467433,1.37410042 0.171701149,1.0751046 0.30735249,0.749748954 C0.424421456,0.468075314 0.669708812,0.201464435 0.980777778,0.139707113 C1.08409579,0.119372385 1.19670498,0.0941422594 1.30411111,0.0941422594 C1.31414559,0.0941422594 1.32380843,0.0941422594 1.33347126,0.0948953975 C1.38327203,0.0892468619 1.43270115,0.0862343096 1.48213027,0.0862343096 C1.77090038,0.0862343096 2.05446743,0.184895397 2.26296169,0.41874477 C2.3655364,0.533598326 2.48074713,0.638661088 2.59038314,0.746359833 C2.92189272,1.07171548 2.95645594,1.58799163 2.74833333,1.98715481 C2.56622605,2.33698745 2.20684291,2.4774477 1.84560153,2.4774477" id="path-17"></path>
        <path d="M0.115954023,6.49882845 C2.64018391,4.58774059 5.38628736,3.01594142 8.3646705,1.94008368 C11.6065517,0.768577406 14.9926322,0.239497908 18.4039847,0.239497908 C19.0867011,0.239497908 19.7709042,0.260962343 20.4547356,0.302384937 C15.5724023,1.45882845 10.8729195,3.31041841 6.57444444,5.85301255 C6.2604023,5.84209205 5.94933333,5.83644351 5.6416092,5.83644351 C3.70458238,5.83644351 1.8875977,6.05523013 0.115954023,6.49882845" id="path-19"></path>
        <path d="M3.79154789,6.18401674 C2.55990805,6.0032636 1.38698851,5.8925523 0.256436782,5.85301255 C4.55491188,3.31041841 9.25439464,1.45882845 14.136728,0.302384937 C14.7295057,0.338158996 15.3215402,0.389372385 15.9139464,0.455271967 C11.9157625,1.75330544 8.06995402,3.48778243 4.4987931,5.73025105 C4.26168199,5.87899582 4.02568582,6.03037657 3.79154789,6.18401674" id="path-21"></path>
        <path d="M0.302404539,3.33979079 C0.30003829,3.33979079 0.29767204,3.33941423 0.295305791,3.33941423 C0.18803581,2.93686192 0.164373315,2.55539749 0.230628303,2.20405858 C0.164373315,2.55502092 0.195923309,2.93799163 0.302404539,3.33979079 M0.237727051,2.16866109 C0.385223274,1.44338912 0.716498214,0.733179916 1.18817063,0.113723849 C1.18974813,0.114476987 1.19211438,0.115230126 1.19369188,0.115983264 C0.721230713,0.735062762 0.386012024,1.44263598 0.237727051,2.16866109" id="path-23"></path>
        <polygon id="path-25" points="0.335597701 0 16.8362668 0 16.8362668 11.5190966 0.335597701 11.5190966"></polygon>
        <polyline id="path-27" points="2.01693103 4.55083682 0.150517241 1.26301255 1.62186973 0.344560669 4.68090038 3.00690377 2.01693103 4.55083682"></polyline>
        <polyline id="path-29" points="2.06933333 3.5209205 0.192885057 2.56707113 1.3353295 0.244769874 2.40864751 0.746736402 2.06933333 3.5209205"></polyline>
        <polyline id="path-31" points="0.955877395 4.61974895 0.0319616858 0.637154812 1.83259387 0.150251046 4.17991954 3.86020921 0.955877395 4.61974895"></polyline>
        <polyline id="path-33" points="4.08440613 5.94188285 0.161295019 1.73711297 1.77721839 0.286945607 7.03528736 3.46179916 4.08440613 5.94188285"></polyline>
        <polyline id="path-35" points="3.77259387 5.81535565 0.18508046 4.44615063 1.82293103 0.00790794979 3.86662069 0.71209205 3.77259387 5.81535565"></polyline>
        <polyline id="path-37" points="1.05956705 4.46987448 0.296203065 1.18054393 4.25387739 0.227447699 4.74259387 2.06435146 1.05956705 4.46987448"></polyline>
        <polyline id="path-39" points="3.76367433 6.04694561 0.136766284 4.78882845 1.64082375 0.302008368 3.70458238 0.94292887 3.76367433 6.04694561"></polyline>
        <path d="M1.11494253,2.25941423 C-0.322218391,2.25941423 -0.319988506,0 1.11494253,0 C2.55210345,0 2.54987356,2.25941423 1.11494253,2.25941423" id="path-41"></path>
        <path d="M1.84560153,2.4774477 C1.76569732,2.4774477 1.6857931,2.47066946 1.60737548,2.45748954 C1.52040996,2.44317992 1.4330728,2.42849372 1.34610728,2.4141841 C1.30485441,2.40853556 1.26471648,2.40175732 1.22606513,2.39422594 C1.21826054,2.39271967 1.21082759,2.39158996 1.20302299,2.39008368 C1.20748276,2.39083682 1.21157088,2.39121339 1.21603065,2.39196653 C1.04395785,2.3558159 0.893068966,2.29292887 0.739950192,2.17280335 C0.587574713,2.05343096 0.436314176,1.88322176 0.361613027,1.69117155 C0.360869732,1.68966527 0.360498084,1.68853556 0.359754789,1.68702929 C0.211467433,1.37410042 0.171701149,1.0751046 0.30735249,0.749748954 C0.424421456,0.468075314 0.669708812,0.201464435 0.980777778,0.139707113 C1.08409579,0.119372385 1.19670498,0.0941422594 1.30411111,0.0941422594 C1.31414559,0.0941422594 1.32380843,0.0941422594 1.33347126,0.0948953975 C1.38327203,0.0892468619 1.43270115,0.0862343096 1.48213027,0.0862343096 C1.77090038,0.0862343096 2.05446743,0.184895397 2.26296169,0.41874477 C2.3655364,0.533598326 2.48074713,0.638661088 2.59038314,0.746359833 C2.92189272,1.07171548 2.95645594,1.58799163 2.74833333,1.98715481 C2.56622605,2.33698745 2.20684291,2.4774477 1.84560153,2.4774477" id="path-43"></path>
        <path d="M0.115954023,6.49882845 C2.64018391,4.58774059 5.38628736,3.01594142 8.3646705,1.94008368 C11.6065517,0.768577406 14.9926322,0.239497908 18.4039847,0.239497908 C19.0867011,0.239497908 19.7709042,0.260962343 20.4547356,0.302384937 C15.5724023,1.45882845 10.8729195,3.31041841 6.57444444,5.85301255 C6.2604023,5.84209205 5.94933333,5.83644351 5.6416092,5.83644351 C3.70458238,5.83644351 1.8875977,6.05523013 0.115954023,6.49882845" id="path-45"></path>
        <path d="M3.79154789,6.18401674 C2.55990805,6.0032636 1.38698851,5.8925523 0.256436782,5.85301255 C4.55491188,3.31041841 9.25439464,1.45882845 14.136728,0.302384937 C14.7295057,0.338158996 15.3215402,0.389372385 15.9139464,0.455271967 C11.9157625,1.75330544 8.06995402,3.48778243 4.4987931,5.73025105 C4.26168199,5.87899582 4.02568582,6.03037657 3.79154789,6.18401674" id="path-47"></path>
        <path d="M0.302404539,3.33979079 C0.30003829,3.33979079 0.29767204,3.33941423 0.295305791,3.33941423 C0.18803581,2.93686192 0.164373315,2.55539749 0.230628303,2.20405858 C0.164373315,2.55502092 0.195923309,2.93799163 0.302404539,3.33979079 M0.237727051,2.16866109 C0.385223274,1.44338912 0.716498214,0.733179916 1.18817063,0.113723849 C1.18974813,0.114476987 1.19211438,0.115230126 1.19369188,0.115983264 C0.721230713,0.735062762 0.386012024,1.44263598 0.237727051,2.16866109" id="path-49"></path>
        <polygon id="path-51" points="0.335597701 0 16.8362668 0 16.8362668 11.5190966 0.335597701 11.5190966"></polygon>
    </defs>
    <g id="Page-1" stroke="none" stroke-width="1" fill="none" fill-rule="evenodd">
        <g id="Assured-reward" transform="translate(-37.000000, -110.000000)">
            <g id="Group-2" transform="translate(37.000000, 110.000000)">
                <g id="Group-18-Copy" transform="translate(50.500000, 49.500000) scale(-1, 1) rotate(90.000000) translate(-50.500000, -49.500000) translate(1.000000, -1.000000)">
                    <g id="Group-16" transform="translate(0.500000, 0.500000)">
                        <polyline id="Fill-4" fill="#FFD63C" points="21.4024368 12.9773222 21.6016398 8.2434728 23.7601686 8.27096234 25.2322644 13.1524268 21.4024368 12.9773222"></polyline>
                        <polyline id="Fill-5" fill="#FFD63C" points="24.9591034 24.3884937 24.1399923 21.2268201 25.5682337 20.7997908 27.5190115 23.7140586 24.9591034 24.3884937"></polyline>
                        <g id="Group-8" transform="translate(46.084291, 15.439331)">
                            <mask id="mask-2" fill="white">
                                <use xlink:href="#path-1"></use>
                            </mask>
                            <g id="Clip-7"></g>
                            <polyline id="Fill-6" mask="url(#mask-2)" points="2.01693103 4.55083682 0.150517241 1.26301255 1.62186973 0.344560669 4.68090038 3.00690377 2.01693103 4.55083682"></polyline>
                        </g>
                        <g id="Group-11" transform="translate(40.137931, 27.489540)">
                            <mask id="mask-4" fill="white">
                                <use xlink:href="#path-3"></use>
                            </mask>
                            <g id="Clip-10"></g>
                            <polyline id="Fill-9" mask="url(#mask-4)" points="2.06933333 3.5209205 0.192885057 2.56707113 1.3353295 0.244769874 2.40864751 0.746736402 2.06933333 3.5209205"></polyline>
                        </g>
                        <g id="Group-14" transform="translate(52.030651, 40.669456)">
                            <mask id="mask-6" fill="white">
                                <use xlink:href="#path-5"></use>
                            </mask>
                            <g id="Clip-13"></g>
                            <polyline id="Fill-12" mask="url(#mask-6)" points="0.955877395 4.61974895 0.0319616858 0.637154812 1.83259387 0.150251046 4.17991954 3.86020921 0.955877395 4.61974895"></polyline>
                        </g>
                        <g id="Group-17" transform="translate(32.704981, 38.033473)">
                            <mask id="mask-8" fill="white">
                                <use xlink:href="#path-7"></use>
                            </mask>
                            <g id="Clip-16"></g>
                            <polyline id="Fill-15" mask="url(#mask-8)" points="4.08440613 5.94188285 0.161295019 1.73711297 1.77721839 0.286945607 7.03528736 3.46179916 4.08440613 5.94188285"></polyline>
                        </g>
                        <g id="Group-20" transform="translate(23.413793, 66.276151)">
                            <mask id="mask-10" fill="white">
                                <use xlink:href="#path-9"></use>
                            </mask>
                            <g id="Clip-19"></g>
                            <polyline id="Fill-18" mask="url(#mask-10)" points="3.77259387 5.81535565 0.18508046 4.44615063 1.82293103 0.00790794979 3.86662069 0.71209205 3.77259387 5.81535565"></polyline>
                        </g>
                        <polyline id="Fill-21" fill="#FFD63C" points="12.2138238 77.0094979 11.1237816 74.064728 12.4494483 73.5145607 14.5983142 76.110251 12.2138238 77.0094979"></polyline>
                        <polyline id="Fill-67" fill="#FFD63C" points="86.6429272 12.8361088 88.0488697 10.4686192 89.1463448 11.0929707 88.5557969 14.0083682 86.6429272 12.8361088"></polyline>
                        <g id="Group-70" transform="translate(65.409962, 6.401674)">
                            <mask id="mask-12" fill="white">
                                <use xlink:href="#path-11"></use>
                            </mask>
                            <g id="Clip-69"></g>
                            <polyline id="Fill-68" mask="url(#mask-12)" points="1.05956705 4.46987448 0.296203065 1.18054393 4.25387739 0.227447699 4.74259387 2.06435146 1.05956705 4.46987448"></polyline>
                        </g>
                        <polyline id="Fill-74" fill="#6AD1CA" points="12.1079042 87.6170711 14.9093831 86.0437657 15.6645709 87.3316318 13.3755939 89.9472803 12.1079042 87.6170711"></polyline>
                        <polyline id="Fill-77" fill="#F27156" points="9.05556322 37.8711715 12.7987969 35.0310879 14.1437893 36.741841 11.3460268 40.9865272 9.05556322 37.8711715"></polyline>
                        <polyline id="Fill-78" fill="#47C6BE" points="7.49018391 12.6802092 10.0642146 8.7239749 11.9012682 9.87251046 10.6859808 14.8258996 7.49018391 12.6802092"></polyline>
                        <g id="Group-81" transform="translate(59.463602, 21.841004)">
                            <mask id="mask-14" fill="white">
                                <use xlink:href="#path-13"></use>
                            </mask>
                            <g id="Clip-80"></g>
                            <polyline id="Fill-79" mask="url(#mask-14)" points="3.76367433 6.04694561 0.136766284 4.78882845 1.64082375 0.302008368 3.70458238 0.94292887 3.76367433 6.04694561"></polyline>
                        </g>
                        <polyline id="Fill-121" fill="#47C6BE" points="77.4918506 19.8941423 79.8165057 18.4733473 80.4958774 19.5405439 78.6365249 21.8282008 77.4918506 19.8941423"></polyline>
                        <g id="Group-124" transform="translate(73.214559, 30.878661)">
                            <mask id="mask-16" fill="white">
                                <use xlink:href="#path-15"></use>
                            </mask>
                            <g id="Clip-123"></g>
                            <path d="M1.11494253,2.25941423 C-0.322218391,2.25941423 -0.319988506,0 1.11494253,0 C2.55210345,0 2.54987356,2.25941423 1.11494253,2.25941423" id="Fill-122" mask="url(#mask-16)"></path>
                        </g>
                        <path d="M38.2796935,57.0208368 C39.9164291,57.0208368 39.9190307,54.4435983 38.2796935,54.4435983 C36.6429579,54.4435983 36.6403563,57.0208368 38.2796935,57.0208368" id="Fill-130" fill="#F0478F"></path>
                        <path d="M24.5287356,85.9164854 C25.5600575,85.9164854 25.5615441,84.2927197 24.5287356,84.2927197 C23.4974138,84.2927197 23.4959272,85.9164854 24.5287356,85.9164854" id="Fill-131" fill="#F0478F"></path>
                        <path d="M55.3754789,15.6392887 C55.8675402,15.6392887 56.3387893,15.2009623 56.3161188,14.6861925 C56.2934483,14.1699163 55.9028467,13.7330962 55.3754789,13.7330962 C54.8834176,13.7330962 54.4121686,14.1714226 54.4348391,14.6861925 C54.4575096,15.2024686 54.8481111,15.6392887 55.3754789,15.6392887" id="Fill-154" fill="#F0478F"></path>
                        <path d="M31.0440881,29.6743933 C30.9675287,29.4770711 30.9080651,29.2820084 30.7545747,29.1268619 C30.5858467,28.955523 30.3427893,28.8451883 30.1034483,28.8451883 C29.8641073,28.8451883 29.6210498,28.955523 29.4523218,29.1268619 C29.2988314,29.2820084 29.2393678,29.4770711 29.1628084,29.6743933 C29.0431379,29.9828033 29.1802759,30.4192469 29.4136705,30.6361506 C29.6043257,30.8138912 29.8392069,30.9257322 30.1034483,30.9257322 C30.353567,30.9257322 30.6163218,30.8153975 30.7932261,30.6361506 C31.0195594,30.4071967 31.1678467,29.9929707 31.0440881,29.6743933" id="Fill-155" fill="#F0478F"></path>
                        <g id="Group-163" transform="translate(52.402299, 29.748954)">
                            <mask id="mask-18" fill="white">
                                <use xlink:href="#path-17"></use>
                            </mask>
                            <g id="Clip-162"></g>
                            <path d="M1.84560153,2.4774477 C1.76569732,2.4774477 1.6857931,2.47066946 1.60737548,2.45748954 C1.52040996,2.44317992 1.4330728,2.42849372 1.34610728,2.4141841 C1.30485441,2.40853556 1.26471648,2.40175732 1.22606513,2.39422594 C1.21826054,2.39271967 1.21082759,2.39158996 1.20302299,2.39008368 C1.20748276,2.39083682 1.21157088,2.39121339 1.21603065,2.39196653 C1.04395785,2.3558159 0.893068966,2.29292887 0.739950192,2.17280335 C0.587574713,2.05343096 0.436314176,1.88322176 0.361613027,1.69117155 C0.360869732,1.68966527 0.360498084,1.68853556 0.359754789,1.68702929 C0.211467433,1.37410042 0.171701149,1.0751046 0.30735249,0.749748954 C0.424421456,0.468075314 0.669708812,0.201464435 0.980777778,0.139707113 C1.08409579,0.119372385 1.19670498,0.0941422594 1.30411111,0.0941422594 C1.31414559,0.0941422594 1.32380843,0.0941422594 1.33347126,0.0948953975 C1.38327203,0.0892468619 1.43270115,0.0862343096 1.48213027,0.0862343096 C1.77090038,0.0862343096 2.05446743,0.184895397 2.26296169,0.41874477 C2.3655364,0.533598326 2.48074713,0.638661088 2.59038314,0.746359833 C2.92189272,1.07171548 2.95645594,1.58799163 2.74833333,1.98715481 C2.56622605,2.33698745 2.20684291,2.4774477 1.84560153,2.4774477" id="Fill-161" mask="url(#mask-18)"></path>
                        </g>
                        <g id="Group-213" transform="translate(70.241379, 44.058577)">
                            <mask id="mask-20" fill="white">
                                <use xlink:href="#path-19"></use>
                            </mask>
                            <g id="Clip-212"></g>
                            <path d="M0.115954023,6.49882845 C2.64018391,4.58774059 5.38628736,3.01594142 8.3646705,1.94008368 C11.6065517,0.768577406 14.9926322,0.239497908 18.4039847,0.239497908 C19.0867011,0.239497908 19.7709042,0.260962343 20.4547356,0.302384937 C15.5724023,1.45882845 10.8729195,3.31041841 6.57444444,5.85301255 C6.2604023,5.84209205 5.94933333,5.83644351 5.6416092,5.83644351 C3.70458238,5.83644351 1.8875977,6.05523013 0.115954023,6.49882845" id="Fill-211" mask="url(#mask-20)"></path>
                        </g>
                        <g id="Group-219" transform="translate(76.559387, 44.058577)">
                            <mask id="mask-22" fill="white">
                                <use xlink:href="#path-21"></use>
                            </mask>
                            <g id="Clip-218"></g>
                            <path d="M3.79154789,6.18401674 C2.55990805,6.0032636 1.38698851,5.8925523 0.256436782,5.85301255 C4.55491188,3.31041841 9.25439464,1.45882845 14.136728,0.302384937 C14.7295057,0.338158996 15.3215402,0.389372385 15.9139464,0.455271967 C11.9157625,1.75330544 8.06995402,3.48778243 4.4987931,5.73025105 C4.26168199,5.87899582 4.02568582,6.03037657 3.79154789,6.18401674" id="Fill-217" mask="url(#mask-22)"></path>
                        </g>
                        <path d="M43.7585211,6.35083682 C43.7585211,6.35083682 42.4391724,2.84271967 40.6370536,2.92707113 C38.8349349,3.01142259 37.6516092,5.10552301 37.0948812,7.39807531 C36.5385249,9.69100418 35.869931,12.6805858 38.5903908,17.1350209 C41.3108506,21.5898326 46.6268966,25.7091213 48.3479962,28.4727615 C50.0690958,31.2367782 50.9874368,33.7247699 50.9874368,33.7247699 C50.9874368,33.7247699 52.6423831,31.0409623 50.5533525,27.9305021 C48.4639502,24.8196653 43.3816705,19.8327615 41.3342644,17.6351046 C39.2868582,15.4378243 37.9225402,12.2083682 38.121,10.0950628 C38.3190881,7.98138075 39.2511801,5.98895397 40.4270728,5.9923431 C41.6033372,5.99535565 41.6642874,7.96104603 41.6642874,7.96104603 L43.7585211,6.35083682" id="Fill-245" fill="#FFDE63"></path>
                        <g id="Group-248" transform="translate(37.908046, 7.907950)">
                            <mask id="mask-24" fill="white">
                                <use xlink:href="#path-23"></use>
                            </mask>
                            <g id="Clip-247"></g>
                            <path d="M0.302404539,3.33979079 C0.30003829,3.33979079 0.29767204,3.33941423 0.295305791,3.33941423 C0.18803581,2.93686192 0.164373315,2.55539749 0.230628303,2.20405858 C0.164373315,2.55502092 0.195923309,2.93799163 0.302404539,3.33979079 M0.237727051,2.16866109 C0.385223274,1.44338912 0.716498214,0.733179916 1.18817063,0.113723849 C1.18974813,0.114476987 1.19211438,0.115230126 1.19369188,0.115983264 C0.721230713,0.735062762 0.386012024,1.44263598 0.237727051,2.16866109" id="Fill-246" mask="url(#mask-24)"></path>
                        </g>
                        <g id="Group-252" transform="translate(27.501916, 0.000000)">
                            <mask id="mask-26" fill="white">
                                <use xlink:href="#path-25"></use>
                            </mask>
                            <g id="Clip-250"></g>
                            <path d="M10.6477011,11.247364 C10.4890077,11.2206276 10.327341,11.2127197 10.1645594,11.2127197 C10.0486054,11.2127197 9.93227969,11.2168619 9.81595402,11.2206276 C9.6992567,11.2247699 9.58255939,11.2285356 9.46660536,11.2285356 C9.34433333,11.2285356 9.22317625,11.2243933 9.10350575,11.2108368 C9.04478544,9.73016736 9.32946743,8.48447699 9.59296552,7.39807531 C9.65837548,7.12845188 9.73567816,6.86334728 9.81855556,6.60200837 C10.1303678,7.13523013 10.5778314,7.61309623 11.0684061,8.02167364 C10.8461609,8.64112971 10.690069,9.35133891 10.6205709,10.0766109 C10.6205709,10.077364 10.6205709,10.0781172 10.6205709,10.0788703 C10.6198276,10.0841423 10.6194559,10.0894142 10.6190843,10.0950628 C10.6187126,10.0980753 10.618341,10.1014644 10.6179693,10.1048536 C10.6179693,10.107113 10.6175977,10.1089958 10.6175977,10.1112552 C10.6175977,10.1116318 10.6172261,10.1116318 10.6172261,10.1120084 C10.5860077,10.4633473 10.5971571,10.8448117 10.6477011,11.247364" id="Fill-249" fill="#FFCA38" mask="url(#mask-26)"></path>
                            <path d="M0.335597701,-2.26732218 C0.335597701,-2.26732218 2.40790421,7.10359833 8.15171648,10.0220084 C13.8959004,12.9404184 15.7132567,10.8429289 16.3796207,9.97983264 C17.5882184,8.41443515 16.0154061,5.89782427 16.0154061,5.89782427 L13.941613,6.79594142 C13.941613,6.79594142 14.8811379,9.54188285 10.9256935,8.3809205 C7.9242682,7.50012552 5.41044444,4.03794979 4.15762069,1.28786611 C2.90479693,-1.46221757 2.87209195,-2.03987448 2.87209195,-2.03987448 L0.335597701,-2.26732218" id="Fill-251" fill="#FFDE63" mask="url(#mask-26)"></path>
                        </g>
                        <path d="M26.7586207,46.0668201 C26.7586207,46.0668201 26.1390843,51.4016736 23.2900345,54.2259414 C20.440613,57.0502092 17.0957854,57.6150628 13.8747165,55.2927615 C10.6540192,52.9708368 10.9636015,49.6442259 10.9636015,49.6442259 L11.6448314,47.8242678 C11.6448314,47.8242678 12.5739502,52.4059833 16.9720268,51.4645607 C21.3697318,50.5231381 23.7233755,47.1340167 24.5287356,45.8160251 C25.3340958,44.4980335 25.7674368,43.0542678 25.7674368,43.0542678 L26.7586207,46.0668201" id="Fill-253" fill="#F36CA5"></path>
                        <path d="M17.9672989,56.7376569 C16.6119004,56.7376569 15.2323448,56.271841 13.8747165,55.2927615 C11.1728391,53.3447699 10.9554253,50.6903347 10.9554253,49.8852301 C10.9554253,49.7308368 10.9636015,49.6442259 10.9636015,49.6442259 L11.6448314,47.8242678 C11.6448314,47.8242678 12.4093103,51.591841 15.831069,51.591841 C16.1826475,51.591841 16.5620996,51.5523013 16.9720268,51.4645607 C21.3697318,50.5231381 23.7233755,47.1340167 24.5287356,45.8160251 C25.3340958,44.4980335 25.7674368,43.0542678 25.7674368,43.0542678 L26.7586207,46.0668201 C26.7586207,46.0668201 26.1390843,51.4016736 23.2900345,54.2259414 C21.6414061,55.8598745 19.8273946,56.7376569 17.9672989,56.7376569" id="Fill-254" fill="#EB417D"></path>
                        <path d="M1.11494253,12.4267782 C1.11494253,12.4267782 5.11015326,15.8158996 10.9636015,18.1694561 C16.8170498,20.5230126 22.4880192,24.9642678 24.9468391,29.1370293 C26.8050766,32.290795 27.5019157,34.9738494 27.5948276,38.2688285 C27.6877395,41.5638075 26.6657088,46.8828452 26.6657088,46.8828452 L25.0862069,45.9414226 C25.0862069,45.9414226 27.5019157,41.0460251 25.9224138,35.5857741 C24.3429119,30.125523 17.467433,26.4539749 14.9588123,25.1359833 C12.4501916,23.8179916 7.8045977,21.8410042 4.27394636,19.4874477 C0.743295019,17.1338912 0.185823755,15.9100418 0.185823755,15.9100418 L1.11494253,12.4267782" id="Fill-256" fill="#F36CA5"></path>
                        <path d="M13.0076628,54.5712552 C13.0076628,54.5712552 10.0965479,49.2676569 14.3704943,46.7574477 C18.6444406,44.2468619 24.1570881,46.2551046 27.5019157,47.8242678 C30.8467433,49.393431 34.8111073,52.7825523 34.8111073,52.7825523 C34.8111073,52.7825523 33.200387,45.2511715 27.5639808,42.6151883 C21.9272031,39.979205 16.7241379,39.3514644 12.5122567,42.7405858 C8.30000383,46.1297071 10.6540192,51.2133891 11.2114904,52.2802092 C11.7689617,53.3474059 13.0076628,54.5712552 13.0076628,54.5712552" id="Fill-257" fill="#F57EB1"></path>
                    </g>
                    <polyline id="Fill-22" fill="#47C6BE" points="25.4987692 101 22 99.4205275 22.7925038 98 27 98.5177752 25.4987692 101"></polyline>
                </g>
                <g id="Group-18-Copy-2" transform="translate(254.500000, 49.500000) rotate(90.000000) translate(-254.500000, -49.500000) translate(205.000000, -1.000000)">
                    <g id="Group-16" transform="translate(0.500000, 0.500000)">
                        <polyline id="Fill-4" fill="#FFD63C" points="21.4024368 12.9773222 21.6016398 8.2434728 23.7601686 8.27096234 25.2322644 13.1524268 21.4024368 12.9773222"></polyline>
                        <polyline id="Fill-5" fill="#FFD63C" points="24.9591034 24.3884937 24.1399923 21.2268201 25.5682337 20.7997908 27.5190115 23.7140586 24.9591034 24.3884937"></polyline>
                        <g id="Group-8" transform="translate(46.084291, 15.439331)">
                            <mask id="mask-28" fill="white">
                                <use xlink:href="#path-27"></use>
                            </mask>
                            <g id="Clip-7"></g>
                            <polyline id="Fill-6" mask="url(#mask-28)" points="2.01693103 4.55083682 0.150517241 1.26301255 1.62186973 0.344560669 4.68090038 3.00690377 2.01693103 4.55083682"></polyline>
                        </g>
                        <g id="Group-11" transform="translate(40.137931, 27.489540)">
                            <mask id="mask-30" fill="white">
                                <use xlink:href="#path-29"></use>
                            </mask>
                            <g id="Clip-10"></g>
                            <polyline id="Fill-9" mask="url(#mask-30)" points="2.06933333 3.5209205 0.192885057 2.56707113 1.3353295 0.244769874 2.40864751 0.746736402 2.06933333 3.5209205"></polyline>
                        </g>
                        <g id="Group-14" transform="translate(52.030651, 40.669456)">
                            <mask id="mask-32" fill="white">
                                <use xlink:href="#path-31"></use>
                            </mask>
                            <g id="Clip-13"></g>
                            <polyline id="Fill-12" mask="url(#mask-32)" points="0.955877395 4.61974895 0.0319616858 0.637154812 1.83259387 0.150251046 4.17991954 3.86020921 0.955877395 4.61974895"></polyline>
                        </g>
                        <g id="Group-17" transform="translate(32.704981, 38.033473)">
                            <mask id="mask-34" fill="white">
                                <use xlink:href="#path-33"></use>
                            </mask>
                            <g id="Clip-16"></g>
                            <polyline id="Fill-15" mask="url(#mask-34)" points="4.08440613 5.94188285 0.161295019 1.73711297 1.77721839 0.286945607 7.03528736 3.46179916 4.08440613 5.94188285"></polyline>
                        </g>
                        <g id="Group-20" transform="translate(23.413793, 66.276151)">
                            <mask id="mask-36" fill="white">
                                <use xlink:href="#path-35"></use>
                            </mask>
                            <g id="Clip-19"></g>
                            <polyline id="Fill-18" mask="url(#mask-36)" points="3.77259387 5.81535565 0.18508046 4.44615063 1.82293103 0.00790794979 3.86662069 0.71209205 3.77259387 5.81535565"></polyline>
                        </g>
                        <polyline id="Fill-21" fill="#FFD63C" points="12.2138238 77.0094979 11.1237816 74.064728 12.4494483 73.5145607 14.5983142 76.110251 12.2138238 77.0094979"></polyline>
                        <polyline id="Fill-67" fill="#FFD63C" points="86.6429272 12.8361088 88.0488697 10.4686192 89.1463448 11.0929707 88.5557969 14.0083682 86.6429272 12.8361088"></polyline>
                        <g id="Group-70" transform="translate(65.409962, 6.401674)">
                            <mask id="mask-38" fill="white">
                                <use xlink:href="#path-37"></use>
                            </mask>
                            <g id="Clip-69"></g>
                            <polyline id="Fill-68" mask="url(#mask-38)" points="1.05956705 4.46987448 0.296203065 1.18054393 4.25387739 0.227447699 4.74259387 2.06435146 1.05956705 4.46987448"></polyline>
                        </g>
                        <polyline id="Fill-74" fill="#6AD1CA" points="12.1079042 87.6170711 14.9093831 86.0437657 15.6645709 87.3316318 13.3755939 89.9472803 12.1079042 87.6170711"></polyline>
                        <polyline id="Fill-77" fill="#F27156" points="9.05556322 37.8711715 12.7987969 35.0310879 14.1437893 36.741841 11.3460268 40.9865272 9.05556322 37.8711715"></polyline>
                        <polyline id="Fill-78" fill="#47C6BE" points="7.49018391 12.6802092 10.0642146 8.7239749 11.9012682 9.87251046 10.6859808 14.8258996 7.49018391 12.6802092"></polyline>
                        <g id="Group-81" transform="translate(59.463602, 21.841004)">
                            <mask id="mask-40" fill="white">
                                <use xlink:href="#path-39"></use>
                            </mask>
                            <g id="Clip-80"></g>
                            <polyline id="Fill-79" mask="url(#mask-40)" points="3.76367433 6.04694561 0.136766284 4.78882845 1.64082375 0.302008368 3.70458238 0.94292887 3.76367433 6.04694561"></polyline>
                        </g>
                        <polyline id="Fill-121" fill="#47C6BE" points="77.4918506 19.8941423 79.8165057 18.4733473 80.4958774 19.5405439 78.6365249 21.8282008 77.4918506 19.8941423"></polyline>
                        <g id="Group-124" transform="translate(73.214559, 30.878661)">
                            <mask id="mask-42" fill="white">
                                <use xlink:href="#path-41"></use>
                            </mask>
                            <g id="Clip-123"></g>
                            <path d="M1.11494253,2.25941423 C-0.322218391,2.25941423 -0.319988506,0 1.11494253,0 C2.55210345,0 2.54987356,2.25941423 1.11494253,2.25941423" id="Fill-122" mask="url(#mask-42)"></path>
                        </g>
                        <path d="M38.2796935,57.0208368 C39.9164291,57.0208368 39.9190307,54.4435983 38.2796935,54.4435983 C36.6429579,54.4435983 36.6403563,57.0208368 38.2796935,57.0208368" id="Fill-130" fill="#F0478F"></path>
                        <path d="M24.5287356,85.9164854 C25.5600575,85.9164854 25.5615441,84.2927197 24.5287356,84.2927197 C23.4974138,84.2927197 23.4959272,85.9164854 24.5287356,85.9164854" id="Fill-131" fill="#F0478F"></path>
                        <path d="M55.3754789,15.6392887 C55.8675402,15.6392887 56.3387893,15.2009623 56.3161188,14.6861925 C56.2934483,14.1699163 55.9028467,13.7330962 55.3754789,13.7330962 C54.8834176,13.7330962 54.4121686,14.1714226 54.4348391,14.6861925 C54.4575096,15.2024686 54.8481111,15.6392887 55.3754789,15.6392887" id="Fill-154" fill="#F0478F"></path>
                        <path d="M31.0440881,29.6743933 C30.9675287,29.4770711 30.9080651,29.2820084 30.7545747,29.1268619 C30.5858467,28.955523 30.3427893,28.8451883 30.1034483,28.8451883 C29.8641073,28.8451883 29.6210498,28.955523 29.4523218,29.1268619 C29.2988314,29.2820084 29.2393678,29.4770711 29.1628084,29.6743933 C29.0431379,29.9828033 29.1802759,30.4192469 29.4136705,30.6361506 C29.6043257,30.8138912 29.8392069,30.9257322 30.1034483,30.9257322 C30.353567,30.9257322 30.6163218,30.8153975 30.7932261,30.6361506 C31.0195594,30.4071967 31.1678467,29.9929707 31.0440881,29.6743933" id="Fill-155" fill="#F0478F"></path>
                        <g id="Group-163" transform="translate(52.402299, 29.748954)">
                            <mask id="mask-44" fill="white">
                                <use xlink:href="#path-43"></use>
                            </mask>
                            <g id="Clip-162"></g>
                            <path d="M1.84560153,2.4774477 C1.76569732,2.4774477 1.6857931,2.47066946 1.60737548,2.45748954 C1.52040996,2.44317992 1.4330728,2.42849372 1.34610728,2.4141841 C1.30485441,2.40853556 1.26471648,2.40175732 1.22606513,2.39422594 C1.21826054,2.39271967 1.21082759,2.39158996 1.20302299,2.39008368 C1.20748276,2.39083682 1.21157088,2.39121339 1.21603065,2.39196653 C1.04395785,2.3558159 0.893068966,2.29292887 0.739950192,2.17280335 C0.587574713,2.05343096 0.436314176,1.88322176 0.361613027,1.69117155 C0.360869732,1.68966527 0.360498084,1.68853556 0.359754789,1.68702929 C0.211467433,1.37410042 0.171701149,1.0751046 0.30735249,0.749748954 C0.424421456,0.468075314 0.669708812,0.201464435 0.980777778,0.139707113 C1.08409579,0.119372385 1.19670498,0.0941422594 1.30411111,0.0941422594 C1.31414559,0.0941422594 1.32380843,0.0941422594 1.33347126,0.0948953975 C1.38327203,0.0892468619 1.43270115,0.0862343096 1.48213027,0.0862343096 C1.77090038,0.0862343096 2.05446743,0.184895397 2.26296169,0.41874477 C2.3655364,0.533598326 2.48074713,0.638661088 2.59038314,0.746359833 C2.92189272,1.07171548 2.95645594,1.58799163 2.74833333,1.98715481 C2.56622605,2.33698745 2.20684291,2.4774477 1.84560153,2.4774477" id="Fill-161" mask="url(#mask-44)"></path>
                        </g>
                        <g id="Group-213" transform="translate(70.241379, 44.058577)">
                            <mask id="mask-46" fill="white">
                                <use xlink:href="#path-45"></use>
                            </mask>
                            <g id="Clip-212"></g>
                            <path d="M0.115954023,6.49882845 C2.64018391,4.58774059 5.38628736,3.01594142 8.3646705,1.94008368 C11.6065517,0.768577406 14.9926322,0.239497908 18.4039847,0.239497908 C19.0867011,0.239497908 19.7709042,0.260962343 20.4547356,0.302384937 C15.5724023,1.45882845 10.8729195,3.31041841 6.57444444,5.85301255 C6.2604023,5.84209205 5.94933333,5.83644351 5.6416092,5.83644351 C3.70458238,5.83644351 1.8875977,6.05523013 0.115954023,6.49882845" id="Fill-211" mask="url(#mask-46)"></path>
                        </g>
                        <g id="Group-219" transform="translate(76.559387, 44.058577)">
                            <mask id="mask-48" fill="white">
                                <use xlink:href="#path-47"></use>
                            </mask>
                            <g id="Clip-218"></g>
                            <path d="M3.79154789,6.18401674 C2.55990805,6.0032636 1.38698851,5.8925523 0.256436782,5.85301255 C4.55491188,3.31041841 9.25439464,1.45882845 14.136728,0.302384937 C14.7295057,0.338158996 15.3215402,0.389372385 15.9139464,0.455271967 C11.9157625,1.75330544 8.06995402,3.48778243 4.4987931,5.73025105 C4.26168199,5.87899582 4.02568582,6.03037657 3.79154789,6.18401674" id="Fill-217" mask="url(#mask-48)"></path>
                        </g>
                        <path d="M43.7585211,6.35083682 C43.7585211,6.35083682 42.4391724,2.84271967 40.6370536,2.92707113 C38.8349349,3.01142259 37.6516092,5.10552301 37.0948812,7.39807531 C36.5385249,9.69100418 35.869931,12.6805858 38.5903908,17.1350209 C41.3108506,21.5898326 46.6268966,25.7091213 48.3479962,28.4727615 C50.0690958,31.2367782 50.9874368,33.7247699 50.9874368,33.7247699 C50.9874368,33.7247699 52.6423831,31.0409623 50.5533525,27.9305021 C48.4639502,24.8196653 43.3816705,19.8327615 41.3342644,17.6351046 C39.2868582,15.4378243 37.9225402,12.2083682 38.121,10.0950628 C38.3190881,7.98138075 39.2511801,5.98895397 40.4270728,5.9923431 C41.6033372,5.99535565 41.6642874,7.96104603 41.6642874,7.96104603 L43.7585211,6.35083682" id="Fill-245" fill="#FFDE63"></path>
                        <g id="Group-248" transform="translate(37.908046, 7.907950)">
                            <mask id="mask-50" fill="white">
                                <use xlink:href="#path-49"></use>
                            </mask>
                            <g id="Clip-247"></g>
                            <path d="M0.302404539,3.33979079 C0.30003829,3.33979079 0.29767204,3.33941423 0.295305791,3.33941423 C0.18803581,2.93686192 0.164373315,2.55539749 0.230628303,2.20405858 C0.164373315,2.55502092 0.195923309,2.93799163 0.302404539,3.33979079 M0.237727051,2.16866109 C0.385223274,1.44338912 0.716498214,0.733179916 1.18817063,0.113723849 C1.18974813,0.114476987 1.19211438,0.115230126 1.19369188,0.115983264 C0.721230713,0.735062762 0.386012024,1.44263598 0.237727051,2.16866109" id="Fill-246" mask="url(#mask-50)"></path>
                        </g>
                        <g id="Group-252" transform="translate(27.501916, 0.000000)">
                            <mask id="mask-52" fill="white">
                                <use xlink:href="#path-51"></use>
                            </mask>
                            <g id="Clip-250"></g>
                            <path d="M10.6477011,11.247364 C10.4890077,11.2206276 10.327341,11.2127197 10.1645594,11.2127197 C10.0486054,11.2127197 9.93227969,11.2168619 9.81595402,11.2206276 C9.6992567,11.2247699 9.58255939,11.2285356 9.46660536,11.2285356 C9.34433333,11.2285356 9.22317625,11.2243933 9.10350575,11.2108368 C9.04478544,9.73016736 9.32946743,8.48447699 9.59296552,7.39807531 C9.65837548,7.12845188 9.73567816,6.86334728 9.81855556,6.60200837 C10.1303678,7.13523013 10.5778314,7.61309623 11.0684061,8.02167364 C10.8461609,8.64112971 10.690069,9.35133891 10.6205709,10.0766109 C10.6205709,10.077364 10.6205709,10.0781172 10.6205709,10.0788703 C10.6198276,10.0841423 10.6194559,10.0894142 10.6190843,10.0950628 C10.6187126,10.0980753 10.618341,10.1014644 10.6179693,10.1048536 C10.6179693,10.107113 10.6175977,10.1089958 10.6175977,10.1112552 C10.6175977,10.1116318 10.6172261,10.1116318 10.6172261,10.1120084 C10.5860077,10.4633473 10.5971571,10.8448117 10.6477011,11.247364" id="Fill-249" fill="#FFCA38" mask="url(#mask-52)"></path>
                            <path d="M0.335597701,-2.26732218 C0.335597701,-2.26732218 2.40790421,7.10359833 8.15171648,10.0220084 C13.8959004,12.9404184 15.7132567,10.8429289 16.3796207,9.97983264 C17.5882184,8.41443515 16.0154061,5.89782427 16.0154061,5.89782427 L13.941613,6.79594142 C13.941613,6.79594142 14.8811379,9.54188285 10.9256935,8.3809205 C7.9242682,7.50012552 5.41044444,4.03794979 4.15762069,1.28786611 C2.90479693,-1.46221757 2.87209195,-2.03987448 2.87209195,-2.03987448 L0.335597701,-2.26732218" id="Fill-251" fill="#FFDE63" mask="url(#mask-52)"></path>
                        </g>
                        <path d="M26.7586207,46.0668201 C26.7586207,46.0668201 26.1390843,51.4016736 23.2900345,54.2259414 C20.440613,57.0502092 17.0957854,57.6150628 13.8747165,55.2927615 C10.6540192,52.9708368 10.9636015,49.6442259 10.9636015,49.6442259 L11.6448314,47.8242678 C11.6448314,47.8242678 12.5739502,52.4059833 16.9720268,51.4645607 C21.3697318,50.5231381 23.7233755,47.1340167 24.5287356,45.8160251 C25.3340958,44.4980335 25.7674368,43.0542678 25.7674368,43.0542678 L26.7586207,46.0668201" id="Fill-253" fill="#F36CA5"></path>
                        <path d="M17.9672989,56.7376569 C16.6119004,56.7376569 15.2323448,56.271841 13.8747165,55.2927615 C11.1728391,53.3447699 10.9554253,50.6903347 10.9554253,49.8852301 C10.9554253,49.7308368 10.9636015,49.6442259 10.9636015,49.6442259 L11.6448314,47.8242678 C11.6448314,47.8242678 12.4093103,51.591841 15.831069,51.591841 C16.1826475,51.591841 16.5620996,51.5523013 16.9720268,51.4645607 C21.3697318,50.5231381 23.7233755,47.1340167 24.5287356,45.8160251 C25.3340958,44.4980335 25.7674368,43.0542678 25.7674368,43.0542678 L26.7586207,46.0668201 C26.7586207,46.0668201 26.1390843,51.4016736 23.2900345,54.2259414 C21.6414061,55.8598745 19.8273946,56.7376569 17.9672989,56.7376569" id="Fill-254" fill="#EB417D"></path>
                        <path d="M1.11494253,12.4267782 C1.11494253,12.4267782 5.11015326,15.8158996 10.9636015,18.1694561 C16.8170498,20.5230126 22.4880192,24.9642678 24.9468391,29.1370293 C26.8050766,32.290795 27.5019157,34.9738494 27.5948276,38.2688285 C27.6877395,41.5638075 26.6657088,46.8828452 26.6657088,46.8828452 L25.0862069,45.9414226 C25.0862069,45.9414226 27.5019157,41.0460251 25.9224138,35.5857741 C24.3429119,30.125523 17.467433,26.4539749 14.9588123,25.1359833 C12.4501916,23.8179916 7.8045977,21.8410042 4.27394636,19.4874477 C0.743295019,17.1338912 0.185823755,15.9100418 0.185823755,15.9100418 L1.11494253,12.4267782" id="Fill-256" fill="#F36CA5"></path>
                        <path d="M13.0076628,54.5712552 C13.0076628,54.5712552 10.0965479,49.2676569 14.3704943,46.7574477 C18.6444406,44.2468619 24.1570881,46.2551046 27.5019157,47.8242678 C30.8467433,49.393431 34.8111073,52.7825523 34.8111073,52.7825523 C34.8111073,52.7825523 33.200387,45.2511715 27.5639808,42.6151883 C21.9272031,39.979205 16.7241379,39.3514644 12.5122567,42.7405858 C8.30000383,46.1297071 10.6540192,51.2133891 11.2114904,52.2802092 C11.7689617,53.3474059 13.0076628,54.5712552 13.0076628,54.5712552" id="Fill-257" fill="#F57EB1"></path>
                    </g>
                    <polyline id="Fill-22" fill="#47C6BE" points="25.4987692 101 22 99.4205275 22.7925038 98 27 98.5177752 25.4987692 101"></polyline>
                </g>
            </g>
        </g>
    </g>
</svg>