<?xml version="1.0" encoding="UTF-8"?>
<svg width="20px" height="20px" viewBox="0 0 20 20" version="1.1" xmlns="http://www.w3.org/2000/svg" xmlns:xlink="http://www.w3.org/1999/xlink">
    <!-- Generator: Sketch 53.2 (72643) - https://sketchapp.com -->
    <title>cheers</title>
    <desc>Created with Sketch.</desc>
    <g id="Page-1" stroke="none" stroke-width="1" fill="none" fill-rule="evenodd">
        <g id="Game-5" transform="translate(-113.000000, -115.000000)" fill-rule="nonzero">
            <g id="Group-4" transform="translate(10.000000, 79.000000)">
                <g id="cheers" transform="translate(103.000000, 36.000000)">
                    <path d="M10.0383028,18.919694 L10.3408801,17.1899792 C10.3408801,17.1899792 7.59312723,9.17065841 7.57509623,9.06334661 C7.53937768,8.85732171 7.53405423,8.64699746 7.55929764,8.4394248 L4.23163333,7.96116505 L4.13804386,8.49720808 L2.80168903,8.26297948 C2.37581394,8.18817076 1.9377465,8.28585201 1.58399542,8.53452647 C1.23007258,8.78337286 0.989659226,9.16291954 0.915474534,9.58941513 L0.0243996156,14.6815661 C-0.129808358,15.569124 0.462982287,16.4140324 1.34907723,16.5693249 L2.68560377,16.8038975 L2.54496194,17.6077041 C2.35177265,17.5696978 2.15325987,17.6391753 2.02584081,17.7894807 C1.89842175,17.939614 1.86201626,18.1471866 1.93087755,18.3318867 C1.99973879,18.5165868 2.1628764,18.6495228 2.35743953,18.6794462 L9.84837621,19.99178 C10.1440847,20.0435442 10.42554,19.8454302 10.4772289,19.5494628 C10.5289177,19.2533236 10.3310919,18.9714581 10.0355552,18.919694 L10.0383028,18.919694 Z M2.87398479,15.7318114 L1.80380191,15.5445317 C1.36058269,15.4669714 1.06401568,15.0440873 1.14163484,14.6002223 L1.93723132,10.0448023 C2.01450702,9.6009374 2.43677591,9.30393824 2.87999509,9.3816705 L3.95017797,9.56895021 L2.87398479,15.7318114 Z" id="Shape" fill="#E2E2E2"></path>
                    <path d="M8.25273812,8.88526734 C8.07094712,8.94820768 7.89261222,9.01701097 7.71099405,9.0685703 C7.62994841,9.09150476 7.57430518,9.11202505 7.55633344,9.00442292 C7.51814347,8.79025327 7.51313214,8.57160022 7.54147218,8.35587863 C7.54147218,8.34467008 7.54752037,8.33397887 7.54924844,8.32311518 L4.54485831,7.96116505 L2.91703393,17.4553288 C2.88644743,17.6479435 3.01812492,17.8288323 3.21114829,17.8593541 L9.34538501,18.8305323 C9.5368531,18.8608816 9.71726167,18.7317245 9.74974903,18.5410067 L10.0970874,16.4456966 L8.30509809,9.1075416 C8.28194222,9.03494466 8.26448887,8.96062331 8.25273812,8.88526734 Z" id="Path" fill="#F4C734"></path>
                    <path d="M7.57281553,9.1397752 L10.7241583,18.365957 C10.444673,18.4657374 10.2970237,18.7702132 10.3925918,19.0502146 C10.4883319,19.3302159 10.7918811,19.482026 11.0744603,19.3911453 L18.2817776,16.9498621 C18.5612628,16.8502528 18.7089122,16.5456058 18.6131722,16.2656045 C18.517604,15.9856031 18.2140548,15.8339642 17.9314756,15.9246737 L17.6146912,15.0009773 L18.6977397,14.6340317 C19.5514934,14.3458152 20.008536,13.4228033 19.7187376,12.5730437 L18.0554048,7.70365573 C17.7650907,6.85440957 16.8384578,6.40000638 15.9855635,6.68890754 L14.9023432,7.05756461 L14.779789,6.70003227 L7.57281553,9.1397752 Z M18.0923601,13.6964722 L17.2664518,13.9768158 L15.2526451,8.0812126 L16.0783815,7.80069778 C16.5048286,7.6562472 16.9680592,7.88336323 17.1129584,8.30798631 L18.6016559,12.665807 C18.7468988,13.0904301 18.5188072,13.5516793 18.0923601,13.6959587 L18.0923601,13.6964722 Z" id="Shape" fill="#E2E2E2"></path>
                    <path d="M14.4914961,6.7961165 L7.96116505,9.02547003 L11.0103515,17.8235762 C11.0728605,18.0044129 11.2688809,18.1008819 11.4497835,18.0400348 L17.2383288,16.0929297 C17.4205903,16.0315714 17.5186005,15.8338611 17.4576202,15.6509792 L14.4914961,6.7961165 Z" id="Path" fill="#F4C734"></path>
                    <path d="M7.57249463,8.53940197 C7.67449059,7.68465186 8.39084602,7.05474283 9.21856266,7.09209833 C9.25006395,7.04199594 9.28411935,6.9934869 9.32038835,6.94710239 C9.2776488,6.93258507 9.23422819,6.92054634 9.1902967,6.91080916 C8.79865953,6.86017564 8.40157349,6.88478424 8.01845015,6.98321859 C7.47322311,6.33153361 6.61604856,6.06402584 5.81574647,6.29577146 C5.01527416,6.52751708 4.41453679,7.21708869 4.27184466,8.06812097 L7.5621077,8.73786408 C7.5644916,8.67289031 7.56381049,8.60543796 7.57249463,8.53940197 Z" id="Path" fill="#F9F2CC"></path>
                    <path d="M14.1747573,0.67961165 C14.1747573,1.05492455 13.8704585,1.3592233 13.4951456,1.3592233 C13.1196668,1.3592233 12.815534,1.05492455 12.815534,0.67961165 C12.815534,0.30429875 13.1196668,0 13.4951456,0 C13.8704585,0 14.1747573,0.30429875 14.1747573,0.67961165 Z" id="Path" fill="#F9F2CC"></path>
                    <path d="M11.6504854,3.10679612 C11.6504854,3.85742187 11.0418879,4.46601942 10.2912621,4.46601942 C9.54047047,4.46601942 8.93203883,3.85742187 8.93203883,3.10679612 C8.93203883,2.35617036 9.54047047,1.74757282 10.2912621,1.74757282 C11.0418879,1.74757282 11.6504854,2.35617036 11.6504854,3.10679612 Z" id="Path" fill="#F9F2CC"></path>
                    <path d="M6.40776699,3.59223301 C6.40776699,4.18201038 5.9295832,4.66019417 5.33980583,4.66019417 C4.74985464,4.66019417 4.27184466,4.18201038 4.27184466,3.59223301 C4.27184466,3.00245564 4.74985464,2.52427184 5.33980583,2.52427184 C5.9295832,2.52427184 6.40776699,3.00245564 6.40776699,3.59223301 Z" id="Path" fill="#F9F2CC"></path>
                    <path d="M4.0776699,0.67961165 C4.0776699,1.05492455 3.77337115,1.3592233 3.39805825,1.3592233 C3.02257944,1.3592233 2.7184466,1.05492455 2.7184466,0.67961165 C2.7184466,0.30429875 3.02257944,0 3.39805825,0 C3.77337115,0 4.0776699,0.30429875 4.0776699,0.67961165 Z" id="Path" fill="#F9F2CC"></path>
                    <g id="Group" transform="translate(4.271845, 9.514563)" fill="#E0B730">
                        <path d="M7.99347247,0.845864535 C7.96239934,0.756246612 7.89547264,0.683061456 7.80839966,0.643927716 C7.72627788,0.718298753 7.62964389,0.775051142 7.52447336,0.810796637 C7.46352227,0.83044825 7.40052236,0.843153974 7.33666885,0.848236298 C7.31020547,0.919388533 7.30832746,0.997147772 7.33154693,1.06931645 L9.36786006,7.00849512 C9.430177,7.18959454 9.62856689,7.2864971 9.81124944,7.22500123 C9.99393204,7.16316656 10.0914197,6.96631202 10.0294442,6.78504326 L7.99347247,0.845864535 Z" id="Path"></path>
                        <path d="M5.76030603,1.23347481 C5.94298858,1.17180954 6.14154919,1.2687121 6.20386613,1.45015031 L8.24000859,7.38915959 C8.30232553,7.5705978 8.20449646,7.76762174 8.02181386,7.82928701 C7.83913131,7.89095228 7.6405707,7.79388031 7.57825376,7.6124421 L5.5421113,1.67360222 C5.47979436,1.49216401 5.57762343,1.29514008 5.76030603,1.23347481 L5.76030603,1.23347481 Z" id="Path"></path>
                        <path d="M9.33951867,0.0249032931 C9.52220123,-0.0367619772 9.72076183,0.0601405904 9.78290805,0.241578757 L11.8190505,6.18058808 C11.8811967,6.36202625 11.7835383,6.55905018 11.6006851,6.62071545 C11.4180025,6.68255017 11.2194419,6.58547816 11.1572957,6.40403995 L9.12115323,0.465030668 C9.059007,0.283592458 9.15683607,0.0865685634 9.33951867,0.0249032931 L9.33951867,0.0249032931 Z" id="Path"></path>
                        <path d="M1.91014268,7.80641664 L2.99940888,1.62701444 C3.03270151,1.43829159 3.21401821,1.31191168 3.40421299,1.34494666 L3.40455443,1.34511606 C3.59474921,1.37815104 3.72194408,1.55789513 3.68865145,1.74661798 L2.59938524,7.92602014 C2.56609266,8.11474299 2.38494663,8.24095349 2.19458118,8.20791851 L2.19423969,8.20791851 C2.00404491,8.17488358 1.87685005,7.99513945 1.91014268,7.80641664 Z" id="Path"></path>
                        <path d="M3.76838301,8.1320228 L4.33282093,4.73552005 C4.3642355,4.54645839 4.54401568,4.41838437 4.73438114,4.44955583 C4.9249174,4.48072728 5.05381956,4.65928553 5.02240498,4.84834718 L4.45813779,8.24484993 C4.42672321,8.43391159 4.24677232,8.56198561 4.05640686,8.53081415 C3.86604136,8.4996427 3.73696844,8.32108449 3.76838301,8.1320228 Z" id="Path"></path>
                        <path d="M0.0479755068,7.48284336 L1.13690027,1.30378 C1.1701929,1.11505719 1.35133888,0.988677246 1.54153362,1.02171222 L1.5418751,1.02171222 C1.73224056,1.05474716 1.85943547,1.23449129 1.82614284,1.4233835 L0.737218119,7.6024469 C0.703925489,7.79116975 0.522779506,7.91738025 0.332584728,7.88451468 L0.332243243,7.88434528 C0.141877787,7.8513103 0.0146829205,7.67156621 0.0479755068,7.48284336 Z" id="Path"></path>
                    </g>
                    <path d="M9.7265126,19.4174757 C9.71650853,19.4174757 9.70650447,19.4166209 9.69684536,19.4150822 L2.47751831,18.211667 C2.43112002,18.2039736 2.38989633,18.178329 2.36281632,18.140375 C2.33556379,18.102421 2.32469727,18.0554059 2.33263157,18.0095876 C2.3507424,17.9153865 2.44043419,17.8521298 2.53616295,17.8659779 L9.75583494,19.0697351 C9.84621667,19.0849509 9.91003581,19.1663297 9.90227403,19.2569406 C9.89468472,19.3477224 9.81827425,19.4174757 9.7265126,19.4174757 L9.7265126,19.4174757 Z" id="Path" fill="#CCCCCC"></path>
                    <path d="M11.0484341,18.8349483 C10.9631549,18.8354621 10.8900826,18.773299 10.8761802,18.68836 C10.8621083,18.603421 10.9112753,18.5207083 10.9921464,18.4933086 L17.8282188,16.1259768 C17.9189234,16.0946384 18.0177659,16.1436153 18.0487919,16.235233 C18.0799875,16.3270219 18.0314987,16.4266882 17.9406246,16.4581978 L11.1048913,18.8255296 C11.0867504,18.8316946 11.0675923,18.8349483 11.0484341,18.8349483 L11.0484341,18.8349483 Z" id="Path" fill="#CCCCCC"></path>
                    <path d="M7.59043523,8.35530403 C7.562783,8.56593536 7.56770271,8.77959734 7.60502473,8.98888171 C7.62283755,9.09226113 7.67729376,9.07357201 7.75685752,9.05117872 C7.94940524,8.99679513 8.13906895,8.92220705 8.33144704,8.85704771 C8.51313745,8.79576089 8.71060484,8.89206874 8.77235586,9.07222505 L8.99136825,9.71119054 C9.11945066,10.113259 9.5306715,10.356049 9.94782994,10.2760731 C10.169896,10.225562 10.3602383,10.0841309 10.4713561,9.88646412 C10.5823043,9.68896569 10.6038493,9.45392063 10.5303928,9.23975353 L10.6885024,9.70091996 C10.8165848,10.1026517 11.227636,10.3454417 11.6446248,10.2656342 C11.8668605,10.2152914 12.0570332,10.073692 12.168151,9.87619354 C12.2792689,9.67869507 12.3009835,9.44365004 12.2276966,9.22948295 L11.8207169,8.04297704 C11.7591356,7.86265237 11.8563425,7.66700599 12.0378632,7.60571918 L14.7572816,6.68742725 C14.4911077,5.90955618 13.7977663,5.35309215 12.9756639,5.25728938 C12.1535615,5.16148666 11.3492719,5.54368736 10.9087024,6.23922533 C10.2484419,6.11244246 9.57834189,6.40759569 9.23039883,6.97887636 C8.40829647,6.95042174 7.69866908,7.5461161 7.59043523,8.35530403 L7.59043523,8.35530403 Z" id="Path" fill="#F9F2CC"></path>
                </g>
            </g>
        </g>
    </g>
</svg>