<?xml version="1.0" encoding="UTF-8"?>
<svg width="225px" height="91px" viewBox="0 0 225 91" version="1.1" xmlns="http://www.w3.org/2000/svg" xmlns:xlink="http://www.w3.org/1999/xlink">
    <!-- Generator: Sketch 53.2 (72643) - https://sketchapp.com -->
    <title>claimoption2</title>
    <desc>Created with Sketch.</desc>
    <defs>
        <linearGradient x1="9.9%" y1="42.1%" x2="85.4%" y2="83.5%" id="linearGradient-1">
            <stop stop-color="#B84CFC" offset="0%"></stop>
            <stop stop-color="#5A2CEB" offset="100%"></stop>
        </linearGradient>
    </defs>
    <g id="Page-1" stroke="none" stroke-width="1" fill="none" fill-rule="evenodd">
        <g id="claimoption2" transform="translate(0.000000, -1.000000)">
            <g id="Group_1921" transform="translate(0.740000, 1.112000)" fill-rule="nonzero">
                <rect id="Rectangle_931" fill="#5603F0" opacity="0.426" x="0" y="8.628" width="223.72" height="81.962" rx="40.981"></rect>
                <rect id="Rectangle_918" fill="url(#linearGradient-1)" x="0.738" y="0" width="222.982" height="87.139" rx="8"></rect>
            </g>
            <g id="CLAIM_YOUR_REWARD" transform="translate(94.427000, 27.948000)" fill="#FFFFFF" font-family="Avenir-Black, Avenir" font-size="15" font-weight="700">
                <text id="CLAIM-YOUR">
                    <tspan x="0.915" y="15">CLAIM YOUR</tspan>
                </text>
                <text id="REWARD">
                    <tspan x="15.368" y="32">REWARD</tspan>
                </text>
            </g>
            <g id="medal" transform="translate(36.896000, 24.823000)" fill-rule="nonzero">
                <polygon id="Path_4426" fill="#E95454" points="10.7 20.004 0.6 39.042 9.776 38.194 14.217 46.269 24.317 27.231"></polygon>
                <g id="Group_9617" transform="translate(8.940000, 20.004000)" fill="#ED6362">
                    <path d="M2.914,20.722 C3.17720344,20.0976387 2.91250819,19.3760603 2.308,19.07 L1.726,18.76 C1.12400972,18.4286291 0.904629325,17.6719904 1.23600014,17.0700001 C1.56737096,16.4680098 2.32400964,16.2486293 2.926,16.58 L4.569,17.452 C4.81318287,17.5816241 5.09901598,17.6083808 5.36301393,17.5263274 C5.62701188,17.444274 5.84731769,17.2602038 5.975,17.015 L6.016,16.937 C6.15865135,16.7056888 6.19895718,16.4255664 6.12730769,16.1634202 C6.05565819,15.9012741 5.87847407,15.6805958 5.638,15.554 L0.722,12.946 C0.115328025,12.6409171 -0.152311066,11.9187719 0.109,11.292 C0.253788752,10.9828795 0.51896659,10.7466261 0.842685299,10.6383419 C1.16640401,10.5300577 1.52036034,10.5592102 1.822,10.719 L6.382,13.139 C6.89224582,13.407102 7.52322395,13.2132984 7.795,12.705 L7.821,12.638 L7.828,12.624 C7.96699795,12.3675905 7.99764641,12.0662318 7.91311464,11.7870891 C7.82858286,11.5079464 7.63589636,11.2742195 7.378,11.138 L4.82,9.781 C4.21111793,9.47423034 3.94471809,8.74764555 4.211,8.12 C4.35688817,7.81189612 4.62210372,7.57660288 4.94539442,7.46846186 C5.26868512,7.36032083 5.62209387,7.38868371 5.924,7.547 L8.749,9.047 C9.00267582,9.17645346 9.29791368,9.19784749 9.56760266,9.10631896 C9.83729165,9.01479044 10.05852,8.81811529 10.181,8.561 C10.1856748,8.55133725 10.1903415,8.54167058 10.195,8.532 C10.3397566,8.28663347 10.3789177,7.99308407 10.3035451,7.71835114 C10.2281726,7.4436182 10.0446989,7.21114828 9.795,7.074 L6.747,5.457 C6.14448044,5.15071668 5.88019094,4.43155267 6.141,3.808 C6.28578875,3.4988795 6.55096659,3.26262611 6.8746853,3.15434192 C7.19840401,3.04605772 7.55236034,3.07521019 7.854,3.235 L15.374,7.226 L5.274,26.264 L2.489,21.202 C2.67211359,21.0841293 2.81917183,20.91804 2.914,20.722 Z" id="Path_4427"></path>
                    <polygon id="Path_4428" points="20.659 0 30.759 19.038 21.583 18.19 17.142 26.265 7.042 7.227"></polygon>
                </g>
                <path d="M28.441,40.726 C28.1777966,40.1016387 28.4424918,39.3800603 29.047,39.074 L29.629,38.764 C30.0184195,38.5496406 30.2638986,38.1438116 30.2729677,37.6993848 C30.2820368,37.2549579 30.0533181,36.8394523 29.6729677,36.6093848 C29.2926173,36.3793173 28.8184195,36.3696406 28.429,36.584 L26.786,37.456 C26.5418171,37.5856241 26.255984,37.6123808 25.9919861,37.5303274 C25.7279881,37.448274 25.5076823,37.2642038 25.38,37.019 L25.339,36.941 C25.1963487,36.7096888 25.1560428,36.4295664 25.2276923,36.1674202 C25.2993418,35.9052741 25.4765259,35.6845958 25.717,35.558 L30.634,32.948 C31.240672,32.6429171 31.5083111,31.9207719 31.247,31.294 C31.1022112,30.9848795 30.8370334,30.7486261 30.5133147,30.6403419 C30.189596,30.5320577 29.8356397,30.5612102 29.534,30.721 L24.974,33.141 C24.4637542,33.409102 23.832776,33.2152984 23.561,32.707 L23.535,32.64 L23.528,32.626 C23.3890021,32.3695905 23.3583536,32.0682318 23.4428854,31.7890891 C23.5274171,31.5099464 23.7201036,31.2762195 23.978,31.14 L26.536,29.783 C27.1448821,29.4762303 27.4112819,28.7496456 27.145,28.122 C26.9991118,27.8138961 26.7338963,27.5786029 26.4106056,27.4704619 C26.0873149,27.3623208 25.7339061,27.3906837 25.432,27.549 L22.604,29.049 C22.3503242,29.1784535 22.0550863,29.1998475 21.7853973,29.108319 C21.5157083,29.0167904 21.29448,28.8201153 21.172,28.563 C21.1673415,28.5533294 21.1626748,28.5436627 21.158,28.534 C21.0132434,28.2886335 20.9740823,27.9950841 21.0494549,27.7203511 C21.1248274,27.4456182 21.3083011,27.2131483 21.558,27.076 L24.606,25.459 C25.2085196,25.1527167 25.4728091,24.4335527 25.212,23.81 C25.0672112,23.5008795 24.8020334,23.2646261 24.4783147,23.1563419 C24.154596,23.0480577 23.8006397,23.0772102 23.499,23.237 L15.979,27.228 L26.079,46.266 L28.864,41.204 C28.6824332,41.0857755 28.5362621,40.9205987 28.441,40.726 L28.441,40.726 Z" id="Path_4429" fill="#E95454"></path>
                <circle id="Ellipse_89" fill="#FFCC5B" cx="20.148" cy="16.884" r="16.884"></circle>
                <path d="M22.438,14.951 L11.738,14.951 C10.9018804,14.9466029 10.2260879,14.2681305 10.225,13.432 L10.237,13.332 L10.237,13.309 C10.2321861,12.8859705 10.3970082,12.4786369 10.6946475,12.177991 C10.9922869,11.8773452 11.3979435,11.7084378 11.821,11.709 L19.235,11.709 C20.2221672,11.7296498 21.0563726,10.9815757 21.143,9.998 C21.1667166,9.50452323 20.9880202,9.0227404 20.6482424,8.66408613 C20.3084647,8.30543185 19.8370374,8.10097294 19.343,8.098 L11.484,8.098 C11.0709333,8.09061298 10.6784354,7.91638614 10.3958769,7.61499043 C10.1133184,7.31359471 9.96474989,6.91068403 9.984,6.498 L9.984,6.452 C9.96474989,6.03931597 10.1133184,5.63640529 10.3958769,5.33500957 C10.6784354,5.03361386 11.0709333,4.85938702 11.484,4.852 L19.704,4.852 C20.684973,4.87080897 21.5140316,4.12901969 21.604,3.152 C21.6297484,2.65799072 21.4517321,2.17504384 21.1115187,1.81592967 C20.7713053,1.45681551 20.2986789,1.25297289 19.804,1.252 L13.777,1.252 C7.44601603,3.85416847 3.31289013,10.0216013 3.31289013,16.8665 C3.31289013,23.7113987 7.44601603,29.8788315 13.777,32.481 L21.425,32.481 C22.405973,32.499809 23.2350316,31.7580197 23.325,30.781 C23.3510411,30.2869145 23.1731227,29.8037998 22.8328464,29.4446192 C22.4925701,29.0854386 22.0197708,28.8816848 21.525,28.881 L12.819,28.881 C12.3237682,28.8817649 11.8500986,28.6784578 11.5095051,28.3189425 C11.1689117,27.9594272 10.9914865,27.4754675 11.019,26.981 C11.1070901,26.003036 11.9372965,25.2602197 12.919,25.281 L16.29,25.281 C17.2841125,25.2666406 18.0783594,24.4491125 18.064,23.455 C18.0496406,22.4608875 17.2321125,21.6666406 16.238,21.681 L11.125,21.681 C10.2973533,21.6810007 9.62610353,21.010646 9.625,20.183 L9.625,20.051 C9.59954451,19.6580995 9.73801387,19.2722123 10.0074682,18.9851355 C10.2769225,18.6980586 10.6532762,18.5354529 11.047,18.536 L22.333,18.536 C23.3164781,18.5575852 24.1494234,17.8154432 24.241,16.836 C24.2622541,16.3440814 24.0818514,15.8647917 23.7415132,15.5089749 C23.4011749,15.1531582 22.9303772,14.951631 22.438,14.951 L22.438,14.951 Z" id="Path_4430" fill="#FDBC4B"></path>
                <path d="M20.148,28.934 C13.4925467,28.9334477 8.09763184,23.5377867 8.09800002,16.8823334 C8.09836819,10.2268801 13.49388,4.83181597 20.1493333,4.83200005 C26.8047866,4.83218412 32.2,10.2275467 32.2,16.883 C32.1917343,23.5355471 26.8005477,28.9262863 20.148,28.934 L20.148,28.934 Z" id="Path_4431" fill="#FFDB70"></path>
                <path d="M32.2,16.884 C32.1890038,10.5037038 27.2096074,5.23632652 20.84,4.867 L19.717,4.867 C18.9714,4.85598216 18.3428471,5.42050369 18.274,6.163 C18.2551028,6.53992285 18.391622,6.90810173 18.6516875,7.18158637 C18.9117531,7.455071 19.2726037,7.60992567 19.65,7.61 L26.274,7.61 C26.6509973,7.60969528 27.0114845,7.7646452 27.2706785,8.03840703 C27.5298725,8.31216885 27.6648986,8.68058227 27.644,9.057 C27.5783939,9.80373904 26.9454659,10.3719755 26.196,10.357 L23.625,10.357 C22.8789568,10.3847197 22.2915571,11.003075 22.3021551,11.7495577 C22.3127532,12.4960404 22.9174706,13.0974708 23.664,13.104 L27.564,13.104 C27.8693293,13.1039926 28.1620378,13.2258291 28.377186,13.4424791 C28.5923341,13.6591292 28.7121314,13.9526782 28.71,14.258 L28.71,14.358 C28.7293882,14.6575926 28.6236606,14.9518092 28.4180132,15.1705346 C28.2123659,15.3892599 27.9252179,15.5129037 27.625,15.512 L19.019,15.512 C18.2679624,15.4962621 17.6326035,16.0639366 17.564,16.812 C17.5453945,17.1888461 17.6820111,17.5568575 17.9420138,17.8302761 C18.2020166,18.1036947 18.5626951,18.2586382 18.94,18.259 L27.099,18.259 C27.7351987,18.2617387 28.2502613,18.7768013 28.253,19.413 L28.244,19.493 L28.244,19.51 C28.2469385,19.8320997 28.1209015,20.1419896 27.89398,20.3706017 C27.6670585,20.5992139 27.3581126,20.7275476 27.036,20.727 L21.38,20.727 C20.6289624,20.7112621 19.9936035,21.2789366 19.925,22.027 C19.9078413,22.4034633 20.0449408,22.7706447 20.3046328,23.0437365 C20.5643248,23.3168283 20.9241501,23.4722125 21.301,23.474 L27.292,23.474 C27.6067998,23.4790972 27.9061593,23.6112824 28.121999,23.8404944 C28.3378387,24.0697064 28.4518122,24.376462 28.438,24.691 L28.438,24.726 C28.4518122,25.040538 28.3378387,25.3472936 28.121999,25.5765056 C27.9061593,25.8057176 27.6067998,25.9379028 27.292,25.943 L21.024,25.943 C20.275467,25.9300355 19.6439932,26.4973582 19.577,27.243 C19.5581028,27.6199229 19.694622,27.9881017 19.9546875,28.2615864 C20.2147531,28.535071 20.5756037,28.6899257 20.953,28.69 L22.607,28.69 C28.1938161,27.5177596 32.1958736,22.5924713 32.2,16.884 Z" id="Path_4432" fill="#FFFFFF" opacity="0.2"></path>
                <path d="M28.561,14.214 L22.699,14.214 L20.886,8.639 C20.7819212,8.31832401 20.4831431,8.10117494 20.146,8.10117494 C19.8088569,8.10117494 19.5100788,8.31832401 19.406,8.639 L17.595,14.214 L11.734,14.214 C11.3966726,14.2137792 11.0976331,14.4309661 10.9934936,14.7518161 C10.8893541,15.0726661 11.0038428,15.4240735 11.277,15.622 L16.019,19.068 L14.208,24.643 C14.1028335,24.9643363 14.217247,25.3168098 14.4910912,25.5151186 C14.7649354,25.7134274 15.1355111,25.712167 15.408,25.512 L20.15,22.066 L24.892,25.512 C25.1644889,25.712167 25.5350646,25.7134274 25.8089088,25.5151186 C26.082753,25.3168098 26.1971665,24.9643363 26.092,24.643 L24.281,19.068 L29.023,15.622 C29.2969211,15.4235379 29.4112183,15.0708234 29.3057587,14.7494229 C29.2002992,14.4280224 28.8992517,14.211593 28.561,14.214 L28.561,14.214 Z" id="Path_4433" fill="#EC9922"></path>
            </g>
        </g>
    </g>
</svg>