<?xml version="1.0" encoding="UTF-8"?>
<svg width="225px" height="91px" viewBox="0 0 225 91" version="1.1" xmlns="http://www.w3.org/2000/svg" xmlns:xlink="http://www.w3.org/1999/xlink">
    <!-- Generator: Sketch 53.2 (72643) - https://sketchapp.com -->
    <title>claimoption1</title>
    <desc>Created with Sketch.</desc>
    <defs>
        <linearGradient x1="12%" y1="-7.5%" x2="96.9%" y2="104.1%" id="linearGradient-1">
            <stop stop-color="#E61216" offset="0%"></stop>
            <stop stop-color="#F47108" offset="100%"></stop>
        </linearGradient>
    </defs>
    <g id="Page-1" stroke="none" stroke-width="1" fill="none" fill-rule="evenodd">
        <g id="claimoption1">
            <g id="Group_1921" transform="translate(0.740000, 0.112000)" fill-rule="nonzero">
                <rect id="Rectangle_931" fill="#5603F0" opacity="0.426" x="0" y="8.628" width="223.719" height="81.967" rx="40.983"></rect>
                <rect id="Rectangle_918" fill="url(#linearGradient-1)" x="0.738" y="0" width="222.98" height="87.144" rx="8"></rect>
            </g>
            <g id="Group_1923" transform="translate(36.411000, 24.364000)" fill-rule="nonzero">
                <path d="M38.968,0 L35.36,0 L32.799,2.5 L38.968,2.5 C39.6594605,2.5 40.22,3.06053949 40.22,3.752 L40.22,5.662 C40.2194197,10.4622159 37.1477705,14.7236961 32.594,16.242 L30.829,16.83 C30.245315,17.0241388 29.8891225,17.61353 29.9886343,18.2205518 C30.0881461,18.8275735 30.6138802,19.2723865 31.229,19.27 C31.3648771,19.2699324 31.499885,19.2483311 31.629,19.206 L33.394,18.617 C38.9705886,16.7588345 42.7319218,11.54002 42.731,5.662 L42.731,3.755 C42.7299397,2.75805104 42.3328861,1.80235578 41.6271866,1.09815656 C40.9214871,0.393957335 39.964949,-0.00106143058 38.968,0 Z" id="Path_6" fill="#FF7816"></path>
                <path d="M11.894,16.83 L10.129,16.243 C5.57446696,14.724569 2.50182075,10.4629791 2.5,5.662 L2.5,3.755 C2.4992009,3.42190897 2.63116711,3.10223031 2.86669871,2.86669871 C3.10223031,2.63116711 3.42190897,2.4992009 3.755,2.5 L10.223,2.5 L7.363,0 L3.755,0 C1.68208464,0.00220464463 0.00220464463,1.68208464 0,3.755 L0,5.662 C-0.000111072537,11.5399875 3.76083477,16.7586674 9.337,18.618 L11.102,19.206 C11.231115,19.2483311 11.3661229,19.2699324 11.502,19.27 C12.1171198,19.2723865 12.6428539,18.8275735 12.7423657,18.2205518 C12.8418775,17.61353 12.485685,17.0241388 11.902,16.83 L11.894,16.83 Z" id="Path_7" fill="#FF9F00"></path>
                <path d="M25.199,24.432 L25.199,26.284 C25.1954861,26.6171158 25.3262642,26.9376127 25.5618258,27.1731742 C25.7973873,27.4087358 26.1178842,27.5395139 26.451,27.536 C27.4472948,27.5346707 28.4031663,27.9298588 29.1076538,28.6343462 C29.8121412,29.3388337 30.2073293,30.2947052 30.206,31.291 L30.206,33.791 C30.2095139,34.1241158 30.0787358,34.4446127 29.8431742,34.6801742 C29.6076127,34.9157358 29.2871158,35.0465139 28.954,35.043 L13.768,35.043 C13.4348842,35.0465139 13.1143873,34.9157358 12.8788258,34.6801742 C12.6432642,34.4446127 12.5124861,34.1241158 12.516,33.791 L12.516,31.291 C12.5146707,30.2947052 12.9098588,29.3388337 13.6143462,28.6343462 C14.3188337,27.9298588 15.2747052,27.5346707 16.271,27.536 C16.6041158,27.5395139 16.9246127,27.4087358 17.1601742,27.1731742 C17.3957358,26.9376127 17.5265139,26.6171158 17.523,26.284 L17.523,24.432 C12.8436757,22.9423122 9.47320813,18.8465542 8.912,13.968 L7.36,0 L35.36,0 L33.808,13.968 C33.2471147,18.8460393 29.8775416,22.9416617 25.199,24.432 L25.199,24.432 Z" id="Path_8" fill="#FFD400"></path>
                <path d="M28.954,35.046 L21.361,35.0460804 L21.361,0 L35.361,0 L33.811,13.968 C33.2495477,18.8464505 29.8791755,22.9420926 25.2,24.432 L25.2,26.284 C25.1964861,26.6171158 25.3272642,26.9376127 25.5628258,27.1731742 C25.7983873,27.4087358 26.1188842,27.5395139 26.452,27.536 C27.4482948,27.5346707 28.4041663,27.9298588 29.1086538,28.6343462 C29.8131412,29.3388337 30.2083293,30.2947052 30.207,31.291 L30.207,33.791 C30.2113327,34.1248083 30.0807777,34.4462405 29.844908,34.6824867 C29.6090384,34.9187328 29.2878147,35.0498003 28.954,35.046 Z" id="Path_9" fill="#FF9F00"></path>
                <path d="M27.572,9.437 C27.4255636,8.97288579 27.0273312,8.63287444 26.546,8.561 L23.746,8.161 L22.494,5.682 C22.2517445,5.29290592 21.825847,5.0563749 21.3675,5.0563749 C20.909153,5.0563749 20.4832555,5.29290592 20.241,5.682 L18.983,8.159 L16.183,8.559 C15.703898,8.62353216 15.3053634,8.95936706 15.1605468,9.42059505 C15.0157302,9.88182303 15.1507717,10.3851904 15.507,10.712 L17.507,12.64 L17.031,15.34 C16.9539688,15.8104485 17.1470956,16.2843818 17.531,16.567 C17.9093936,16.8466249 18.4142919,16.8854632 18.831,16.667 L21.359,15.367 L23.887,16.667 C24.3035563,16.8861993 24.808869,16.8473291 25.187,16.567 C25.5707161,16.2842352 25.7637941,15.8104218 25.687,15.34 L25.211,12.64 L27.211,10.712 C27.5590789,10.3872055 27.6981395,9.89606341 27.572,9.437 Z" id="Path_10" fill="#FF9F00"></path>
                <path d="M32.713,33.795 L32.7130694,41.372 L10.012931,41.372 L10.013,33.795 C10.0094861,33.4618842 10.1402642,33.1413873 10.3758258,32.9058258 C10.6113873,32.6702642 10.9318842,32.5394861 11.265,32.543 L31.458,32.543 C31.7916329,32.5386726 32.1129095,32.6690913 32.3491256,32.9047427 C32.5853417,33.1403942 32.7165289,33.4613577 32.713,33.795 L32.713,33.795 Z" id="Path_11" fill="#EC5569"></path>
                <path d="M23.889,16.672 L21.361,15.37 L21.361,5.059 C21.8237858,5.04101462 22.2580227,5.28242876 22.487,5.685 L23.739,8.164 L26.539,8.564 C27.018102,8.62853216 27.4166366,8.96436706 27.5614532,9.42559505 C27.7062698,9.88682303 27.5712283,10.3901904 27.215,10.717 L25.215,12.645 L25.69,15.345 C25.7670312,15.8154485 25.5739044,16.2893818 25.19,16.572 C24.8117341,16.8529783 24.305763,16.8918692 23.889,16.672 L23.889,16.672 Z" id="Path_12" fill="#FF7816"></path>
                <path d="M32.709,33.795 L32.7090686,41.372 L21.361,41.372 L21.361,32.5429668 L31.461,32.543 C31.7934255,32.5405668 32.1128843,32.671822 32.3475745,32.9072644 C32.5822647,33.1427068 32.7124969,33.462584 32.709,33.795 L32.709,33.795 Z" id="Path_13" fill="#CC2E43"></path>
                <path d="M35.21,41.472 C35.2135139,41.8051158 35.0827358,42.1256127 34.8471742,42.3611742 C34.6116127,42.5967358 34.2911158,42.7275139 33.958,42.724 L8.758,42.724 C8.09508112,42.6864846 7.57673896,42.1379795 7.57673896,41.474 C7.57673896,40.8100205 8.09508112,40.2615154 8.758,40.224 L33.958,40.224 C34.290416,40.2205031 34.6102932,40.3507353 34.8457356,40.5854255 C35.081178,40.8201157 35.2124332,41.1395745 35.21,41.472 L35.21,41.472 Z" id="Path_14" fill="#697C86"></path>
                <path d="M35.213,41.472 C35.2151598,41.8043427 35.0838171,42.123642 34.8484346,42.3582725 C34.6130521,42.592903 34.2933341,42.7232233 33.961,42.72 L21.361,42.72 L21.361,40.22 L33.961,40.22 C34.2941158,40.2164861 34.6146127,40.3472642 34.8501742,40.5828258 C35.0857358,40.8183873 35.2165139,41.1388842 35.213,41.472 L35.213,41.472 Z" id="Path_15" fill="#465A61"></path>
            </g>
            <g id="PLAY_WIN" transform="translate(98.518000, 34.534000)" fill="#FFFFFF" font-family="Avenir-Black, Avenir" font-size="15" font-weight="700">
                <text id="PLAY-&amp;-WIN">
                    <tspan x="0" y="15">PLAY &amp; WIN</tspan>
                </text>
            </g>
            <g id="Group_1943" transform="translate(8.637000, 8.753000)">
                <path d="M3.767,23.418 C3.511,24.925 2.067,25.534 1.042,26.527 C0.942,26.627 1.042,27.36 1.042,27.489 C1.042,27.618 1.142,28.354 1.042,28.451 C2.036,27.489 3.51,26.88 3.767,25.342 C3.867,24.733 3.667,24.06 3.767,23.419" id="Path_1039" fill="#F1B425" fill-rule="nonzero"></path>
                <path d="M77.009,29.549 C77.4336959,29.7996811 77.9299304,29.9013915 78.419,29.838 C78.92228,29.6660999 79.3221842,29.277936 79.509,28.78 C79.477,28.812 79.509,29.036 79.509,29.069 L79.509,29.742 C79.5570353,30.0608678 79.5570353,30.3851322 79.509,30.704 C79.319801,31.1597007 78.9644791,31.5264615 78.515,31.73 C77.9884971,31.8565243 77.4331919,31.7641538 76.976,31.474 C76.9439932,31.154132 76.9439932,30.831868 76.976,30.512 C77.0336261,30.1946207 77.0444074,29.8705072 77.008,29.55" id="Path_1044" fill="#72B71C" fill-rule="nonzero"></path>
                <circle id="Ellipse_80" stroke="#72B71C" stroke-width="5.246" cx="71.526" cy="0.519" r="1"></circle>
                <polygon id="Path_1048" fill="#FFA700" fill-rule="nonzero" opacity="0.9" points="12.457 69.654 9.38 66.16 5.213 69.56 8.258 73.054"></polygon>
                <polygon id="Path_1051" fill="#FFFFFF" fill-rule="nonzero" opacity="0.324" points="142.588 65.659 145.601 66.236 149.031 62.774 145.986 62.165"></polygon>
                <path d="M72.469,57.628 C75.546,56.057 77.662,60.028 80.739,59.936 C80.771,59.936 80.739,58.013 80.739,58.013 C77.694,58.077 75.546,54.102 72.469,55.705 C72.212,55.833 72.725,57.505 72.469,57.628" id="Path_1036" fill="#F1B425" fill-rule="nonzero"></path>
                <path d="M18.4885394,50.5849815 C21.5661547,49.0136673 23.6825779,52.9854614 26.7601932,52.893443 C26.7921996,52.893443 26.7601932,50.9700585 26.7601932,50.9700585 C23.7155845,51.0380721 21.5661547,47.0622771 18.4885394,48.6655977 C18.231488,48.7936233 18.7445906,50.4659577 18.4885394,50.5889823" id="Path_1036-2" fill="#F1B425" fill-rule="nonzero" transform="translate(22.594324, 50.589655) rotate(-51.984340) translate(-22.594324, -50.589655) "></path>
                <path d="M145.224,13.274 C148.301,11.703 150.417,15.674 153.494,15.582 C153.526,15.582 153.494,13.659 153.494,13.659 C150.449,13.723 148.301,9.748 145.224,11.351 C144.967,11.479 145.48,13.151 145.224,13.274" id="Path_1036-3" fill="#FFFFFF" fill-rule="nonzero" opacity="0.324"></path>
                <path d="M196.369,9.57 C195.215,10.532 194.061,11.429 192.49,11.301 C192.522,11.301 192.426,13.224 192.49,13.224 C194.061,13.352 195.215,12.424 196.369,11.493 C196.469,11.393 196.369,10.659 196.369,10.531 C196.369,10.431 196.269,9.631 196.369,9.569" id="Path_1038" fill="#FFFFFF" fill-rule="nonzero" opacity="0.324"></path>
                <path d="M14.254,3.928 C15.854,4.569 16.242,6.428 17.844,7.069 C18.197,7.197 19.126,5.851 19.444,5.979 C17.844,5.338 17.457,3.479 15.854,2.838 C15.501,2.678 14.572,4.056 14.254,3.928" id="Path_1041" fill="#F1B425" fill-rule="nonzero"></path>
                <path d="M15.566,37.451 C15.9906959,37.7016811 16.4869304,37.8033915 16.976,37.74 C17.47928,37.5680999 17.8791842,37.179936 18.066,36.682 C18.034,36.714 18.066,36.938 18.066,36.97 L18.066,37.643 C18.1141559,37.9618587 18.1141559,38.2861413 18.066,38.605 C17.8769716,39.0608128 17.5215966,39.4276285 17.072,39.631 C16.5454971,39.7575243 15.9901919,39.6651538 15.533,39.375 C15.5009932,39.055132 15.5009932,38.732868 15.533,38.413 C15.5751477,38.0941553 15.5858659,37.7719408 15.565,37.451" id="Path_1045" fill="#2FD7FF" fill-rule="nonzero" opacity="0.443"></path>
            </g>
        </g>
    </g>
</svg>