<?xml version="1.0" encoding="UTF-8"?>
<svg width="225px" height="91px" viewBox="0 0 225 91" version="1.1" xmlns="http://www.w3.org/2000/svg" xmlns:xlink="http://www.w3.org/1999/xlink">
    <!-- Generator: Sketch 53.2 (72643) - https://sketchapp.com -->
    <title>claimoption1</title>
    <desc>Created with Sketch.</desc>
    <defs>
        <linearGradient x1="12%" y1="-7.5%" x2="96.9%" y2="104.1%" id="linearGradient-1">
            <stop stop-color="#E61216" offset="0%"></stop>
            <stop stop-color="#F47108" offset="100%"></stop>
        </linearGradient>
    </defs>
    <g id="Page-1" stroke="none" stroke-width="1" fill="none" fill-rule="evenodd">
        <g id="claimoption1" transform="translate(0.740000, 0.112000)">
            <rect id="Rectangle_931" fill="#E74C3C" fill-rule="nonzero" opacity="0.426" x="-3.83693077e-13" y="8.628" width="223.719" height="81.967" rx="40.983"></rect>
            <rect id="Rectangle_918" fill="url(#linearGradient-1)" fill-rule="nonzero" x="0.738" y="0" width="222.98" height="87.144" rx="8"></rect>
            <path d="M74.639,24.252 L71.031,24.252 L68.47,26.752 L74.639,26.752 C75.3304605,26.752 75.891,27.3125395 75.891,28.004 L75.891,29.914 C75.8904197,34.7142159 72.8187705,38.9756961 68.265,40.494 L66.5,41.082 C65.916315,41.2761388 65.5601225,41.86553 65.6596343,42.4725518 C65.7591461,43.0795735 66.2848802,43.5243865 66.9,43.522 C67.0358771,43.5219324 67.170885,43.5003311 67.3,43.458 L69.065,42.869 C74.6415886,41.0108345 78.4029218,35.79202 78.402,29.914 L78.402,28.007 C78.4009397,27.010051 78.0038861,26.0543558 77.2981866,25.3501566 C76.5924871,24.6459573 75.635949,24.2509386 74.639,24.252 Z" id="Path_6" fill="#FF7816" fill-rule="nonzero"></path>
            <path d="M47.565,41.082 L45.8,40.495 C41.245467,38.976569 38.1728208,34.7149791 38.171,29.914 L38.171,28.007 C38.1702009,27.673909 38.3021671,27.3542303 38.5376987,27.1186987 C38.7732303,26.8831671 39.092909,26.7512009 39.426,26.752 L45.894,26.752 L43.034,24.252 L39.426,24.252 C37.3530846,24.2542046 35.6732046,25.9340846 35.671,28.007 L35.671,29.914 C35.6708889,35.7919875 39.4318348,41.0106674 45.008,42.87 L46.773,43.458 C46.902115,43.5003311 47.0371229,43.5219324 47.173,43.522 C47.7881198,43.5243865 48.3138539,43.0795735 48.4133657,42.4725518 C48.5128775,41.86553 48.156685,41.2761388 47.573,41.082 L47.565,41.082 Z" id="Path_7" fill="#FF9F00" fill-rule="nonzero"></path>
            <path d="M60.87,48.684 L60.87,50.536 C60.8664861,50.8691158 60.9972642,51.1896127 61.2328258,51.4251742 C61.4683873,51.6607358 61.7888842,51.7915139 62.122,51.788 C63.1182948,51.7866707 64.0741663,52.1818588 64.7786538,52.8863462 C65.4831412,53.5908337 65.8783293,54.5467052 65.877,55.543 L65.877,58.043 C65.8805139,58.3761158 65.7497358,58.6966127 65.5141742,58.9321742 C65.2786127,59.1677358 64.9581158,59.2985139 64.625,59.295 L49.439,59.295 C49.1058842,59.2985139 48.7853873,59.1677358 48.5498258,58.9321742 C48.3142642,58.6966127 48.1834861,58.3761158 48.187,58.043 L48.187,55.543 C48.1856707,54.5467052 48.5808588,53.5908337 49.2853462,52.8863462 C49.9898337,52.1818588 50.9457052,51.7866707 51.942,51.788 C52.2751158,51.7915139 52.5956127,51.6607358 52.8311742,51.4251742 C53.0667358,51.1896127 53.1975139,50.8691158 53.194,50.536 L53.194,48.684 C48.5146757,47.1943122 45.1442081,43.0985542 44.583,38.22 L43.031,24.252 L71.031,24.252 L69.479,38.22 C68.9181147,43.0980393 65.5485416,47.1936617 60.87,48.684 L60.87,48.684 Z" id="Path_8" fill="#FFD400" fill-rule="nonzero"></path>
            <path d="M64.625,59.298 L57.032,59.2980804 L57.032,24.252 L71.032,24.252 L69.482,38.22 C68.9205477,43.0984505 65.5501755,47.1940926 60.871,48.684 L60.871,50.536 C60.8674861,50.8691158 60.9982642,51.1896127 61.2338258,51.4251742 C61.4693873,51.6607358 61.7898842,51.7915139 62.123,51.788 C63.1192948,51.7866707 64.0751663,52.1818588 64.7796538,52.8863462 C65.4841412,53.5908337 65.8793293,54.5467052 65.878,55.543 L65.878,58.043 C65.8823327,58.3768083 65.7517777,58.6982405 65.515908,58.9344867 C65.2800384,59.1707328 64.9588147,59.3018003 64.625,59.298 Z" id="Path_9" fill="#FF9F00" fill-rule="nonzero"></path>
            <path d="M63.243,33.689 C63.0965636,33.2248858 62.6983312,32.8848744 62.217,32.813 L59.417,32.413 L58.165,29.934 C57.9227445,29.5449059 57.496847,29.3083749 57.0385,29.3083749 C56.580153,29.3083749 56.1542555,29.5449059 55.912,29.934 L54.654,32.411 L51.854,32.811 C51.374898,32.8755322 50.9763634,33.2113671 50.8315468,33.672595 C50.6867302,34.133823 50.8217717,34.6371904 51.178,34.964 L53.178,36.892 L52.702,39.592 C52.6249688,40.0624485 52.8180956,40.5363818 53.202,40.819 C53.5803936,41.0986249 54.0852919,41.1374632 54.502,40.919 L57.03,39.619 L59.558,40.919 C59.9745563,41.1381993 60.479869,41.0993291 60.858,40.819 C61.2417161,40.5362352 61.4347941,40.0624218 61.358,39.592 L60.882,36.892 L62.882,34.964 C63.2300789,34.6392055 63.3691395,34.1480634 63.243,33.689 Z" id="Path_10" fill="#FF9F00" fill-rule="nonzero"></path>
            <path d="M68.384,58.047 L68.3840694,65.624 L45.683931,65.624 L45.684,58.047 C45.6804861,57.7138842 45.8112642,57.3933873 46.0468258,57.1578258 C46.2823873,56.9222642 46.6028842,56.7914861 46.936,56.795 L67.129,56.795 C67.4626329,56.7906726 67.7839095,56.9210913 68.0201256,57.1567427 C68.2563417,57.3923942 68.3875289,57.7133577 68.384,58.047 L68.384,58.047 Z" id="Path_11" fill="#EC5569" fill-rule="nonzero"></path>
            <path d="M59.56,40.924 L57.032,39.622 L57.032,29.311 C57.4947858,29.2930146 57.9290227,29.5344288 58.158,29.937 L59.41,32.416 L62.21,32.816 C62.689102,32.8805322 63.0876366,33.2163671 63.2324532,33.677595 C63.3772698,34.138823 63.2422283,34.6421904 62.886,34.969 L60.886,36.897 L61.361,39.597 C61.4380312,40.0674485 61.2449044,40.5413818 60.861,40.824 C60.4827341,41.1049783 59.976763,41.1438692 59.56,40.924 L59.56,40.924 Z" id="Path_12" fill="#FF7816" fill-rule="nonzero"></path>
            <path d="M68.38,58.047 L68.3800686,65.624 L57.032,65.624 L57.032,56.7949668 L67.132,56.795 C67.4644255,56.7925668 67.7838843,56.923822 68.0185745,57.1592644 C68.2532647,57.3947068 68.3834969,57.714584 68.38,58.047 L68.38,58.047 Z" id="Path_13" fill="#CC2E43" fill-rule="nonzero"></path>
            <path d="M70.881,65.724 C70.8845139,66.0571158 70.7537358,66.3776127 70.5181742,66.6131742 C70.2826127,66.8487358 69.9621158,66.9795139 69.629,66.976 L44.429,66.976 C43.7660811,66.9384846 43.247739,66.3899795 43.247739,65.726 C43.247739,65.0620205 43.7660811,64.5135154 44.429,64.476 L69.629,64.476 C69.961416,64.4725031 70.2812932,64.6027353 70.5167356,64.8374255 C70.752178,65.0721157 70.8834332,65.3915745 70.881,65.724 L70.881,65.724 Z" id="Path_14" fill="#697C86" fill-rule="nonzero"></path>
            <path d="M70.884,65.724 C70.8861598,66.0563427 70.7548171,66.375642 70.5194346,66.6102725 C70.2840521,66.844903 69.9643341,66.9752233 69.632,66.972 L57.032,66.972 L57.032,64.472 L69.632,64.472 C69.9651158,64.4684861 70.2856127,64.5992642 70.5211742,64.8348258 C70.7567358,65.0703873 70.8875139,65.3908842 70.884,65.724 L70.884,65.724 Z" id="Path_15" fill="#465A61" fill-rule="nonzero"></path>
            <text id="PLAY-PREDICT-TO-WIN" fill="#FFFFFF" font-family="Avenir-Black, Avenir" font-size="15" font-weight="700">
                <tspan x="91.278" y="42.422">PLAY PREDICT</tspan>
                <tspan x="115.1805" y="62.422">TO WIN</tspan>
            </text>
            <path d="M11.664,32.059 C11.408,33.566 9.964,34.175 8.939,35.168 C8.839,35.268 8.939,36.001 8.939,36.13 C8.939,36.259 9.039,36.995 8.939,37.092 C9.933,36.13 11.407,35.521 11.664,33.983 C11.764,33.374 11.564,32.701 11.664,32.06" id="Path_1039" fill="#F1B425" fill-rule="nonzero"></path>
            <path d="M84.906,38.19 C85.3306959,38.4406811 85.8269304,38.5423915 86.316,38.479 C86.81928,38.3070999 87.2191842,37.918936 87.406,37.421 C87.374,37.453 87.406,37.677 87.406,37.71 L87.406,38.383 C87.4540353,38.7018678 87.4540353,39.0261322 87.406,39.345 C87.216801,39.8007007 86.8614791,40.1674615 86.412,40.371 C85.8854971,40.4975243 85.3301919,40.4051538 84.873,40.115 C84.8409932,39.795132 84.8409932,39.472868 84.873,39.153 C84.9306261,38.8356207 84.9414074,38.5115072 84.905,38.191" id="Path_1044" fill="#72B71C" fill-rule="nonzero"></path>
            <circle id="Ellipse_80" stroke="#72B71C" stroke-width="5.246" cx="79.423" cy="9.16" r="1"></circle>
            <polygon id="Path_1048" fill="#FFA700" fill-rule="nonzero" opacity="0.9" points="20.354 78.295 17.277 74.801 13.11 78.201 16.155 81.695"></polygon>
            <polygon id="Path_1051" fill="#FFFFFF" fill-rule="nonzero" opacity="0.324" points="150.485 74.3 153.498 74.877 156.928 71.415 153.883 70.806"></polygon>
            <path d="M80.366,66.269 C83.443,64.698 85.559,68.669 88.636,68.577 C88.668,68.577 88.636,66.654 88.636,66.654 C85.591,66.718 83.443,62.743 80.366,64.346 C80.109,64.474 80.622,66.146 80.366,66.269" id="Path_1036" fill="#F1B425" fill-rule="nonzero"></path>
            <path d="M26.3855394,59.2259815 C29.4631547,57.6546673 31.5795779,61.6264614 34.6571932,61.534443 C34.6891996,61.534443 34.6571932,59.6110585 34.6571932,59.6110585 C31.6125845,59.6790721 29.4631547,55.7032771 26.3855394,57.3065977 C26.128488,57.4346233 26.6415906,59.1069577 26.3855394,59.2299823" id="Path_1036-2" fill="#F1B425" fill-rule="nonzero" transform="translate(30.491324, 59.230655) rotate(-51.984340) translate(-30.491324, -59.230655) "></path>
            <path d="M153.121,21.915 C156.198,20.344 158.314,24.315 161.391,24.223 C161.423,24.223 161.391,22.3 161.391,22.3 C158.346,22.364 156.198,18.389 153.121,19.992 C152.864,20.12 153.377,21.792 153.121,21.915" id="Path_1036-3" fill="#FFFFFF" fill-rule="nonzero" opacity="0.324"></path>
            <path d="M204.266,18.211 C203.112,19.173 201.958,20.07 200.387,19.942 C200.419,19.942 200.323,21.865 200.387,21.865 C201.958,21.993 203.112,21.065 204.266,20.134 C204.366,20.034 204.266,19.3 204.266,19.172 C204.266,19.072 204.166,18.272 204.266,18.21" id="Path_1038" fill="#FFFFFF" fill-rule="nonzero" opacity="0.324"></path>
            <path d="M22.151,12.569 C23.751,13.21 24.139,15.069 25.741,15.71 C26.094,15.838 27.023,14.492 27.341,14.62 C25.741,13.979 25.354,12.12 23.751,11.479 C23.398,11.319 22.469,12.697 22.151,12.569" id="Path_1041" fill="#F1B425" fill-rule="nonzero"></path>
            <path d="M23.463,46.092 C23.8876959,46.3426811 24.3839304,46.4443915 24.873,46.381 C25.37628,46.2090999 25.7761842,45.820936 25.963,45.323 C25.931,45.355 25.963,45.579 25.963,45.611 L25.963,46.284 C26.0111559,46.6028587 26.0111559,46.9271413 25.963,47.246 C25.7739716,47.7018128 25.4185966,48.0686285 24.969,48.272 C24.4424971,48.3985243 23.8871919,48.3061538 23.43,48.016 C23.3979932,47.696132 23.3979932,47.373868 23.43,47.054 C23.4721477,46.7351553 23.4828659,46.4129408 23.462,46.092" id="Path_1045" fill="#2FD7FF" fill-rule="nonzero" opacity="0.443"></path>
        </g>
    </g>
</svg>