<?xml version="1.0" encoding="UTF-8"?>
<svg width="42px" height="42px" viewBox="0 0 42 42" version="1.1" xmlns="http://www.w3.org/2000/svg" xmlns:xlink="http://www.w3.org/1999/xlink">
    <!-- Generator: Sketch 53.2 (72643) - https://sketchapp.com -->
    <title>close</title>
    <desc>Created with Sketch.</desc>
    <g id="Page-1" stroke="none" stroke-width="1" fill="none" fill-rule="evenodd">
        <g id="King-of-Good-Times-1" transform="translate(-169.000000, -565.000000)" fill="#FFFFFF" fill-rule="nonzero" stroke="#FFFFFF">
            <g id="close" transform="translate(170.000000, 566.000000)">
                <path d="M19.9999322,0 C8.97196135,0 0,8.97196135 0,19.9999322 C0,31.027903 8.97196135,39.9998643 19.9999322,39.9998643 C25.1941542,39.9998643 30.1160957,38.0179282 33.859376,34.4191315 C34.1834807,34.1076437 34.1936556,33.5922508 33.8820321,33.2682818 C33.57068,32.9443127 33.0554227,32.9340022 32.7311824,33.2456256 C29.2927422,36.551385 24.7714207,38.3718793 20.0000678,38.3718793 C9.86965945,38.3720149 1.62798506,30.1303406 1.62798506,19.9999322 C1.62798506,9.86952378 9.86965945,1.62798506 19.9999322,1.62798506 C30.1302049,1.62798506 38.3718793,9.86965945 38.3718793,19.9999322 C38.3718793,22.2848092 37.9578284,24.5139278 37.1412582,26.625153 C36.979138,27.0444949 37.1875201,27.5157965 37.606862,27.6780524 C38.0263394,27.8399012 38.4975055,27.6317905 38.6597613,27.2124487 C39.5490481,24.9130554 40,22.486408 40,19.9997965 C40,8.97196135 31.0280387,0 19.9999322,0 Z" id="Path"></path>
                <g id="Group-13" transform="translate(12.000000, 11.000000)">
                    <path d="M10.6108432,9.72279237 C10.3296568,9.44765678 9.87904661,9.45263983 9.60414831,9.73347034 C9.32913136,10.0144195 9.33399576,10.4651483 9.61482627,10.7401653 L15.2190975,16.2257924 C15.3576737,16.3614025 15.5374195,16.428911 15.7170466,16.428911 C15.9017754,16.428911 16.0863856,16.3573686 16.2257924,16.2149958 C16.5008093,15.9340466 16.4959449,15.4833178 16.2151144,15.2083008 L10.6108432,9.72279237 Z" id="Path"></path>
                    <path d="M5.57547034,6.58216525 C5.71440254,6.72109746 5.89663983,6.79062288 6.07887712,6.79062288 C6.26111441,6.79062288 6.44323305,6.72109746 6.5822839,6.58216525 C6.86026695,6.3041822 6.86026695,5.85345339 6.5822839,5.57547034 L1.21530085,0.208487288 C0.937317797,-0.0694957627 0.486470339,-0.0694957627 0.208605932,0.208487288 C-0.0693771186,0.486470339 -0.0693771186,0.937199153 0.208605932,1.2151822 L5.57547034,6.58216525 Z" id="Path"></path>
                    <path d="M16.2204534,0.208487288 C15.9424703,-0.0694957627 15.4916229,-0.0694957627 15.2137585,0.208487288 L0.208487288,15.2137585 C-0.0694957627,15.4917415 -0.0694957627,15.9424703 0.208487288,16.2204534 C0.347419492,16.3593856 0.52965678,16.428911 0.711894068,16.428911 C0.894131356,16.428911 1.07625,16.3593856 1.21530085,16.2204534 L16.2204534,1.21530085 C16.4984364,0.937199153 16.4984364,0.486588983 16.2204534,0.208487288 Z" id="Path"></path>
                </g>
            </g>
        </g>
    </g>
</svg>