<?xml version="1.0" encoding="UTF-8"?>
<svg width="20px" height="20px" viewBox="0 0 20 20" version="1.1" xmlns="http://www.w3.org/2000/svg" xmlns:xlink="http://www.w3.org/1999/xlink">
    <!-- Generator: Sketch 53.2 (72643) - https://sketchapp.com -->
    <title>coin (2)</title>
    <desc>Created with Sketch.</desc>
    <g id="Page-1" stroke="none" stroke-width="1" fill="none" fill-rule="evenodd">
        <g id="Game-5" transform="translate(-296.000000, -22.000000)" fill-rule="nonzero">
            <g id="Group-3" transform="translate(296.000000, 21.000000)">
                <g id="coin-(2)" transform="translate(0.000000, 1.000000)">
                    <path d="M11.25,20 C6.4175,20 2.5,15.5228571 2.5,10 C2.5,4.47714286 6.4175,0 11.25,0 C16.0825,0 20,4.47714286 20,10 C20,15.5228571 16.0825,20 11.25,20" id="XMLID_99_" fill="#FFD949"></path>
                    <path d="M2.18181818,10 C2.18181818,4.89214286 5.59454545,0.681428571 10,0.0771428571 C9.64218182,0.0282142857 9.27854545,0 8.90909091,0 C3.98872727,0 0,4.47714286 0,10 C0,15.5228571 3.98872727,20 8.90909091,20 C9.27854545,20 9.64218182,19.9717857 10,19.9228571 C5.59454545,19.3185714 2.18181818,15.1078571 2.18181818,10" id="XMLID_132_" fill="#F4BF1A"></path>
                    <path d="M11.2805355,17.5 L11.2498214,17.5 C10.9998235,17.5 10.7480399,17.485238 10.5016134,17.4564169 C10.3055437,17.4332194 10.165902,17.2585353 10.1891161,17.0655745 C10.2126873,16.8726137 10.3916144,16.737998 10.5862556,16.7583837 C10.8048252,16.7840415 11.0280376,16.7970461 11.2498214,16.7970461 C11.4473198,16.7970461 11.6223183,16.9545078 11.6223183,17.1485231 C11.6223183,17.3425383 11.4783909,17.5 11.2805355,17.5 M13.3573037,17.1214593 C13.2130192,17.1214593 13.0769489,17.0346445 13.0230208,16.8937023 C12.9533785,16.7119887 13.046592,16.5091865 13.2312334,16.441 C13.4369459,16.3647295 13.6423013,16.2751029 13.8405139,16.1749319 C14.0162268,16.0856568 14.2312249,16.1541948 14.3215813,16.3271214 C14.4115806,16.4996966 14.3422954,16.7116372 14.1665826,16.8002094 C13.9440845,16.912682 13.7144436,17.0125015 13.4830169,17.0986133 C13.4419459,17.1140783 13.3994462,17.1214593 13.3573037,17.1214593 M8.52341577,16.8529309 C8.46913051,16.8529309 8.41377383,16.8406293 8.36198855,16.81462 C8.14234754,16.7046077 7.92484937,16.5812393 7.71592256,16.4462721 C7.55092394,16.3401261 7.5048529,16.1225619 7.61270914,15.959828 C7.72127965,15.7977972 7.94199208,15.7521052 8.10734784,15.8582512 C8.29413198,15.9788078 8.4887732,16.0898745 8.68520012,16.1879366 C8.86091293,16.2758058 8.93126949,16.4873949 8.84198452,16.6603216 C8.77912791,16.7826356 8.65341468,16.8529309 8.52341577,16.8529309 M15.7054983,15.602376 C15.6147847,15.602376 15.5237141,15.5682827 15.4540718,15.5004477 C15.314073,15.3637231 15.3130016,15.1412382 15.451929,15.0034593 C15.6072848,14.8495124 15.758355,14.6836153 15.9008538,14.5106886 C16.0254956,14.3602565 16.2504937,14.3374105 16.4033496,14.4597244 C16.5562054,14.5820384 16.5797766,14.8034689 16.4551348,14.9542525 C16.2976362,15.144753 16.1308518,15.3278725 15.9590676,15.4983388 C15.8890682,15.5675798 15.7969261,15.602376 15.7054983,15.602376 M6.34200553,15.1074964 C6.23879211,15.1074964 6.13629297,15.0635618 6.06557928,14.9792074 C5.91058058,14.7929246 5.76165326,14.5960975 5.62344014,14.3939983 C5.51308392,14.2330218 5.55629785,14.0144032 5.7198679,13.9057968 C5.88308081,13.7971904 6.1052218,13.8393676 6.21557802,14.0006956 C6.34164839,14.1848695 6.47700439,14.3641227 6.61807464,14.5331831 C6.74307359,14.6832638 6.72093092,14.9046943 6.5684322,15.0280627 C6.50236132,15.0814872 6.42164772,15.1074964 6.34200553,15.1074964 M17.2754851,13.3019594 C17.2276283,13.3019594 17.1794145,13.2924695 17.1329863,13.2727868 C16.9519164,13.1951104 16.8694171,12.9880905 16.9479878,12.8098917 C17.0376299,12.6081439 17.119415,12.3986636 17.1912001,12.188129 C17.2540567,12.004658 17.456555,11.90519 17.6436963,11.96705 C17.8304804,12.0292614 17.9311939,12.2281973 17.8683372,12.4123712 C17.7897665,12.6418857 17.7004815,12.8703457 17.6029823,13.0907217 C17.5440543,13.2228771 17.4126268,13.3019594 17.2754851,13.3019594 M4.9805884,12.6808996 C4.83201822,12.6808996 4.69309081,12.5884612 4.64237695,12.4425983 C4.56344905,12.2148412 4.49344963,11.9804061 4.43416442,11.7456195 C4.38630768,11.5572278 4.50273527,11.3667273 4.69416223,11.3199809 C4.88487492,11.27218 5.07951614,11.3874645 5.12701574,11.5758561 C5.18165814,11.7913115 5.24594331,12.0067669 5.3184427,12.2155442 C5.3820136,12.3993666 5.28237158,12.5990055 5.09594457,12.6615684 C5.05808775,12.674573 5.01880236,12.6808996 4.9805884,12.6808996 M17.9501223,10.6082401 C17.9408366,10.6082401 17.931551,10.6078886 17.9222654,10.6071857 C17.7254813,10.5920722 17.5786968,10.4230118 17.5936967,10.229348 C17.6104823,10.0163529 17.6190536,9.7987887 17.6190536,9.58333333 C17.6190536,9.38931806 17.7790523,9.22060913 17.9761935,9.22060913 C18.1733347,9.22060913 18.3333333,9.36647206 18.3333333,9.56048733 L18.3333333,9.58333333 C18.3333333,9.8170655 18.3240477,10.0525551 18.3058336,10.2838269 C18.291548,10.4680008 18.1347636,10.6082401 17.9501223,10.6082401 M4.52380652,9.93867652 C4.32666532,9.93867652 4.16666667,9.7850811 4.16666667,9.59106583 L4.16666667,9.58333333 C4.16666667,9.34362606 4.17630944,9.10251288 4.19523786,8.8673748 C4.21095201,8.67406248 4.382022,8.53065989 4.57952034,8.54471897 C4.7763044,8.56018395 4.92308888,8.72959584 4.90737473,8.92290816 C4.88987488,9.14012091 4.88094638,9.36225434 4.88094638,9.58333333 C4.88094638,9.77734861 4.72094772,9.93867652 4.52380652,9.93867652 M17.7151242,7.84281951 C17.5554827,7.84281951 17.4101268,7.73667347 17.3694129,7.57745442 C17.3140562,7.3612961 17.2494139,7.14619221 17.1765573,6.93741491 C17.1126293,6.75394394 17.2122713,6.55395356 17.3986983,6.49103919 C17.5854825,6.42742186 17.7886951,6.52583541 17.8522659,6.70965785 C17.931551,6.93671195 18.0019075,7.1707956 18.061907,7.40523072 C18.1101209,7.59362236 17.9940505,7.78447434 17.8029806,7.83192373 C17.7740523,7.83965622 17.7447669,7.84281951 17.7151242,7.84281951 M4.97594558,7.20418591 C4.93773162,7.20418591 4.89916051,7.19785932 4.86094655,7.18520615 C4.6741624,7.12299473 4.57416324,6.92335583 4.637377,6.73953339 C4.71630491,6.51107337 4.80594701,6.28296484 4.90416047,6.06188584 C4.98344552,5.88368703 5.19344375,5.80319881 5.37451366,5.88052374 C5.55522643,5.95820014 5.63772573,6.16557154 5.55879783,6.34341887 C5.46844144,6.54622107 5.38629927,6.75570133 5.31415702,6.96518158 C5.26308602,7.11174747 5.1248729,7.20418591 4.97594558,7.20418591 M16.5722767,5.30867075 C16.4576348,5.30867075 16.3454929,5.2545433 16.2762078,5.1540209 C16.1497803,4.97054993 16.0140671,4.79164817 15.8726397,4.62258776 C15.7472836,4.47285858 15.7690692,4.25107663 15.9212107,4.12770822 C16.0733523,4.00433982 16.2987076,4.02577991 16.4240637,4.17550909 C16.5794195,4.36144039 16.728704,4.557916 16.8676314,4.76001524 C16.9783447,4.92064021 16.9354879,5.13925886 16.772275,5.24821672 C16.710847,5.28898804 16.6415618,5.30867075 16.5722767,5.30867075 M6.33164847,4.77407432 C6.25236343,4.77407432 6.1723641,4.74806503 6.10593608,4.69464053 C5.95308023,4.57197508 5.93058042,4.3505446 6.05557936,4.20011247 C6.21307804,4.01031492 6.38021949,3.82754691 6.5523609,3.6570806 C6.69164545,3.52000459 6.91771498,3.51895016 7.05735666,3.65567469 C7.19735548,3.7927507 7.19806976,4.01488412 7.05914236,4.15266309 C6.90342938,4.30696146 6.75164494,4.4725071 6.60843186,4.64508228 C6.53843245,4.7301397 6.43557617,4.77407432 6.33164847,4.77407432 M14.5751506,3.35762224 C14.5083655,3.35762224 14.440866,3.33934544 14.3808665,3.30068298 C14.1940824,3.18082934 13.999084,3.07046558 13.8015857,2.97240351 C13.6258729,2.88488575 13.5551592,2.67364811 13.644087,2.50036998 C13.7330148,2.3277948 13.9472988,2.25714793 14.1237259,2.34501717 C14.3444383,2.4543265 14.5619365,2.5776949 14.7705061,2.71160762 C14.9358619,2.81775366 14.9826472,3.03566936 14.874791,3.19805171 C14.8062201,3.30173741 14.6922925,3.35762224 14.5751506,3.35762224 M8.51055873,3.02371914 C8.38055983,3.02371914 8.25520374,2.95377523 8.19198998,2.83181273 C8.10234788,2.65888608 8.17234729,2.44729696 8.3480601,2.35907624 C8.57055823,2.24765805 8.8005563,2.14748712 9.03234006,2.0624297 C9.21662423,1.99424318 9.42269393,2.08633014 9.49197906,2.26839519 C9.56090705,2.45010877 9.46733641,2.65255949 9.28233796,2.72074602 C9.07591113,2.79666504 8.87055571,2.88558871 8.67198595,2.98540816 C8.62055781,3.01141745 8.56484399,3.02371914 8.51055873,3.02371914 M11.9412442,2.40898597 C11.9273157,2.40898597 11.9133873,2.40828302 11.8994588,2.40652563 C11.6844606,2.38192225 11.465891,2.36962055 11.2498214,2.36962055 C11.0526802,2.36962055 10.8851816,2.21215888 10.8851816,2.01814361 C10.8851816,1.82412834 11.0376804,1.66666667 11.2348216,1.66666667 L11.2498214,1.66666667 C11.4933908,1.66666667 11.7398173,1.68072574 11.9819581,1.70849242 C12.1776708,1.73063547 12.3183839,1.90496803 12.2955269,2.09792888 C12.2748128,2.27718212 12.1198141,2.40898597 11.9412442,2.40898597" id="XMLID_115_" fill="#F4BF1A"></path>
                    <path d="M2.44936295,10 L0,10 C0.0081672656,10.2804167 0.0236850702,10.5583333 0.0485952303,10.8333333 L2.5,10.8333333 C2.47468148,10.5583333 2.45793858,10.2804167 2.44936295,10" id="XMLID_114_" fill="#DCA815"></path>
                    <path d="M2.5,8.33333333 L0.074433657,8.33333333 C0.0408576052,8.60791667 0.0165857605,8.88625 0,9.16666667 L2.42677994,9.16666667 C2.44377023,8.88625 2.46642395,8.60791667 2.5,8.33333333" id="XMLID_113_" fill="#DCA815"></path>
                    <path d="M2.32596899,12.5 L0,12.5 C0.0503875969,12.7816667 0.108527132,13.0595833 0.174806202,13.3333333 L2.5,13.3333333 C2.43410853,13.0595833 2.37635659,12.7816667 2.32596899,12.5" id="XMLID_112_" fill="#DCA815"></path>
                    <path d="M3.02841962,14.1666667 L0.833333333,14.1666667 C0.926562348,14.4508333 1.02966267,14.7279167 1.13934386,15 L3.33333333,15 C3.22365214,14.7283333 3.12164863,14.4504167 3.02841962,14.1666667" id="XMLID_111_" fill="#DCA815"></path>
                    <path d="M3.33333333,6.66666667 L1.03610856,6.66666667 C0.961361546,6.94041667 0.891597669,7.2175 0.833333333,7.5 L3.13592456,7.5 C3.1941889,7.21833333 3.25896964,6.93958333 3.33333333,6.66666667" id="XMLID_110_" fill="#DCA815"></path>
                    <path d="M3.33333333,5 L1.16726835,5 C1.04813478,5.27125 0.935860409,5.54875 0.833333333,5.83333333 L3.00084236,5.83333333 C3.10336943,5.54916667 3.21419976,5.27125 3.33333333,5" id="XMLID_109_" fill="#DCA815"></path>
                    <path d="M5,2.5 L3.03152445,2.5 C2.84506488,2.765 2.66778084,3.04291667 2.5,3.33333333 L4.46782016,3.33333333 C4.63592869,3.04291667 4.81354044,2.765 5,2.5" id="XMLID_108_" fill="#DCA815"></path>
                    <path d="M7.5,0.833333333 L5.26027117,0.833333333 C4.87959549,1.07916667 4.51456401,1.3575 4.16666667,1.66666667 L6.40490558,1.66666667 C6.7531754,1.3575 7.11895184,1.07916667 7.5,0.833333333" id="XMLID_107_" fill="#DCA815"></path>
                    <path d="M3.6732852,15.8333333 L1.66666667,15.8333333 C1.82176762,16.1220833 1.98555957,16.4 2.15871106,16.6666667 L4.16666667,16.6666667 C3.99351518,16.4 3.82872042,16.1220833 3.6732852,15.8333333" id="XMLID_106_" fill="#DCA815"></path>
                    <path d="M3.33333333,17.5 C3.64683376,17.80125 3.97516983,18.0808333 4.31873194,18.3333333 L6.66666667,18.3333333 C6.32154291,18.0804167 5.98969314,17.8025 5.67502147,17.5 L3.33333333,17.5 Z" id="XMLID_105_" fill="#DCA815"></path>
                </g>
            </g>
        </g>
    </g>
</svg>