<svg xmlns="http://www.w3.org/2000/svg" width="32.04" height="32.04" viewBox="0 0 32.04 32.04">
  <g id="cricket" transform="translate(0 -0.002)">
    <path id="Path_34" data-name="Path 34" d="M448.425,446.659a1.251,1.251,0,0,1-1.77,1.77l-1.416-1.416,1.77-1.77Z" transform="translate(-417.378 -417.379)" fill="#4dbbeb"/>
    <path id="Path_35" data-name="Path 35" d="M322.221,322.224a1.25,1.25,0,0,0,.265-.392l.334-.779,7.771,7.772-1.77,1.77-7.772-7.771.779-.334A1.25,1.25,0,0,0,322.221,322.224Z" transform="translate(-300.959 -300.96)" fill="#fd3c65"/>
    <path id="Path_36" data-name="Path 36" d="M209.129,396A3.129,3.129,0,1,1,206,399.132,3.129,3.129,0,0,1,209.129,396Z" transform="translate(-193.109 -371.22)" fill="#f0f0f0"/>
    <path id="Path_37" data-name="Path 37" d="M40.422,15.681a1.251,1.251,0,0,0,.342-1.13,5.763,5.763,0,0,0-4.522-4.522,1.251,1.251,0,0,0-1.13.342L25.394,20.6l-.005.005L15.676,10.371a1.251,1.251,0,0,0-1.13-.342,5.764,5.764,0,0,0-4.522,4.522,1.25,1.25,0,0,0,.342,1.13L20.738,25.52l-.005.006-1.976,2.086.8,1.858.334.779a1.252,1.252,0,0,0,.657.657l.779.334,1.858.8,2.213-2.1h0l2.212,2.1,1.858-.8.779-.334a1.252,1.252,0,0,0,.657-.657l.334-.779.8-1.858-1.978-2.085h0Z" transform="translate(-9.374 -9.377)" fill="#fec761"/>
    <path id="Path_38" data-name="Path 38" d="M46.85,322.224a1.249,1.249,0,0,0,.392.265l.779.334-7.772,7.771-1.77-1.77,7.771-7.772.334.779A1.249,1.249,0,0,0,46.85,322.224Z" transform="translate(-36.072 -300.96)" fill="#fd3c65"/>
    <path id="Path_39" data-name="Path 39" d="M13.554,447.013l-1.416,1.416a1.251,1.251,0,1,1-1.77-1.77l1.416-1.416Z" transform="translate(-9.377 -417.379)" fill="#4dbbeb"/>
    <path id="Path_40" data-name="Path 40" d="M189.618,189.621a.626.626,0,1,0,.885,0A.626.626,0,0,0,189.618,189.621Z" transform="translate(-177.581 -177.581)"/>
    <path id="Path_41" data-name="Path 41" d="M22.6,19.95l.63-1.469a.626.626,0,0,0-.121-.677l-1.547-1.631,9.914-9.415.012-.011A1.873,1.873,0,0,0,32,5.052,6.372,6.372,0,0,0,26.991.039a1.874,1.874,0,0,0-1.7.514l-.011.012-9.269,9.76L6.756.564,6.745.552a1.874,1.874,0,0,0-1.7-.514A6.39,6.39,0,0,0,.037,5.052a1.876,1.876,0,0,0,.513,1.7l.012.012,9.917,9.408L8.928,17.8a.626.626,0,0,0-.121.677l.63,1.468L.55,28.837A1.877,1.877,0,1,0,3.2,31.492l8.887-8.887,1.468.63a.626.626,0,0,0,.677-.121l1.784-1.69,1.781,1.69a.626.626,0,0,0,.677.121l1.468-.63,8.887,8.887a1.877,1.877,0,1,0,2.655-2.655Zm-1.418,2.123a1.862,1.862,0,0,0,.214-.12.624.624,0,0,0,.551-.551,1.869,1.869,0,0,0,.12-.214l6.676,6.677-.885.885Zm5-20.64a.624.624,0,0,1,.56-.167A5.124,5.124,0,0,1,30.776,5.3a.624.624,0,0,1-.166.56L20.7,15.265l-3.825-4.032Zm-14.8,15.6,1.407,1.335-1.873,1.873-.8-1.869ZM4.178,28.749l-.885-.885,6.676-6.677a1.867,1.867,0,0,0,.12.214.624.624,0,0,0,.551.551,1.855,1.855,0,0,0,.214.12ZM2.32,30.607a.626.626,0,1,1-.885-.885l.973-.973.885.885Zm11.356-8.685-1.869-.8,1.9-1.9,1.409,1.337Zm4.689,0-6.57-6.233L1.43,5.857a.624.624,0,0,1-.166-.56A5.138,5.138,0,0,1,5.295,1.266a.624.624,0,0,1,.56.166L21.92,18.367l-.8,1.869L14.693,13.81a.626.626,0,0,0-.885.885l6.426,6.426ZM30.6,30.607a.625.625,0,0,1-.885,0l-.973-.973.885-.885.973.973a.625.625,0,0,1,0,.885Z" transform="translate(0)"/>
    <path id="Path_42" data-name="Path 42" d="M199.755,386a3.755,3.755,0,1,0,3.755,3.755A3.759,3.759,0,0,0,199.755,386Zm0,6.258a2.5,2.5,0,1,1,2.5-2.5A2.506,2.506,0,0,1,199.755,392.261Z" transform="translate(-183.735 -361.846)"/>
  </g>
</svg>
