<svg xmlns="http://www.w3.org/2000/svg" width="19.03" height="19.029" viewBox="0 0 19.03 19.029">
  <g id="Group_1950" data-name="Group 1950" transform="translate(-1891 -2477)">
    <g id="cricket_1_" data-name="cricket (1)" transform="translate(1891 2477)">
      <path id="Path_45" data-name="Path 45" d="M22.737,14.594c4.817-.263,9.226,4.363,8.963,9.18a9.963,9.963,0,0,1-9.2,9.2c-4.817.263-8.927-2.8-9.2-9.056S17.92,14.857,22.737,14.594Z" transform="translate(-12.836 -14.079)" fill="#fec761"/>
      <g id="Group_1948" data-name="Group 1948" transform="translate(0 0)">
        <path id="Path_46" data-name="Path 46" d="M10.514,20.034A9.515,9.515,0,0,1,2.8,4.942a.317.317,0,0,1,.513.372A8.881,8.881,0,1,0,5.1,3.477a.317.317,0,1,1-.387-.5,9.515,9.515,0,1,1,5.8,17.06Z" transform="translate(-0.999 -1.005)"/>
        <path id="Path_48" data-name="Path 48" d="M97.83,111.028a.317.317,0,0,1-.2-.56c2.273-1.9,4.53-3.976,6.711-6.157s4.255-4.441,6.157-6.711a.317.317,0,1,1,.486.407c-1.914,2.284-4,4.556-6.195,6.753s-4.466,4.278-6.752,6.195A.316.316,0,0,1,97.83,111.028Z" transform="translate(-93.925 -93.898)"/>
        <path id="Path_49" data-name="Path 49" d="M129.747,142.562a.317.317,0,0,1-.216-.548.346.346,0,0,1,.041-.033q.259-.174.517-.353a.317.317,0,0,1,.362.521q-.26.18-.521.356a.319.319,0,0,1-.183.057Zm1.555-1.094a.317.317,0,0,1-.188-.573q.253-.186.5-.377a.317.317,0,1,1,.383.505q-.255.194-.512.382a.314.314,0,0,1-.187.062Zm1.508-1.16a.317.317,0,0,1-.2-.565q.245-.2.488-.4a.317.317,0,0,1,.4.489q-.247.2-.5.4A.316.316,0,0,1,132.81,140.308Zm1.458-1.222a.317.317,0,0,1-.209-.556q.237-.207.472-.418a.317.317,0,1,1,.424.472q-.238.214-.478.424a.316.316,0,0,1-.209.078Zm1.407-1.281a.317.317,0,0,1-.218-.547q.228-.216.454-.437a.317.317,0,0,1,.443.454q-.229.223-.461.443a.316.316,0,0,1-.218.087Zm1.355-1.337a.317.317,0,0,1-.227-.538q.22-.226.437-.454a.317.317,0,1,1,.46.436q-.219.231-.442.46a.316.316,0,0,1-.227.1Zm1.3-1.389a.317.317,0,0,1-.236-.529q.211-.235.418-.471a.317.317,0,1,1,.478.417q-.209.24-.423.478a.317.317,0,0,1-.236.105Zm1.242-1.441a.317.317,0,0,1-.244-.519q.2-.243.4-.489a.317.317,0,1,1,.494.4q-.2.248-.4.495a.316.316,0,0,1-.245.115Zm1.181-1.491a.317.317,0,0,1-.252-.509q.19-.252.377-.5a.317.317,0,1,1,.51.376q-.189.256-.382.511A.316.316,0,0,1,140.752,132.146Zm1.117-1.54a.317.317,0,0,1-.26-.5q.179-.258.353-.517a.309.309,0,0,1,.039-.047.317.317,0,0,1,.478.415q-.172.256-.349.511a.317.317,0,0,1-.261.136Z" transform="translate(-124.657 -124.676)"/>
        <path id="Path_50" data-name="Path 50" d="M32.054,44.879a.317.317,0,0,1-.252-.509q.172-.256.349-.511a.317.317,0,0,1,.521.362q-.179.258-.353.517a.308.308,0,0,1-.039.047A.319.319,0,0,1,32.054,44.879Zm1.094-1.554a.317.317,0,0,1-.255-.505q.189-.256.382-.511a.317.317,0,1,1,.505.383q-.19.252-.377.5a.316.316,0,0,1-.255.129Zm1.16-1.508a.317.317,0,0,1-.247-.516q.2-.248.4-.495a.317.317,0,1,1,.489.4q-.2.243-.4.489a.316.316,0,0,1-.248.118Zm1.222-1.458a.317.317,0,0,1-.239-.526q.209-.24.423-.478a.317.317,0,0,1,.472.424q-.211.235-.418.471a.315.315,0,0,1-.239.109Zm1.281-1.407a.317.317,0,0,1-.23-.535q.219-.231.442-.46a.317.317,0,0,1,.455.443q-.22.226-.437.454a.316.316,0,0,1-.23.1ZM38.148,37.6a.317.317,0,0,1-.221-.544q.23-.223.461-.443a.317.317,0,0,1,.436.461q-.228.216-.454.437a.316.316,0,0,1-.221.09Zm1.389-1.3a.317.317,0,0,1-.212-.553q.238-.214.478-.424a.317.317,0,0,1,.417.478q-.237.207-.472.418a.315.315,0,0,1-.212.081Zm1.442-1.242a.317.317,0,0,1-.2-.562q.247-.2.5-.4a.317.317,0,0,1,.4.495q-.245.2-.488.4a.316.316,0,0,1-.2.073Zm1.492-1.182a.317.317,0,0,1-.192-.57q.255-.193.512-.382a.317.317,0,1,1,.375.511q-.253.186-.5.377a.317.317,0,0,1-.191.064Zm1.54-1.117a.317.317,0,0,1-.181-.578q.26-.18.521-.356a.317.317,0,0,1,.4.491.353.353,0,0,1-.041.033q-.259.174-.517.353a.315.315,0,0,1-.181.057Z" transform="translate(-30.595 -30.623)"/>
        <path id="Path_51" data-name="Path 51" d="M52.531,65.773a.317.317,0,0,1-.243-.521c1.916-2.286,4-4.558,6.195-6.753s4.467-4.279,6.753-6.195a.317.317,0,1,1,.408.486c-2.272,1.9-4.53,3.975-6.712,6.157s-4.253,4.44-6.157,6.711a.317.317,0,0,1-.243.113Z" transform="translate(-50.311 -50.327)"/>
        <path id="Path_52" data-name="Path 52" d="M73.819,87.158a.317.317,0,0,1-.224-.541L86.6,73.61a.317.317,0,0,1,.448.448L74.043,87.065A.316.316,0,0,1,73.819,87.158Z" transform="translate(-70.807 -70.822)"/>
      </g>
    </g>
  </g>
</svg>
