<svg xmlns="http://www.w3.org/2000/svg" xmlns:xlink="http://www.w3.org/1999/xlink" width="46" height="46" viewBox="0 0 46 46">
  <defs>
    <linearGradient id="linear-gradient" y1="0.5" x2="1" y2="0.5" gradientUnits="objectBoundingBox">
      <stop offset="0" stop-color="#959899"/>
      <stop offset="0.35" stop-color="#ecebea"/>
      <stop offset="0.509" stop-color="#fff"/>
      <stop offset="0.65" stop-color="#edeceb"/>
      <stop offset="1" stop-color="#959899"/>
    </linearGradient>
    <linearGradient id="linear-gradient-2" y1="0.5" x2="1" y2="0.5" gradientUnits="objectBoundingBox">
      <stop offset="0" stop-color="#959899"/>
      <stop offset="0.412" stop-color="#fff"/>
      <stop offset="1" stop-color="#959899"/>
    </linearGradient>
    <linearGradient id="linear-gradient-3" y1="0.5" x2="1" y2="0.5" gradientUnits="objectBoundingBox">
      <stop offset="0" stop-color="#959899"/>
      <stop offset="0.406" stop-color="#fff"/>
      <stop offset="1" stop-color="#959899"/>
    </linearGradient>
  </defs>
  <g id="Symbol_7_1" data-name="Symbol 7 – 1" transform="translate(-997 -3103)">
    <g id="Group_9448" data-name="Group 9448" transform="translate(-114)">
      <circle id="Ellipse_85" data-name="Ellipse 85" cx="23" cy="23" r="23" transform="translate(1111 3103)" fill="#a20c1e"/>
    </g>
    <g id="Group_9463" data-name="Group 9463" transform="translate(995.225 3091.413)">
      <g id="Group_9462" data-name="Group 9462" transform="translate(13.775 21.587)">
        <path id="Path_4091" data-name="Path 4091" d="M24.92,50.792c-.169-.06-1.177-.458-1.306-.514a18.328,18.328,0,0,1-5.18-2.984,8.217,8.217,0,0,1-2.645-5.626c-.018-.212-.031-.441-.042-.7a2.1,2.1,0,0,1-.163-.42c0,.05.008.1.014.148,0,.018,0,.036.006.053l.034.307-.192-.242a1.33,1.33,0,0,1-.325-1.169,1.269,1.269,0,0,1-.219-.08.7.7,0,0,0-.194-.065H14.7l0,.011,0,.014-.008.011a.273.273,0,0,0,.011.034.165.165,0,0,1,.007.116l-.029.075-.077-.022c-.466-.129-.911-.5-.789-1.021a.649.649,0,0,1,.2-.317l.017-.017-.006-.014a.314.314,0,0,1-.029-.141.31.31,0,0,1,.031-.109.2.2,0,0,0,.013-.033c-.005-.012-.017-.033-.025-.047s-.023-.041-.032-.059a1.012,1.012,0,0,1-.035-.677.158.158,0,0,1-.07-.056l-.007-.011,0-.012a1.047,1.047,0,0,1-.007-.807.553.553,0,0,1,.07-.094.288.288,0,0,0,.06-.087.643.643,0,0,0,0-.13.614.614,0,0,1,.03-.3l.014-.031.03-.013c.113-.05.225-.1.334-.158a3.93,3.93,0,0,1,.851-.338c0-.013-.007-.026-.012-.039A.586.586,0,0,1,15.2,35.1l0-.051.042-.029a3.362,3.362,0,0,1,.5-.284V25.246l.547.8A3.118,3.118,0,0,0,18.93,27.37l.138,0a6.309,6.309,0,0,0,1.672-.246.231.231,0,0,1,.068-.008,4.388,4.388,0,0,1,.761.161,13.5,13.5,0,0,0,3.271.52l.166,0h.006l.169,0a13.527,13.527,0,0,0,3.272-.52,4.359,4.359,0,0,1,.76-.161.233.233,0,0,1,.067.008,6.308,6.308,0,0,0,1.672.246l.137,0a3.119,3.119,0,0,0,2.642-1.328l.547-.8v9.5a3.286,3.286,0,0,1,.468.269l.042.029,0,.051a.556.556,0,0,1-.028.128c0,.014-.008.026-.011.038a3.948,3.948,0,0,1,.849.336c.109.054.222.109.336.159l.031.013.014.031a.622.622,0,0,1,.03.3.585.585,0,0,0,0,.131.272.272,0,0,0,.059.087.513.513,0,0,1,.069.093,1.031,1.031,0,0,1-.007.808l0,.012-.007.01a.154.154,0,0,1-.071.057,1.008,1.008,0,0,1-.035.676c-.009.02-.02.04-.031.06a.413.413,0,0,0-.026.048c0,.007.009.022.014.032a.293.293,0,0,1,.03.108.313.313,0,0,1-.028.142c0,.005,0,.01-.006.015l.018.018a.653.653,0,0,1,.2.317c.122.519-.324.892-.79,1.021l-.076.021-.029-.074a.162.162,0,0,1,.007-.116.153.153,0,0,0,.01-.036l-.008-.012,0-.01a.077.077,0,0,0,0-.012h-.008a.7.7,0,0,0-.194.065,1.336,1.336,0,0,1-.219.081,1.33,1.33,0,0,1-.325,1.168l-.192.243.034-.308c0-.017,0-.035.006-.053.005-.044.012-.1.014-.148a2.1,2.1,0,0,1-.129.351c-.01.287-.025.538-.045.768a8.217,8.217,0,0,1-2.645,5.626,18.308,18.308,0,0,1-5.18,2.984c-.128.056-1.133.453-1.3.514l-.089.025Z" transform="translate(-13.775 -24.935)" fill="#101213"/>
        <path id="Path_4092" data-name="Path 4092" d="M36.823,41.49c.011-.071.047-.1.044-.178,0-.054-.049-.1-.044-.154a.76.76,0,0,1,.065-.133.942.942,0,0,0,.007-.693c.032-.02.086-.021.105-.052a.962.962,0,0,0,.014-.74c-.035-.064-.123-.131-.138-.2-.021-.108.035-.289-.022-.415a5.845,5.845,0,0,0-1.248-.508c0-.1.043-.153.05-.242a3.215,3.215,0,0,0-.506-.285V28.612l-.385.56a3.2,3.2,0,0,1-2.712,1.366,6.264,6.264,0,0,1-1.836-.247,23.124,23.124,0,0,1-4.244.675h0a23.145,23.145,0,0,1-4.245-.675,6.257,6.257,0,0,1-1.836.247,3.2,3.2,0,0,1-2.711-1.366l-.385-.56V37.87a3.3,3.3,0,0,0-.538.3,2.039,2.039,0,0,1,.049.242,5.841,5.841,0,0,0-1.247.508c-.058.126,0,.307-.022.415-.014.074-.1.141-.138.2a.964.964,0,0,0,.014.74c.02.031.073.032.105.052a.938.938,0,0,0,.007.693.851.851,0,0,1,.066.133c0,.049-.043.1-.045.154,0,.078.033.107.045.178a.726.726,0,0,0-.235.33c-.119.5.371.816.727.915.014-.035-.05-.1-.009-.167.066-.226.441.127.654.076a1.1,1.1,0,0,0,.253,1.2c-.021-.186-.069-.432.114-.443a1.791,1.791,0,0,0,.207.628c.009.243.022.482.043.716a8.131,8.131,0,0,0,2.615,5.568,18.246,18.246,0,0,0,5.156,2.968c.138.06,1.239.494,1.315.517l.044.013h0l.043-.013c.076-.022,1.178-.456,1.316-.517a18.259,18.259,0,0,0,5.155-2.968A8.13,8.13,0,0,0,35.1,44.741c.023-.256.036-.517.046-.782a1.756,1.756,0,0,0,.172-.561c.182.011.134.257.114.442a1.1,1.1,0,0,0,.252-1.2c.213.052.587-.3.654-.075.042.062-.023.132-.009.166.356-.1.846-.411.727-.915A.738.738,0,0,0,36.823,41.49Z" transform="translate(-14.736 -28.016)" fill="#e1001b"/>
        <g id="Group_9453" data-name="Group 9453" transform="translate(4.88 0)">
          <g id="Group_9450" data-name="Group 9450">
            <g id="Group_9449" data-name="Group 9449">
              <path id="Path_4093" data-name="Path 4093" d="M74.078,25.235c-.085.015,1.34-1.078.82-1.169a1.809,1.809,0,0,1-1.222-1.027c-.121.966-.508,1.086-1.474.918A3.38,3.38,0,0,0,74.078,25.235Z" transform="translate(-72.122 -22.916)" fill="#e1001b" fill-rule="evenodd"/>
              <path id="Path_4094" data-name="Path 4094" d="M72.78,21.705a1.138,1.138,0,0,1-.341.818,1.48,1.48,0,0,1-1.089.068l-.085-.016.048.073a3.4,3.4,0,0,0,1.9,1.294l.027.008.014-.029c.01-.015.086-.083.159-.148.407-.365.836-.77.779-.969a.157.157,0,0,0-.14-.1,1.759,1.759,0,0,1-1.2-1.007l-.056-.106Zm-.3.878a1.113,1.113,0,0,0,.353-.763,1.767,1.767,0,0,0,1.2.953c.071.013.079.041.082.051a.132.132,0,0,1,0,.023c0,.189-.528.662-.759.869-.085.076-.13.117-.155.143a3.366,3.366,0,0,1-1.774-1.181A1.416,1.416,0,0,0,72.484,22.584Z" transform="translate(-71.264 -21.587)" fill="#101213" fill-rule="evenodd"/>
            </g>
          </g>
          <g id="Group_9452" data-name="Group 9452" transform="translate(9.761)">
            <g id="Group_9451" data-name="Group 9451">
              <path id="Path_4095" data-name="Path 4095" d="M187.637,25.235c.086.015-1.341-1.078-.82-1.169a1.81,1.81,0,0,0,1.222-1.027c.121.966.507,1.086,1.474.918A3.384,3.384,0,0,1,187.637,25.235Z" transform="translate(-186.665 -22.916)" fill="#e1001b" fill-rule="evenodd"/>
              <path id="Path_4096" data-name="Path 4096" d="M187.6,21.693a1.762,1.762,0,0,1-1.2,1.008.156.156,0,0,0-.139.1c-.057.2.372.6.778.969a2.157,2.157,0,0,1,.158.148l.016.023.026,0a3.4,3.4,0,0,0,1.9-1.294l.047-.073-.086.016a1.479,1.479,0,0,1-1.088-.068,1.135,1.135,0,0,1-.341-.818l-.014-.118Zm-.507,2.024c-.231-.207-.76-.68-.76-.869a.078.078,0,0,1,0-.023c0-.01.011-.038.081-.05a1.773,1.773,0,0,0,1.2-.955,1.107,1.107,0,0,0,.352.763,1.417,1.417,0,0,0,1.056.1,3.366,3.366,0,0,1-1.775,1.181C187.225,23.834,187.179,23.793,187.095,23.716Z" transform="translate(-186.26 -21.587)" fill="#101213" fill-rule="evenodd"/>
            </g>
          </g>
        </g>
        <path id="Path_4098" data-name="Path 4098" d="M63.448,60.868l-.007-.948V49.269a4.238,4.238,0,0,1-2.338.715,8.125,8.125,0,0,1-3.745-.929A5.833,5.833,0,0,1,55,49.416h0a5.828,5.828,0,0,1-2.355-.361,8.128,8.128,0,0,1-3.745.929,4.239,4.239,0,0,1-2.338-.715V59.92l-.007.948c0,.3-.006.6-.006.884,0,.57.011,1.116.056,1.633a7.329,7.329,0,0,0,2.379,5.085,17.618,17.618,0,0,0,4.95,2.836c.12.052.747.3,1.066.423h0c.319-.124.946-.37,1.066-.423a17.623,17.623,0,0,0,4.95-2.836A7.327,7.327,0,0,0,63.4,63.385c.045-.517.056-1.063.056-1.633C63.453,61.463,63.451,61.168,63.448,60.868Z" transform="translate(-43.766 -46.723)" fill-rule="evenodd" fill="url(#linear-gradient)"/>
        <g id="Group_9454" data-name="Group 9454" transform="translate(5.645 1.085)">
          <path id="Path_4099" data-name="Path 4099" d="M88.1,36.865a12.662,12.662,0,0,1-6.935-.976c.431-.263.807-.57,1.3-.861,2.327,1.191,6.353.942,8.727-.119.388.384.638.528.978.912A13.994,13.994,0,0,1,88.1,36.865Z" transform="translate(-81.091 -34.864)" fill="#e1001b" fill-rule="evenodd"/>
          <path id="Path_4100" data-name="Path 4100" d="M90.374,34.384c-2.3,1.029-6.343,1.322-8.7.12l-.018-.009-.018.01c-.275.161-.513.327-.743.486-.189.132-.369.257-.561.375l-.055.033.056.032a12.582,12.582,0,0,0,6.958.981h0a13.9,13.9,0,0,0,4.085-1.047l.044-.021-.033-.037a4.816,4.816,0,0,0-.541-.518c-.134-.115-.272-.234-.437-.4l-.019-.019Zm.007.078c.159.156.294.272.424.383a5.154,5.154,0,0,1,.5.472,14.157,14.157,0,0,1-4.012,1.019h0a12.6,12.6,0,0,1-6.857-.943c.173-.108.338-.221.509-.34.224-.156.457-.317.722-.474C84.03,35.777,88.067,35.488,90.381,34.462Z" transform="translate(-80.284 -34.373)" fill="#101213" fill-rule="evenodd"/>
        </g>
        <path id="Path_4101" data-name="Path 4101" d="M111.207,44.527l-.135-.025-.295.295h0l.062-.337-.124-.022-.14.773.123.022.045-.251.086-.084.125.381.139.026-.165-.492Zm.007.794.124.019.022-.144-.124-.018Zm.932-.123c-.007.079-.015.156-.1.148s-.078-.062-.071-.126l0-.039-.118-.012,0,.05a.18.18,0,0,0,.18.22c.125.013.216-.039.233-.211l.054-.566-.124-.012Zm.307.261.125.009.01-.145-.125-.009Zm1.038-.436h-.232l0-.314h-.125l0,.786h.125l0-.365h.232l0,.366h.125l0-.786h-.126Zm.334.465.125,0-.005-.145-.125,0Zm.844-.844-.248.025.08.782.125-.013-.033-.323.11-.011a.212.212,0,0,0,.2-.254A.2.2,0,0,0,114.671,44.645Zm0,.368-.089.009-.028-.27.081-.008a.117.117,0,0,1,.147.122A.119.119,0,0,1,114.674,45.014Zm.436.224.021.143.124-.018-.021-.144Zm.863-.814.07.307-.226.051-.07-.307-.122.028.174.766.122-.028-.081-.356.225-.052.081.357.123-.028L116.1,44.4Zm.583.507-.121.035.039.139.121-.033Z" transform="translate(-102.356 -42.46)" fill="#101213"/>
        <g id="Group_9455" data-name="Group 9455" transform="translate(0.089 7.92)">
          <path id="Path_4102" data-name="Path 4102" d="M16.477,130.081l.051-.318.534-.259.5-.21.175-.024.017-.286.495-.194.409-.181.23-.073L18.93,128l.253-.189.129.175.248-.088.151.076.211.465,1.82.127-.212.55-.55.508-.085.677,1.143.085.38.3-1.438.55-.888.381-.211,1.312.468.643.251,1.241.363.514-.42-.173-.3-.406-.218-.667-.166-.34-.474-.011-.24.995-.4.568-.729-1.069-.285-.759-.421-.246-.648-.151-.186-.4.009-.472.041-.436-.066-.375-.012-.406-.185-.4Z" transform="translate(-16.138 -126.712)" fill-rule="evenodd" fill="url(#linear-gradient-2)"/>
          <path id="Path_4103" data-name="Path 4103" d="M22.107,116.131c-.188-.034-.813-.425-1.317-.035.642-.2,1.2.37,1.592.347a.692.692,0,0,0,.559-.3A1.362,1.362,0,0,1,22.107,116.131Zm-5.564,2.125a4.786,4.786,0,0,1,.592-.256,2.021,2.021,0,0,0-.787.19A.761.761,0,0,0,16.544,118.256Zm3.318,1.66a2.164,2.164,0,0,0,.41.233,1.832,1.832,0,0,0,.752.025,1.949,1.949,0,0,1,.892.188.906.906,0,0,0-.6-.454C20.81,119.807,20.358,120.013,19.861,119.916ZM17.692,117.9a1.239,1.239,0,0,1,.589-.209c.015,0,0-.015-.007-.018a1.734,1.734,0,0,0-1.027.269.614.614,0,0,0,.1.144c.026.03.077.114.12.126s.145-.03.218-.035a3.677,3.677,0,0,1,.887.147A1.109,1.109,0,0,0,17.692,117.9Zm1.3-1.5a2.089,2.089,0,0,1,1.8-.6,2,2,0,0,0-1.911.1c1.381-1.607,2.457-.434,2.507-.262a1.628,1.628,0,0,0-2.281-.5c-.605.362-.83.879-1.082.74-.083-.042,0-.263.027-.324a1.166,1.166,0,0,0-.682,1.066,3.635,3.635,0,0,0-1.12.505,2.039,2.039,0,0,1,.049.242,5.84,5.84,0,0,0-1.247.508c-.058.126,0,.307-.022.415-.014.074-.1.141-.138.2a.964.964,0,0,0,.014.74c.02.031.073.032.105.052a.938.938,0,0,0,.007.693.852.852,0,0,1,.066.133c0,.049-.043.1-.045.154,0,.078.033.107.045.178a.726.726,0,0,0-.235.33c-.119.5.371.816.727.915.014-.035-.05-.1-.009-.167.066-.226.441.127.654.076a1.1,1.1,0,0,0,.253,1.2c-.021-.186-.069-.432.114-.443a2.064,2.064,0,0,0,1.276,1.6c-.165-.144-.25-.432-.144-.545a1.386,1.386,0,0,0,.69.741c-.113-.165-.251-.9-.152-.949.3.642,1.186,1.7,2.313.968a1.129,1.129,0,0,0,.269-.255,3.6,3.6,0,0,0,.268-.5c-1.273.581-1.609-.025-1.61-1.021,0,0,.4.969,1.268.946a1.316,1.316,0,0,1-.725-.7c.317.261.923-.125,1.063-.466a1.289,1.289,0,0,1-1.05-.035,2.338,2.338,0,0,0,1.945-1.2,2.335,2.335,0,0,1-2.731.032,2.686,2.686,0,0,0,1.942-.675,2.441,2.441,0,0,1-2.165-.556,1.451,1.451,0,0,0,.853-.233c1.367-.724,1.413-.463,1.742-.313.019-.459-.256-.691-.718-.752a.583.583,0,0,0,.307-.325,2.32,2.32,0,0,1-.893.147c.032-.057.1-.071.15-.1s.094-.069.15-.1c.086-.051.273-.113.275-.235,0-.106-.118-.135-.238-.123a1,1,0,0,0-.48.2,1.316,1.316,0,0,0-.318.372.822.822,0,0,1,.189-.655,2.025,2.025,0,0,1,1.594.016,3.872,3.872,0,0,0-1.033-.5c.559-.475,1.562-.06,1.928.112A2.912,2.912,0,0,0,18.994,116.4Zm-3.586,2.122c-.046.159-.086.325-.143.473C15.143,118.862,15.143,118.224,15.408,118.52Zm-.125.8c.282.339.832.056,1.193-.011a3.862,3.862,0,0,1-.208.349c-.055-.005-.057-.059-.1-.078-.058.031-.079.1-.134.139-.044-.023-.058-.073-.094-.106a3.147,3.147,0,0,0-.132.427.673.673,0,0,1-.139-.423.366.366,0,0,0-.143.131.367.367,0,0,1-.081-.18.629.629,0,0,0-.114.272A.558.558,0,0,1,15.284,119.317Zm.026,1a.64.64,0,0,1,.1.208.168.168,0,0,0,.095-.078c.071.018.084.092.147.118a1.71,1.71,0,0,1,.113-.253,2.055,2.055,0,0,0,.159.23c.026-.033.042-.077.069-.107.1.067.166.162.258.235a1.694,1.694,0,0,1-.973-.05A.5.5,0,0,1,15.31,120.316Zm5.3,3.533c-1.271.86-1.891-.213-2.137-1.779C18.473,122.071,19.149,124.219,20.609,123.849Zm-1.559-2.708a2.3,2.3,0,0,0,1.314.591C18.977,121.888,19.05,121.142,19.05,121.142Zm.449,2.236a1.148,1.148,0,0,1-.648-1,1.141,1.141,0,0,0-.515-1.057,1.126,1.126,0,0,1,.71.77C19.216,122.617,19.011,123,19.5,123.378Zm-.272-5.472c-.038.152-.02.291-.059.422-.112.376-.419.47-.7.674a1.259,1.259,0,0,0,.647-.114,2.67,2.67,0,0,1,1.012-.187,1.6,1.6,0,0,1,.65.182,2.837,2.837,0,0,0-1.288.265,2.043,2.043,0,0,1-1.45.267c-.047.251.31.421.411.6a1.847,1.847,0,0,1,0,.895c-.058.266-.74.149-1.113.1-.052.044-.042.136-.076.2a.726.726,0,0,0,.1.393c.327.613.551.961.4,1.121h0c.022-.04.08-.265-.588-.822a1.619,1.619,0,0,0,.235,1.322c-.511-.583-.618-1.127-.356-1.447a.809.809,0,0,1-.212-.4,3.165,3.165,0,0,1-1.45-.389,2.047,2.047,0,0,0,1.236-.148.768.768,0,0,1-.375.073,1.281,1.281,0,0,0,.711-1.423,1.191,1.191,0,0,1-.148,1.194.828.828,0,0,0,.392-.729,1.281,1.281,0,0,0-.144-.839.312.312,0,0,0-.194-.066,2.491,2.491,0,0,0-.668.149,1.066,1.066,0,0,1-.688.011c-.015-.24.164-.659.417-.68.159-.014.218.089.26.208a.612.612,0,0,0,.292-.382c-.311-.134-.819-.087-1-.338a2.636,2.636,0,0,1,1.319-.487c-.017-.075-.117-.149-.158-.229a.829.829,0,0,1,.381-.2,3.555,3.555,0,0,1,.458-.115,2.069,2.069,0,0,1-.187.276,4.564,4.564,0,0,1,1.063-.111,1.406,1.406,0,0,1,.651.311,1.164,1.164,0,0,1,1.121-.339A1.08,1.08,0,0,0,19.227,117.906Z" transform="translate(-14.825 -114.888)" fill="#e1001b" fill-rule="evenodd"/>
        </g>
        <g id="Group_9456" data-name="Group 9456" transform="translate(16.081 9.016)">
          <path id="Path_4104" data-name="Path 4104" d="M209.161,130.081l-.052-.318-.534-.259-.5-.21-.175-.024-.015-.286-.5-.194-.409-.181-.229-.073-.046-.537-.254-.189-.128.175-.247-.088-.15.076-.212.465-1.819.127.212.55.55.508.085.677-1.143.085-.38.3,1.438.55.888.381.212,1.312.029.16-.5.483,0,.134-.32,1.174-.226.413.512-.313.28-.5.16-.839.566.093.531,1.683.628-.871.071-.336.46-.293.02-.551.408-.121.6-.175.186-.4-.009-.472-.041-.436.066-.375.012-.406.186-.4Z" transform="translate(-203.221 -127.809)" fill-rule="evenodd" fill="url(#linear-gradient-3)"/>
        </g>
        <g id="Group_9459" data-name="Group 9459" transform="translate(8.916 10.517)">
          <g id="Group_9457" data-name="Group 9457">
            <path id="Path_4105" data-name="Path 4105" d="M122.524,151.018h-1.248l-.531-1.7-.5,1.7h-1.111l.916-3.006-.677-2.283h1.116l.414,1.534.46-1.534h1.043l-.792,2.449Z" transform="translate(-119.109 -145.709)" fill="#e1001b"/>
            <path id="Path_4106" data-name="Path 4106" d="M122.259,150.82h-1.29l-.516-1.651-.485,1.651h-1.153l.008-.026.915-3-.683-2.3h1.158l.4,1.48.444-1.48h1.085l-.8,2.47Zm-1.26-.04H122.2l-.9-2.82,0-.006.783-2.423h-1l-.476,1.587-.428-1.587h-1.073l.671,2.263,0,.006-.908,2.98h1.068l.514-1.749Z" transform="translate(-118.816 -145.491)" fill="#050606"/>
          </g>
          <g id="Group_9458" data-name="Group 9458" transform="translate(3.527)">
            <path id="Path_4107" data-name="Path 4107" d="M161.772,151.018h-1.161v-5.289h1.161Z" transform="translate(-160.591 -145.709)" fill="#e1001b"/>
            <path id="Path_4108" data-name="Path 4108" d="M161.574,150.82h-1.2v-5.329h1.2Zm-1.161-.04h1.121v-5.249h-1.121Z" transform="translate(-160.373 -145.491)" fill="#050606"/>
          </g>
        </g>
        <g id="Group_9461" data-name="Group 9461" transform="translate(4.445 17.157)">
          <g id="Group_9460" data-name="Group 9460">
            <path id="Path_4109" data-name="Path 4109" d="M66.138,226.316l.74.545.622-.938.145.107a1.01,1.01,0,0,0,.776.237.958.958,0,0,0,.612-.458.929.929,0,0,0-.192-1.37l-.982-.724Zm2.066-1.455.048.034a.194.194,0,0,1,.094.158.377.377,0,0,1-.077.2.307.307,0,0,1-.177.152.184.184,0,0,1-.143-.047l-.051-.038Z" transform="translate(-66.138 -223.716)" fill="#101213"/>
            <path id="Path_4110" data-name="Path 4110" d="M95.945,243.006c-.286.768-.117,1.215.565,1.5a1,1,0,0,0,.812.06,1.224,1.224,0,0,0,.573-.753l.711-1.909-.841-.348-.781,2.1c-.057.153-.107.2-.138.217a.109.109,0,0,1-.091-.009c-.06-.025-.135-.057-.037-.321l.781-2.093-.841-.349Z" transform="translate(-93.293 -239.619)" fill="#101213"/>
            <path id="Path_4111" data-name="Path 4111" d="M125.257,254.563l.864.108.155-1.379c.086.571.213,1.425.213,1.425l.966.123.362-3.205-.863-.11s-.09.8-.153,1.357c-.08-.571-.2-1.4-.2-1.4l-.982-.124Z" transform="translate(-120.239 -249.011)" fill="#101213"/>
            <path id="Path_4112" data-name="Path 4112" d="M153.687,250.1l.513,2.251c.064.277-.01.3-.05.306a.075.075,0,0,1-.064,0c-.025-.015-.07-.067-.111-.243l-.052-.229-.827.209.033.143a1.115,1.115,0,0,0,.437.746.926.926,0,0,0,.747.067c.686-.173.928-.6.761-1.329l-.49-2.144Z" transform="translate(-145.715 -247.653)" fill="#101213"/>
            <path id="Path_4113" data-name="Path 4113" d="M173.673,242.209l.746,3.17.854-.471s-.132-.4-.165-.5l.4-.221.3.43.851-.47-2.046-2.454Zm.992.789.411.572-.2.11C174.846,243.583,174.763,243.316,174.665,243Z" transform="translate(-164.545 -240.165)" fill="#101213"/>
            <path id="Path_4114" data-name="Path 4114" d="M188.912,226.373l-.91.824,1.962,2.408.914-.827a.911.911,0,0,0,.11-1.379.7.7,0,0,0-.724-.274.642.642,0,0,0,.029-.177.849.849,0,0,0-.21-.532.774.774,0,0,0-.529-.311A.866.866,0,0,0,188.912,226.373Zm.3.69a.121.121,0,0,1,.095-.035.249.249,0,0,1,.161.1.274.274,0,0,1,.066.164.147.147,0,0,1-.049.112l-.075.067c-.066-.082-.212-.262-.276-.34Zm.73.849a.146.146,0,0,1,.112-.036.3.3,0,0,1,.2.122.351.351,0,0,1,.09.217.172.172,0,0,1-.052.13l-.1.086-.349-.428Z" transform="translate(-177.658 -225.901)" fill="#101213"/>
          </g>
          <path id="Path_4115" data-name="Path 4115" d="M69.08,225.1l.914.674a.85.85,0,0,1,.172,1.255.793.793,0,0,1-1.274.2l-.213-.157-.622.938-.609-.449Zm-.1,1.512.115.084c.153.113.3.081.434-.126s.118-.36-.036-.474l-.115-.085Z" transform="translate(-67.337 -224.981)" fill="#e1001b"/>
          <path id="Path_4116" data-name="Path 4116" d="M98.283,242.662l-.751,2.017c-.1.27-.049.374.081.428s.235.015.335-.256l.751-2.018.692.287-.683,1.833c-.292.783-.7.886-1.279.645s-.812-.608-.521-1.392l.684-1.833Z" transform="translate(-94.182 -240.791)" fill="#e1001b"/>
          <path id="Path_4117" data-name="Path 4117" d="M126.656,252.449l.841.106.273,1.935h.008l.212-1.873.7.089-.343,3.04-.824-.1-.289-1.941-.009,0-.212,1.878-.7-.089Z" transform="translate(-121.205 -250.01)" fill="#e1001b"/>
          <path id="Path_4118" data-name="Path 4118" d="M155.578,251.054l.471,2.063c.165.723-.092,1.076-.7,1.23s-.943-.126-1.086-.752l-.014-.063.669-.169.034.147c.065.285.161.336.273.308s.175-.12.11-.4l-.5-2.172Z" transform="translate(-146.768 -248.733)" fill="#e1001b"/>
          <path id="Path_4119" data-name="Path 4119" d="M174.772,243.382l.828-.456,1.939,2.325-.7.386-.3-.43-.524.288.164.5-.7.385Zm.688.314-.007,0,.381,1.23.369-.2Z" transform="translate(-165.551 -241.295)" fill="#e1001b"/>
          <path id="Path_4120" data-name="Path 4120" d="M189.321,228.1l.851-.77a.654.654,0,0,1,1.054.034.643.643,0,0,1,.077.818l.005.006a.581.581,0,0,1,.825.16.826.826,0,0,1-.1,1.263l-.852.771Zm1.293.385.136-.123a.28.28,0,0,0-.009-.392c-.1-.128-.256-.179-.371-.074l-.136.123Zm.781.958.158-.142c.1-.093.121-.277-.029-.462s-.321-.186-.424-.094l-.156.143Z" transform="translate(-178.865 -226.797)" fill="#e1001b"/>
        </g>
        <path id="Path_4121" data-name="Path 4121" d="M87.743,70.849s0,1.272,0,1.446c-.145-.628-.352-1.521-.352-1.521l-.068,0-.933.051,0,.079L86.4,74.4l.873,0s0-1.534,0-1.537c.15.628.367,1.537.367,1.537h.979l0-3.626-.879,0Zm1.61.14c-.28.259-.4.721-.4,1.6h0c0,.76.022,1.365.324,1.668a.8.8,0,0,0,.593.211.762.762,0,0,0,.565-.2c0,.019.007.136.007.136l.673,0,.008-1.952-1.145-.066v.767l.266.009a.955.955,0,0,1-.1.519.093.093,0,0,1-.074.023c-.144,0-.174-.2-.172-1.091a2.432,2.432,0,0,1,.1-1.05.1.1,0,0,1,.085-.021c.037,0,.077.016.1.1a1.314,1.314,0,0,1,.036.372v.077l.9.068,0-.089c0-1.044-.62-1.256-.993-1.29A.986.986,0,0,0,89.353,70.989Zm-4.245-.047,0,.075.013,3.383.923,0-.012-3.554Zm-.249.008-.852.128-.016.043s-.246.565-.4.933c0-.348,0-.9,0-.9l-.915.2V74.41l.922,0s0-.828,0-.871c.008-.015.031-.053.062-.106.093.225.4.975.4.975h.055l.99,0-.052-.116c-.282-.63-.555-1.219-.812-1.753.034-.07.778-1.6.778-1.6Zm6.85.249a1.008,1.008,0,0,0-.3.81,1.134,1.134,0,0,0,.775,1.12c.261.133.407.218.407.414a.242.242,0,0,1-.058.17.132.132,0,0,1-.1.037c-.046,0-.168-.005-.166-.292V73.3l-.079,0-.819-.04v.2a1,1,0,0,0,.246.748,1.091,1.091,0,0,0,.81.256c.738,0,1.112-.333,1.112-.978a1.173,1.173,0,0,0-.781-1.081c-.277-.153-.448-.258-.448-.464a.191.191,0,0,1,.049-.142.107.107,0,0,1,.091-.019c.107.017.144.164.143.284v.145l.073.011.8.121v-.1a1.08,1.08,0,0,0-1-1.179A.887.887,0,0,0,91.709,71.2Z" transform="translate(-76.82 -66.592)" fill="#101213"/>
        <path id="Path_4122" data-name="Path 4122" d="M85.772,71.908q-.4.053-.8.121-.277.655-.555,1.279h-.008q0-.587,0-1.176-.375.074-.748.161V75.2l.757,0q0-.406,0-.811c.052-.089.106-.178.158-.269q.222.525.446,1.078l.863,0c-.277-.617-.553-1.215-.828-1.786C85.288,72.919,85.53,72.418,85.772,71.908Zm.323-.017q.005,1.65.012,3.3l.757,0q-.007-1.69-.012-3.38Q86.474,71.844,86.095,71.891Zm2.632-.167q0,1.067,0,2.135H88.72c-.164-.71-.327-1.42-.493-2.123q-.426.015-.851.047,0,1.7.009,3.407h.708q0-1.065,0-2.129H88.1q.255,1.059.508,2.13h.83q0-1.732,0-3.461C89.2,71.721,88.964,71.72,88.727,71.724Zm2.275.6a.193.193,0,0,1,.175.16,1.4,1.4,0,0,1,.04.4c.244.016.49.034.733.055,0-.794-.378-1.157-.917-1.207-.9-.073-1.089.577-1.091,1.729s.067,1.8.836,1.795a.6.6,0,0,0,.628-.362h.008c0,.1.01.2.014.3h.513q0-.895.007-1.79-.488-.035-.978-.057,0,.3,0,.6l.269.009c-.006.59-.1.707-.259.7-.232,0-.256-.252-.253-1.175S90.752,72.311,91,72.329Zm2.128.488c0-.142.074-.268.236-.243.146.023.214.186.213.365v.073q.352.049.7.107a1,1,0,0,0-.93-1.1c-.635-.121-.951.2-.953.862,0,1.157,1.183.925,1.181,1.535,0,.167-.09.293-.244.289s-.248-.106-.247-.376c0-.025,0-.05,0-.075q-.366-.019-.732-.035c0,.038,0,.076,0,.114,0,.68.346.923.973.921.667,0,1.029-.281,1.029-.9C94.359,73.3,93.129,73.432,93.13,72.817Z" transform="translate(-77.722 -67.466)" fill="#e1001b"/>
        <path id="Path_4123" data-name="Path 4123" d="M181.432,116.143a.7.7,0,0,0,.56.3c.393.023.95-.542,1.592-.347-.5-.39-1.129,0-1.317.035A1.365,1.365,0,0,1,181.432,116.143Zm6.594,2.047a2.022,2.022,0,0,0-.787-.19,4.775,4.775,0,0,1,.592.256A.771.771,0,0,0,188.026,118.19Zm-4.967,1.718a.906.906,0,0,0-.6.454,1.952,1.952,0,0,1,.892-.188,1.832,1.832,0,0,0,.752-.025,2.173,2.173,0,0,0,.41-.233C184.016,120.013,183.564,119.807,183.059,119.908Zm2.743-1.584a3.667,3.667,0,0,1,.886-.147c.074,0,.169.047.219.035s.093-.1.12-.126a.6.6,0,0,0,.1-.144,1.734,1.734,0,0,0-1.027-.269c-.01,0-.022.016-.008.018a1.236,1.236,0,0,1,.589.209A1.106,1.106,0,0,0,185.8,118.324Zm-3.983-1.091c.366-.172,1.37-.587,1.929-.112a3.872,3.872,0,0,0-1.034.5,2.027,2.027,0,0,1,1.595-.016.83.83,0,0,1,.189.655,1.321,1.321,0,0,0-.318-.372,1.008,1.008,0,0,0-.481-.2c-.119-.011-.239.018-.237.123,0,.123.19.184.275.235.057.034.1.073.151.1s.119.046.149.1a2.316,2.316,0,0,1-.893-.147.582.582,0,0,0,.307.325c-.461.061-.737.293-.717.752.33-.151.376-.411,1.742.313a1.458,1.458,0,0,0,.854.233,2.441,2.441,0,0,1-2.165.556,2.688,2.688,0,0,0,1.943.675,2.338,2.338,0,0,1-2.732-.032,2.341,2.341,0,0,0,1.945,1.2,1.287,1.287,0,0,1-1.049.035c.14.341.746.727,1.062.466a1.318,1.318,0,0,1-.725.7c.869.023,1.269-.946,1.269-.946,0,1-.337,1.6-1.611,1.022a3.606,3.606,0,0,0,.268.5,1.116,1.116,0,0,0,.269.255c1.126.731,2.014-.326,2.313-.968.1.048-.04.784-.153.949a1.385,1.385,0,0,0,.689-.741c.106.114.021.4-.144.545a2.063,2.063,0,0,0,1.276-1.6c.182.011.134.257.114.442a1.1,1.1,0,0,0,.252-1.2c.213.052.587-.3.654-.075.042.062-.023.132-.009.166.356-.1.846-.411.727-.915a.738.738,0,0,0-.235-.33c.011-.071.047-.1.044-.178,0-.054-.049-.1-.044-.154a.761.761,0,0,1,.065-.133.942.942,0,0,0,.007-.693c.032-.02.086-.021.105-.052a.962.962,0,0,0,.014-.74c-.035-.064-.123-.131-.138-.2-.021-.108.035-.289-.022-.415a5.845,5.845,0,0,0-1.248-.508c0-.1.043-.153.05-.242a3.631,3.631,0,0,0-1.12-.505,1.166,1.166,0,0,0-.681-1.066c.028.061.109.282.026.324-.251.139-.475-.378-1.081-.74a1.627,1.627,0,0,0-2.28.5c.05-.172,1.125-1.345,2.506.262a2,2,0,0,0-1.911-.1,2.09,2.09,0,0,1,1.8.6A2.912,2.912,0,0,0,181.819,117.233Zm7.29,1.76c-.056-.147-.1-.313-.143-.473C189.231,118.224,189.231,118.862,189.108,118.992Zm-.071.845a.626.626,0,0,0-.114-.272.365.365,0,0,1-.081.18.363.363,0,0,0-.143-.131.675.675,0,0,1-.139.423,3.111,3.111,0,0,0-.131-.427c-.036.032-.049.083-.094.106-.054-.036-.075-.108-.134-.139-.039.019-.04.072-.1.078a3.609,3.609,0,0,1-.208-.349c.36.068.91.35,1.193.011A.56.56,0,0,1,189.038,119.837Zm.06.782a1.693,1.693,0,0,1-.973.05c.092-.074.16-.168.258-.235.028.03.043.074.069.107a2,2,0,0,0,.159-.23,1.778,1.778,0,0,1,.113.253c.063-.026.075-.1.147-.118a.168.168,0,0,0,.095.078.645.645,0,0,1,.1-.208A.5.5,0,0,1,189.1,120.619Zm-3.2,1.451c-.245,1.565-.865,2.639-2.136,1.779C185.226,124.219,185.9,122.071,185.9,122.071Zm-1.891-.337a2.308,2.308,0,0,0,1.315-.591S185.4,121.888,184.009,121.733Zm1.319.358a1.124,1.124,0,0,1,.71-.77,1.138,1.138,0,0,0-.516,1.057,1.148,1.148,0,0,1-.648,1C185.364,123,185.158,122.618,185.329,122.092Zm-1.074-4.971a1.164,1.164,0,0,1,1.121.339,1.41,1.41,0,0,1,.652-.311,4.566,4.566,0,0,1,1.063.111,2.172,2.172,0,0,1-.187-.276,3.541,3.541,0,0,1,.458.115.838.838,0,0,1,.382.2c-.043.08-.142.154-.16.229a2.636,2.636,0,0,1,1.319.487c-.183.251-.692.2-1,.338a.615.615,0,0,0,.293.382c.043-.118.1-.222.259-.208.253.022.432.44.418.68a1.066,1.066,0,0,1-.688-.011,2.491,2.491,0,0,0-.668-.149.312.312,0,0,0-.194.066,1.289,1.289,0,0,0-.144.839.827.827,0,0,0,.393.729,1.19,1.19,0,0,1-.147-1.194,1.279,1.279,0,0,0,.711,1.423.759.759,0,0,1-.374-.073,2.042,2.042,0,0,0,1.236.149,3.178,3.178,0,0,1-1.45.388.818.818,0,0,1-.212.4c.264.32.155.864-.356,1.446a1.619,1.619,0,0,0,.236-1.322c-.669.557-.611.781-.588.822h0c-.154-.159.07-.508.4-1.121a.721.721,0,0,0,.1-.393c-.033-.064-.023-.155-.075-.2-.373.047-1.055.164-1.113-.1a1.846,1.846,0,0,1,0-.9c.1-.175.458-.344.412-.6a2.042,2.042,0,0,1-1.45-.267,2.841,2.841,0,0,0-1.289-.265,1.6,1.6,0,0,1,.65-.182,2.667,2.667,0,0,1,1.012.187,1.26,1.26,0,0,0,.647.114c-.286-.2-.593-.3-.705-.674-.039-.131-.02-.271-.059-.422A1.079,1.079,0,0,0,184.254,117.121Z" transform="translate(-167.201 -106.968)" fill="#e1001b" fill-rule="evenodd"/>
      </g>
    </g>
  </g>
</svg>
