<?xml version="1.0" encoding="UTF-8"?>
<svg width="182px" height="170px" viewBox="0 0 182 170" version="1.1" xmlns="http://www.w3.org/2000/svg" xmlns:xlink="http://www.w3.org/1999/xlink">
    <!-- Generator: Sketch 53.2 (72643) - https://sketchapp.com -->
    <title>Group 18</title>
    <desc>Created with Sketch.</desc>
    <g id="Page-1" stroke="none" stroke-width="1" fill="none" fill-rule="evenodd">
        <g id="King-of-Good-Times-1" transform="translate(-97.000000, -196.000000)">
            <g id="Group-18" transform="translate(97.000000, 196.000000)">
                <g id="banner" fill-rule="nonzero">
                    <path d="M165.395833,21.0369468 L165.395833,74.5866698 C141.06486,81.3863932 115.635417,84.7869468 90.6666667,84.7869468 C65.4848635,84.7869468 40.0568032,81.2798666 15.6179198,74.4815266 L15.6179198,20.9304198 L17.4247234,21.4616698 C41.2244468,28.2627766 66.1226401,31.6619468 90.6666667,31.6619468 C115.210693,31.6619468 140.108887,28.2627766 163.90861,21.4616698 L165.395833,21.0369468 Z" id="Path" fill="#E63950"></path>
                    <path d="M165.395833,21.0369468 L165.395833,74.5866698 C141.06486,81.3863932 115.635417,84.7869468 90.6666667,84.7869468 L90.6666667,31.6619468 C115.210693,31.6619468 140.108887,28.2627766 163.90861,21.4616698 L165.395833,21.0369468 Z" id="Path" fill="#CC2E43"></path>
                    <polygon id="Path" fill="#663325" points="10.625 15.9375 21.25 15.9375 21.25 170 10.625 170"></polygon>
                    <polygon id="Path" fill="#582B1F" points="160.083333 15.9375 170.708333 15.9375 170.708333 170 160.083333 170"></polygon>
                    <path d="M15.9375,31.875 C7.14973958,31.875 0,24.7252604 0,15.9375 C0,7.14973958 7.14973958,0 15.9375,0 C24.7252604,0 31.875,7.14973958 31.875,15.9375 C31.875,24.7252604 24.7252604,31.875 15.9375,31.875 Z" id="Path" fill="#FFD400"></path>
                    <path d="M165.395833,31.875 C156.608073,31.875 149.458333,24.7252604 149.458333,15.9375 C149.458333,7.14973958 156.608073,0 165.395833,0 C174.183594,0 181.333333,7.14973958 181.333333,15.9375 C181.333333,24.7252604 174.183594,31.875 165.395833,31.875 Z" id="Path" fill="#FDBF00"></path>
                </g>
                <text id="Danger-man-OUT!" font-family="Futura-Medium, Futura" font-size="17" font-weight="400" letter-spacing="0.204" fill="#FFFFFF">
                    <tspan x="42.476582" y="53">Danger man</tspan>
                    <tspan x="68.4905" y="76" font-family="Futura-Bold, Futura" font-weight="bold">OUT!</tspan>
                </text>
            </g>
        </g>
    </g>
</svg>