<svg xmlns="http://www.w3.org/2000/svg" xmlns:xlink="http://www.w3.org/1999/xlink" width="46" height="46" viewBox="0 0 46 46">
  <defs>
    <linearGradient id="linear-gradient" x1="0.5" x2="0.5" y2="1" gradientUnits="objectBoundingBox">
      <stop offset="0" stop-color="#f9d155"/>
      <stop offset="0.32" stop-color="#e6b703"/>
      <stop offset="0.621" stop-color="#ffe414"/>
      <stop offset="1" stop-color="#f4e29d"/>
    </linearGradient>
  </defs>
  <g id="Symbol_10_1" data-name="Symbol 10 – 1" transform="translate(-1167 -3103)">
    <circle id="Ellipse_86" data-name="Ellipse 86" cx="23" cy="23" r="23" transform="translate(1167 3103)" fill="#250865"/>
    <g id="noun_Helmet_286931" transform="translate(1173.951 3109.712)">
      <path id="Path_4051" data-name="Path 4051" d="M17.273,5.289A10.664,10.664,0,0,0,6.834,13.432H5.393a.5.5,0,1,0,0,1h6.248l3.293.334.742,1.986v.055L15,19.066a.814.814,0,0,0,.143.752.876.876,0,0,0,.674.279h.516l-.1.354H4.863a.476.476,0,0,0-.354.084l-.023.016-.018.014-.008.008a.5.5,0,0,0-.174.35,5.392,5.392,0,0,0,1.531,5.6.5.5,0,0,0,.465.143.5.5,0,0,0,.068,0h11.1a.5.5,0,0,0,.359-.146h0A.5.5,0,0,0,18,26.23L19.5,20.1h.271a1.071,1.071,0,0,0,1.09-.732l-.01.029L21.84,16.8v-.416l-.422-.963,6.594.668a10.759,10.759,0,0,0-9.721-10.74Q17.779,5.3,17.273,5.289Zm-2.162,7.174h5.4a.39.39,0,0,1,.389.389v1.08a.39.39,0,0,1-.389.391h-5.4a.39.39,0,0,1-.391-.391v-1.08A.39.39,0,0,1,15.111,12.463Zm1.643.389a.54.54,0,1,0,.541.541A.538.538,0,0,0,16.754,12.852Zm2.043,0a.54.54,0,1,0,.539.541A.539.539,0,0,0,18.8,12.852ZM17.367,20.1h1.105l-.75,3.055H12.912v-1.7h3.555a.5.5,0,0,0,.564-.221l0,0a.5.5,0,0,0,.082-.232ZM5.186,21.451H8.012v1.7H5.053A4.727,4.727,0,0,1,5.186,21.451Zm3.826,0h2.9v1.7h-2.9Zm-3.687,2.7H8.012v1.52H6.393A5.338,5.338,0,0,1,5.324,24.152Zm3.688,0h2.9v1.52h-2.9Zm3.9,0h4.564l-.373,1.52H12.912Z" fill="url(#linear-gradient)"/>
      <line id="Line_3" data-name="Line 3" x2="7.56" transform="translate(5.392 13.932)" fill="#4b77bb"/>
    </g>
  </g>
</svg>
