<svg xmlns="http://www.w3.org/2000/svg" width="45" height="60" viewBox="0 0 45 60">
    <defs>
        <linearGradient id="a" x1="22.129%" x2="83.957%" y1="38.4%" y2="76.841%">
            <stop offset="0%" stop-color="#FFF" stop-opacity=".2"/>
            <stop offset="100%" stop-color="#FFF" stop-opacity="0"/>
        </linearGradient>
    </defs>
    <g fill="none" fill-rule="nonzero">
        <path fill="#303C42" d="M43.75 22.5H40v-5C40 7.85 32.15 0 22.5 0S5 7.85 5 17.5v5H1.25c-.69 0-1.25.56-1.25 1.25V55c0 2.758 2.242 5 5 5h35c2.758 0 5-2.242 5-5V23.75c0-.69-.56-1.25-1.25-1.25zm-11.25 0h-20v-5c0-5.514 4.486-10 10-10s10 4.486 10 10v5z"/>
        <path fill="#F2F2F2" d="M7.5 17.5c0-8.271 6.729-15 15-15s15 6.729 15 15v5H35v-5C35 10.608 29.392 5 22.5 5S10 10.608 10 17.5v5H7.5v-5z"/>
        <path fill="#FFCA28" d="M42.5 55c0 1.378-1.122 2.5-2.5 2.5H5A2.503 2.503 0 0 1 2.5 55V25h40v30z"/>
        <path fill="#FFF" d="M7.5 55V25h-5v30c0 1.378 1.122 2.5 2.5 2.5h4.375C8.341 57.5 7.5 56.378 7.5 55z" opacity=".2"/>
        <path fill="#000" d="M37.5 25v30c0 1.378-.841 2.5-1.875 2.5H40c1.378 0 2.5-1.122 2.5-2.5V25h-5z" opacity=".1"/>
        <path fill="#303C42" d="M19.546 41.521l-.789 7.091A1.253 1.253 0 0 0 20 50h5a1.25 1.25 0 0 0 1.243-1.388l-.789-7.09A4.945 4.945 0 0 0 27.5 37.5c0-2.758-2.242-5-5-5s-5 2.242-5 5c0 1.616.765 3.09 2.046 4.021z"/>
        <path fill="#5C6671" d="M22.5 35c1.378 0 2.5 1.122 2.5 2.5a2.48 2.48 0 0 1-1.42 2.241 1.25 1.25 0 0 0-.7 1.264l.724 6.495h-2.207l.722-6.495a1.25 1.25 0 0 0-.698-1.264 2.48 2.48 0 0 1-1.42-2.241C20 36.122 21.12 35 22.5 35z"/>
        <path fill="#000" d="M21.53 39.844a2.436 2.436 0 0 1-.28-1.094c0-1.378 1.122-2.5 2.5-2.5.366 0 .707.088 1.02.23A2.497 2.497 0 0 0 22.5 35a2.503 2.503 0 0 0-2.5 2.5 2.48 2.48 0 0 0 1.42 2.241c.048.023.066.075.11.103zM23.195 43.824l-.291-2.612c-.082-.071-.132-.172-.233-.22a2.552 2.552 0 0 1-.646-.46c.045.156.113.306.094.473l-.723 6.495h1.39l.409-3.676z" opacity=".1"/>
        <path fill="url(#a)" d="M43.75 22.5H40v-5C40 7.85 32.15 0 22.5 0S5 7.85 5 17.5v5H1.25c-.69 0-1.25.56-1.25 1.25V55c0 2.758 2.242 5 5 5h35c2.758 0 5-2.242 5-5V23.75c0-.69-.56-1.25-1.25-1.25zm-11.25 0h-20v-5c0-5.514 4.486-10 10-10s10 4.486 10 10v5z"/>
    </g>
</svg>
