<svg xmlns="http://www.w3.org/2000/svg" xmlns:xlink="http://www.w3.org/1999/xlink" width="46" height="46" viewBox="0 0 46 46">
  <defs>
    <linearGradient id="linear-gradient" x1="0.781" y1="0.126" x2="-0.107" y2="1.41" gradientUnits="objectBoundingBox">
      <stop offset="0" stop-color="#00316f"/>
      <stop offset="0.059" stop-color="#003574"/>
      <stop offset="0.459" stop-color="#004f97"/>
      <stop offset="0.787" stop-color="#0060ad"/>
      <stop offset="1" stop-color="#0066b5"/>
    </linearGradient>
    <radialGradient id="radial-gradient" cx="78.642" cy="33.049" r="9.869" gradientTransform="translate(-7.073 -2.769) scale(0.69 0.69)" gradientUnits="userSpaceOnUse">
      <stop offset="0" stop-color="#ffbe1a"/>
      <stop offset="0.35" stop-color="#ffbe1a"/>
      <stop offset="0.74" stop-color="#e50021"/>
      <stop offset="1" stop-color="#e50021"/>
    </radialGradient>
    <linearGradient id="linear-gradient-2" x1="0.503" y1="0.999" x2="0.499" y2="-0.002" gradientUnits="objectBoundingBox">
      <stop offset="0" stop-color="#002e68"/>
      <stop offset="0.229" stop-color="#003470"/>
      <stop offset="0.603" stop-color="#004489"/>
      <stop offset="1" stop-color="#005baa"/>
    </linearGradient>
    <linearGradient id="linear-gradient-3" x1="0.5" y1="1.003" x2="0.496" y2="0.001" xlink:href="#linear-gradient-2"/>
    <linearGradient id="linear-gradient-4" x1="0.502" y1="1" x2="0.497" y2="-0.002" xlink:href="#linear-gradient-2"/>
    <linearGradient id="linear-gradient-5" x1="0.525" y1="1.133" x2="0.525" y2="0.135" xlink:href="#linear-gradient-2"/>
    <linearGradient id="linear-gradient-6" x1="0.502" y1="1.001" x2="0.498" y2="-0.002" xlink:href="#linear-gradient-2"/>
    <linearGradient id="linear-gradient-7" x1="0.502" y1="1.002" x2="0.498" y2="0.004" xlink:href="#linear-gradient-2"/>
    <linearGradient id="linear-gradient-8" x1="0.502" y1="1.029" x2="0.502" y2="0.029" xlink:href="#linear-gradient-2"/>
    <linearGradient id="linear-gradient-9" x1="0.499" y1="1.046" x2="0.499" y2="0.052" xlink:href="#linear-gradient-2"/>
    <linearGradient id="linear-gradient-10" x1="0.5" y1="1.038" x2="0.5" y2="0.042" xlink:href="#linear-gradient-2"/>
    <linearGradient id="linear-gradient-11" x1="0.502" y1="1.045" x2="0.502" y2="0.047" xlink:href="#linear-gradient-2"/>
    <linearGradient id="linear-gradient-12" x1="0.501" y1="1.057" x2="0.501" y2="0.053" xlink:href="#linear-gradient-2"/>
    <linearGradient id="linear-gradient-13" x1="0.501" y1="1.057" x2="0.501" y2="0.062" gradientUnits="objectBoundingBox">
      <stop offset="0" stop-color="#00316f"/>
      <stop offset="1" stop-color="#0066b5"/>
    </linearGradient>
    <linearGradient id="linear-gradient-14" x1="0.502" y1="1.002" x2="0.498" y2="-0.002" xlink:href="#linear-gradient-2"/>
  </defs>
  <g id="Symbol_6_1" data-name="Symbol 6 – 1" transform="translate(-940 -3103)">
    <g id="Group_9464" data-name="Group 9464" transform="translate(-171)">
      <circle id="Ellipse_85" data-name="Ellipse 85" cx="23" cy="23" r="23" transform="translate(1111 3103)" fill="#003371"/>
    </g>
    <g id="Group_9468" data-name="Group 9468" transform="translate(939.067 3118)">
      <path id="Path_4124" data-name="Path 4124" d="M28.623,8.725c2.288-1.533,3.591-3.481,3.2-5.223C31.167.558,26.009-.8,20.3.48s-9.8,4.695-9.139,7.639c.447,2,2.967,3.264,6.325,3.471l-.444-.007H16.3l-.466,1.73-1.668-1.651.091-.38H12.3l-1.363,4.9h3.184l.409-1.707,1.721,1.743h2.31a4.168,4.168,0,0,0,2.5-.7l-.188.637h2.99l.516-.7h1.176l.171.677h2.814L29,14.381l1.774,1.758,2.875,0,.475-.02a1.684,1.684,0,0,0,1.584-1.64,1.519,1.519,0,0,0-.75-1.413l.588,0a1.218,1.218,0,0,0,.856-.378,1.315,1.315,0,0,0,.26-.725l.015-.311-.011-.33h-.94l.694-2.618H28.84Z" transform="translate(0 0)" fill="#fff"/>
      <path id="Path_4125" data-name="Path 4125" d="M68.76,33.387a9.371,9.371,0,0,0,3.882-1.482,11.978,11.978,0,0,1-1.99.1,3.935,3.935,0,0,1-2.85-.957,3.994,3.994,0,0,0,3.047,0,2.909,2.909,0,0,1-1.206-.552,1.784,1.784,0,0,1-.458-2.122c-.021.53.3,1.026,1.289,1.153a1.942,1.942,0,0,1-.085-1.109,4.894,4.894,0,0,1,1.549-2.35c-.451.565-.717,1.214-.379,1.715a4.654,4.654,0,0,1,.945-1.337,11.926,11.926,0,0,1,2.819-1.989,4.51,4.51,0,0,0-1.751,1.826,8.618,8.618,0,0,1,1.8-1.271,16.263,16.263,0,0,1,3.434-1.27,8.712,8.712,0,0,0-2.811,1.568,10.488,10.488,0,0,1,2.269-.85,12.279,12.279,0,0,1,3.53-.284,9.629,9.629,0,0,0-3.468.887,8.517,8.517,0,0,1,2.184-.126,5.385,5.385,0,0,1,2.869,1.065,5.869,5.869,0,0,0-3.356-.318,3.79,3.79,0,0,1,1.394.732,2.847,2.847,0,0,1,.917,2.712,2.39,2.39,0,0,0-1.9-1.938,2.428,2.428,0,0,1,.219,1.359,4.041,4.041,0,0,1-1.125,2.4,2.768,2.768,0,0,1-1,.771,3.836,3.836,0,0,0,.562-.9,2.883,2.883,0,0,0,.173-2.076,5.516,5.516,0,0,1-2.6,3.28,6.572,6.572,0,0,1-2.367,1.116,11.3,11.3,0,0,0,1.047-.856,5.39,5.39,0,0,0,1.426-1.712,10.43,10.43,0,0,1-6.624,2.861A8.786,8.786,0,0,1,68.76,33.387Z" transform="translate(-54.179 -22.622)" fill-rule="evenodd" fill="url(#linear-gradient)"/>
      <path id="Path_4126" data-name="Path 4126" d="M204.3,102.912c-.215-.348-.92-.332-1.579.039s-1.034.963-.825,1.318.929.341,1.6-.04S204.517,103.262,204.3,102.912Z" transform="translate(-181.878 -97.806)" fill="#fff"/>
      <path id="Path_4127" data-name="Path 4127" d="M117.326,44.52a2.659,2.659,0,0,0-2.073-1.229,6.617,6.617,0,0,0-2.807.329,8.241,8.241,0,0,1,1.593-.481A6.544,6.544,0,0,1,116.8,42.7a6.952,6.952,0,0,0-3.116.08,8.673,8.673,0,0,0-2.7,1.161,7.68,7.68,0,0,1,1.32-.829,7.421,7.421,0,0,1,2.469-1.145,10.4,10.4,0,0,0-3.23,1.109,6.1,6.1,0,0,0-1.973,1.621,3.753,3.753,0,0,1,.765-.965,4.71,4.71,0,0,1,1.708-1.482,8.685,8.685,0,0,0-2.659,1.776,2.3,2.3,0,0,0-.791,1.668,1.186,1.186,0,0,1-.005-.855,1.68,1.68,0,0,1,.628-1.476,4.06,4.06,0,0,0-1.531,2.055,1.067,1.067,0,0,0,.678,1.259,1.491,1.491,0,0,1-.867-.471.856.856,0,0,1-.683-1.1c-.875,1.734.381,2.465,2.245,2.223a5.175,5.175,0,0,1-1.585.152,2.323,2.323,0,0,1-2.063-.294,2.02,2.02,0,0,0,2.034,1.007,7.447,7.447,0,0,0,3.105-.834,8.984,8.984,0,0,1-1.806.841c-.291.469-2.287.8-3.068.8a6.979,6.979,0,0,0,2.79-.079,8.646,8.646,0,0,0,3.85-2.216l.006-.008a.027.027,0,0,1-.006.008,14.689,14.689,0,0,1-1.862,1.67c-.121.472-1.526,1.12-3,1.814a11.233,11.233,0,0,0,4.731-2.319,5.643,5.643,0,0,0,1.191-1.427,1.852,1.852,0,0,0,.278-.822s0,0,0,0a2.264,2.264,0,0,1-.241,1.205,3.716,3.716,0,0,1-1.507,2.447c.311-.18.7-.444.7-.444a5.521,5.521,0,0,0,2-2.616,1.486,1.486,0,0,0-.506-1.672,1.649,1.649,0,0,1,.816.707,1.543,1.543,0,0,1,.743,1.809,2.212,2.212,0,0,0,.022-2.458,2.685,2.685,0,0,0-2.068-.781,4.765,4.765,0,0,1,1.454.068,3.048,3.048,0,0,1,2.26.636Zm-5,2.169Zm-.829-.437h0c-.668.369-1.386.388-1.6.039s.161-.922.828-1.284,1.362-.376,1.577-.038S112.158,45.885,111.493,46.252Z" transform="translate(-90.005 -39.984)" fill="url(#radial-gradient)"/>
      <path id="Path_4128" data-name="Path 4128" d="M348.865,74.463c2.476.66,2.676,3.388-.649,4.838,2.759-1.613,2.075-3.984.643-4.824Z" transform="translate(-321.33 -70.941)" fill="#f77e21"/>
      <path id="Path_4129" data-name="Path 4129" d="M354.918,43.9c3.906-1.376,5.112-6.931.057-6.742,2.914-.939,4.342.794,3.888,2.839a5.032,5.032,0,0,1-1.734,2.682A6.606,6.606,0,0,1,354.918,43.9Z" transform="translate(-327.715 -35.152)" fill="#009849"/>
      <path id="Path_4130" data-name="Path 4130" d="M69.751,79.874c-2.844-.461-2.492-3.627,1.167-4.764-3.22,1.536-2.916,4.34-1.16,4.752Z" transform="translate(-54.237 -71.558)" fill="#009849"/>
      <path id="Path_4131" data-name="Path 4131" d="M30.619,64c-4.033.944-5.994,6.429-.949,6.79-4.343.893-4.945-3.4-1.466-5.73a7.752,7.752,0,0,1,1.687-.848A6.861,6.861,0,0,1,30.619,64Z" transform="translate(-14.309 -60.976)" fill="#f77e21"/>
      <path id="Path_4132" data-name="Path 4132" d="M268.093,188.425l-.912-.946-.617,2.276h.652l.3-1.116.428.461.644-.437-.3,1.092h.652l.617-2.312-1.465.994Z" transform="translate(-243.541 -178.578)" fill="#fff"/>
      <path id="Path_4133" data-name="Path 4133" d="M323.623,195.365a1.006,1.006,0,0,1-.719-.242.563.563,0,0,1-.14-.569l.313-1.157h.439l-.287,1.059a.47.47,0,0,0,.095.475.539.539,0,0,0,.391.139.821.821,0,0,0,.8-.594l.293-1.079h.439l-.308,1.137a1.337,1.337,0,0,1-1.318.831Z" transform="translate(-297.059 -184.25)" fill="url(#linear-gradient-2)"/>
      <path id="Path_4134" data-name="Path 4134" d="M466.3,195.194l-.087-.372h-1.041l-.289.372h-.452l1.254-1.538.32-.39h.552l-.137.167,0,0a.26.26,0,0,0-.044.176v.007l.4,1.574Zm-.913-.65h.766l-.176-.756Z" transform="translate(-432.048 -184.125)" fill="url(#linear-gradient-3)"/>
      <path id="Path_4135" data-name="Path 4135" d="M515.346,191.03h0l-.577,2.133h.652L516,191.03Z" transform="translate(-480.006 -181.994)" fill="#fff"/>
      <path id="Path_4136" data-name="Path 4136" d="M418.467,191.844a.425.425,0,0,0-.1-.438.782.782,0,0,0-.561-.187h-1.39l-.578,2.133h1.522a.994.994,0,0,0,1.006-.634.415.415,0,0,0-.2-.5A.638.638,0,0,0,418.467,191.844Zm-.738.823a.326.326,0,0,1-.325.184h-.777l.092-.339h.819a.237.237,0,0,1,.167.051A.1.1,0,0,1,417.729,192.667Zm.084-.818a.259.259,0,0,1-.271.162h-.687l.078-.288h.729a.2.2,0,0,1,.134.038A.088.088,0,0,1,417.813,191.849Z" transform="translate(-385.755 -182.175)" fill="#fff"/>
      <path id="Path_4137" data-name="Path 4137" d="M418.677,195.318l.523-1.928h1.311a.684.684,0,0,1,.488.157.327.327,0,0,1,.073.339.537.537,0,0,1-.254.312l-.151.089.151.088a.314.314,0,0,1,.153.385.892.892,0,0,1-.907.558Zm.52-.3h.911a.422.422,0,0,0,.424-.26.2.2,0,0,0-.05-.2.33.33,0,0,0-.24-.081h-.9Zm.227-.84h.822a.359.359,0,0,0,.37-.238.188.188,0,0,0-.044-.189.283.283,0,0,0-.206-.067h-.808Z" transform="translate(-388.459 -184.243)" fill="url(#linear-gradient-4)"/>
      <path id="Path_4138" data-name="Path 4138" d="M368.79,191.219l-1.222.815-.781-.815h-.175l-.578,2.133h.652l.3-1.116.429.461.644-.437-.3,1.092h.652l.578-2.133Z" transform="translate(-338.304 -182.175)" fill="#fff"/>
      <path id="Path_4139" data-name="Path 4139" d="M518.083,195.067s0-.012,0-.024l.49-1.838-.428,0-.54,1.926h.017l.435,0h.064A.057.057,0,0,1,518.083,195.067Z" transform="translate(-482.709 -184.067)" fill="url(#linear-gradient-5)"/>
      <path id="Path_4140" data-name="Path 4140" d="M371.062,195.261s0-.011,0-.022l.067-.252.433-1.6h-.039l-1.268.846-.81-.846h-.053l-.523,1.928h.439l.33-1.218.495.532.8-.544-.333,1.234.44,0h.056A.052.052,0,0,1,371.062,195.261Z" transform="translate(-341.009 -184.243)" fill="url(#linear-gradient-6)"/>
      <path id="Path_4141" data-name="Path 4141" d="M271.591,194.073v-.006l.532-1.923-1.334.9-.852-.889-.534,1.971h.439l.331-1.218.494.532.8-.544-.333,1.23h.492A.052.052,0,0,1,271.591,194.073Z" transform="translate(-246.246 -183.056)" fill="url(#linear-gradient-7)"/>
      <path id="Path_4142" data-name="Path 4142" d="M16.662,338.212" transform="translate(-5.458 -322.215)" fill="none" stroke="#35bef3" stroke-width="0.01"/>
      <path id="Path_4143" data-name="Path 4143" d="M497.629,270.667" transform="translate(-463.676 -257.865)" fill="none" stroke="#35bef3" stroke-width="0.01"/>
      <path id="Path_4144" data-name="Path 4144" d="M26.8,246.2l-.254.971H29.2l.52-.691H31.16l.167.666h2.556l.489-1.878,1.928,1.9h2.635l.475-.02A1.62,1.62,0,0,0,41,245.574a1.578,1.578,0,0,0-.154-.682,1.266,1.266,0,0,0-1.33-.644s-.44,0-.547,0a1.159,1.159,0,0,1-.182-.006c.03,0-.024,0-.031-.031a.052.052,0,0,1,.032-.057,1.1,1.1,0,0,1,.536-.071h1.5a1.162,1.162,0,0,0,.9-.324,1.319,1.319,0,0,0,.236-.763v-.289l-2.421,0a3.065,3.065,0,0,0-1.684.443l.069-.263H36.348l-.5,1.872-1.86-1.849h-.229l2.081,2.065a.121.121,0,0,0,.1.028.1.1,0,0,0,.075-.083c.01-.043.489-1.864.489-1.864h1.2l-.2.764s.337-.976,2.04-.946c.476.008,2.235,0,2.235,0l0,.117a1.228,1.228,0,0,1-.219.687.89.89,0,0,1-.758.222H39.321c-.539,0-.68.161-.68.161a.189.189,0,0,0-.074.15c0,.1.1.163.2.17a5.907,5.907,0,0,0,.749.021,1.222,1.222,0,0,1,1.14.51,1.332,1.332,0,0,1,.161.655,1.476,1.476,0,0,1-1.492,1.416l-2.91.005-1.974-1.922s-.052-.084-.12-.068-.073.11-.073.11l-.471,1.859H31.461l-.173-.67H29.644l-.524.691H26.764l.45-1.7a2.994,2.994,0,0,1-2.885,1.718l-2.445.011-1.964-1.906a.078.078,0,0,0-.089-.047c-.063.016-.079.136-.079.136L19.292,247h-2.4l1.166-4.147h1.36l.05-.184H17.929l-1.267,4.519H19.41l.487-1.864L21.8,247.2H23.94a3.922,3.922,0,0,0,2.863-1" transform="translate(-5.458 -231.188)" fill="#e50019"/>
      <path id="Path_4145" data-name="Path 4145" d="M72.155,247.969l2.06,2.025a.093.093,0,0,0,.092.034c.063-.01.073-.092.073-.092l.5-1.85H77.9a3.616,3.616,0,0,1,1.283.171,1.453,1.453,0,0,1,1.02,1.555l.464-1.752h1.2l-.966,3.608,2.93-3.629h1.484l-.426.527a.358.358,0,0,0-.079.4l.691,2.652,1.01-3.744h-.185l-.823,3.095-.528-2.018a.307.307,0,0,1,.085-.325l.6-.735H83.744l-2.477,3.065.812-3.061H80.537l-.292,1.1a1.709,1.709,0,0,0-1.013-.879,3.384,3.384,0,0,0-1.344-.185H74.739l-.5,1.856-1.848-1.819Z" transform="translate(-58.326 -236.148)" fill="#e50019"/>
      <path id="Path_4146" data-name="Path 4146" d="M167.79,277.225a1.55,1.55,0,0,0,1.553-.936.525.525,0,0,0-.124-.532,1.123,1.123,0,0,0-.8-.242h-.791l-.453,1.712Z" transform="translate(-148.848 -262.482)" fill="#fff"/>
      <path id="Path_4147" data-name="Path 4147" d="M137.155,252.943a2.36,2.36,0,0,0-1.748-.573l-2.032.011-1.025,3.883,2.1-.008a3.049,3.049,0,0,0,3.054-1.926A1.375,1.375,0,0,0,137.155,252.943Zm-.821,1.333a1.717,1.717,0,0,1-1.717,1.066h-.843l.547-2.058h.92a1.28,1.28,0,0,1,.924.292A.692.692,0,0,1,136.333,254.276Z" transform="translate(-115.674 -240.434)" fill="#fff"/>
      <path id="Path_4148" data-name="Path 4148" d="M27.237,253.77a.109.109,0,0,1-.082-.127s0-.024.006-.048l.97-3.657H27.3l-1.069,3.833Z" transform="translate(-14.572 -238.116)" fill="url(#linear-gradient-8)"/>
      <path id="Path_4149" data-name="Path 4149" d="M165,272.689a1.717,1.717,0,0,1-1.717,1.066h-.843l.547-2.058h.92a1.28,1.28,0,0,1,.924.292A.692.692,0,0,1,165,272.689Z" transform="translate(-144.338 -258.847)" fill="#e50021"/>
      <path id="Path_4150" data-name="Path 4150" d="M167.79,277.225a1.55,1.55,0,0,0,1.553-.936.525.525,0,0,0-.124-.532,1.123,1.123,0,0,0-.8-.242h-.791l-.453,1.712Z" transform="translate(-148.848 -262.482)" fill="#fff"/>
      <path id="Path_4151" data-name="Path 4151" d="M306.252,286.868h-.741l.568-.7Z" transform="translate(-280.644 -272.632)" fill="#e50019"/>
      <path id="Path_4152" data-name="Path 4152" d="M447.387,278.172c-.1-.093-.186-.088-.447-.086l-.349,0a2.431,2.431,0,0,1-.827-.156,2.133,2.133,0,0,1-.333-.172.82.82,0,0,1-.377-.742c0-.02,0-.051,0-.092l-.483,1.8a.831.831,0,0,1,.482-.156l1.691.041c.162-.014.6,0,.664-.234A.275.275,0,0,0,447.387,278.172Zm-.636.268-1.693-.041a1.016,1.016,0,0,0-.257.034l.229-.862a1.121,1.121,0,0,0,.314.306,2.4,2.4,0,0,0,1.24.36l.36.006c.2,0,.305-.016.318.042C447.291,278.41,447.13,278.435,446.751,278.44Z" transform="translate(-413.133 -263.827)" fill="#e50021"/>
      <path id="Path_4153" data-name="Path 4153" d="M263.309,258.421l-.162-.675-1.872.01-.522.679-.866,0,2.288-2.836.583-.72,1.046-.005-.269.332,0,.007a.456.456,0,0,0-.076.309v.011l.753,2.879Zm-1.62-1.206,1.338-.007-.314-1.32Z" transform="translate(-237.178 -242.823)" fill="url(#linear-gradient-9)"/>
      <path id="Path_4154" data-name="Path 4154" d="M136.793,259.2l.942-3.545,1.9-.01a2.2,2.2,0,0,1,1.628.523,1.211,1.211,0,0,1,.305,1.222,2.93,2.93,0,0,1-2.89,1.8Zm.987-.578,1.066-.006a1.887,1.887,0,0,0,1.88-1.193.857.857,0,0,0-.214-.865,1.442,1.442,0,0,0-1.044-.341l-1.052.005Z" transform="translate(-119.907 -243.55)" fill="url(#linear-gradient-10)"/>
      <path id="Path_4155" data-name="Path 4155" d="M235.849,258.666c0-.006.014-.106.015-.116.008-.059.035-.173.046-.217l.82-3.088-.835,0-.852,3.207-.09.338h0l.835,0h.139A.111.111,0,0,1,235.849,258.666Z" transform="translate(-213.424 -243.173)" fill="url(#linear-gradient-11)"/>
      <path id="Path_4156" data-name="Path 4156" d="M361.2,252.839l-.39,1.468h0l0,.007-.082.307,0,.007-.068.251a.087.087,0,0,1-.129.051l-.212-.209-.008-.006-.007-.005-.378-.375-.02-.02h0l-1.564-1.554-.968,3.64.85,0h.124a.111.111,0,0,1-.078-.123c0-.006.014-.106.015-.116.009-.074.051-.236.051-.236l.265-.995h0l.049-.18.041-.155,0,0,.063-.234a.087.087,0,0,1,.129-.051l.2.194,0,0,.175.174.25.247h0l1.507,1.5h.074l.9-3.393a.723.723,0,0,1,.074-.189Z" transform="translate(-330.05 -240.804)" fill="url(#linear-gradient-12)"/>
      <path id="Path_4157" data-name="Path 4157" d="M468.717,228.763" transform="translate(-436.132 -217.943)" fill="none" stroke="#1a1818" stroke-width="0.01"/>
      <path id="Path_4158" data-name="Path 4158" d="M444.2,252.383a1.089,1.089,0,0,1,.187.605,1.284,1.284,0,0,1-1.18,1.223l-.424.028c-.148.008-.256.007-.278.007,0,0-.2.006-.42-.006a5.3,5.3,0,0,0-1.631.012.521.521,0,0,1,.013-.157.6.6,0,0,1,.03-.114.669.669,0,0,1,.632-.455l1.689.041c.173,0,.7-.007.833-.381a.313.313,0,0,0-.031-.3c-.093-.131-.28-.183-.609-.182l-.344,0a2.811,2.811,0,0,1-.832-.165.94.94,0,0,1-.234-.131.671.671,0,0,1-.306-.6c0-.139.049-1.255,1.785-1.314,0,0,.183-.011.271-.011l.555.005c.176.009.457.009.641.017h.352a2.816,2.816,0,0,0,.447-.036,1.231,1.231,0,0,1-.041.289.559.559,0,0,1-.579.4l-1.745.007c-.174,0-.73.019-.838.375l0,.008a.3.3,0,0,0,.038.279c.094.128.283.184.615.182l.577,0A1.012,1.012,0,0,1,444.2,252.383Z" transform="translate(-409.199 -238.625)" fill="url(#linear-gradient-13)"/>
      <g id="Group_9467" data-name="Group 9467" transform="translate(22.89 8.66)">
        <path id="Path_4159" data-name="Path 4159" d="M266.947,183.246l.039-.146-1.575,1.066-.984-1.027-.7,2.581h.865l.275-1.013.363.391.487-.331-.258.953h.865l.106-.392a.949.949,0,0,0,.588.388,1.789,1.789,0,0,0,1.153-.127,1.569,1.569,0,0,0,.357-.227l-.1.358h.865l.275-1.013.363.391.487-.331-.259.953h2.23a1.423,1.423,0,0,0,.62-.12l.211-.259a1,1,0,0,1-.271.173,1.261,1.261,0,0,1-.568.1H270.3l.3-1.092-.644.437-.429-.461-.3,1.116h-.652l.19-.7a1.179,1.179,0,0,1-.382.438,1.661,1.661,0,0,1-.743.29,1.52,1.52,0,0,1-.778-.093.71.71,0,0,1-.436-.581l-.172.647h-.652l.3-1.092-.644.437-.429-.461-.3,1.116h-.652l.617-2.276.921.954Z" transform="translate(-263.727 -183.1)" fill="#e50019"/>
        <path id="Path_4160" data-name="Path 4160" d="M330.509,188.866l-.027.1h.545l-.3,1.119a.538.538,0,0,0,0,.376c.082.15.307.236.612.139a.713.713,0,0,0,.451-.451c.012-.037.165-.605.165-.605l.157-.576h.811l.781.814,1.222-.815h1.557a.8.8,0,0,1,.614.236.526.526,0,0,1-.057.606.719.719,0,0,1-.187.157.445.445,0,0,1,.129.668l1.367-1.673h.817l-.257.315a.144.144,0,0,0-.034.148c.03.1.38,1.487.38,1.487l.527-1.953h.652l-.578,2.133h-1.244l-.087-.368h-.91l-.289.372h-.588l-.083.1h.721l.289-.372h.778l.087.372h1.4l.633-2.342H339.7l-.447,1.65-.282-1.1a.064.064,0,0,1,.016-.07c.033-.035.393-.478.393-.478h-1.083l-1.131,1.385a.484.484,0,0,0-.144-.275.7.7,0,0,0,.247-.588c-.008-.091-.084-.453-.663-.512-.038,0-.139,0-.139,0H334.89l-1.177.786-.752-.785h-.933l-.331,1.222a.605.605,0,0,1-.4.418.524.524,0,0,1-.435-.033c-.124-.1-.052-.308-.052-.308l.351-1.3Z" transform="translate(-327.325 -188.586)" fill="#e50019"/>
        <g id="Group_9466" data-name="Group 9466" transform="translate(7.983 0.888)">
          <path id="Path_4161" data-name="Path 4161" d="M438.129,201.866h-.741l-.078.288h.7a.247.247,0,0,0,.259-.186C438.282,201.863,438.129,201.866,438.129,201.866Zm-.1.184h-.581l.022-.083h.651a.137.137,0,0,1,.049,0C438.177,201.981,438.119,202.047,438.025,202.05Z" transform="translate(-437.082 -201.866)" fill="#e50019"/>
          <path id="Path_4162" data-name="Path 4162" d="M433.434,218.559h-.842l-.092.339h.808c.147-.01.293-.1.3-.215S433.434,218.559,433.434,218.559Zm-.128.234h-.671l.036-.133h.765s.07-.005.067.025S433.428,218.784,433.306,218.793Z" transform="translate(-432.5 -217.768)" fill="#e50019"/>
        </g>
        <path id="Path_4163" data-name="Path 4163" d="M490.585,211.8l.231-.271.063.271Z" transform="translate(-479.855 -210.184)" fill="#e50019"/>
      </g>
      <path id="Path_4164" data-name="Path 4164" d="M55.191,254.443l-.39,1.468h0l0,.007-.082.307,0,.007-.068.251a.088.088,0,0,1-.13.051l-.212-.209-.008-.006-.007-.005-.378-.375-.02-.02h0l-1.564-1.554-.964,3.625h.953a.106.106,0,0,1-.061-.113c0-.006.014-.106.015-.116.01-.074.051-.236.051-.236l.265-.995h0l.049-.18.041-.155v0l.063-.234a.087.087,0,0,1,.13-.051l.2.194,0,0,.175.174.25.247h0l1.475,1.466h.116l.9-3.361a.724.724,0,0,1,.074-.189Z" transform="translate(-38.519 -242.332)" fill="url(#linear-gradient-14)"/>
    </g>
  </g>
</svg>
