<?xml version="1.0" encoding="UTF-8"?>
<svg width="257px" height="76px" viewBox="0 0 257 76" version="1.1" xmlns="http://www.w3.org/2000/svg" xmlns:xlink="http://www.w3.org/1999/xlink">
    <!-- Generator: Sketch 53.2 (72643) - https://sketchapp.com -->
    <title>nolive</title>
    <desc>Created with Sketch.</desc>
    <g id="Page-1" stroke="none" stroke-width="1" fill="none" fill-rule="evenodd">
        <g id="Select-match-no-live" transform="translate(-59.000000, -50.000000)">
            <g id="nolive" transform="translate(54.000000, 49.000000)">
                <text id="OOPS!-Sorry,-no-live" font-family="Avenir-Black, Avenir" font-size="16" font-weight="700" letter-spacing="0.196" fill="#333333">
                    <tspan x="107.014" y="32">OOPS! </tspan>
                    <tspan x="165.918" y="32" font-size="14"></tspan>
                    <tspan x="5.053" y="55" font-family="Avenir-Medium, Avenir" font-size="14" font-weight="400">Sorry, no live matches are on right now.</tspan>
                    <tspan x="40.48" y="75" font-family="Avenir-Medium, Avenir" font-size="14" font-weight="400">But here’s what’s coming up.</tspan>
                </text>
                <g id="Group-4" transform="translate(52.000000, 0.000000)" fill-rule="nonzero">
                    <g id="cricket_bat">
                        <path d="M32.047,30.278 C32.535772,30.766772 32.535772,31.559228 32.047,32.048 C31.558228,32.536772 30.765772,32.536772 30.277,32.048 L28.861,30.632 L30.631,28.862 L32.047,30.278 Z" id="Path_34" fill="#4DBBEB"></path>
                        <path d="M22.262,22.262 C22.3744843,22.1493961 22.4644287,22.0163461 22.527,21.87 L22.861,21.091 L30.632,28.863 L28.862,30.633 L21.09,22.862 L21.869,22.528 C22.0157836,22.4652417 22.1491872,22.3749482 22.262,22.262 L22.262,22.262 Z" id="Path_35" fill="#FD3C65"></path>
                        <path d="M17.02,25.778 C18.7477083,25.7780008 20.1484468,27.1782928 20.1489984,28.906001 C20.14955,30.6337092 18.749706,32.0348953 17.0219981,32.0359994 C15.2942902,32.0371034 13.8926565,30.6377075 13.891,28.91 C13.8902039,28.0796179 14.2195139,27.2829736 14.8064015,26.6955233 C15.3932892,26.108073 16.1896176,25.7779996 17.02,25.778 Z" id="Path_36" fill="#F0F0F0"></path>
                        <path d="M32.048,7.302 C32.3437462,7.00619685 32.4720844,6.58215542 32.39,6.172 C31.9339737,3.88988962 30.1501104,2.10602628 27.868,1.65 C27.4578446,1.5679156 27.0338032,1.69625381 26.738,1.992 L17.02,12.221 L17.015,12.226 L7.302,1.992 C7.00619685,1.69625381 6.58215542,1.5679156 6.172,1.65 C3.89002235,2.10627432 2.10627432,3.89002235 1.65,6.172 C1.56773114,6.58216429 1.69609538,7.00629175 1.992,7.302 L12.364,17.141 L12.359,17.147 L10.383,19.233 L11.183,21.091 L11.517,21.87 C11.6436226,22.1651638 11.8788362,22.4003774 12.174,22.527 L12.953,22.861 L14.811,23.661 L17.024,21.561 L17.024,21.561 L19.236,23.661 L21.094,22.861 L21.873,22.527 C22.1681638,22.4003774 22.4033774,22.1651638 22.53,21.87 L22.864,21.091 L23.664,19.233 L21.686,17.148 L21.686,17.148 L32.048,7.302 Z" id="Path_37" fill="#FEC761"></path>
                        <path d="M11.778,22.262 C11.8905882,22.3745033 12.023642,22.4644504 12.17,22.527 L12.949,22.861 L5.177,30.632 L3.407,28.862 L11.178,21.09 L11.512,21.869 C11.5747365,22.0157955 11.6650327,22.149203 11.778,22.262 L11.778,22.262 Z" id="Path_38" fill="#FD3C65"></path>
                        <path d="M5.177,30.632 L3.761,32.048 C3.44481997,32.3641801 2.98397747,32.4876626 2.55206744,32.3719326 C2.12015741,32.2562027 1.78279727,31.9188426 1.66706736,31.4869326 C1.55133744,31.0550225 1.67481987,30.59418 1.991,30.278 L3.407,28.862 L5.177,30.632 Z" id="Path_39" fill="#4DBBEB"></path>
                        <path d="M13.037,13.038 C12.857878,13.2170016 12.8042429,13.4862884 12.9011112,13.7202602 C12.9979794,13.9542321 13.2262683,14.1067976 13.4795,14.1067976 C13.7327317,14.1067976 13.9610206,13.9542321 14.0578888,13.7202602 C14.1547571,13.4862884 14.101122,13.2170016 13.922,13.038 C13.6775659,12.7937302 13.2814341,12.7937302 13.037,13.038 L13.037,13.038 Z" id="Path_40" fill="#000000"></path>
                        <path d="M23.6,20.948 L24.23,19.479 C24.3283384,19.2494022 24.2807814,18.9833194 24.109,18.802 L22.562,17.171 L32.476,7.756 L32.488,7.745 C32.9318135,7.30143127 33.1240287,6.66509393 33,6.05 C32.4992046,3.51901692 30.5215825,1.53981556 27.991,1.037 C27.3739687,0.911890473 26.7353484,1.1049792 26.291,1.551 L26.28,1.563 L17.011,11.323 L7.756,1.562 L7.745,1.55 C7.30065162,1.1039792 6.66203131,0.910890473 6.045,1.036 C3.51691399,1.54379564 1.54176824,3.52130779 1.037,6.05 C0.912006926,6.66684343 1.10465946,7.30526313 1.55,7.75 L1.562,7.762 L11.479,17.17 L9.928,18.798 C9.75621855,18.9793194 9.70866165,19.2454022 9.807,19.475 L10.437,20.943 L1.55,29.835 C1.04474834,30.3017909 0.835306665,31.0075621 1.00414914,31.6743944 C1.17299162,32.3412266 1.6930672,32.8622834 2.35957997,33.0323826 C3.02609273,33.2024818 3.73225752,32.9943709 4.2,32.49 L13.087,23.603 L14.555,24.233 C14.7845978,24.3313384 15.0506806,24.2837814 15.232,24.112 L17.016,22.422 L18.797,24.112 C18.9783194,24.2837814 19.2444022,24.3313384 19.474,24.233 L20.942,23.603 L29.829,32.49 C30.562158,33.223158 31.750842,33.223158 32.484,32.49 C33.217158,31.756842 33.217158,30.568158 32.484,29.835 L23.6,20.948 Z M22.182,23.071 C22.2558939,23.0357483 22.3273824,22.9956613 22.396,22.951 C22.6858673,22.9186758 22.9146758,22.6898673 22.947,22.4 C22.9916439,22.3313719 23.0317303,22.2598846 23.067,22.186 L29.743,28.863 L28.858,29.748 L22.182,23.071 Z M27.182,2.431 C27.3294547,2.28596607 27.5391924,2.22341928 27.742,2.264 C29.7801071,2.66655617 31.3734438,4.25989291 31.776,6.298 C31.8168385,6.50063942 31.7546737,6.7103517 31.61,6.858 L21.7,16.263 L17.875,12.231 L27.182,2.431 Z M12.382,18.031 L13.789,19.366 L11.916,21.239 L11.116,19.37 L12.382,18.031 Z M5.178,29.747 L4.293,28.862 L10.969,22.185 C11.0042646,22.2588873 11.0443511,22.3303749 11.089,22.399 C11.1213242,22.6888673 11.3501327,22.9176758 11.64,22.95 C11.708607,22.9946787 11.7800967,23.0347664 11.854,23.07 L5.178,29.747 Z M3.32,31.605 C3.16334531,31.7699982 2.92950188,31.8370102 2.70923413,31.7800258 C2.48896639,31.7230414 2.3169586,31.5510336 2.2599742,31.3307659 C2.2029898,31.1104981 2.27000179,30.8766547 2.435,30.72 L3.408,29.747 L4.293,30.632 L3.32,31.605 Z M14.676,22.92 L12.807,22.12 L14.707,20.22 L16.116,21.557 L14.676,22.92 Z M19.365,22.92 L12.795,16.687 L2.43,6.855 C2.28532625,6.7073517 2.22316154,6.49763942 2.264,6.295 C2.6706964,4.26078109 4.26078109,2.6706964 6.295,2.264 C6.49763942,2.22316154 6.7073517,2.28532625 6.855,2.43 L22.92,19.365 L22.12,21.234 L15.693,14.808 C15.4468603,14.5743069 15.0593265,14.5793323 14.8193294,14.8193294 C14.5793323,15.0593265 14.5743069,15.4468603 14.808,15.693 L21.234,22.119 L19.365,22.92 Z M31.6,31.605 C31.4827447,31.7225521 31.3235341,31.7886172 31.1575,31.7886172 C30.9914659,31.7886172 30.8322553,31.7225521 30.715,31.605 L29.742,30.632 L30.627,29.747 L31.6,30.72 C31.7175521,30.8372553 31.7836172,30.9964659 31.7836172,31.1625 C31.7836172,31.3285341 31.7175521,31.4877447 31.6,31.605 L31.6,31.605 Z" id="Path_41" fill="#000000"></path>
                        <path d="M17.02,25.152 C14.9461708,25.152 13.265,26.8331708 13.265,28.907 C13.265,30.9808292 14.9461708,32.662 17.02,32.662 C19.0938292,32.662 20.775,30.9808292 20.775,28.907 C20.7727954,26.8340846 19.0929154,25.1542046 17.02,25.152 Z M17.02,31.41 C15.6392881,31.41 14.52,30.2907119 14.52,28.91 C14.52,27.5292881 15.6392881,26.41 17.02,26.41 C18.4007119,26.41 19.52,27.5292881 19.52,28.91 C19.5183513,30.2905147 18.4005117,31.4096957 17.02,31.413 L17.02,31.41 Z" id="Path_42" fill="#000000"></path>
                    </g>
                    <g id="cricket_bat" transform="translate(130.000000, 0.000000)">
                        <path d="M32.047,30.278 C32.535772,30.766772 32.535772,31.559228 32.047,32.048 C31.558228,32.536772 30.765772,32.536772 30.277,32.048 L28.861,30.632 L30.631,28.862 L32.047,30.278 Z" id="Path_34" fill="#4DBBEB"></path>
                        <path d="M22.262,22.262 C22.3744843,22.1493961 22.4644287,22.0163461 22.527,21.87 L22.861,21.091 L30.632,28.863 L28.862,30.633 L21.09,22.862 L21.869,22.528 C22.0157836,22.4652417 22.1491872,22.3749482 22.262,22.262 L22.262,22.262 Z" id="Path_35" fill="#FD3C65"></path>
                        <path d="M17.02,25.778 C18.7477083,25.7780008 20.1484468,27.1782928 20.1489984,28.906001 C20.14955,30.6337092 18.749706,32.0348953 17.0219981,32.0359994 C15.2942902,32.0371034 13.8926565,30.6377075 13.891,28.91 C13.8902039,28.0796179 14.2195139,27.2829736 14.8064015,26.6955233 C15.3932892,26.108073 16.1896176,25.7779996 17.02,25.778 Z" id="Path_36" fill="#F0F0F0"></path>
                        <path d="M32.048,7.302 C32.3437462,7.00619685 32.4720844,6.58215542 32.39,6.172 C31.9339737,3.88988962 30.1501104,2.10602628 27.868,1.65 C27.4578446,1.5679156 27.0338032,1.69625381 26.738,1.992 L17.02,12.221 L17.015,12.226 L7.302,1.992 C7.00619685,1.69625381 6.58215542,1.5679156 6.172,1.65 C3.89002235,2.10627432 2.10627432,3.89002235 1.65,6.172 C1.56773114,6.58216429 1.69609538,7.00629175 1.992,7.302 L12.364,17.141 L12.359,17.147 L10.383,19.233 L11.183,21.091 L11.517,21.87 C11.6436226,22.1651638 11.8788362,22.4003774 12.174,22.527 L12.953,22.861 L14.811,23.661 L17.024,21.561 L17.024,21.561 L19.236,23.661 L21.094,22.861 L21.873,22.527 C22.1681638,22.4003774 22.4033774,22.1651638 22.53,21.87 L22.864,21.091 L23.664,19.233 L21.686,17.148 L21.686,17.148 L32.048,7.302 Z" id="Path_37" fill="#FEC761"></path>
                        <path d="M11.778,22.262 C11.8905882,22.3745033 12.023642,22.4644504 12.17,22.527 L12.949,22.861 L5.177,30.632 L3.407,28.862 L11.178,21.09 L11.512,21.869 C11.5747365,22.0157955 11.6650327,22.149203 11.778,22.262 L11.778,22.262 Z" id="Path_38" fill="#FD3C65"></path>
                        <path d="M5.177,30.632 L3.761,32.048 C3.44481997,32.3641801 2.98397747,32.4876626 2.55206744,32.3719326 C2.12015741,32.2562027 1.78279727,31.9188426 1.66706736,31.4869326 C1.55133744,31.0550225 1.67481987,30.59418 1.991,30.278 L3.407,28.862 L5.177,30.632 Z" id="Path_39" fill="#4DBBEB"></path>
                        <path d="M13.037,13.038 C12.857878,13.2170016 12.8042429,13.4862884 12.9011112,13.7202602 C12.9979794,13.9542321 13.2262683,14.1067976 13.4795,14.1067976 C13.7327317,14.1067976 13.9610206,13.9542321 14.0578888,13.7202602 C14.1547571,13.4862884 14.101122,13.2170016 13.922,13.038 C13.6775659,12.7937302 13.2814341,12.7937302 13.037,13.038 L13.037,13.038 Z" id="Path_40" fill="#000000"></path>
                        <path d="M23.6,20.948 L24.23,19.479 C24.3283384,19.2494022 24.2807814,18.9833194 24.109,18.802 L22.562,17.171 L32.476,7.756 L32.488,7.745 C32.9318135,7.30143127 33.1240287,6.66509393 33,6.05 C32.4992046,3.51901692 30.5215825,1.53981556 27.991,1.037 C27.3739687,0.911890473 26.7353484,1.1049792 26.291,1.551 L26.28,1.563 L17.011,11.323 L7.756,1.562 L7.745,1.55 C7.30065162,1.1039792 6.66203131,0.910890473 6.045,1.036 C3.51691399,1.54379564 1.54176824,3.52130779 1.037,6.05 C0.912006926,6.66684343 1.10465946,7.30526313 1.55,7.75 L1.562,7.762 L11.479,17.17 L9.928,18.798 C9.75621855,18.9793194 9.70866165,19.2454022 9.807,19.475 L10.437,20.943 L1.55,29.835 C1.04474834,30.3017909 0.835306665,31.0075621 1.00414914,31.6743944 C1.17299162,32.3412266 1.6930672,32.8622834 2.35957997,33.0323826 C3.02609273,33.2024818 3.73225752,32.9943709 4.2,32.49 L13.087,23.603 L14.555,24.233 C14.7845978,24.3313384 15.0506806,24.2837814 15.232,24.112 L17.016,22.422 L18.797,24.112 C18.9783194,24.2837814 19.2444022,24.3313384 19.474,24.233 L20.942,23.603 L29.829,32.49 C30.562158,33.223158 31.750842,33.223158 32.484,32.49 C33.217158,31.756842 33.217158,30.568158 32.484,29.835 L23.6,20.948 Z M22.182,23.071 C22.2558939,23.0357483 22.3273824,22.9956613 22.396,22.951 C22.6858673,22.9186758 22.9146758,22.6898673 22.947,22.4 C22.9916439,22.3313719 23.0317303,22.2598846 23.067,22.186 L29.743,28.863 L28.858,29.748 L22.182,23.071 Z M27.182,2.431 C27.3294547,2.28596607 27.5391924,2.22341928 27.742,2.264 C29.7801071,2.66655617 31.3734438,4.25989291 31.776,6.298 C31.8168385,6.50063942 31.7546737,6.7103517 31.61,6.858 L21.7,16.263 L17.875,12.231 L27.182,2.431 Z M12.382,18.031 L13.789,19.366 L11.916,21.239 L11.116,19.37 L12.382,18.031 Z M5.178,29.747 L4.293,28.862 L10.969,22.185 C11.0042646,22.2588873 11.0443511,22.3303749 11.089,22.399 C11.1213242,22.6888673 11.3501327,22.9176758 11.64,22.95 C11.708607,22.9946787 11.7800967,23.0347664 11.854,23.07 L5.178,29.747 Z M3.32,31.605 C3.16334531,31.7699982 2.92950188,31.8370102 2.70923413,31.7800258 C2.48896639,31.7230414 2.3169586,31.5510336 2.2599742,31.3307659 C2.2029898,31.1104981 2.27000179,30.8766547 2.435,30.72 L3.408,29.747 L4.293,30.632 L3.32,31.605 Z M14.676,22.92 L12.807,22.12 L14.707,20.22 L16.116,21.557 L14.676,22.92 Z M19.365,22.92 L12.795,16.687 L2.43,6.855 C2.28532625,6.7073517 2.22316154,6.49763942 2.264,6.295 C2.6706964,4.26078109 4.26078109,2.6706964 6.295,2.264 C6.49763942,2.22316154 6.7073517,2.28532625 6.855,2.43 L22.92,19.365 L22.12,21.234 L15.693,14.808 C15.4468603,14.5743069 15.0593265,14.5793323 14.8193294,14.8193294 C14.5793323,15.0593265 14.5743069,15.4468603 14.808,15.693 L21.234,22.119 L19.365,22.92 Z M31.6,31.605 C31.4827447,31.7225521 31.3235341,31.7886172 31.1575,31.7886172 C30.9914659,31.7886172 30.8322553,31.7225521 30.715,31.605 L29.742,30.632 L30.627,29.747 L31.6,30.72 C31.7175521,30.8372553 31.7836172,30.9964659 31.7836172,31.1625 C31.7836172,31.3285341 31.7175521,31.4877447 31.6,31.605 L31.6,31.605 Z" id="Path_41" fill="#000000"></path>
                        <path d="M17.02,25.152 C14.9461708,25.152 13.265,26.8331708 13.265,28.907 C13.265,30.9808292 14.9461708,32.662 17.02,32.662 C19.0938292,32.662 20.775,30.9808292 20.775,28.907 C20.7727954,26.8340846 19.0929154,25.1542046 17.02,25.152 Z M17.02,31.41 C15.6392881,31.41 14.52,30.2907119 14.52,28.91 C14.52,27.5292881 15.6392881,26.41 17.02,26.41 C18.4007119,26.41 19.52,27.5292881 19.52,28.91 C19.5183513,30.2905147 18.4005117,31.4096957 17.02,31.413 L17.02,31.41 Z" id="Path_42" fill="#000000"></path>
                    </g>
                </g>
            </g>
        </g>
    </g>
</svg>