<?xml version="1.0" encoding="UTF-8"?>
<svg width="277px" height="100px" viewBox="0 0 277 100" version="1.1" xmlns="http://www.w3.org/2000/svg" xmlns:xlink="http://www.w3.org/1999/xlink">
    <!-- Generator: Sketch 53.2 (72643) - https://sketchapp.com -->
    <title>nolivepop1</title>
    <desc>Created with Sketch.</desc>
    <g id="Page-1" stroke="none" stroke-width="1" fill="none" fill-rule="evenodd">
        <g id="Select-match-no-live-match" transform="translate(-47.000000, -306.000000)">
            <g id="nolivepop1" transform="translate(46.000000, 303.000000)">
                <g id="crick_ball" transform="translate(0.000000, 5.000000)" fill-rule="nonzero">
                    <path d="M10.901,0.515 C15.718,0.252 20.127,4.878 19.864,9.695 C19.4994921,14.6171402 15.5861402,18.5304921 10.664,18.895 C5.847,19.158 1.737,16.095 1.464,9.839 C1.191,3.583 6.084,0.778 10.901,0.515 Z" id="Path_45" fill="#FEC761"></path>
                    <g id="Group_1948" fill="#000000">
                        <path d="M10.515,19.029 C6.93963849,19.030791 3.66505718,17.0281211 2.03781838,13.8445214 C0.410579573,10.6609217 0.705382774,6.83382612 2.801,3.937 C2.90581968,3.80168259 3.09913234,3.77401471 3.23770089,3.87449716 C3.37626943,3.97497962 3.41004446,4.16731928 3.314,4.309 C0.583188923,8.07957743 1.22765783,13.3189932 4.79083298,16.3153854 C8.35400814,19.3117776 13.6263156,19.0479753 16.8725914,15.7108693 C20.1188672,12.3737632 20.2371136,7.09618459 17.143559,3.61703187 C14.0500045,0.137879163 8.79480304,-0.361796458 5.101,2.472 C5.01263842,2.55147735 4.88724463,2.57485345 4.77618109,2.53255323 C4.66511755,2.49025301 4.58704456,2.38938352 4.57394156,2.27126184 C4.56083855,2.15314017 4.61490701,2.03761248 4.714,1.972 C8.00730832,-0.55843807 12.5613662,-0.660488287 15.9647191,1.71988675 C19.368072,4.10026179 20.8343131,8.41303284 19.5870416,12.3745111 C18.3397701,16.3359895 14.667191,19.0308029 10.514,19.032 L10.515,19.029 Z" id="Path_46"></path>
                        <path d="M4.905,17.13 C4.77233886,17.1285166 4.65463389,17.0445788 4.61001233,16.9196385 C4.56539077,16.7946981 4.60329242,16.6551865 4.705,16.57 C6.978,14.67 9.235,12.594 11.416,10.413 C13.597,8.232 15.671,5.972 17.573,3.702 C17.6450508,3.61300018 17.7594992,3.56977578 17.8723954,3.58892558 C17.9852917,3.60807538 18.0790849,3.68662236 18.1177571,3.79440334 C18.1564293,3.90218432 18.1339685,4.02244365 18.059,4.109 C16.145,6.393 14.059,8.665 11.864,10.862 C9.669,13.059 7.398,15.14 5.112,17.057 C5.05393898,17.1052853 4.98050599,17.131182 4.905,17.13 L4.905,17.13 Z" id="Path_48"></path>
                        <path d="M6.09,17.886 C5.96019159,17.8855545 5.84377202,17.806013 5.79617065,17.6852466 C5.74856928,17.5644802 5.77940643,17.4268959 5.874,17.338 C5.88680902,17.325975 5.90051532,17.3149431 5.915,17.305 C6.08766667,17.189 6.26,17.0713333 6.432,16.952 C6.57587018,16.8520365 6.77353643,16.8876299 6.87349996,17.0315 C6.97346349,17.1753702 6.93787015,17.3730364 6.794,17.473 C6.62066667,17.593 6.447,17.7116667 6.273,17.829 C6.2192853,17.86631 6.15540079,17.8862085 6.09,17.886 L6.09,17.886 Z M7.645,16.792 C7.50761836,16.7924529 7.38558106,16.7043615 7.34275251,16.5738255 C7.29992395,16.4432896 7.34605322,16.300023 7.457,16.219 C7.62566667,16.095 7.79233333,15.9693333 7.957,15.842 C8.04698025,15.7702128 8.16880401,15.752843 8.27526178,15.796622 C8.38171955,15.8404009 8.45608009,15.9384481 8.46952696,16.052768 C8.48297384,16.1670878 8.4333937,16.2797135 8.34,16.347 C8.17,16.4763333 7.99933333,16.6036667 7.828,16.729 C7.77393197,16.7691925 7.70837049,16.7909294 7.641,16.791 L7.645,16.792 Z M9.153,15.632 C9.01776696,15.6330951 8.89673074,15.5482769 8.85160298,15.420791 C8.80647522,15.2933051 8.84719464,15.1512283 8.953,15.067 C9.11633333,14.9336667 9.279,14.8003333 9.441,14.667 C9.57683394,14.5737642 9.76144633,14.600123 9.86576037,14.7276469 C9.97007442,14.8551709 9.95931289,15.0413447 9.841,15.156 C9.67633333,15.2893333 9.50966667,15.4226667 9.341,15.556 C9.28838402,15.6012984 9.22231409,15.6280075 9.153,15.632 L9.153,15.632 Z M10.611,14.41 C10.4786772,14.4103136 10.3600797,14.3284023 10.3135203,14.2045409 C10.2669609,14.0806795 10.3022355,13.9409279 10.402,13.854 C10.56,13.716 10.7173333,13.5766667 10.874,13.436 C10.9583147,13.3602597 11.0766316,13.3352541 11.184382,13.3704026 C11.2921324,13.4055511 11.3729463,13.4955138 11.396382,13.6064026 C11.4198177,13.7172914 11.3823147,13.8322597 11.298,13.908 C11.1393333,14.0506667 10.98,14.192 10.82,14.332 C10.7621326,14.3825438 10.6878325,14.410273 10.611,14.41 Z M12.018,13.129 C11.8882858,13.128939 11.7716963,13.0498568 11.7236736,12.9293595 C11.6756509,12.8088622 11.7058855,12.6712651 11.8,12.582 C11.952,12.438 12.1033333,12.2923333 12.254,12.145 C12.3793686,12.0226689 12.5801689,12.0251314 12.7025,12.1505 C12.8248311,12.2758686 12.8223686,12.4766689 12.697,12.599 C12.5443333,12.7476667 12.3906667,12.8953333 12.236,13.042 C12.1771982,13.0979131 12.0991414,13.1290642 12.018,13.129 L12.018,13.129 Z M13.373,11.792 C13.2456386,11.7918948 13.1307067,11.7155764 13.0811955,11.5982326 C13.0316842,11.4808887 13.0572085,11.3453073 13.146,11.254 C13.2926667,11.1033333 13.4383333,10.952 13.583,10.8 C13.6600801,10.7144188 13.7775142,10.6773787 13.8897472,10.7032482 C14.0019801,10.7291177 14.0913514,10.8138261 14.123192,10.9245133 C14.1550326,11.0352005 14.1243321,11.154449 14.043,11.236 C13.897,11.39 13.7496667,11.5433333 13.601,11.696 C13.5421257,11.7588794 13.4601336,11.7949992 13.374,11.796 L13.373,11.792 Z M14.673,10.403 C14.5477703,10.4031265 14.4342033,10.3295171 14.3831823,10.2151521 C14.3321612,10.1007872 14.3532501,9.96710447 14.437,9.874 C14.5776667,9.71733333 14.717,9.56033333 14.855,9.403 C14.9294899,9.31761352 15.0438745,9.27845304 15.1550663,9.30026992 C15.2662581,9.32208681 15.3573644,9.40156656 15.3940663,9.50876993 C15.4307682,9.61597329 15.4074899,9.73461352 15.333,9.82 C15.1936667,9.98 15.0526667,10.1393333 14.91,10.298 C14.8498069,10.3649166 14.7640057,10.4030909 14.674,10.403 L14.673,10.403 Z M15.915,8.962 C15.792274,8.96188191 15.6806426,8.89093554 15.6284274,8.77987132 C15.5762122,8.6688071 15.592796,8.53758231 15.671,8.443 C15.8043333,8.281 15.9376667,8.118 16.071,7.954 C16.1424531,7.8657554 16.2555565,7.82233381 16.3677051,7.84009173 C16.4798537,7.85784964 16.5740096,7.93408921 16.6147051,8.04009173 C16.6554006,8.14609424 16.6364531,8.2657554 16.565,8.354 C16.4316667,8.51933333 16.2983333,8.68433333 16.165,8.849 C16.1047126,8.92213617 16.0147805,8.96434921 15.92,8.964 L15.915,8.962 Z M17.096,7.471 C16.975566,7.47090886 16.8655858,7.40258008 16.8121505,7.29464944 C16.7587153,7.1867188 16.7710557,7.05783046 16.844,6.962 C16.9706667,6.794 17.0963333,6.62733333 17.221,6.462 C17.2864932,6.36641877 17.3989167,6.31418452 17.5142027,6.32577199 C17.6294887,6.33735947 17.7292682,6.4109224 17.7744297,6.51762561 C17.8195911,6.62432881 17.8029388,6.7471708 17.731,6.838 C17.605,7.00866667 17.4776667,7.179 17.349,7.349 C17.2879493,7.4268788 17.1939421,7.47166179 17.095,7.47 L17.096,7.471 Z M18.213,5.931 C18.0943242,5.93143349 17.9853461,5.86554282 17.9305944,5.76025093 C17.8758426,5.65495904 17.8844887,5.52790379 17.953,5.431 C18.0723333,5.259 18.19,5.08666667 18.306,4.914 C18.317416,4.8970839 18.3304798,4.88134035 18.345,4.867 C18.4621838,4.74631821 18.6532258,4.73818096 18.7802472,4.84846106 C18.9072686,4.95874116 18.926034,5.14903333 18.823,5.282 C18.7083333,5.45266667 18.592,5.623 18.474,5.793 C18.4145915,5.8784196 18.3170472,5.92924727 18.213,5.929 L18.213,5.931 Z" id="Path_49"></path>
                        <path d="M2.459,14.256 C2.33856605,14.2559089 2.22858575,14.1875801 2.17515054,14.0796494 C2.12171533,13.9717188 2.13405572,13.8428305 2.207,13.747 C2.32166667,13.5763333 2.438,13.406 2.556,13.236 C2.65596354,13.0921298 2.85362982,13.0565365 2.99749999,13.1565 C3.14137016,13.2564636 3.17696353,13.4541298 3.077,13.598 C2.95766667,13.77 2.84,13.9423333 2.724,14.115 C2.71258922,14.1319201 2.69952501,14.1476641 2.685,14.162 C2.62516295,14.2221383 2.54383564,14.2559647 2.459,14.256 Z M3.553,12.702 C3.43346517,12.7019113 3.32414404,12.6345895 3.27026426,12.5278864 C3.21638447,12.4211833 3.22710863,12.2932445 3.298,12.197 C3.424,12.0263333 3.55133333,11.856 3.68,11.686 C3.74728647,11.5926063 3.85991217,11.5430262 3.97423204,11.556473 C4.08855192,11.5699199 4.1865991,11.6442804 4.23037804,11.7507382 C4.27415698,11.857196 4.25678724,11.9790198 4.185,12.069 C4.05833333,12.237 3.93266667,12.4036667 3.808,12.569 C3.74840931,12.6501738 3.65369873,12.6980862 3.553,12.698 L3.553,12.702 Z M4.713,11.194 C4.5908743,11.1940944 4.47955481,11.1240253 4.42682522,11.0138695 C4.37409563,10.9037138 4.38933428,10.7730635 4.466,10.678 C4.59933333,10.5126667 4.73266667,10.3476667 4.866,10.183 C4.9336975,10.0843725 5.05115098,10.032254 5.16970456,10.048235 C5.28825814,10.064216 5.38771892,10.1455745 5.42688462,10.2586072 C5.46605032,10.3716399 5.43824995,10.4970943 5.355,10.583 C5.22166667,10.745 5.08833333,10.908 4.955,11.072 C4.89464096,11.1470787 4.80333143,11.1905243 4.707,11.19 L4.713,11.194 Z M5.935,9.736 C5.8104366,9.73625789 5.6972673,9.66354084 5.64573873,9.55013487 C5.59421017,9.43672891 5.61387416,9.30365604 5.696,9.21 C5.83533333,9.05 5.97633333,8.89066667 6.119,8.732 C6.23608437,8.60166081 6.43666079,8.59091566 6.56699998,8.70800002 C6.69733918,8.82508438 6.70808435,9.0256608 6.591,9.156 C6.45033333,9.31266667 6.311,9.46966667 6.173,9.627 C6.11300634,9.69640218 6.025738,9.73620238 5.934,9.736 L5.935,9.736 Z M7.216,8.329 C7.08937225,8.32894358 6.97492553,8.25353383 6.92491322,8.13720086 C6.87490092,8.02086789 6.89891843,7.88593145 6.986,7.794 C7.132,7.64 7.27933333,7.48666667 7.428,7.334 C7.55033107,7.20835522 7.75135522,7.20566893 7.877,7.328 C8.00264478,7.45033107 8.00533107,7.65135522 7.883,7.777 C7.73633333,7.92766667 7.59066667,8.079 7.446,8.231 C7.3864097,8.29463267 7.30317848,8.33082016 7.216,8.331 L7.216,8.329 Z M8.553,6.977 C8.42409656,6.97689064 8.30809536,6.89873641 8.25957904,6.77931164 C8.21106273,6.65988686 8.23969367,6.52297584 8.332,6.433 C8.48533333,6.28433333 8.639,6.13666667 8.793,5.99 C8.92030163,5.86960192 9.12110192,5.87519837 9.2415,6.0025 C9.36189808,6.12980163 9.35630163,6.33060192 9.229,6.451 C9.077,6.595 8.92566667,6.74066667 8.775,6.888 C8.71592681,6.94573019 8.63659791,6.97803608 8.554,6.978 L8.553,6.977 Z M9.942,5.677 C9.81057767,5.67714786 9.69269285,5.59618762 9.64564881,5.47347369 C9.59860477,5.35075976 9.63215863,5.21174347 9.73,5.124 C9.88866667,4.98133333 10.048,4.84 10.208,4.7 C10.3399961,4.58484864 10.5403486,4.59850396 10.6555,4.73050001 C10.7706514,4.86249606 10.756996,5.06284863 10.625,5.178 C10.467,5.316 10.3096667,5.45533333 10.153,5.596 C10.0948521,5.64840289 10.0192762,5.67727858 9.941,5.677 L9.942,5.677 Z M11.384,4.435 C11.2503245,4.43451333 11.1313201,4.35022328 11.0865019,4.22428403 C11.0416836,4.09834479 11.0806846,3.95782507 11.184,3.873 C11.3486667,3.73966667 11.5153333,3.60633333 11.684,3.473 C11.8206905,3.36254305 12.0210431,3.38380952 12.1315,3.5205 C12.2419569,3.65719048 12.2206905,3.85754305 12.084,3.968 C11.9206667,4.10133333 11.758,4.23466667 11.596,4.368 C11.5397845,4.41473534 11.4691038,4.4405338 11.396,4.441 L11.384,4.435 Z M12.876,3.253 C12.7395525,3.25343247 12.6181372,3.16650333 12.5745804,3.03719397 C12.5310236,2.90788462 12.575099,2.76521122 12.684,2.683 C12.854,2.55433333 13.0246667,2.427 13.196,2.301 C13.287119,2.230872 13.4090678,2.21558211 13.5146794,2.26104412 C13.6202909,2.30650613 13.6930053,2.40559154 13.7046981,2.51997633 C13.7163909,2.63436111 13.6652288,2.74610962 13.571,2.812 C13.4023333,2.936 13.2356667,3.06166667 13.071,3.189 C13.0159851,3.23053241 12.9489317,3.25300057 12.88,3.253 L12.876,3.253 Z M14.416,2.136 C14.2770158,2.13647862 14.1539283,2.04636771 14.1123941,1.91373384 C14.07086,1.78109998 14.1205667,1.63687874 14.235,1.558 C14.4083333,1.438 14.582,1.31933333 14.756,1.202 C14.8921222,1.10129601 15.0833556,1.12534808 15.1903009,1.25662349 C15.2972463,1.38789889 15.2821427,1.58004624 15.156,1.693 C15.1431735,1.70500491 15.1294688,1.71603557 15.115,1.726 C14.9423333,1.842 14.77,1.95966667 14.598,2.079 C14.5449601,2.11615341 14.4817581,2.1360568 14.417,2.136 L14.416,2.136 Z" id="Path_50"></path>
                        <path d="M3.22,15.446 C3.09668255,15.4461411 2.9844749,15.3747537 2.93234919,15.2629945 C2.88022349,15.1512353 2.897641,15.0193894 2.977,14.925 C4.893,12.639 6.977,10.367 9.172,8.172 C11.367,5.977 13.639,3.893 15.925,1.977 C16.0592052,1.86433391 16.2593339,1.88179481 16.372,2.016 C16.4846661,2.15020519 16.4672052,2.35033391 16.333,2.463 C14.061,4.363 11.803,6.438 9.621,8.62 C7.439,10.802 5.368,13.06 3.464,15.331 C3.40368699,15.4027364 3.31472172,15.4441071 3.221,15.444 L3.22,15.446 Z" id="Path_51"></path>
                        <path d="M4.012,16.336 C3.88388041,16.3358765 3.76843105,16.2586435 3.7194185,16.1402694 C3.67040595,16.0218954 3.69746744,15.885656 3.788,15.795 L16.793,2.788 C16.9179454,2.67195874 17.1123008,2.6755481 17.2328764,2.79612362 C17.3534519,2.91669915 17.3570413,3.11105464 17.241,3.236 L4.236,16.243 C4.17667595,16.302561 4.09606457,16.3360291 4.012,16.336 Z" id="Path_52"></path>
                    </g>
                </g>
                <g id="crick_ball" transform="translate(0.000000, 64.000000)" fill-rule="nonzero">
                    <path d="M10.901,0.515 C15.718,0.252 20.127,4.878 19.864,9.695 C19.4994921,14.6171402 15.5861402,18.5304921 10.664,18.895 C5.847,19.158 1.737,16.095 1.464,9.839 C1.191,3.583 6.084,0.778 10.901,0.515 Z" id="Path_45" fill="#FEC761"></path>
                    <g id="Group_1948" fill="#000000">
                        <path d="M10.515,19.029 C6.93963849,19.030791 3.66505718,17.0281211 2.03781838,13.8445214 C0.410579573,10.6609217 0.705382774,6.83382612 2.801,3.937 C2.90581968,3.80168259 3.09913234,3.77401471 3.23770089,3.87449716 C3.37626943,3.97497962 3.41004446,4.16731928 3.314,4.309 C0.583188923,8.07957743 1.22765783,13.3189932 4.79083298,16.3153854 C8.35400814,19.3117776 13.6263156,19.0479753 16.8725914,15.7108693 C20.1188672,12.3737632 20.2371136,7.09618459 17.143559,3.61703187 C14.0500045,0.137879163 8.79480304,-0.361796458 5.101,2.472 C5.01263842,2.55147735 4.88724463,2.57485345 4.77618109,2.53255323 C4.66511755,2.49025301 4.58704456,2.38938352 4.57394156,2.27126184 C4.56083855,2.15314017 4.61490701,2.03761248 4.714,1.972 C8.00730832,-0.55843807 12.5613662,-0.660488287 15.9647191,1.71988675 C19.368072,4.10026179 20.8343131,8.41303284 19.5870416,12.3745111 C18.3397701,16.3359895 14.667191,19.0308029 10.514,19.032 L10.515,19.029 Z" id="Path_46"></path>
                        <path d="M4.905,17.13 C4.77233886,17.1285166 4.65463389,17.0445788 4.61001233,16.9196385 C4.56539077,16.7946981 4.60329242,16.6551865 4.705,16.57 C6.978,14.67 9.235,12.594 11.416,10.413 C13.597,8.232 15.671,5.972 17.573,3.702 C17.6450508,3.61300018 17.7594992,3.56977578 17.8723954,3.58892558 C17.9852917,3.60807538 18.0790849,3.68662236 18.1177571,3.79440334 C18.1564293,3.90218432 18.1339685,4.02244365 18.059,4.109 C16.145,6.393 14.059,8.665 11.864,10.862 C9.669,13.059 7.398,15.14 5.112,17.057 C5.05393898,17.1052853 4.98050599,17.131182 4.905,17.13 L4.905,17.13 Z" id="Path_48"></path>
                        <path d="M6.09,17.886 C5.96019159,17.8855545 5.84377202,17.806013 5.79617065,17.6852466 C5.74856928,17.5644802 5.77940643,17.4268959 5.874,17.338 C5.88680902,17.325975 5.90051532,17.3149431 5.915,17.305 C6.08766667,17.189 6.26,17.0713333 6.432,16.952 C6.57587018,16.8520365 6.77353643,16.8876299 6.87349996,17.0315 C6.97346349,17.1753702 6.93787015,17.3730364 6.794,17.473 C6.62066667,17.593 6.447,17.7116667 6.273,17.829 C6.2192853,17.86631 6.15540079,17.8862085 6.09,17.886 L6.09,17.886 Z M7.645,16.792 C7.50761836,16.7924529 7.38558106,16.7043615 7.34275251,16.5738255 C7.29992395,16.4432896 7.34605322,16.300023 7.457,16.219 C7.62566667,16.095 7.79233333,15.9693333 7.957,15.842 C8.04698025,15.7702128 8.16880401,15.752843 8.27526178,15.796622 C8.38171955,15.8404009 8.45608009,15.9384481 8.46952696,16.052768 C8.48297384,16.1670878 8.4333937,16.2797135 8.34,16.347 C8.17,16.4763333 7.99933333,16.6036667 7.828,16.729 C7.77393197,16.7691925 7.70837049,16.7909294 7.641,16.791 L7.645,16.792 Z M9.153,15.632 C9.01776696,15.6330951 8.89673074,15.5482769 8.85160298,15.420791 C8.80647522,15.2933051 8.84719464,15.1512283 8.953,15.067 C9.11633333,14.9336667 9.279,14.8003333 9.441,14.667 C9.57683394,14.5737642 9.76144633,14.600123 9.86576037,14.7276469 C9.97007442,14.8551709 9.95931289,15.0413447 9.841,15.156 C9.67633333,15.2893333 9.50966667,15.4226667 9.341,15.556 C9.28838402,15.6012984 9.22231409,15.6280075 9.153,15.632 L9.153,15.632 Z M10.611,14.41 C10.4786772,14.4103136 10.3600797,14.3284023 10.3135203,14.2045409 C10.2669609,14.0806795 10.3022355,13.9409279 10.402,13.854 C10.56,13.716 10.7173333,13.5766667 10.874,13.436 C10.9583147,13.3602597 11.0766316,13.3352541 11.184382,13.3704026 C11.2921324,13.4055511 11.3729463,13.4955138 11.396382,13.6064026 C11.4198177,13.7172914 11.3823147,13.8322597 11.298,13.908 C11.1393333,14.0506667 10.98,14.192 10.82,14.332 C10.7621326,14.3825438 10.6878325,14.410273 10.611,14.41 Z M12.018,13.129 C11.8882858,13.128939 11.7716963,13.0498568 11.7236736,12.9293595 C11.6756509,12.8088622 11.7058855,12.6712651 11.8,12.582 C11.952,12.438 12.1033333,12.2923333 12.254,12.145 C12.3793686,12.0226689 12.5801689,12.0251314 12.7025,12.1505 C12.8248311,12.2758686 12.8223686,12.4766689 12.697,12.599 C12.5443333,12.7476667 12.3906667,12.8953333 12.236,13.042 C12.1771982,13.0979131 12.0991414,13.1290642 12.018,13.129 L12.018,13.129 Z M13.373,11.792 C13.2456386,11.7918948 13.1307067,11.7155764 13.0811955,11.5982326 C13.0316842,11.4808887 13.0572085,11.3453073 13.146,11.254 C13.2926667,11.1033333 13.4383333,10.952 13.583,10.8 C13.6600801,10.7144188 13.7775142,10.6773787 13.8897472,10.7032482 C14.0019801,10.7291177 14.0913514,10.8138261 14.123192,10.9245133 C14.1550326,11.0352005 14.1243321,11.154449 14.043,11.236 C13.897,11.39 13.7496667,11.5433333 13.601,11.696 C13.5421257,11.7588794 13.4601336,11.7949992 13.374,11.796 L13.373,11.792 Z M14.673,10.403 C14.5477703,10.4031265 14.4342033,10.3295171 14.3831823,10.2151521 C14.3321612,10.1007872 14.3532501,9.96710447 14.437,9.874 C14.5776667,9.71733333 14.717,9.56033333 14.855,9.403 C14.9294899,9.31761352 15.0438745,9.27845304 15.1550663,9.30026992 C15.2662581,9.32208681 15.3573644,9.40156656 15.3940663,9.50876993 C15.4307682,9.61597329 15.4074899,9.73461352 15.333,9.82 C15.1936667,9.98 15.0526667,10.1393333 14.91,10.298 C14.8498069,10.3649166 14.7640057,10.4030909 14.674,10.403 L14.673,10.403 Z M15.915,8.962 C15.792274,8.96188191 15.6806426,8.89093554 15.6284274,8.77987132 C15.5762122,8.6688071 15.592796,8.53758231 15.671,8.443 C15.8043333,8.281 15.9376667,8.118 16.071,7.954 C16.1424531,7.8657554 16.2555565,7.82233381 16.3677051,7.84009173 C16.4798537,7.85784964 16.5740096,7.93408921 16.6147051,8.04009173 C16.6554006,8.14609424 16.6364531,8.2657554 16.565,8.354 C16.4316667,8.51933333 16.2983333,8.68433333 16.165,8.849 C16.1047126,8.92213617 16.0147805,8.96434921 15.92,8.964 L15.915,8.962 Z M17.096,7.471 C16.975566,7.47090886 16.8655858,7.40258008 16.8121505,7.29464944 C16.7587153,7.1867188 16.7710557,7.05783046 16.844,6.962 C16.9706667,6.794 17.0963333,6.62733333 17.221,6.462 C17.2864932,6.36641877 17.3989167,6.31418452 17.5142027,6.32577199 C17.6294887,6.33735947 17.7292682,6.4109224 17.7744297,6.51762561 C17.8195911,6.62432881 17.8029388,6.7471708 17.731,6.838 C17.605,7.00866667 17.4776667,7.179 17.349,7.349 C17.2879493,7.4268788 17.1939421,7.47166179 17.095,7.47 L17.096,7.471 Z M18.213,5.931 C18.0943242,5.93143349 17.9853461,5.86554282 17.9305944,5.76025093 C17.8758426,5.65495904 17.8844887,5.52790379 17.953,5.431 C18.0723333,5.259 18.19,5.08666667 18.306,4.914 C18.317416,4.8970839 18.3304798,4.88134035 18.345,4.867 C18.4621838,4.74631821 18.6532258,4.73818096 18.7802472,4.84846106 C18.9072686,4.95874116 18.926034,5.14903333 18.823,5.282 C18.7083333,5.45266667 18.592,5.623 18.474,5.793 C18.4145915,5.8784196 18.3170472,5.92924727 18.213,5.929 L18.213,5.931 Z" id="Path_49"></path>
                        <path d="M2.459,14.256 C2.33856605,14.2559089 2.22858575,14.1875801 2.17515054,14.0796494 C2.12171533,13.9717188 2.13405572,13.8428305 2.207,13.747 C2.32166667,13.5763333 2.438,13.406 2.556,13.236 C2.65596354,13.0921298 2.85362982,13.0565365 2.99749999,13.1565 C3.14137016,13.2564636 3.17696353,13.4541298 3.077,13.598 C2.95766667,13.77 2.84,13.9423333 2.724,14.115 C2.71258922,14.1319201 2.69952501,14.1476641 2.685,14.162 C2.62516295,14.2221383 2.54383564,14.2559647 2.459,14.256 Z M3.553,12.702 C3.43346517,12.7019113 3.32414404,12.6345895 3.27026426,12.5278864 C3.21638447,12.4211833 3.22710863,12.2932445 3.298,12.197 C3.424,12.0263333 3.55133333,11.856 3.68,11.686 C3.74728647,11.5926063 3.85991217,11.5430262 3.97423204,11.556473 C4.08855192,11.5699199 4.1865991,11.6442804 4.23037804,11.7507382 C4.27415698,11.857196 4.25678724,11.9790198 4.185,12.069 C4.05833333,12.237 3.93266667,12.4036667 3.808,12.569 C3.74840931,12.6501738 3.65369873,12.6980862 3.553,12.698 L3.553,12.702 Z M4.713,11.194 C4.5908743,11.1940944 4.47955481,11.1240253 4.42682522,11.0138695 C4.37409563,10.9037138 4.38933428,10.7730635 4.466,10.678 C4.59933333,10.5126667 4.73266667,10.3476667 4.866,10.183 C4.9336975,10.0843725 5.05115098,10.032254 5.16970456,10.048235 C5.28825814,10.064216 5.38771892,10.1455745 5.42688462,10.2586072 C5.46605032,10.3716399 5.43824995,10.4970943 5.355,10.583 C5.22166667,10.745 5.08833333,10.908 4.955,11.072 C4.89464096,11.1470787 4.80333143,11.1905243 4.707,11.19 L4.713,11.194 Z M5.935,9.736 C5.8104366,9.73625789 5.6972673,9.66354084 5.64573873,9.55013487 C5.59421017,9.43672891 5.61387416,9.30365604 5.696,9.21 C5.83533333,9.05 5.97633333,8.89066667 6.119,8.732 C6.23608437,8.60166081 6.43666079,8.59091566 6.56699998,8.70800002 C6.69733918,8.82508438 6.70808435,9.0256608 6.591,9.156 C6.45033333,9.31266667 6.311,9.46966667 6.173,9.627 C6.11300634,9.69640218 6.025738,9.73620238 5.934,9.736 L5.935,9.736 Z M7.216,8.329 C7.08937225,8.32894358 6.97492553,8.25353383 6.92491322,8.13720086 C6.87490092,8.02086789 6.89891843,7.88593145 6.986,7.794 C7.132,7.64 7.27933333,7.48666667 7.428,7.334 C7.55033107,7.20835522 7.75135522,7.20566893 7.877,7.328 C8.00264478,7.45033107 8.00533107,7.65135522 7.883,7.777 C7.73633333,7.92766667 7.59066667,8.079 7.446,8.231 C7.3864097,8.29463267 7.30317848,8.33082016 7.216,8.331 L7.216,8.329 Z M8.553,6.977 C8.42409656,6.97689064 8.30809536,6.89873641 8.25957904,6.77931164 C8.21106273,6.65988686 8.23969367,6.52297584 8.332,6.433 C8.48533333,6.28433333 8.639,6.13666667 8.793,5.99 C8.92030163,5.86960192 9.12110192,5.87519837 9.2415,6.0025 C9.36189808,6.12980163 9.35630163,6.33060192 9.229,6.451 C9.077,6.595 8.92566667,6.74066667 8.775,6.888 C8.71592681,6.94573019 8.63659791,6.97803608 8.554,6.978 L8.553,6.977 Z M9.942,5.677 C9.81057767,5.67714786 9.69269285,5.59618762 9.64564881,5.47347369 C9.59860477,5.35075976 9.63215863,5.21174347 9.73,5.124 C9.88866667,4.98133333 10.048,4.84 10.208,4.7 C10.3399961,4.58484864 10.5403486,4.59850396 10.6555,4.73050001 C10.7706514,4.86249606 10.756996,5.06284863 10.625,5.178 C10.467,5.316 10.3096667,5.45533333 10.153,5.596 C10.0948521,5.64840289 10.0192762,5.67727858 9.941,5.677 L9.942,5.677 Z M11.384,4.435 C11.2503245,4.43451333 11.1313201,4.35022328 11.0865019,4.22428403 C11.0416836,4.09834479 11.0806846,3.95782507 11.184,3.873 C11.3486667,3.73966667 11.5153333,3.60633333 11.684,3.473 C11.8206905,3.36254305 12.0210431,3.38380952 12.1315,3.5205 C12.2419569,3.65719048 12.2206905,3.85754305 12.084,3.968 C11.9206667,4.10133333 11.758,4.23466667 11.596,4.368 C11.5397845,4.41473534 11.4691038,4.4405338 11.396,4.441 L11.384,4.435 Z M12.876,3.253 C12.7395525,3.25343247 12.6181372,3.16650333 12.5745804,3.03719397 C12.5310236,2.90788462 12.575099,2.76521122 12.684,2.683 C12.854,2.55433333 13.0246667,2.427 13.196,2.301 C13.287119,2.230872 13.4090678,2.21558211 13.5146794,2.26104412 C13.6202909,2.30650613 13.6930053,2.40559154 13.7046981,2.51997633 C13.7163909,2.63436111 13.6652288,2.74610962 13.571,2.812 C13.4023333,2.936 13.2356667,3.06166667 13.071,3.189 C13.0159851,3.23053241 12.9489317,3.25300057 12.88,3.253 L12.876,3.253 Z M14.416,2.136 C14.2770158,2.13647862 14.1539283,2.04636771 14.1123941,1.91373384 C14.07086,1.78109998 14.1205667,1.63687874 14.235,1.558 C14.4083333,1.438 14.582,1.31933333 14.756,1.202 C14.8921222,1.10129601 15.0833556,1.12534808 15.1903009,1.25662349 C15.2972463,1.38789889 15.2821427,1.58004624 15.156,1.693 C15.1431735,1.70500491 15.1294688,1.71603557 15.115,1.726 C14.9423333,1.842 14.77,1.95966667 14.598,2.079 C14.5449601,2.11615341 14.4817581,2.1360568 14.417,2.136 L14.416,2.136 Z" id="Path_50"></path>
                        <path d="M3.22,15.446 C3.09668255,15.4461411 2.9844749,15.3747537 2.93234919,15.2629945 C2.88022349,15.1512353 2.897641,15.0193894 2.977,14.925 C4.893,12.639 6.977,10.367 9.172,8.172 C11.367,5.977 13.639,3.893 15.925,1.977 C16.0592052,1.86433391 16.2593339,1.88179481 16.372,2.016 C16.4846661,2.15020519 16.4672052,2.35033391 16.333,2.463 C14.061,4.363 11.803,6.438 9.621,8.62 C7.439,10.802 5.368,13.06 3.464,15.331 C3.40368699,15.4027364 3.31472172,15.4441071 3.221,15.444 L3.22,15.446 Z" id="Path_51"></path>
                        <path d="M4.012,16.336 C3.88388041,16.3358765 3.76843105,16.2586435 3.7194185,16.1402694 C3.67040595,16.0218954 3.69746744,15.885656 3.788,15.795 L16.793,2.788 C16.9179454,2.67195874 17.1123008,2.6755481 17.2328764,2.79612362 C17.3534519,2.91669915 17.3570413,3.11105464 17.241,3.236 L4.236,16.243 C4.17667595,16.302561 4.09606457,16.3360291 4.012,16.336 Z" id="Path_52"></path>
                    </g>
                </g>
                <text id="You-can-join-the-gam" font-family="Avenir-Medium, Avenir" font-size="16" font-weight="400" fill="#4A4A4A">
                    <tspan x="33" y="16">You can join the game 30 minutes </tspan>
                    <tspan x="33" y="38">before the match begins.</tspan>
                </text>
                <text id="We’ll-notify-you-by" font-family="Avenir-Medium, Avenir" font-size="16" font-weight="400" fill="#4A4A4A">
                    <tspan x="33" y="77">We’ll notify you by email once a </tspan>
                    <tspan x="33" y="99">match begins.</tspan>
                </text>
            </g>
        </g>
    </g>
</svg>