<svg xmlns="http://www.w3.org/2000/svg" width="46" height="46" viewBox="0 0 46 46">
  <g id="Symbol_8_1" data-name="Symbol 8 – 1" transform="translate(-1054 -3103)">
    <g id="Group_9438" data-name="Group 9438" transform="translate(-57)">
      <circle id="Ellipse_85" data-name="Ellipse 85" cx="23" cy="23" r="23" transform="translate(1111 3103)" fill="#e78bba"/>
    </g>
    <g id="Group_9447" data-name="Group 9447" transform="translate(1010.953 3061.071)">
      <g id="Group_9442" data-name="Group 9442" transform="translate(60.314 59.991)">
        <g id="Group_9441" data-name="Group 9441" transform="translate(0)">
          <g id="Group_9439" data-name="Group 9439" transform="translate(3.926 0.044)">
            <path id="Path_4052" data-name="Path 4052" d="M134.924,150.445a.45.45,0,0,1-.238.4.875.875,0,0,1-.482.124,1.922,1.922,0,0,1-1.144-.387,2.837,2.837,0,0,1-.792-.961,3.615,3.615,0,0,1-.287-.825q-.033-.148-.164-.881a5.868,5.868,0,0,0-.2-.83,2.481,2.481,0,0,1-.321.081,1.581,1.581,0,0,1-.315.029,1.059,1.059,0,0,1-.557-.137.508.508,0,0,1-.246-.465.491.491,0,0,1,.25-.428.9.9,0,0,1,.5-.129,1.158,1.158,0,0,1,.523.134,1,1,0,0,1,.4.387,2.373,2.373,0,0,0,.866-.916,2.959,2.959,0,0,0,.4-1.464,2.8,2.8,0,0,0-.661-1.922,2.228,2.228,0,0,0-1.734-.791,5.418,5.418,0,0,0-.869.041,2.785,2.785,0,0,0-.923.335,2.226,2.226,0,0,0-.567.459,1.015,1.015,0,0,0-.292.64c0,.047-.006.078-.007.094a.618.618,0,0,0,.062.29.2.2,0,0,0,.184.126.219.219,0,0,0,.17-.062.509.509,0,0,0,.1-.241c.011-.047.027-.07.046-.07s.035.017.046.048a.541.541,0,0,1,.078.32.569.569,0,0,1-.158.4.485.485,0,0,1-.369.161.477.477,0,0,1-.4-.23.933.933,0,0,1-.15-.545,1.587,1.587,0,0,1,.332-.952,2.559,2.559,0,0,1,.7-.628,3.64,3.64,0,0,1,1.17-.5,5.3,5.3,0,0,1,1.186-.1,2.892,2.892,0,0,1,2.04.819,2.7,2.7,0,0,1,.853,2.055,3.3,3.3,0,0,1-.591,1.87,3.15,3.15,0,0,1-1.287,1.116,4.072,4.072,0,0,1,.34.654q.16.38.318.877c.161.5.276.837.342,1a3.644,3.644,0,0,0,.466.881.838.838,0,0,0,.64.381.48.48,0,0,0,.241-.062.247.247,0,0,0,.129-.193.7.7,0,0,0-.011-.156.28.28,0,0,0-.044-.1.119.119,0,0,1-.033-.068c0-.02.013-.035.041-.046a.367.367,0,0,1,.265.08A.315.315,0,0,1,134.924,150.445Zm-4.745,1.018a.1.1,0,0,1,.016.039.135.135,0,0,1,0,.032c0,.045-.031.068-.093.067a2.71,2.71,0,0,1-.3-.02,1.6,1.6,0,0,1-.351-.06c-.109,0-.273.005-.492.022a1,1,0,0,1-.174,0c-.058,0-.087-.025-.087-.072a.067.067,0,0,1,.016-.047,2.624,2.624,0,0,1,.222-.2.377.377,0,0,0,.161-.252l.057-7.586a.345.345,0,0,0-.09-.267,1.385,1.385,0,0,0-.161-.09c-.034-.016-.051-.036-.051-.06s.021-.051.062-.094c.1-.061.19-.117.269-.168.058-.035.145-.092.258-.173a5.847,5.847,0,0,0,.466-.383,1.633,1.633,0,0,1,.176-.145c.034-.011.058-.008.072.012a.087.087,0,0,1,0,.083c-.088.18-.157.336-.205.467a1.134,1.134,0,0,0-.074.38l-.061,8.039a.366.366,0,0,0,.153.25A3.087,3.087,0,0,1,130.179,151.463Zm1.313-4.725a.571.571,0,0,0-.227-.292.628.628,0,0,0-.35-.117.465.465,0,0,0-.256.067.227.227,0,0,0-.115.2.242.242,0,0,0,.151.232.752.752,0,0,0,.305.058.94.94,0,0,0,.257-.039A.68.68,0,0,0,131.492,146.738Z" transform="translate(-127.682 -141.051)" fill="#fff"/>
          </g>
          <g id="Group_9440" data-name="Group 9440">
            <path id="Path_4053" data-name="Path 4053" d="M82.2,149.55a.364.364,0,0,1,.266-.074c.027.013.041.028.041.048a.147.147,0,0,1-.034.068.256.256,0,0,0-.047.093.7.7,0,0,0-.014.156.247.247,0,0,0,.126.2.472.472,0,0,0,.239.068.828.828,0,0,0,.647-.363,3.593,3.593,0,0,0,.484-.868q.1-.247.363-.993.168-.494.335-.869a3.966,3.966,0,0,1,.353-.645,3.176,3.176,0,0,1-1.264-1.151,3.319,3.319,0,0,1-.552-1.885,2.676,2.676,0,0,1,.895-2.031,2.873,2.873,0,0,1,2.055-.763,5.278,5.278,0,0,1,1.184.128,3.684,3.684,0,0,1,1.16.53,2.611,2.611,0,0,1,.683.648,1.6,1.6,0,0,1,.312.96.925.925,0,0,1-.162.541.473.473,0,0,1-.409.22.494.494,0,0,1-.366-.171.574.574,0,0,1-.148-.4.537.537,0,0,1,.084-.318c.01-.031.027-.047.047-.047s.036.024.046.071a.51.51,0,0,0,.1.244.219.219,0,0,0,.168.068.2.2,0,0,0,.187-.122.609.609,0,0,0,.067-.288c0-.016,0-.047,0-.094a1.017,1.017,0,0,0-.278-.648,2.272,2.272,0,0,0-.558-.473,2.787,2.787,0,0,0-.916-.361,5.306,5.306,0,0,0-.868-.065,2.21,2.21,0,0,0-1.75.744,2.774,2.774,0,0,0-.7,1.9,2.975,2.975,0,0,0,.373,1.476,2.386,2.386,0,0,0,.847.939.978.978,0,0,1,.411-.375,1.141,1.141,0,0,1,.525-.12.905.905,0,0,1,.5.143.493.493,0,0,1,.241.434.5.5,0,0,1-.255.457,1.043,1.043,0,0,1-.56.122,1.553,1.553,0,0,1-.315-.036,2.841,2.841,0,0,1-.319-.09,5.705,5.705,0,0,0-.212.824q-.146.73-.183.877a3.551,3.551,0,0,1-.3.817,2.811,2.811,0,0,1-.811.939,1.907,1.907,0,0,1-1.152.357.874.874,0,0,1-.479-.136.456.456,0,0,1-.231-.405A.315.315,0,0,1,82.2,149.55Zm4.83,1.2a.363.363,0,0,0,.158-.246l.061-8.039a1.135,1.135,0,0,0-.066-.382,5.067,5.067,0,0,0-.195-.472.089.089,0,0,1,0-.083c.014-.02.038-.023.072-.011a1.7,1.7,0,0,1,.173.149,5.76,5.76,0,0,0,.458.4c.112.084.2.145.254.181l.265.175c.041.044.061.076.061.1s-.018.043-.052.058a1.145,1.145,0,0,0-.164.086.334.334,0,0,0-.094.265l-.057,7.585a.379.379,0,0,0,.155.256,2.489,2.489,0,0,1,.218.21.064.064,0,0,1,.015.047c0,.047-.03.071-.088.07a.936.936,0,0,1-.174-.009c-.22-.022-.383-.035-.492-.035a1.6,1.6,0,0,1-.352.051,2.585,2.585,0,0,1-.3.011c-.061,0-.092-.024-.092-.069a.142.142,0,0,1,.006-.033.1.1,0,0,1,.015-.038C86.819,150.959,86.891,150.886,87.031,150.754Zm-1.247-4.427a.907.907,0,0,0,.257.045.74.74,0,0,0,.306-.049.237.237,0,0,0,.155-.228.225.225,0,0,0-.109-.2.484.484,0,0,0-.255-.074.63.63,0,0,0-.353.107.567.567,0,0,0-.232.286A.688.688,0,0,0,85.784,146.327Z" transform="translate(-82.045 -140.538)" fill="#fff"/>
          </g>
        </g>
      </g>
      <g id="Group_9443" data-name="Group 9443" transform="translate(59.304 71.242)">
        <path id="Path_4054" data-name="Path 4054" d="M70.508,272.443c0-.315,0-.373,0-.44s-.021-.1-.089-.119a.479.479,0,0,0-.081-.006c-.023,0-.035,0-.035-.019s.014-.019.046-.019c.11,0,.24.007.284.007.071,0,.228-.007.293-.007a.664.664,0,0,1,.382.089.36.36,0,0,1,.141.284.582.582,0,0,1-.274.465c.184.232.328.417.45.545a.421.421,0,0,0,.232.142.388.388,0,0,0,.058.006c.017,0,.025.007.025.017s-.015.021-.04.021h-.2a.422.422,0,0,1-.222-.04,1,1,0,0,1-.284-.3c-.083-.114-.178-.255-.205-.286a.042.042,0,0,0-.037-.015l-.18,0c-.01,0-.017,0-.017.017v.028c0,.193,0,.357.01.444.007.06.019.106.081.114a.935.935,0,0,0,.1.008c.016,0,.025.007.025.017s-.015.021-.042.021c-.12,0-.274-.006-.3-.006s-.17.006-.253.006c-.027,0-.042-.006-.042-.021s.009-.017.033-.017a.34.34,0,0,0,.075-.008c.041-.009.052-.054.06-.114.011-.087.011-.251.011-.441Zm.245.164c0,.023,0,.031.019.037a.55.55,0,0,0,.158.021.208.208,0,0,0,.147-.035.365.365,0,0,0,.122-.311.332.332,0,0,0-.317-.38.463.463,0,0,0-.11.008c-.014,0-.019.013-.019.029Z" transform="translate(-70.299 -271.796)" fill="#fff"/>
        <path id="Path_4055" data-name="Path 4055" d="M85.992,272.386c-.011,0-.015,0-.019.016l-.112.3a.42.42,0,0,0-.031.127c0,.037.018.064.083.064h.031c.025,0,.031,0,.031.017s-.012.021-.035.021c-.066,0-.155-.006-.22-.006-.023,0-.137.006-.245.006-.027,0-.039,0-.039-.021s.008-.017.025-.017.048,0,.064,0c.1-.013.135-.084.176-.187l.521-1.3c.025-.06.038-.083.058-.083s.031.019.052.066c.05.114.382.96.514,1.276.079.187.139.215.183.226a.479.479,0,0,0,.087.008c.017,0,.027,0,.027.017s-.019.021-.1.021-.226,0-.392,0c-.037,0-.062,0-.062-.017s.008-.017.029-.019a.033.033,0,0,0,.019-.048l-.166-.44a.02.02,0,0,0-.021-.014Zm.423-.1c.01,0,.013-.007.01-.012l-.186-.512c0-.008,0-.019-.011-.019s-.01.011-.012.019l-.191.51c0,.008,0,.015.008.015Z" transform="translate(-84.134 -271.314)" fill="#fff"/>
        <path id="Path_4056" data-name="Path 4056" d="M104.611,272.443c0-.315,0-.373,0-.44s-.021-.1-.089-.119a.477.477,0,0,0-.081-.006c-.023,0-.035,0-.035-.019s.015-.019.046-.019c.11,0,.241.007.295.007s.18-.007.261-.007c.029,0,.043,0,.043.019s-.013.019-.037.019a.355.355,0,0,0-.06.006c-.056.01-.073.046-.077.119s0,.125,0,.44v.384c0,.089.006.189.006.293a1.116,1.116,0,0,1-.05.367.788.788,0,0,1-.352.392,1.079,1.079,0,0,1-.1.054.089.089,0,0,1-.041.013.017.017,0,0,1-.017-.017c0-.01.011-.019.046-.037a.444.444,0,0,0,.1-.079c.158-.16.156-.367.156-.774Z" transform="translate(-101.384 -271.796)" fill="#fff"/>
        <path id="Path_4057" data-name="Path 4057" d="M112.9,272.386c-.01,0-.015,0-.018.016l-.112.3a.412.412,0,0,0-.031.127c0,.037.019.064.083.064h.031c.025,0,.031,0,.031.017s-.012.021-.035.021c-.066,0-.155-.006-.22-.006-.023,0-.137.006-.245.006-.027,0-.039,0-.039-.021s.008-.017.025-.017.048,0,.064,0c.1-.013.134-.084.176-.187l.521-1.3c.025-.06.037-.083.058-.083s.031.019.052.066c.05.114.382.96.514,1.276.079.187.139.215.183.226a.481.481,0,0,0,.087.008c.017,0,.027,0,.027.017s-.019.021-.1.021-.226,0-.392,0c-.038,0-.062,0-.062-.017s.008-.017.028-.019a.033.033,0,0,0,.019-.048l-.166-.44a.019.019,0,0,0-.02-.014Zm.423-.1c.011,0,.013-.007.011-.012l-.187-.512c0-.008,0-.019-.01-.019s-.01.011-.012.019l-.191.51c0,.008,0,.015.008.015Z" transform="translate(-108.725 -271.314)" fill="#fff"/>
        <path id="Path_4058" data-name="Path 4058" d="M132.729,273.081c-.033-.015-.04-.025-.04-.071,0-.114.009-.239.01-.272s.008-.054.025-.054.021.019.021.035a.432.432,0,0,0,.019.106.286.286,0,0,0,.3.21.252.252,0,0,0,.278-.236c0-.1-.031-.2-.2-.332l-.1-.074a.617.617,0,0,1-.307-.492c0-.228.191-.392.479-.392a1.01,1.01,0,0,1,.276.035c.019,0,.029.01.029.025s-.008.087-.008.249c0,.046-.006.062-.023.062s-.021-.012-.021-.037a.257.257,0,0,0-.054-.137.264.264,0,0,0-.226-.1.218.218,0,0,0-.247.213c0,.1.048.168.22.3l.058.043c.249.193.34.332.34.529a.416.416,0,0,1-.195.361.6.6,0,0,1-.329.085A.723.723,0,0,1,132.729,273.081Z" transform="translate(-127.322 -271.492)" fill="#fff"/>
        <path id="Path_4059" data-name="Path 4059" d="M145.477,271.654l-.309.009c-.12,0-.17.014-.2.06a.244.244,0,0,0-.035.073c0,.016-.011.025-.023.025s-.019-.01-.019-.033.039-.222.044-.238.012-.039.025-.039a.48.48,0,0,0,.089.025c.06.006.139.01.208.01h.822a1.075,1.075,0,0,0,.143-.01.507.507,0,0,1,.056-.011c.014,0,.017.012.017.044s-.006.187-.006.241c0,.02-.006.033-.019.033s-.021-.01-.023-.041l0-.023c0-.054-.06-.112-.245-.116l-.261-.006v.851c0,.19,0,.354.01.444.006.058.018.1.081.112a.867.867,0,0,0,.106.008c.023,0,.033.007.033.017s-.017.021-.039.021c-.137,0-.267-.006-.326-.006s-.178.006-.262.006c-.027,0-.041-.006-.041-.021s.008-.017.033-.017a.341.341,0,0,0,.075-.008c.042-.009.054-.054.06-.114.01-.087.01-.251.01-.442Z" transform="translate(-138.473 -271.492)" fill="#fff"/>
        <path id="Path_4060" data-name="Path 4060" d="M164.46,272.5a.013.013,0,0,0,.012-.015v-.044c0-.315,0-.373,0-.44s-.021-.1-.089-.119a.476.476,0,0,0-.081-.006c-.023,0-.036,0-.036-.019s.015-.019.043-.019c.112,0,.243.007.3.007s.18-.007.261-.007c.029,0,.044,0,.044.019s-.013.019-.037.019a.436.436,0,0,0-.06.006c-.056.01-.072.046-.077.119s0,.125,0,.44v.365c0,.19,0,.354.01.444.006.058.019.1.081.112a.867.867,0,0,0,.106.008c.023,0,.033.007.033.017s-.017.021-.041.021c-.135,0-.266-.006-.323-.006s-.178.006-.259.006c-.029,0-.043-.006-.043-.021s.008-.017.033-.017a.333.333,0,0,0,.075-.008c.042-.009.052-.054.06-.114.01-.087.01-.251.01-.441v-.183a.012.012,0,0,0-.012-.013h-.792a.011.011,0,0,0-.012.013v.183c0,.19,0,.354.01.444.006.058.019.1.081.112a.857.857,0,0,0,.106.008c.023,0,.033.007.033.017s-.017.021-.042.021c-.135,0-.266-.006-.323-.006s-.178.006-.261.006c-.027,0-.041-.006-.041-.021s.008-.017.033-.017a.341.341,0,0,0,.075-.008c.041-.009.052-.054.06-.114.01-.087.01-.251.01-.441v-.365c0-.315,0-.373,0-.44s-.021-.1-.089-.119a.477.477,0,0,0-.081-.006c-.023,0-.035,0-.035-.019s.015-.019.044-.019c.112,0,.243.007.3.007s.181-.007.261-.007c.029,0,.044,0,.044.019s-.013.019-.038.019a.424.424,0,0,0-.06.006c-.056.01-.073.046-.077.119s0,.125,0,.44v.044c0,.01.006.015.012.015Z" transform="translate(-155.195 -271.796)" fill="#fff"/>
        <path id="Path_4061" data-name="Path 4061" d="M184.112,272.386c-.01,0-.015,0-.019.016l-.112.3a.409.409,0,0,0-.031.127c0,.037.019.064.083.064h.031c.025,0,.031,0,.031.017s-.012.021-.035.021c-.066,0-.155-.006-.22-.006-.023,0-.137.006-.245.006-.027,0-.039,0-.039-.021s.008-.017.025-.017.048,0,.064,0c.1-.013.135-.084.176-.187l.52-1.3c.025-.06.038-.083.058-.083s.031.019.052.066c.05.114.382.96.514,1.276.079.187.139.215.183.226a.482.482,0,0,0,.087.008c.016,0,.027,0,.027.017s-.019.021-.1.021-.226,0-.392,0c-.037,0-.062,0-.062-.017s.008-.017.029-.019a.033.033,0,0,0,.018-.048l-.166-.44a.02.02,0,0,0-.021-.014Zm.423-.1c.01,0,.012-.007.01-.012l-.187-.512c0-.008,0-.019-.01-.019s-.01.011-.012.019l-.191.51c0,.008,0,.015.008.015Z" transform="translate(-173.812 -271.314)" fill="#fff"/>
        <path id="Path_4062" data-name="Path 4062" d="M203.467,272.757c0,.162.032.216.073.23a.328.328,0,0,0,.108.015c.023,0,.035,0,.035.017s-.019.021-.048.021c-.135,0-.217-.006-.257-.006-.019,0-.116.006-.224.006-.027,0-.045,0-.045-.021s.012-.017.033-.017a.372.372,0,0,0,.093-.01c.054-.017.062-.077.065-.257l.018-1.228c0-.042.006-.07.027-.07s.041.027.077.064.34.365.643.666c.141.141.421.44.457.473h.01l-.021-.932c0-.126-.021-.166-.071-.186a.331.331,0,0,0-.11-.013c-.025,0-.033-.006-.033-.019s.023-.019.054-.019c.108,0,.207.007.251.007.023,0,.1-.007.2-.007.027,0,.048,0,.048.019s-.013.019-.038.019a.234.234,0,0,0-.062.006c-.058.017-.075.061-.077.176L204.653,273c0,.046-.008.065-.027.065s-.048-.023-.071-.046c-.13-.124-.4-.4-.612-.61s-.456-.483-.494-.522h-.006Z" transform="translate(-191.682 -271.426)" fill="#fff"/>
      </g>
      <g id="Group_9444" data-name="Group 9444" transform="translate(58.269 73.775)">
        <path id="Path_4063" data-name="Path 4063" d="M58.654,302.817c0-.573,0-.678-.008-.8s-.038-.189-.164-.215a.781.781,0,0,0-.149-.011c-.042,0-.065-.008-.065-.035s.027-.034.084-.034c.2,0,.442.011.522.011.13,0,.42-.011.538-.011a1.229,1.229,0,0,1,.7.162.652.652,0,0,1,.259.517,1.054,1.054,0,0,1-.5.845c.339.423.6.759.828.992a.766.766,0,0,0,.427.257.643.643,0,0,0,.107.011c.031,0,.046.011.046.03s-.027.038-.073.038h-.362a.782.782,0,0,1-.408-.072,1.826,1.826,0,0,1-.523-.554c-.152-.207-.328-.464-.378-.521a.08.08,0,0,0-.068-.026l-.332-.008c-.019,0-.03.008-.03.03v.053c0,.351,0,.649.019.807.011.109.035.192.148.207a1.713,1.713,0,0,0,.187.015c.031,0,.046.011.046.03s-.027.038-.076.038c-.221,0-.5-.011-.561-.011s-.313.011-.465.011c-.05,0-.076-.011-.076-.038s.015-.03.061-.03a.614.614,0,0,0,.137-.015c.076-.015.1-.1.11-.207.019-.159.019-.457.019-.8Zm.45.3c0,.041.008.056.034.068a1.011,1.011,0,0,0,.29.038.387.387,0,0,0,.271-.064.663.663,0,0,0,.225-.566.606.606,0,0,0-.584-.69.84.84,0,0,0-.2.015c-.027.008-.034.023-.034.053Z" transform="translate(-58.269 -301.64)" fill="#fff"/>
        <path id="Path_4064" data-name="Path 4064" d="M91.161,302.587a1.461,1.461,0,0,1,1.575-1.479,1.377,1.377,0,0,1,1.541,1.411,1.5,1.5,0,0,1-1.579,1.546A1.445,1.445,0,0,1,91.161,302.587Zm2.582.072c0-.845-.492-1.369-1.117-1.369-.439,0-.938.241-.938,1.181,0,.784.438,1.407,1.171,1.407C93.125,303.877,93.743,303.748,93.743,302.658Z" transform="translate(-88.331 -301.078)" fill="#fff"/>
        <path id="Path_4065" data-name="Path 4065" d="M128.887,303.6a.8.8,0,0,0-.087-.4c-.027-.061-.538-.891-.671-1.086a.935.935,0,0,0-.263-.276.392.392,0,0,0-.16-.048c-.03,0-.057-.008-.057-.035s.026-.034.072-.034c.068,0,.355.011.48.011.08,0,.236-.011.408-.011.038,0,.057.011.057.034s-.027.027-.084.042a.068.068,0,0,0-.054.068.347.347,0,0,0,.046.128c.053.113.587,1.022.648,1.128.038-.09.519-.92.572-1.037a.493.493,0,0,0,.054-.2.091.091,0,0,0-.08-.094c-.034-.007-.069-.015-.069-.038s.019-.034.065-.034c.126,0,.248.011.358.011.084,0,.336-.011.408-.011.042,0,.068.007.068.03s-.03.038-.072.038a.422.422,0,0,0-.168.045.569.569,0,0,0-.206.185,11.97,11.97,0,0,0-.729,1.2.893.893,0,0,0-.057.378v.309c0,.061,0,.219.011.378.008.109.042.192.157.207a1.571,1.571,0,0,0,.19.015c.042,0,.062.011.062.03s-.031.038-.08.038c-.24,0-.48-.011-.584-.011s-.335.011-.477.011c-.053,0-.084-.007-.084-.038s.019-.03.061-.03a.6.6,0,0,0,.133-.015c.077-.015.111-.1.119-.207.011-.159.011-.317.011-.378Z" transform="translate(-121.679 -301.64)" fill="#fff"/>
        <path id="Path_4066" data-name="Path 4066" d="M156.825,302.709c-.019,0-.027.007-.034.03l-.206.54a.72.72,0,0,0-.057.23c0,.068.034.117.153.117h.057c.046,0,.058.007.058.03s-.023.038-.065.038c-.122,0-.286-.011-.4-.011-.042,0-.251.011-.45.011-.049,0-.072-.007-.072-.038s.015-.03.046-.03.088,0,.118-.008c.175-.023.248-.151.324-.339l.958-2.368c.045-.11.069-.151.107-.151s.057.034.1.121c.091.207.7,1.746.945,2.32.145.339.256.392.336.411a.834.834,0,0,0,.16.015c.031,0,.05,0,.05.03s-.034.038-.175.038-.416,0-.721-.007c-.069,0-.115,0-.115-.03s.016-.03.053-.034a.061.061,0,0,0,.034-.087l-.3-.8a.037.037,0,0,0-.038-.026Zm.778-.189c.019,0,.023-.011.019-.022l-.343-.932c0-.015-.008-.034-.019-.034s-.019.019-.023.034l-.35.928c0,.015,0,.027.015.027Z" transform="translate(-147.412 -300.759)" fill="#fff"/>
        <path id="Path_4067" data-name="Path 4067" d="M193.565,303.481c0,.483,0,.743.08.811.065.057.164.083.462.083.2,0,.351,0,.446-.105a.469.469,0,0,0,.1-.226c0-.034.011-.057.042-.057s.031.019.031.064a2.981,2.981,0,0,1-.058.434c-.023.083-.042.1-.24.1-.549,0-.8-.023-1.11-.023-.088,0-.328.011-.48.011-.05,0-.077-.011-.077-.038s.015-.03.061-.03a.6.6,0,0,0,.137-.015c.077-.015.1-.1.111-.207.019-.159.019-.457.019-.8v-.664c0-.573,0-.678-.008-.8s-.038-.189-.164-.215a.568.568,0,0,0-.126-.011c-.042,0-.065-.008-.065-.035s.027-.034.084-.034c.179,0,.419.011.522.011s.37-.011.518-.011c.054,0,.081.007.081.034s-.023.035-.068.035a1,1,0,0,0-.149.011c-.1.019-.133.083-.141.215s-.008.227-.008.8Z" transform="translate(-181.159 -301.64)" fill="#fff"/>
        <path id="Path_4068" data-name="Path 4068" d="M220.553,303.967c-.062-.026-.073-.045-.073-.128,0-.208.016-.434.019-.495s.015-.1.046-.1.038.034.038.064a.8.8,0,0,0,.034.193.526.526,0,0,0,.545.381.462.462,0,0,0,.512-.43c0-.185-.057-.363-.374-.6l-.175-.136c-.42-.324-.565-.588-.565-.894,0-.415.351-.713.882-.713a1.86,1.86,0,0,1,.507.064c.035.007.054.019.054.045,0,.049-.015.159-.015.452,0,.083-.012.113-.042.113s-.038-.023-.038-.068a.45.45,0,0,0-.1-.249.485.485,0,0,0-.416-.185.4.4,0,0,0-.453.388c0,.173.088.306.4.544l.107.079c.457.351.625.6.625.962a.757.757,0,0,1-.358.657,1.116,1.116,0,0,1-.607.154A1.325,1.325,0,0,1,220.553,303.967Z" transform="translate(-206.525 -301.078)" fill="#fff"/>
      </g>
      <g id="Group_9446" data-name="Group 9446" transform="translate(61.275 52.409)">
        <path id="Path_4069" data-name="Path 4069" d="M114.656,128.116a6.29,6.29,0,0,0-3.347-.674,7.63,7.63,0,0,0-3.319.656.222.222,0,0,0-.069.315.191.191,0,0,0,.193.056,8.7,8.7,0,0,1,3.2-.6,7.95,7.95,0,0,1,3.142.571.23.23,0,0,0,.265-.074A.17.17,0,0,0,114.656,128.116Z" transform="translate(-106.616 -120.987)" fill="#fff"/>
        <path id="Path_4070" data-name="Path 4070" d="M111.674,108.8a.936.936,0,0,1-1.585-.675.947.947,0,0,1,.015-.167l-.219-.092a.937.937,0,0,1-1.762-.294l-.184,0a.937.937,0,0,1-1.809.179l-.216.033a.937.937,0,0,1-1.568.982c-.06.074-.086.138-.054.18a1.8,1.8,0,0,1,.482.949h0a7.765,7.765,0,0,1,3.245-.619,6.655,6.655,0,0,1,3.238.6h.016a1.926,1.926,0,0,1,.56-.98Z" transform="translate(-103.327 -102.831)" fill="#fff"/>
        <g id="Group_9445" data-name="Group 9445" transform="translate(0.662 4.469)">
          <path id="Path_4071" data-name="Path 4071" d="M122.569,107.912a.21.21,0,1,1-.21-.21A.21.21,0,0,1,122.569,107.912Z" transform="translate(-120.321 -107.414)" fill="#fff"/>
          <path id="Path_4072" data-name="Path 4072" d="M145.439,104.567a.21.21,0,1,1-.21-.21A.21.21,0,0,1,145.439,104.567Z" transform="translate(-141.224 -104.357)" fill="#fff"/>
          <path id="Path_4073" data-name="Path 4073" d="M168.851,108.544a.21.21,0,1,1-.21-.21A.21.21,0,0,1,168.851,108.544Z" transform="translate(-162.622 -107.992)" fill="#fff"/>
          <path id="Path_4074" data-name="Path 4074" d="M189.73,119.029a.21.21,0,1,1-.21-.21A.21.21,0,0,1,189.73,119.029Z" transform="translate(-181.705 -117.575)" fill="#fff"/>
          <path id="Path_4075" data-name="Path 4075" d="M101.326,119.029a.21.21,0,1,1-.21-.21A.21.21,0,0,1,101.326,119.029Z" transform="translate(-100.906 -117.575)" fill="#fff"/>
        </g>
        <path id="Path_4076" data-name="Path 4076" d="M140.228,75.416h1.478c.171,0,.164-.111.164-.111a.264.264,0,1,1,.519.089l.086.021A.264.264,0,0,1,143,75.5a.247.247,0,0,1-.017.074l.059.022a.264.264,0,0,1,.512.125.273.273,0,0,1-.035.093l.05.026a.264.264,0,1,1,.445.282l.051.038a.264.264,0,1,1,.4.345l.046.047a.264.264,0,0,1,.422.3.268.268,0,0,1-.089.108l.037.055a.264.264,0,1,1,.249.466l.021.053a.264.264,0,1,1,.145.5c0,.024.009.048.013.073a.264.264,0,0,1,.186.433.266.266,0,0,1-.154.09h-.952" transform="translate(-136.183 -73.117)" fill="#fff"/>
        <path id="Path_4077" data-name="Path 4077" d="M98.533,75.416H97.056c-.171,0-.164-.111-.164-.111a.264.264,0,1,0-.519.089l-.086.021a.264.264,0,0,0-.521.081.276.276,0,0,0,.018.074l-.059.022a.264.264,0,0,0-.512.125.272.272,0,0,0,.034.093l-.049.026a.265.265,0,0,0-.491.188.269.269,0,0,0,.046.095l-.051.038a.264.264,0,0,0-.468.235.269.269,0,0,0,.072.11l-.046.047a.264.264,0,0,0-.422.3.259.259,0,0,0,.089.108l-.037.055a.264.264,0,1,0-.249.466c-.008.017-.015.035-.022.053a.264.264,0,1,0-.145.5c0,.024-.009.048-.013.073a.264.264,0,0,0-.031.523h.951" transform="translate(-93.214 -73.117)" fill="#fff"/>
        <path id="Path_4078" data-name="Path 4078" d="M146.639,59.847a.088.088,0,0,1-.089.088h-.074a.088.088,0,0,1-.088-.088v-.075a.088.088,0,0,1,.088-.088h.074a.089.089,0,0,1,.089.088Z" transform="translate(-141.813 -59.058)" fill="#fff"/>
        <path id="Path_4079" data-name="Path 4079" d="M139.284,53.784s.017-.118.112-.028l.455.51a.136.136,0,0,1-.012.169l-.443.51s-.095.073-.107-.017Z" transform="translate(-135.321 -53.609)" fill="#fff"/>
        <path id="Path_4080" data-name="Path 4080" d="M150.147,53.784s-.017-.118-.112-.028l-.455.51a.137.137,0,0,0,.011.169l.444.51s.095.073.107-.017Z" transform="translate(-144.709 -53.609)" fill="#fff"/>
        <path id="Path_4081" data-name="Path 4081" d="M141.761,52.409s.118.017.028.112l-.511.455a.137.137,0,0,1-.168-.011l-.51-.444s-.073-.1.017-.107Z" transform="translate(-136.498 -52.409)" fill="#fff"/>
        <path id="Path_4082" data-name="Path 4082" d="M141.761,63.275s.118-.016.028-.112l-.511-.455a.136.136,0,0,0-.168.011l-.51.443s-.073.1.017.107Z" transform="translate(-136.498 -61.8)" fill="#fff"/>
        <path id="Path_4083" data-name="Path 4083" d="M144.7,70.768a.088.088,0,0,1-.089.088h-.442a.088.088,0,0,1-.089-.088v-.33a.088.088,0,0,1,.089-.088h.442a.089.089,0,0,1,.089.088Z" transform="translate(-139.709 -68.807)" fill="#fff"/>
        <path id="Path_4084" data-name="Path 4084" d="M104.665,87.465a2.882,2.882,0,0,1,2.55-1.82.283.283,0,0,1,.28.249v.591a.212.212,0,0,1-.14.249,1.758,1.758,0,0,0-.887.388s-.171.124-.156-.062c0,0-.171-.451-1.275.3C105.038,87.356,104.572,87.791,104.665,87.465Z" transform="translate(-103.669 -82.786)" fill="#fff"/>
        <path id="Path_4085" data-name="Path 4085" d="M161.178,87.465a2.883,2.883,0,0,0-2.55-1.82.283.283,0,0,0-.28.249v.591a.213.213,0,0,0,.14.249,1.756,1.756,0,0,1,.886.388s.171.124.156-.062c0,0,.171-.451,1.275.3C160.8,87.356,161.271,87.791,161.178,87.465Z" transform="translate(-152.739 -82.786)" fill="#fff"/>
        <path id="Path_4086" data-name="Path 4086" d="M140.633,79.75a.09.09,0,0,1-.092.088h-1.309a.091.091,0,0,1-.092-.088v-.166a.091.091,0,0,1,.092-.088h1.309a.09.09,0,0,1,.092.088Z" transform="translate(-135.189 -77.166)" fill="#fff"/>
        <path id="Path_4087" data-name="Path 4087" d="M142.734,83.968c0,.061-.029.11-.065.11h-.928c-.036,0-.065-.049-.065-.11v-.207c0-.06.029-.11.065-.11h.928c.036,0,.065.05.065.11Z" transform="translate(-137.508 -80.963)" fill="#fff"/>
        <path id="Path_4088" data-name="Path 4088" d="M143.179,89.048a.071.071,0,0,1-.06.078h-.846a.071.071,0,0,1-.06-.078V88.9a.071.071,0,0,1,.06-.078h.846a.071.071,0,0,1,.06.078Z" transform="translate(-137.998 -85.691)" fill="#fff"/>
        <path id="Path_4089" data-name="Path 4089" d="M143.33,92.8c0,.06-.026.108-.057.108h-.818c-.032,0-.058-.049-.058-.108v-.2c0-.06.026-.109.058-.109h.818c.031,0,.057.049.057.109Z" transform="translate(-138.166 -89.042)" fill="#fff"/>
        <path id="Path_4090" data-name="Path 4090" d="M143.782,97.795c0,.052-.023.093-.052.093h-.736c-.028,0-.052-.042-.052-.093v-.175c0-.051.023-.093.052-.093h.736c.029,0,.052.042.052.093Z" transform="translate(-138.665 -93.645)" fill="#fff"/>
      </g>
    </g>
  </g>
</svg>
