<?xml version="1.0" encoding="UTF-8"?>
<svg width="39px" height="40px" viewBox="0 0 39 40" version="1.1" xmlns="http://www.w3.org/2000/svg" xmlns:xlink="http://www.w3.org/1999/xlink">
    <!-- Generator: Sketch 53.2 (72643) - https://sketchapp.com -->
    <title>stopwatch</title>
    <desc>Created with Sketch.</desc>
    <g id="Page-1" stroke="none" stroke-width="1" fill="none" fill-rule="evenodd">
        <g id="Game-1-Copy-2" transform="translate(-166.000000, -320.000000)" fill="#333333" fill-rule="nonzero">
            <g id="stopwatch" transform="translate(166.000000, 320.000000)">
                <path d="M20.4226667,25.326 C21.1166667,25.272 21.7493333,24.918 22.16,24.3533333 L28.402,15.724 C28.5933333,15.4593333 28.5646667,15.094 28.3326667,14.862 C28.1006667,14.6306667 27.7353333,14.602 27.4706667,14.7926667 L18.84,21.0366667 C18.2773333,21.446 17.9233333,22.0786667 17.8693333,22.7726667 C17.8153333,23.4666667 18.0666667,24.146 18.558,24.6373333 C19.0053333,25.0853333 19.6086667,25.3333333 20.236,25.3333333 C20.298,25.3333333 20.36,25.3306667 20.4226667,25.326 Z M19.1986667,22.8766667 C19.222,22.572 19.378,22.294 19.6233333,22.1153333 L24.888,18.3066667 L21.0806667,23.57 C20.9006667,23.8173333 20.6226667,23.9726667 20.318,23.9966667 C20.0146667,24.0166667 19.7166667,23.9113333 19.5,23.6946667 C19.2853333,23.4793333 19.1746667,23.1806667 19.1986667,22.8766667 Z" id="Shape"></path>
                <path d="M35.356,13.0426667 C35.3493333,13.0286667 35.3493333,13.014 35.342,13 C35.334,12.9866667 35.3213333,12.9793333 35.3126667,12.9666667 C34.6386667,11.8106667 33.8413333,10.7353333 32.936,9.76066667 L34.368,8.32933333 L35.3106667,9.272 L38.1386667,6.44333333 L35.3106667,3.61533333 L32.482,6.44333333 L33.4253333,7.38666667 L31.9933333,8.818 C31.0186667,7.91266667 29.944,7.11466667 28.7873333,6.44066667 C28.7746667,6.432 28.7673333,6.41933333 28.754,6.41133333 C28.74,6.40333333 28.7253333,6.404 28.7113333,6.39666667 C26.6493333,5.20866667 24.3326667,4.41733333 21.8626667,4.12733333 L21.8626667,3.33333333 L22.8626667,3.33333333 C23.782,3.33333333 24.5293333,2.586 24.5293333,1.66666667 C24.5293333,0.747333333 23.7813333,0 22.862,0 L16.862,0 C15.9426667,0 15.1953333,0.747333333 15.1953333,1.66666667 C15.1953333,2.586 15.9426667,3.33333333 16.862,3.33333333 L17.862,3.33333333 L17.862,4.104 C17.142,4.18066667 16.4233333,4.298 15.7126667,4.46066667 C15.354,4.54266667 15.1293333,4.90066667 15.212,5.25933333 C15.294,5.618 15.652,5.84333333 16.0106667,5.76 C16.624,5.61933333 17.2433333,5.51333333 17.864,5.442 L18.5793333,5.38666667 C18.798,5.37 18.9993333,5.358 19.1953333,5.34866667 L19.1953333,6.66666667 C19.1953333,7.03533333 19.4933333,7.33333333 19.862,7.33333333 C20.2306667,7.33333333 20.5286667,7.03533333 20.5286667,6.66666667 L20.5286667,5.35333333 C23.036,5.46866667 25.3986667,6.142 27.4993333,7.25 L26.842,8.388 C26.658,8.70733333 26.7673333,9.11466667 27.086,9.29866667 C27.1906667,9.35933333 27.3053333,9.388 27.4186667,9.388 C27.6493333,9.388 27.8733333,9.26866667 27.9966667,9.05466667 L28.652,7.91933333 C30.738,9.24266667 32.51,11.0146667 33.8333333,13.1006667 L32.698,13.756 C32.38,13.94 32.2706667,14.3473333 32.4553333,14.6666667 C32.5793333,14.8806667 32.8026667,15 33.0333333,15 C33.1466667,15 33.2613333,14.9713333 33.366,14.9106667 L34.504,14.2533333 C35.6273333,16.384 36.3026667,18.7853333 36.4033333,21.3326667 L35.0866667,21.3326667 C34.718,21.3326667 34.42,21.6306667 34.42,21.9993333 C34.42,22.368 34.718,22.666 35.0866667,22.666 L36.4033333,22.666 C36.3026667,25.2133333 35.6273333,27.6146667 34.504,29.7453333 L33.366,29.088 C33.0473333,28.904 32.6393333,29.012 32.4553333,29.332 C32.2713333,29.6513333 32.3806667,30.0586667 32.6993333,30.2426667 L33.8346667,30.898 C32.5113333,32.984 30.7393333,34.756 28.6533333,36.0793333 L27.998,34.944 C27.8133333,34.624 27.4046667,34.5153333 27.0873333,34.7 C26.768,34.884 26.6586667,35.292 26.8433333,35.6106667 L27.5006667,36.7486667 C25.4,37.8566667 23.0373333,38.53 20.53,38.6453333 L20.53,37.3333333 C20.53,36.9646667 20.232,36.6666667 19.8633333,36.6666667 C19.4946667,36.6666667 19.1966667,36.9646667 19.1966667,37.3333333 L19.1966667,38.6506667 C18.132,38.614 17.064,38.4806667 16.0126667,38.2393333 C15.654,38.1533333 15.296,38.3813333 15.214,38.74 C15.1313333,39.0986667 15.356,39.4566667 15.7146667,39.5386667 C17.0453333,39.8453333 18.4046667,40 19.7533333,40 C19.786,40 19.8173333,39.998 19.85,39.9973333 C19.8546667,39.9973333 19.858,40 19.862,40 C19.8673333,40 19.872,39.9966667 19.8773333,39.9966667 C23.082,39.9746667 26.0886667,39.1093333 28.69,37.6146667 C28.7106667,37.6053333 28.7326667,37.6006667 28.7526667,37.5886667 C28.766,37.5806667 28.7733333,37.568 28.786,37.5593333 C31.4786667,35.99 33.7286667,33.7426667 35.3013333,31.052 C35.314,31.034 35.33,31.02 35.3413333,31 C35.3493333,30.986 35.3486667,30.9713333 35.3553333,30.9573333 C36.878,28.3173333 37.7533333,25.26 37.7533333,22 C37.7533333,18.74 36.878,15.6826667 35.356,13.0426667 Z M35.31,5.50066667 L36.2526667,6.44333333 L35.31,7.38666667 L34.3666667,6.44333333 L35.31,5.50066667 Z M19.1953333,4.014 L19.1953333,2 L16.862,2 C16.6786667,2 16.5286667,1.85 16.5286667,1.66666667 C16.5286667,1.48333333 16.6786667,1.33333333 16.862,1.33333333 L22.862,1.33333333 C23.0453333,1.33333333 23.1953333,1.48333333 23.1953333,1.66666667 C23.1953333,1.85 23.0453333,2 22.862,2 L20.5286667,2 L20.5286667,4.014 C20.2966667,4.00466667 20.0753333,4 19.862,4 C19.8433333,4 19.822,4.00133333 19.8033333,4.00133333 C19.7866667,4.00133333 19.77,4 19.7533333,4 C19.644,4 19.5346667,4.00733333 19.4253333,4.00933333 C19.348,4.01133333 19.2753333,4.01066667 19.1953333,4.014 Z" id="Shape"></path>
                <path d="M13.862,9.33333333 L10.5286667,9.33333333 C10.16,9.33333333 9.862,9.63133333 9.862,10 C9.862,10.3686667 10.16,10.6666667 10.5286667,10.6666667 L13.862,10.6666667 C14.2306667,10.6666667 14.5286667,10.3686667 14.5286667,10 C14.5286667,9.63133333 14.2306667,9.33333333 13.862,9.33333333 Z" id="Path"></path>
                <path d="M13.862,14 L7.19533333,14 C6.82666667,14 6.52866667,14.298 6.52866667,14.6666667 C6.52866667,15.0353333 6.82666667,15.3333333 7.19533333,15.3333333 L13.862,15.3333333 C14.2306667,15.3333333 14.5286667,15.0353333 14.5286667,14.6666667 C14.5286667,14.298 14.2306667,14 13.862,14 Z" id="Path"></path>
                <path d="M13.862,18.6666667 L3.862,18.6666667 C3.49333333,18.6666667 3.19533333,18.9646667 3.19533333,19.3333333 C3.19533333,19.702 3.49333333,20 3.862,20 L13.862,20 C14.2306667,20 14.5286667,19.702 14.5286667,19.3333333 C14.5286667,18.9646667 14.2306667,18.6666667 13.862,18.6666667 Z" id="Path"></path>
                <path d="M13.862,23.3333333 L1.19533333,23.3333333 C0.826666667,23.3333333 0.528666667,23.6313333 0.528666667,24 C0.528666667,24.3686667 0.826666667,24.6666667 1.19533333,24.6666667 L13.862,24.6666667 C14.2306667,24.6666667 14.5286667,24.3686667 14.5286667,24 C14.5286667,23.6313333 14.2306667,23.3333333 13.862,23.3333333 Z" id="Path"></path>
                <path d="M13.862,28 L5.19533333,28 C4.82666667,28 4.52866667,28.298 4.52866667,28.6666667 C4.52866667,29.0353333 4.82666667,29.3333333 5.19533333,29.3333333 L13.862,29.3333333 C14.2306667,29.3333333 14.5286667,29.0353333 14.5286667,28.6666667 C14.5286667,28.298 14.2306667,28 13.862,28 Z" id="Path"></path>
                <path d="M13.862,32.6666667 L9.19533333,32.6666667 C8.82666667,32.6666667 8.52866667,32.9646667 8.52866667,33.3333333 C8.52866667,33.702 8.82666667,34 9.19533333,34 L13.862,34 C14.2306667,34 14.5286667,33.702 14.5286667,33.3333333 C14.5286667,32.9646667 14.2306667,32.6666667 13.862,32.6666667 Z" id="Path"></path>
            </g>
        </g>
    </g>
</svg>