<svg xmlns="http://www.w3.org/2000/svg" xmlns:xlink="http://www.w3.org/1999/xlink" width="46" height="46" viewBox="0 0 46 46">
  <defs>
    <radialGradient id="radial-gradient" cx="288.586" cy="119.43" r="5.922" gradientTransform="matrix(1.275, 0.074, -0.074, 1.275, -7.845, -14.862)" gradientUnits="userSpaceOnUse">
      <stop offset="0.589" stop-color="#e82717"/>
      <stop offset="0.939" stop-color="#ffbe00"/>
    </radialGradient>
    <radialGradient id="radial-gradient-2" cx="653.825" cy="583.33" r="2.531" gradientTransform="matrix(2.988, 0.174, -0.174, 2.988, -581.866, -853.033)" xlink:href="#radial-gradient"/>
    <radialGradient id="radial-gradient-3" cx="201.816" cy="157.046" r="8.66" gradientTransform="matrix(0.873, 0.051, -0.051, 0.873, -4.179, 0.208)" xlink:href="#radial-gradient"/>
    <radialGradient id="radial-gradient-4" cx="90.685" cy="64.26" r="19.577" gradientTransform="matrix(0.385, 0.023, -0.023, 0.385, -40.687, -52.919)" xlink:href="#radial-gradient"/>
    <radialGradient id="radial-gradient-5" cx="205.924" cy="96.742" r="8.628" gradientTransform="matrix(0.87, 0.051, -0.051, 0.87, -3.238, 1.973)" xlink:href="#radial-gradient"/>
    <radialGradient id="radial-gradient-6" cx="430.839" cy="155.053" r="3.746" gradientTransform="matrix(2.009, 0.117, -0.117, 2.009, -142.851, -112.556)" xlink:href="#radial-gradient"/>
    <radialGradient id="radial-gradient-7" cx="397.316" cy="178.149" r="3.203" gradientTransform="matrix(2.358, 0.138, -0.138, 2.358, -214.012, -179.936)" xlink:href="#radial-gradient"/>
    <radialGradient id="radial-gradient-8" cx="105.296" cy="81.756" r="9.518" gradientTransform="matrix(0.796, 0.046, -0.046, 0.796, -2.988, -0.917)" xlink:href="#radial-gradient"/>
    <radialGradient id="radial-gradient-9" cx="50.767" cy="54.523" r="18.207" gradientTransform="matrix(0.415, 0.024, -0.024, 0.415, -12.381, -37.519)" xlink:href="#radial-gradient"/>
    <radialGradient id="radial-gradient-10" cx="46.691" cy="57.925" r="19.751" gradientTransform="matrix(0.383, 0.022, -0.022, 0.383, -11.362, -52.769)" xlink:href="#radial-gradient"/>
    <radialGradient id="radial-gradient-11" cx="164.786" cy="221.241" r="6.336" gradientTransform="matrix(1.193, 0.07, -0.07, 1.193, -0.929, -9.343)" xlink:href="#radial-gradient"/>
    <radialGradient id="radial-gradient-12" cx="39.603" cy="52.757" r="24.002" gradientTransform="matrix(0.315, 0.018, -0.018, 0.315, -10.793, -76.931)" xlink:href="#radial-gradient"/>
    <radialGradient id="radial-gradient-13" cx="263.96" cy="320.067" r="4.711" gradientTransform="matrix(1.605, 0.094, -0.094, 1.605, -30.921, -84.236)" xlink:href="#radial-gradient"/>
    <radialGradient id="radial-gradient-14" cx="515.893" cy="528.457" r="2.902" gradientTransform="matrix(2.605, 0.152, -0.152, 2.605, -310.164, -574.098)" xlink:href="#radial-gradient"/>
    <radialGradient id="radial-gradient-15" cx="95.381" cy="59.454" r="18.66" gradientTransform="matrix(0.402, 0.023, -0.023, 0.402, -33.682, -40.517)" xlink:href="#radial-gradient"/>
    <radialGradient id="radial-gradient-16" cx="431.161" cy="163.952" r="3.402" gradientTransform="matrix(2.24, 0.131, -0.131, 2.24, -195.09, -152.382)" xlink:href="#radial-gradient"/>
    <radialGradient id="radial-gradient-17" cx="161.69" cy="116.283" r="3.469" gradientTransform="matrix(0.998, 0.058, -0.058, 0.998, 0.672, 0.131)" gradientUnits="userSpaceOnUse">
      <stop offset="0.67" stop-color="#ef5713"/>
      <stop offset="0.729" stop-color="#f06210"/>
      <stop offset="0.833" stop-color="#f5810b"/>
      <stop offset="0.97" stop-color="#fdb202"/>
      <stop offset="1" stop-color="#ffbe00"/>
    </radialGradient>
    <radialGradient id="radial-gradient-18" cx="7.053" cy="6.454" r="7.372" gradientTransform="matrix(0.909, 0.053, -0.053, 0.909, 0.985, 0.214)" gradientUnits="userSpaceOnUse">
      <stop offset="0.62" stop-color="#ffd400"/>
      <stop offset="0.933" stop-color="#e50019"/>
    </radialGradient>
    <linearGradient id="linear-gradient" x1="0.5" y1="1.662" x2="0.5" y2="0.304" gradientUnits="objectBoundingBox">
      <stop offset="0.49" stop-color="#e82717"/>
      <stop offset="0.939" stop-color="#ffbe00"/>
    </linearGradient>
    <linearGradient id="linear-gradient-2" x1="0" y1="0.5" x2="1" y2="0.5" xlink:href="#linear-gradient"/>
    <linearGradient id="linear-gradient-3" x1="-0.235" y1="0.941" x2="0.66" y2="0.443" gradientUnits="objectBoundingBox">
      <stop offset="0.402" stop-color="#e82717"/>
      <stop offset="0.79" stop-color="#ffbe00"/>
    </linearGradient>
    <linearGradient id="linear-gradient-4" x1="1.188" y1="0.779" x2="0.386" y2="0.494" gradientUnits="objectBoundingBox">
      <stop offset="0.418" stop-color="#e82717"/>
      <stop offset="0.779" stop-color="#ffbe00"/>
    </linearGradient>
    <linearGradient id="linear-gradient-5" x1="0" y1="0.5" x2="1" y2="0.5" xlink:href="#linear-gradient"/>
    <linearGradient id="linear-gradient-7" x1="0.5" y1="1.252" x2="0.5" y2="0.019" xlink:href="#linear-gradient"/>
    <linearGradient id="linear-gradient-8" x1="0.5" y1="1.454" x2="0.5" y2="0.084" xlink:href="#linear-gradient"/>
    <linearGradient id="linear-gradient-9" x1="0.5" y1="1.662" x2="0.5" y2="0.304" xlink:href="#linear-gradient"/>
    <linearGradient id="linear-gradient-10" x1="0.157" y1="0.8" x2="0.276" y2="0.702" gradientUnits="objectBoundingBox">
      <stop offset="0.276" stop-color="#e82717"/>
      <stop offset="0.926" stop-color="#fd9400"/>
    </linearGradient>
    <linearGradient id="linear-gradient-11" x1="0.823" y1="0.799" x2="0.698" y2="0.688" xlink:href="#linear-gradient-10"/>
    <linearGradient id="linear-gradient-14" x1="0.5" y1="1.252" x2="0.5" y2="0.019" gradientUnits="objectBoundingBox">
      <stop offset="0.199" stop-color="#e82717"/>
      <stop offset="0.939" stop-color="#ffbe00"/>
    </linearGradient>
    <linearGradient id="linear-gradient-15" x1="0.5" y1="1.454" x2="0.5" y2="0.084" gradientUnits="objectBoundingBox">
      <stop offset="0.401" stop-color="#e82717"/>
      <stop offset="0.939" stop-color="#ffbe00"/>
    </linearGradient>
  </defs>
  <g id="Symbol_4_1" data-name="Symbol 4 – 1" transform="translate(-827 -3103)">
    <g id="Group_9470" data-name="Group 9470" transform="translate(-284)">
      <circle id="Ellipse_85" data-name="Ellipse 85" cx="23" cy="23" r="23" transform="translate(1111 3103)" fill="#fd9400"/>
    </g>
    <g id="Group_9607" data-name="Group 9607" transform="translate(803.778 3058.853)">
      <g id="Group_9600" data-name="Group 9600" transform="translate(38.555 58.074)">
        <g id="Group_9596" data-name="Group 9596" transform="translate(0)">
          <path id="Path_4298" data-name="Path 4298" d="M233.092,78.858a3.085,3.085,0,0,1,.825-1.363,2.2,2.2,0,0,0,.668-1.754c-.174.714-.752.873-1.295,1.184a2.285,2.285,0,0,0-1.118,1.229A3.261,3.261,0,0,1,233.092,78.858Z" transform="translate(-222.563 -74.398)" fill="url(#radial-gradient)"/>
          <path id="Path_4299" data-name="Path 4299" d="M231.255,184.968a2.529,2.529,0,0,0-.227-2.2,8.5,8.5,0,0,1-.92.6,3.576,3.576,0,0,1,.44,2.018,2.214,2.214,0,0,0,1,1.7A2.517,2.517,0,0,1,231.255,184.968Z" transform="translate(-220.661 -172.992)" fill="url(#radial-gradient-2)"/>
          <path id="Path_4300" data-name="Path 4300" d="M246.514,169.134a3.533,3.533,0,0,0-1.656-1.639,6.789,6.789,0,0,1-.658,1,3.686,3.686,0,0,1,1.761,1.1c.254.289,1.007,1.185,1.888,1.084C247.122,170.546,246.761,169.623,246.514,169.134Z" transform="translate(-233.642 -158.922)" fill="url(#radial-gradient-3)"/>
          <path id="Path_4301" data-name="Path 4301" d="M255.947,153.806a4.164,4.164,0,0,0-2.157-.8,3.077,3.077,0,0,1-.262.972,3.591,3.591,0,0,1,2.077.348,2.421,2.421,0,0,0,2.269.122A2.458,2.458,0,0,1,255.947,153.806Z" transform="translate(-242.235 -145.575)" fill="url(#radial-gradient-4)"/>
          <path id="Path_4302" data-name="Path 4302" d="M246.052,94.794c.216-.534,1.016-.972,1.544-1.263a2.383,2.383,0,0,0,1.167-1.561c-.115.505-.887.987-1.434,1.146a4.161,4.161,0,0,0-1.807.847A3.994,3.994,0,0,1,246.052,94.794Z" transform="translate(-234.86 -89.349)" fill="url(#radial-gradient-5)"/>
          <path id="Path_4303" data-name="Path 4303" d="M219.317,64.586c-.082-.524.395-1.191.662-1.731a1.509,1.509,0,0,0-.268-1.743,1.185,1.185,0,0,1-.155,1.5,3.89,3.89,0,0,0-1.141,1.658A3.492,3.492,0,0,1,219.317,64.586Z" transform="translate(-209.889 -60.922)" fill="url(#radial-gradient-6)"/>
          <path id="Path_4304" data-name="Path 4304" d="M171.5,66.586a4.005,4.005,0,0,1,1.025-.609,2.452,2.452,0,0,1-.847-1.517,2.181,2.181,0,0,0-.774-1.7c.344.375.2,1.181.2,1.89A3.989,3.989,0,0,0,171.5,66.586Z" transform="translate(-166.125 -62.437)" fill="url(#radial-gradient-7)"/>
          <path id="Path_4305" data-name="Path 4305" d="M131.1,91.321a2.7,2.7,0,0,1,1.53,1.112,3.821,3.821,0,0,1,.822-1.09,3.407,3.407,0,0,0-1.816-.851,2.229,2.229,0,0,1-1.88-1.006A2.439,2.439,0,0,0,131.1,91.321Z" transform="translate(-128.221 -87.06)" fill="url(#radial-gradient-8)"/>
          <path id="Path_4306" data-name="Path 4306" d="M114.818,121.511a3.72,3.72,0,0,1,.287-1.066,3.157,3.157,0,0,1-2.092-.378,2.907,2.907,0,0,0-2.211-.223,3.119,3.119,0,0,1,1.906.864A3.015,3.015,0,0,0,114.818,121.511Z" transform="translate(-110.756 -114.912)" fill="url(#radial-gradient-9)"/>
          <path id="Path_4307" data-name="Path 4307" d="M112.541,145.746a3.1,3.1,0,0,0,1.969.124,3.247,3.247,0,0,1-.242-1.535,4.4,4.4,0,0,1-1.892.439,3.093,3.093,0,0,0-2.156.824A3.365,3.365,0,0,1,112.541,145.746Z" transform="translate(-110.22 -137.587)" fill="url(#radial-gradient-10)"/>
          <path id="Path_4308" data-name="Path 4308" d="M147.828,179.96a4.254,4.254,0,0,1-1.177-.871,3.378,3.378,0,0,1-1.259,1.7,2.764,2.764,0,0,0-.993,2.483,2.339,2.339,0,0,1,1.243-1.682C146.279,181.247,147.483,180.815,147.828,179.96Z" transform="translate(-141.641 -169.602)" fill="url(#radial-gradient-11)"/>
          <path id="Path_4309" data-name="Path 4309" d="M115.442,165.765a2.892,2.892,0,0,1-1.9.734,3.14,3.14,0,0,0-2.351.772c.651-.466,2.013-.08,2.807-.07a3.416,3.416,0,0,0,1.968-.564A3.679,3.679,0,0,1,115.442,165.765Z" transform="translate(-111.11 -157.328)" fill="url(#radial-gradient-12)"/>
          <path id="Path_4310" data-name="Path 4310" d="M174.645,193c-.571.753-.9,1.982-.512,2.378a2.558,2.558,0,0,1,.99-1.81,4.783,4.783,0,0,0,1.286-1.86,3.91,3.91,0,0,1-1.067-.262A2.681,2.681,0,0,1,174.645,193Z" transform="translate(-168.941 -180.989)" fill="url(#radial-gradient-13)"/>
          <path id="Path_4311" data-name="Path 4311" d="M210.219,193.918a3.318,3.318,0,0,0,.384-1.94,3.931,3.931,0,0,1-1.349.233,5.184,5.184,0,0,1,.159,1.783,2.527,2.527,0,0,0,1.108,1.593A1.566,1.566,0,0,1,210.219,193.918Z" transform="translate(-201.449 -181.475)" fill="url(#radial-gradient-14)"/>
          <path id="Path_4312" data-name="Path 4312" d="M253.435,129.74a3.872,3.872,0,0,1,.262,1.466,5.724,5.724,0,0,1,1.954-.375,3.1,3.1,0,0,0,1.62-1.027,1.858,1.858,0,0,1-1.76.228A3.271,3.271,0,0,0,253.435,129.74Z" transform="translate(-242.15 -124.068)" fill="url(#radial-gradient-15)"/>
          <path id="Path_4313" data-name="Path 4313" d="M195.515,60.539a3.547,3.547,0,0,1,0,1.584A3.858,3.858,0,0,1,197.032,62a4.261,4.261,0,0,0-.7-1.654c-.288-.6-.1-1.383-.354-1.652C196,59.087,195.424,59.87,195.515,60.539Z" transform="translate(-188.784 -58.698)" fill="url(#radial-gradient-16)"/>
        </g>
        <path id="Path_4314" data-name="Path 4314" d="M171.512,107.08a3.513,3.513,0,1,0-3.712,3.3A3.513,3.513,0,0,0,171.512,107.08Z" transform="translate(-160.215 -99.843)" fill="url(#radial-gradient-17)"/>
        <path id="Union_1" data-name="Union 1" d="M5.7,10.1a2.905,2.905,0,0,0,.576.153c-.358,1.087-1.42,1.614-1.839,2.465C4.6,11.723,5.488,11.12,5.7,10.1Zm1.538.174a6.2,6.2,0,0,0,.878-.142c.134,1.093-.612,1.531-.477,2.53C6.965,11.469,7.471,11.352,7.241,10.27ZM8.9,9.8s.341-.2.552-.341c.684,1.315-.216,1.931.072,3.172C8.895,11.606,9.472,11.1,8.9,9.8Zm-4.66-.541c.231.183.771.528.771.528-.7,1.094-1.957,1.008-2.781,2.1C2.441,10.846,3.985,10.218,4.244,9.262Zm5.866-.451s.2-.35.345-.58c1.223.566,1.395,1.544,2,2.445C11.234,9.606,11.587,9.552,10.11,8.811Zm-8.738.158a4.035,4.035,0,0,0-.977-.077c.626-.341,1.675.092,3.019-.751.111.154.27.433.27.433a3.148,3.148,0,0,1-1.569.479A4.315,4.315,0,0,1,1.372,8.969Zm9.371-1.447a3.9,3.9,0,0,0,.13-.6c1.253.043,2.066,1.142,3.092,1.4C12.534,8.214,12.338,7.494,10.742,7.523ZM0,7a2.763,2.763,0,0,1,1.469-.308,3.818,3.818,0,0,0,1.5-.227,5.681,5.681,0,0,0,.164,1,2.608,2.608,0,0,1-.557.064C1.734,7.526,1.3,7.047,0,7ZM10.7,5.186a2.7,2.7,0,0,1,1.475.181,2.413,2.413,0,0,0,1.42.173c-.857.673-1.713.237-2.711.637A3.781,3.781,0,0,0,10.7,5.186ZM.183,4.347a2.562,2.562,0,0,1,1.273.4,3.493,3.493,0,0,0,1.705.4s-.067.068-.155.583C1.311,5.654,1.546,4.94.183,4.347ZM10.073,4c.632-.666,1.621-.553,2.356-1.141-.881.885-1.45.717-2.083,1.565A2.978,2.978,0,0,0,10.073,4ZM1.136,2.528c1.167.729,1.647.089,2.973,1.047a2.935,2.935,0,0,0-.573.733C2.383,3.127,1.912,3.766,1.136,2.528Zm7.843.51c.621-1.233,1.339-.9,1.972-1.651-.393,1.114-.721.684-1.359,2.091A3.375,3.375,0,0,0,8.98,3.038ZM4.288.334c.383.7.11,1.5.947,2.51a1.793,1.793,0,0,0-.6.323C4.006,1.9,4.427.881,4.288.334ZM7.94,2.587c.244-.9,1.108-1.228,1.292-1.926-.076.869-.633,1.085-.824,2.086A1.881,1.881,0,0,0,7.94,2.587ZM6.335,0c0,1.374.631,1.219.784,2.426a5.015,5.015,0,0,0-.969.072C6.373,1.5,5.69,1.506,6.335,0Z" transform="translate(0.842 0.654)" fill="url(#radial-gradient-18)"/>
        <path id="Union_2" data-name="Union 2" d="M4.65,10.785a7.5,7.5,0,0,1,.539-1.05s.257,1.031.239,1.1a.415.415,0,0,1-.2.027A1.537,1.537,0,0,1,4.65,10.785Zm2.172-.077A5.99,5.99,0,0,1,7,9.753s.413.726.414.782a1.5,1.5,0,0,1-.564.178C6.835,10.714,6.825,10.712,6.822,10.708ZM2.756,10.1a6.238,6.238,0,0,1,.8-.592s-.243.832-.282.874l-.011,0A1.3,1.3,0,0,1,2.756,10.1ZM8.769,9.8A6.55,6.55,0,0,1,8.6,8.621S9.6,8.962,9.65,9a3.777,3.777,0,0,1-.875.8ZM.936,8.353C.95,8.319,2.26,8.229,2.26,8.229s-.586,1-.6,1.033A4.1,4.1,0,0,1,.936,8.353Zm8.957-1.12s.771-.084.788-.078a2.482,2.482,0,0,1-.322.77C10.349,7.925,9.893,7.233,9.893,7.233ZM.234,6.8c.029-.013,1.157.135,1.157.135s-.943.493-.959.505h0C.363,7.437.169,6.827.234,6.8ZM10.216,5.69s.693-.409.711-.409a2.6,2.6,0,0,1-.032.858h0C10.879,6.139,10.216,5.69,10.216,5.69ZM.093,4.711c.031,0,.914.4.914.4s-.959.326-.979.33A1.345,1.345,0,0,1,.093,4.711ZM9.861,3.674s.392-.842.407-.852a5.3,5.3,0,0,1,.489,1.2h0C10.724,4.019,9.861,3.674,9.861,3.674ZM.439,3.667a1.771,1.771,0,0,1,.325-.78c.03.01.91.839.91.839ZM9.25,1.478a6.288,6.288,0,0,1,.557.628c.006.007-.741.185-.741.185S9.238,1.491,9.25,1.478Zm-7.708.267A5.724,5.724,0,0,1,2.528.912c.015-.011.221,1.327.221,1.327S1.566,1.77,1.542,1.744ZM7.826.523a1.55,1.55,0,0,1,.52.3c.006.006-.575.369-.575.369S7.819.536,7.826.523ZM3.386.443a7.4,7.4,0,0,1,.884-.3,7.71,7.71,0,0,1-.129.9S3.36.454,3.386.443ZM5.446.011A4.727,4.727,0,0,1,6.986.2c.009,0-.74.822-.74.822S5.45.039,5.446.011Z" transform="translate(2.27 1.602)" fill="#ec4115"/>
        <path id="Union_3" data-name="Union 3" d="M4.725,10.5a3.831,3.831,0,0,1,.269-.53s.142.57.133.582-.047.018-.1.018C4.91,10.573,4.721,10.541,4.725,10.5Zm2.112-.1c0-.09.069-.505.069-.505s.208.425.209.436c0,.038-.154.087-.233.087C6.854,10.424,6.837,10.418,6.836,10.405ZM2.815,9.934A5.064,5.064,0,0,1,3.23,9.62s-.149.464-.156.474a.021.021,0,0,1-.018.006C2.989,10.1,2.783,9.969,2.815,9.934Zm5.9-.557a5.727,5.727,0,0,1-.086-.7s.6.226.606.237a1.756,1.756,0,0,1-.513.462A.007.007,0,0,1,8.713,9.377ZM1.055,8.309c.071-.018.85-.087.85-.087s-.376.595-.409.658a.006.006,0,0,1-.005,0C1.433,8.883,1,8.323,1.055,8.309Zm9.147-.77c-.035-.028-.232-.344-.232-.344s.387-.053.394-.048a.91.91,0,0,1-.16.393ZM.268,6.812c.051,0,.623.054.623.054S.4,7.121.369,7.138l-.007,0C.308,7.14.211,6.816.268,6.812ZM10.66,5.8c-.042-.012-.36-.245-.36-.245s.37-.206.378-.2a.981.981,0,0,1-.017.45ZM0,4.936c0-.1.025-.2.054-.191l.639.213s-.626.165-.658.171h0C.006,5.128,0,5.032,0,4.936Zm9.916-1.47s.228-.488.236-.49a2.311,2.311,0,0,1,.268.676h0A5.111,5.111,0,0,1,9.917,3.466ZM.5,3.385c-.06-.011.132-.469.179-.431s.536.489.536.489S.535,3.391.5,3.385ZM9.16,1.6c.028-.019.3.3.273.319s-.357.1-.357.1S9.153,1.6,9.16,1.6ZM1.7,1.557c-.031-.06.6-.556.612-.487.019.09.143.829.143.829S1.7,1.571,1.7,1.557Zm6.072-1c.021-.022.277.12.254.142s-.275.192-.275.192S7.764.559,7.769.553ZM5.591.013a3.013,3.013,0,0,1,.986.127C6.58.171,6.1.72,6.1.72S5.587.025,5.591.013Zm-2.076.3L3.989.17,3.943.687Z" transform="translate(2.4 1.736)" fill="#f77e0b"/>
        <g id="Group_9597" data-name="Group 9597" transform="translate(1.442 1.366)">
          <path id="Path_4363" data-name="Path 4363" d="M251.228,111.346a1.167,1.167,0,0,0,.1.163,2.73,2.73,0,0,1,1-.719A2.919,2.919,0,0,0,251.228,111.346Z" transform="translate(-241.558 -108.051)" fill="#ffd514"/>
          <path id="Path_4364" data-name="Path 4364" d="M238.869,91.177c-.678.5-.811.259-1.308,1.054a3.579,3.579,0,0,1,.328.22C238.194,91.677,238.509,91.7,238.869,91.177Z" transform="translate(-228.968 -89.983)" fill="#ffd514"/>
          <path id="Path_4365" data-name="Path 4365" d="M236.607,190.061c-.061.035-.284.2-.284.2.352.8.107,1.4.257,2.041C236.535,191.538,237.008,190.975,236.607,190.061Z" transform="translate(-227.828 -181.075)" fill="#ffd514"/>
          <path id="Path_4366" data-name="Path 4366" d="M259.974,157.356a3.771,3.771,0,0,1,1.632.443,3.078,3.078,0,0,0-1.583-.7A1.967,1.967,0,0,1,259.974,157.356Z" transform="translate(-249.615 -150.71)" fill="#ffd514"/>
          <path id="Path_4367" data-name="Path 4367" d="M252.4,174c-.032.063-.173.291-.173.291a4.428,4.428,0,0,1,1.472,1.157A3.207,3.207,0,0,0,252.4,174Z" transform="translate(-242.476 -166.279)" fill="#ffd514"/>
          <path id="Path_4368" data-name="Path 4368" d="M224.115,89.117a2.283,2.283,0,0,1,.371-.852,2.293,2.293,0,0,0-.544.786A1.04,1.04,0,0,0,224.115,89.117Z" transform="translate(-216.422 -87.301)" fill="#ffd514"/>
          <path id="Path_4369" data-name="Path 4369" d="M177.133,85.5a2.961,2.961,0,0,1-.546-1.42,3.817,3.817,0,0,0,.286,1.571A1.654,1.654,0,0,1,177.133,85.5Z" transform="translate(-172.799 -83.446)" fill="#ffd514"/>
          <path id="Path_4370" data-name="Path 4370" d="M143.817,105.277c-1.054-.672-1.275-.344-2.17-.676.664.535.8.107,1.843,1.079A3.768,3.768,0,0,1,143.817,105.277Z" transform="translate(-140.612 -102.349)" fill="#ffd514"/>
          <path id="Path_4371" data-name="Path 4371" d="M136.246,127.587a3.29,3.29,0,0,1-1.839-.564,2.533,2.533,0,0,0,1.78.846A1.165,1.165,0,0,1,136.246,127.587Z" transform="translate(-133.943 -123.004)" fill="#ffd514"/>
          <path id="Path_4372" data-name="Path 4372" d="M130.822,152.9a2.763,2.763,0,0,1-.122-.6c-.861.353-1.585.057-2.183.233C129.372,152.527,129.739,153,130.822,152.9Z" transform="translate(-128.517 -146.291)" fill="#ffd514"/>
          <path id="Path_4373" data-name="Path 4373" d="M141.306,172.949a3.722,3.722,0,0,1-1.873.5,3.079,3.079,0,0,0,1.991-.323A.769.769,0,0,1,141.306,172.949Z" transform="translate(-138.573 -165.311)" fill="#ffd514"/>
          <path id="Path_4374" data-name="Path 4374" d="M156.327,189.8c.263-.268,1.71-.848,1.906-1.366,0,0-.29-.187-.385-.257C157.46,188.97,156.97,189.019,156.327,189.8Z" transform="translate(-154.136 -179.338)" fill="#ffd514"/>
          <path id="Path_4375" data-name="Path 4375" d="M185.063,199.147a3.173,3.173,0,0,0,.986-1.27,1.856,1.856,0,0,1-.254-.066A4.33,4.33,0,0,1,185.063,199.147Z" transform="translate(-180.607 -188.214)" fill="#ffd514"/>
          <path id="Path_4376" data-name="Path 4376" d="M215.344,198.291a1.553,1.553,0,0,1-.527.1c.148.708-.18,1.06.063,1.68C214.85,199.43,215.392,199.059,215.344,198.291Z" transform="translate(-207.989 -188.656)" fill="#ffd514"/>
          <path id="Path_4377" data-name="Path 4377" d="M259.171,134.275a2.483,2.483,0,0,1,.129.6c.73-.286,1.278.023,1.9-.191C260.458,134.683,259.9,134.189,259.171,134.275Z" transform="translate(-248.875 -129.676)" fill="#ffd514"/>
          <path id="Path_4378" data-name="Path 4378" d="M199.713,77.588c-.01.009.469-.019.469-.019-.039-.611-.571-.951-.6-1.542C199.381,76.7,199.786,76.891,199.713,77.588Z" transform="translate(-193.929 -76.027)" fill="#ffd514"/>
        </g>
        <g id="Group_9599" data-name="Group 9599" transform="translate(2.501 1.853)">
          <g id="Group_9598" data-name="Group 9598">
            <path id="Path_4379" data-name="Path 4379" d="M187.662,84.594l0-.252-.2.067Z" transform="translate(-183.878 -84.174)" fill="#ffbe00"/>
            <path id="Path_4380" data-name="Path 4380" d="M214.6,82.665l.3-.379-.606-.079Z" transform="translate(-208.601 -82.207)" fill="#ffbe00"/>
            <path id="Path_4381" data-name="Path 4381" d="M164.677,96.722l.448.243L165,96.447a.891.891,0,0,0-.214.154A1.489,1.489,0,0,0,164.677,96.722Z" transform="translate(-162.887 -95.325)" fill="#ffbe00"/>
            <path id="Path_4382" data-name="Path 4382" d="M239.685,88.869l.128-.1L239.7,88.7Z" transform="translate(-231.983 -88.19)" fill="#ffbe00"/>
            <path id="Path_4383" data-name="Path 4383" d="M256.884,102.54l-.045.214.188-.055Z" transform="translate(-247.786 -100.938)" fill="#ffbe00"/>
            <path id="Path_4384" data-name="Path 4384" d="M268.149,121.218l.262.1-.145-.365Z" transform="translate(-258.205 -117.903)" fill="#ffbe00"/>
            <path id="Path_4385" data-name="Path 4385" d="M273.285,150.135l-.181.1.173.1Z" transform="translate(-262.77 -144.782)" fill="#ffbe00"/>
            <path id="Path_4386" data-name="Path 4386" d="M268.879,172.744l.065-.173-.174.026Z" transform="translate(-258.777 -165.451)" fill="#ffbe00"/>
            <path id="Path_4387" data-name="Path 4387" d="M251.624,193.235l.292-.262-.341-.126Z" transform="translate(-242.937 -184.129)" fill="#ffbe00"/>
            <path id="Path_4388" data-name="Path 4388" d="M228.464,209.405l.107-.028-.087-.192Z" transform="translate(-221.647 -199.179)" fill="#ffbe00"/>
            <path id="Path_4389" data-name="Path 4389" d="M202.046,210.146l.2.023-.07-.306Z" transform="translate(-197.311 -199.804)" fill="#ffbe00"/>
            <path id="Path_4390" data-name="Path 4390" d="M177.8,205.288l.074-.206-.182.147Z" transform="translate(-174.88 -195.399)" fill="#ffbe00"/>
            <path id="Path_4391" data-name="Path 4391" d="M156.28,186.839l.26-.409-.52.059Z" transform="translate(-154.912 -178.218)" fill="#ffbe00"/>
            <path id="Path_4392" data-name="Path 4392" d="M145.079,168.412l.268-.135-.313-.007Z" transform="translate(-144.792 -161.488)" fill="#ffbe00"/>
            <path id="Path_4393" data-name="Path 4393" d="M141.956,142.5l.322-.078-.312-.09Z" transform="translate(-141.956 -137.595)" fill="#ffbe00"/>
            <path id="Path_4394" data-name="Path 4394" d="M148.571,120.175l.349.048-.275-.25Z" transform="translate(-148.05 -116.998)" fill="#ffbe00"/>
          </g>
        </g>
      </g>
      <path id="Path_4395" data-name="Path 4395" d="M60.175,59.872l-.643.249a4.046,4.046,0,0,0,.629-2.046v-.049l-.035.034s-.336.329-.618.562a7.529,7.529,0,0,1-.847.648,31.446,31.446,0,0,1-3.039,1.709,6.407,6.407,0,0,0-.867.468,2.219,2.219,0,0,1-.633.315,4.948,4.948,0,0,1-.946.107l-.3-.008c-1.38,0-1.668,1.209-1.819,1.848a2.84,2.84,0,0,1-1.009,1.746,3.226,3.226,0,0,1-.721.373,1.278,1.278,0,0,0-.224-.019,2.379,2.379,0,0,0-.651.113c-.031.009-.091.026-.119.032a1.726,1.726,0,0,1-.285-.112,1.634,1.634,0,0,1-.376-.206l.129-.017a.286.286,0,0,0,.177-.074l.015-.018-.02-.012a1.287,1.287,0,0,1-.312-.286.593.593,0,0,1-.112-.336c0-.015,0-.031,0-.047a1.553,1.553,0,0,0-.079-.51l.006-.16c0-.01,0-.02,0-.03,0-.672-.793-.879-1.263-.9H46.17a2.051,2.051,0,0,0-1.4.409.837.837,0,0,0-.615.056.674.674,0,0,0-.3.391.851.851,0,0,0-.026.2.936.936,0,0,0,.188.528,3.5,3.5,0,0,0,.43.482l.048.044-.014-.064a1.373,1.373,0,0,1-.026-.261c0-.009,0-.017,0-.026a1.165,1.165,0,0,1,.012-.153v0a.262.262,0,0,0,.125.03h.018c.077,0,.178-.023.276-.027h.02a.946.946,0,0,1,.133.012,1.064,1.064,0,0,1,.06.328.521.521,0,0,1-.084.3c-.215.322-.812.378-.942.384a3.188,3.188,0,0,0-.48-.083,1.094,1.094,0,0,0-.136-.009.729.729,0,0,0-.224.032,3.2,3.2,0,0,1-.69-.362,2.839,2.839,0,0,1-1.009-1.746c-.151-.639-.438-1.847-1.819-1.848l-.1,0h-.063a5.854,5.854,0,0,1-1.078-.1,3.42,3.42,0,0,1-.635-.316,6.383,6.383,0,0,0-.866-.468A27.575,27.575,0,0,1,33.82,59.2a7.971,7.971,0,0,1-1-.787,4.81,4.81,0,0,1-.347-.353l-.034-.04v.053s0,.008,0,.022a3.857,3.857,0,0,0,.164,1.048,3.613,3.613,0,0,0,.474.987l-.654-.4.017.053a6.705,6.705,0,0,0,.77,1.523l-.032-.02-.749-.479.38.8a4.477,4.477,0,0,0,1.006,1.318l-.643-.111.4.519a4.18,4.18,0,0,0,1,.9l-.707.107.312.352a3.373,3.373,0,0,0,1.1.762l-.791.138.472.355A3.379,3.379,0,0,0,36,66.43a.6.6,0,0,0-.221.3l0,.014.213.139a3.236,3.236,0,0,0,.692.327,1.006,1.006,0,0,0-.276.291l-.121.213.208.13a2.155,2.155,0,0,0,.909.254,1.161,1.161,0,0,0-.159.326l-.062.2.189.1a1.47,1.47,0,0,0,.652.116h.036a1.106,1.106,0,0,0-.262.508l-.051.286.29.014s.058,0,.155,0a4.63,4.63,0,0,0,.611-.039,1.458,1.458,0,0,0-.082.244l-.083.346.355-.032.027,0,.057.075a2.328,2.328,0,0,0,.542.49l-.387.058L39.41,71a1.879,1.879,0,0,0,.591.415l-.432.075.28.21a1.191,1.191,0,0,0,.5.284.207.207,0,0,0-.054.073l-.047.116.1.068a1.8,1.8,0,0,0,.372.177.558.558,0,0,0-.143.155l-.072.127.163.1a.959.959,0,0,0,.46.139.649.649,0,0,0-.082.171l-.037.121.112.058a.824.824,0,0,0,.368.066h0a.591.591,0,0,0-.123.27l-.03.17.172.009H41.6a2.626,2.626,0,0,0,.326-.02.794.794,0,0,0-.04.122l-.049.205.228-.02a1.89,1.89,0,0,0,.343-.056.423.423,0,0,0-.021.129.438.438,0,0,0,.019.124l.034.114.12-.006h.022a1.28,1.28,0,0,0,.377-.058.494.494,0,0,0,.013.066l.02.1h.124s.07.006.162.006c.062,0,.114.005.165.005a.5.5,0,0,0,.052,0l-.03.114.146.026a.569.569,0,0,0,.079,0,1.358,1.358,0,0,0,.257-.025c-.159.223-.315.42-.452.584a7.457,7.457,0,0,1-.513.558l.58,1.044.885.774.569.882,1.237.394,1.237-.394.569-.889.875-.77.59-1.052a3,3,0,0,1-.412-.426,7.57,7.57,0,0,1-.509-.691h.008a.549.549,0,0,0,.078,0l.181-.014,0-.022-.025-.127a1.329,1.329,0,0,0,.2.01c.092,0,.161-.006.163-.006l.137-.009.025-.128a.134.134,0,0,0,0-.027,1.555,1.555,0,0,0,.371.076l.153.013.036-.144a.376.376,0,0,0,.017-.108.389.389,0,0,0-.023-.127,1.971,1.971,0,0,0,.321.059l.237.024-.056-.232a.746.746,0,0,0-.024-.091,2.252,2.252,0,0,0,.3.015h.086l.209,0-.05-.2a.5.5,0,0,0-.105-.245h0a.568.568,0,0,0,.333-.075l.111-.057-.032-.148a.509.509,0,0,0-.067-.148.967.967,0,0,0,.462-.14l.167-.083-.088-.153a.391.391,0,0,0-.108-.133,1.2,1.2,0,0,0,.329-.169l.1-.068-.036-.136a.214.214,0,0,0-.055-.076,1.42,1.42,0,0,0,.523-.268l.28-.21-.433-.075A1.881,1.881,0,0,0,52.928,71l.185-.209-.387-.058.019-.013.171.008.053-.178a2.315,2.315,0,0,0,.3-.308l.082-.107c.14.024.233.033.254.035l.355.032-.083-.346a1.489,1.489,0,0,0-.082-.244,4.63,4.63,0,0,0,.612.039c.1,0,.155,0,.155,0l.291-.014-.051-.286a1.1,1.1,0,0,0-.262-.508h.036a1.47,1.47,0,0,0,.652-.116l.189-.1-.062-.2a1.144,1.144,0,0,0-.16-.326,2.164,2.164,0,0,0,.909-.254l.208-.13-.121-.213a1,1,0,0,0-.276-.291,3.2,3.2,0,0,0,.692-.327l.215-.14-.007-.016a1,1,0,0,0-.226-.3,3.367,3.367,0,0,0,1.039-.486l.473-.355-.792-.137a3.372,3.372,0,0,0,1.1-.762l.312-.352-.707-.107a4.2,4.2,0,0,0,1-.9l.4-.52-.644.111a4.469,4.469,0,0,0,1.006-1.318l.381-.8-.75.48-.02.012a6.021,6.021,0,0,0,.77-1.383Z" fill="#1a1818"/>
      <path id="Path_4396" data-name="Path 4396" d="M117.446,190.647l-.31-.416-.354-.124-.443-.572.02-.023a11.165,11.165,0,0,0,.672-1.111c.052-.148.167-.476.246-.7a1,1,0,0,1-.152.068l-.1.034.026-.18a.662.662,0,0,1-.306.073.346.346,0,0,1-.04,0l-.169-.016.136-.1a.392.392,0,0,0,.117-.132.956.956,0,0,1-.1.005h-.054l-.168-.01.118-.1a.557.557,0,0,1-.1.009.365.365,0,0,1-.248-.083l-.049-.047.049-.047a.356.356,0,0,0,.087-.262.424.424,0,0,1-.208.047.637.637,0,0,1-.113-.01l-.024-.005-.014-.019a.421.421,0,0,1-.052-.227.591.591,0,0,1-.4.144.478.478,0,0,1-.066,0l-.067-.009.011-.066c.005-.032.011-.074.016-.114a1.049,1.049,0,0,1-.335.043c-.088,0-.153-.006-.156-.006l-.047,0-.011-.046a.315.315,0,0,1,.03-.177,1.527,1.527,0,0,1-.523.13l-.051,0-.015-.049a.489.489,0,0,1,.093-.375,2.491,2.491,0,0,1-.524.117l-.091.008.021-.089a.8.8,0,0,1,.116-.258,2.241,2.241,0,0,1-.486.049c-.05,0-.082,0-.083,0l-.074,0,.013-.073a.744.744,0,0,1,.275-.39,1.584,1.584,0,0,1-.224.017.755.755,0,0,1-.328-.056l-.048-.025.016-.052a.607.607,0,0,1,.182-.275h-.024a1.214,1.214,0,0,1-.609-.136l-.053-.033.031-.055a.733.733,0,0,1,.276-.23,1.67,1.67,0,0,1-.532-.217l-.045-.03.02-.05c.012-.03.059-.077.194-.144a1.806,1.806,0,0,1-.734-.3l-.121-.091.558-.1a1.845,1.845,0,0,1-.862-.5l-.08-.09.487-.074a2.111,2.111,0,0,1-.742-.589l-.1-.133.165.029a2.134,2.134,0,0,0,.287.03,2.238,2.238,0,0,1-.766-.873l-.1-.206.192.123a.976.976,0,0,0,.294.116,1.514,1.514,0,0,1-.358-.642l-.026-.105.105.026a.533.533,0,0,0,.127.017l.032,0a1.986,1.986,0,0,1-.427-.9l.119-.048a12.956,12.956,0,0,0,2.257,1.372,3.494,3.494,0,0,1,.473.255,1.113,1.113,0,0,0,.389.187c.182,0,.585.051.639.057h.061c.654,0,.827.5.939.971a1.658,1.658,0,0,0,.593,1.018,1.9,1.9,0,0,0,.43.221.294.294,0,0,1,.125-.023.594.594,0,0,1,.068,0,1.739,1.739,0,0,1,.267.047.831.831,0,0,0,.6-.248.488.488,0,0,0,.007-.459l0-.006-.385-.023-.008-.1a.165.165,0,0,0-.046.107l-.023.182-.1-.155a.523.523,0,0,1-.081-.349.238.238,0,0,1,.114-.151.39.39,0,0,1,.2-.059.31.31,0,0,1,.139.032,1,1,0,0,1,.765-.242h.023c.028,0,.642.032.628.438l0,.075-.014,0a.754.754,0,0,1,.057.332c0,.054.026.206.1.249l-.056.118c-.009,0-.027-.01-.048-.021a.771.771,0,0,0,.332.252.826.826,0,0,0,.191.07.74.74,0,0,0,.086-.021,1.26,1.26,0,0,1,.343-.06.618.618,0,0,1,.131.013,1.882,1.882,0,0,0,.44-.225,1.657,1.657,0,0,0,.593-1.018c.112-.469.285-.971.939-.971h.06c.053-.006.456-.052.639-.057a1.112,1.112,0,0,0,.389-.187,3.531,3.531,0,0,1,.473-.255,12.963,12.963,0,0,0,2.257-1.372l.119.048a1.979,1.979,0,0,1-.427.9l.032,0a.533.533,0,0,0,.127-.017l.105-.026-.026.105a1.513,1.513,0,0,1-.358.642.979.979,0,0,0,.294-.116l.192-.123-.1.206a2.242,2.242,0,0,1-.767.873,2.131,2.131,0,0,0,.287-.03l.166-.029-.1.133a2.106,2.106,0,0,1-.742.589l.487.074-.08.09a1.85,1.85,0,0,1-.863.5l.558.1-.121.091a1.805,1.805,0,0,1-.734.3.432.432,0,0,1,.194.144l.02.05-.045.03a1.675,1.675,0,0,1-.532.217.735.735,0,0,1,.276.23l.031.055-.053.033a1.213,1.213,0,0,1-.609.136h-.024a.609.609,0,0,1,.182.275l.016.052-.049.025a.755.755,0,0,1-.328.056,1.586,1.586,0,0,1-.224-.017.745.745,0,0,1,.275.39l.013.073-.074,0s-.032,0-.083,0a2.24,2.24,0,0,1-.486-.049.81.81,0,0,1,.116.258l.021.089-.091-.008a2.489,2.489,0,0,1-.524-.117.489.489,0,0,1,.092.375l-.015.049-.051,0a1.524,1.524,0,0,1-.522-.13.316.316,0,0,1,.03.177l-.011.046-.047,0s-.068.006-.156.006a1.048,1.048,0,0,1-.335-.043c0,.04.01.082.016.114l.011.066-.067.009a.477.477,0,0,1-.066,0,.59.59,0,0,1-.4-.144.423.423,0,0,1-.052.227l-.015.019-.024.005a.629.629,0,0,1-.112.01.421.421,0,0,1-.208-.047.353.353,0,0,0,.087.262l.049.047-.049.047a.366.366,0,0,1-.248.083.56.56,0,0,1-.1-.009l.118.1-.168.01H119.2a.946.946,0,0,1-.1-.005.392.392,0,0,0,.116.132l.136.1-.169.016a.357.357,0,0,1-.04,0,.663.663,0,0,1-.306-.073l.026.18-.1-.034a1.012,1.012,0,0,1-.152-.068c.079.225.195.552.246.7a11.2,11.2,0,0,0,.672,1.111l.02.023-.073.434-.326.222-.323.279-.472.288-.308.176Z" transform="translate(-71.776 -112.307)" fill="#840c16"/>
      <path id="Path_4397" data-name="Path 4397" d="M117.761,183.3a.8.8,0,0,1,.725-.223s.547.019.563.37c0,0-.108-.035-.092-.015s.127.088.131.389.147.343.147.343a.3.3,0,0,1-.2-.17s-.081.285.44.52a.518.518,0,0,1-.247-.015s-.042.093.15.154c0,0-.3.031-.424-.1,0,0,.008.1.169.255,0,0-.285.027-.366-.147l.023.336s-.216-.162-.239-.235c0,0-.181.2-.266.224l.027-.324s-.216.223-.389.131a.4.4,0,0,0,.208-.235.689.689,0,0,1-.385.108l.15-.158a.648.648,0,0,1-.293,0s.428-.154.439-.378a.789.789,0,0,0-.077-.385l.335,0-.324-.347.193-.146S117.938,183.266,117.761,183.3Zm-.312.3c.069-.089.366.008.366.008l-.309.072.686.031c-.281-.361-.688-.471-.839-.345s.031.382.031.382A.241.241,0,0,1,117.449,183.6Zm2.308,1.8c-.059.039-.026.477-.026.477a1.126,1.126,0,0,1-.111.575l.183-.163.144.275c.091-.033.222-.379.222-.379.016.154.346.078.346.078.006.072.3-.222.3-.222l.3.262v-.432l.392.222a.934.934,0,0,0-.085-.392l.372.1-.131-.379.314.013-.157-.288.392-.006c.007-.111-.261-.3-.261-.3a3.051,3.051,0,0,0,.471-.052c-.02-.1-.34-.281-.34-.281h.549l-.242-.287a1.868,1.868,0,0,0,.484-.072,2.581,2.581,0,0,0-.549-.373,2.315,2.315,0,0,0,.726-.065c-.02-.124-.5-.327-.5-.327a2.434,2.434,0,0,0,.751-.137,2.814,2.814,0,0,0-.405-.235,3.609,3.609,0,0,0,.634-.268,2.284,2.284,0,0,0-.562-.157.545.545,0,0,0,.392-.373s-.778.092-1.275.1-.64.445-.837,1.19a1.806,1.806,0,0,1-.98,1.072,1.382,1.382,0,0,0-.8,1.32A4.313,4.313,0,0,0,119.757,185.394Zm5.227-3.766c1.033-.6,1.089-1.22,1.089-1.22a15.186,15.186,0,0,1-2.739,1.622A2.41,2.41,0,0,0,124.984,181.628Zm-.305.776a2.06,2.06,0,0,0,1.207-1.04,13.82,13.82,0,0,1-2.551,1.116S123.694,182.814,124.679,182.4Zm1.241-.444a10.161,10.161,0,0,1-2.718,1.082A2.632,2.632,0,0,0,125.92,181.961Zm-.409.936-2.51.638A2.729,2.729,0,0,0,125.511,182.9Zm-.333.749a8.035,8.035,0,0,0-1.415.131,6.47,6.47,0,0,1-.963.16C123.729,184.513,125.178,183.646,125.178,183.646Zm-.416.679a16.428,16.428,0,0,0-2.143.014A2.672,2.672,0,0,0,124.762,184.325Zm-.561.52a7.555,7.555,0,0,0-1.74-.2C122.793,185.254,124.2,184.845,124.2,184.845Zm-.277.534a6.389,6.389,0,0,0-1.63-.409C122.675,185.67,123.923,185.379,123.923,185.379Zm-.479.485c-.035-.215-1.366-.61-1.366-.61C122.12,185.837,123.445,185.865,123.445,185.865Zm-.312.5c-.035-.208-.333-.368-.333-.368-.915-.319-.95-.437-.95-.437C121.891,186.225,123.133,186.364,123.133,186.364Zm-.513.291c-.055-.319-1.04-.763-1.04-.763C121.593,186.468,122.619,186.655,122.619,186.655Zm-.513.277c0-.271-.4-.5-.4-.5a1.181,1.181,0,0,1-.485-.319C121.24,186.752,122.106,186.932,122.106,186.932Zm-.548.125c-.007-.118-.721-.762-.721-.762C120.852,186.939,121.559,187.057,121.559,187.057Zm-.534.153-.506-.846A.655.655,0,0,0,121.025,187.21Zm-.562.111c.056-.236-.319-.874-.319-.874C119.936,187.154,120.463,187.321,120.463,187.321Zm-.471.146a4.675,4.675,0,0,0-.2-.971C119.409,187.009,119.992,187.466,119.992,187.466Zm-2.416-1.576a1.382,1.382,0,0,0-.8-1.32,1.806,1.806,0,0,1-.98-1.072c-.2-.745-.34-1.176-.837-1.19s-1.275-.1-1.275-.1a.544.544,0,0,0,.392.373,2.283,2.283,0,0,0-.562.157,3.594,3.594,0,0,0,.634.268,2.847,2.847,0,0,0-.405.235,2.439,2.439,0,0,0,.752.137s-.484.2-.5.327a2.316,2.316,0,0,0,.726.065,2.589,2.589,0,0,0-.549.373,1.87,1.87,0,0,0,.484.072l-.242.287h.549s-.32.183-.34.281a3.051,3.051,0,0,0,.47.052s-.268.19-.261.3l.392.006-.157.288.314-.013-.131.379.373-.1a.939.939,0,0,0-.085.392l.392-.222v.432l.3-.262s.078.405.157.431c0,0,.137-.137.144-.209,0,0,.327.1.346-.078,0,0,.131.346.222.379l.144-.275.183.163a1.123,1.123,0,0,1-.111-.575s.033-.438-.026-.477A4.29,4.29,0,0,0,117.576,185.891Zm-3.871-3.86a15.18,15.18,0,0,1-2.739-1.622s.055.617,1.089,1.22A2.41,2.41,0,0,0,113.7,182.03Zm0,.451a13.825,13.825,0,0,1-2.552-1.116,2.06,2.06,0,0,0,1.207,1.04C113.344,182.814,113.7,182.481,113.7,182.481Zm.132.562a10.163,10.163,0,0,1-2.718-1.082A2.633,2.633,0,0,0,113.836,183.043Zm.2.492-2.51-.638A2.729,2.729,0,0,0,114.038,183.535Zm.2.4a6.471,6.471,0,0,1-.964-.16,8.031,8.031,0,0,0-1.414-.131S113.309,184.513,114.239,183.937Zm.18.4a16.424,16.424,0,0,0-2.142-.014A2.671,2.671,0,0,0,114.419,184.339Zm.16.305a7.551,7.551,0,0,0-1.74.2S114.246,185.254,114.578,184.644Zm.166.326a6.39,6.39,0,0,0-1.629.409S114.363,185.67,114.745,184.97Zm.288.3s-1.331.4-1.366.61C113.667,185.878,114.991,185.85,115.033,185.268Zm.216.3s-.035.118-.95.437c0,0-.3.16-.333.368C113.965,186.371,115.207,186.232,115.248,185.566Zm.251.313s-.985.444-1.04.763C114.459,186.642,115.485,186.455,115.5,185.879Zm.354.235a1.181,1.181,0,0,1-.485.319s-.4.229-.4.5C114.972,186.932,115.839,186.752,115.852,186.114Zm.415.167s-.714.645-.721.763C115.546,187.044,116.253,186.926,116.267,186.281Zm.372.095-.566.807A.655.655,0,0,0,116.639,186.376Zm.609.119a4.679,4.679,0,0,0-.2.971S117.629,187.009,117.248,186.5Zm2.271.806c-.15-.012-.22-.193-.22-.193l.008.47a.328.328,0,0,1-.259-.1.918.918,0,0,0,.324.667,1.971,1.971,0,0,0-.035-.239.484.484,0,0,0,.428.162.506.506,0,0,1-.17-.274.444.444,0,0,0,.247.027.259.259,0,0,1-.108-.166c.355.15.462,0,.462,0-.783-.089-.64-1.168-.64-1.168A1.077,1.077,0,0,0,119.519,187.3Zm-2.016-.813s.142,1.079-.64,1.168c0,0,.108.146.463,0a.259.259,0,0,1-.108.166.444.444,0,0,0,.247-.027.5.5,0,0,1-.169.274.483.483,0,0,0,.428-.162,1.984,1.984,0,0,0-.035.239.918.918,0,0,0,.324-.667.328.328,0,0,1-.258.1l.008-.47s-.07.181-.22.193A1.076,1.076,0,0,0,117.5,186.488Zm.333,2.357.023.278.133-.22-.017.4.15-.208.087.237.1-.324.127.283.081-.439.093.416.122-.254.092.306.116-.2.11.179-.006-.4.15.226.04-.255.075.1c.087-.191-.254-1.047-.254-1.047-.029.1-.11.295-.11.295l-.064-.11c-.04.1-.15.462-.15.462a1.9,1.9,0,0,0-.208-.6,3.9,3.9,0,0,0-.2.607,1.313,1.313,0,0,0-.133-.468l-.11.116a.4.4,0,0,0-.1-.289,7.745,7.745,0,0,0-.266,1.029Zm2.232,1.145-.682-1.127A1.805,1.805,0,0,0,120.068,189.99Zm-.064.376-.74-1.33A2.518,2.518,0,0,0,120,190.366Zm-.306.208a4.835,4.835,0,0,0-.578-1.411A2.738,2.738,0,0,0,119.7,190.574Zm-.752-1.324a3.077,3.077,0,0,0,.445,1.631A6.661,6.661,0,0,0,118.946,189.25Zm.083,1.822a5.391,5.391,0,0,0-.291-1.793A2.911,2.911,0,0,0,119.028,191.071Zm-1.406-.2a2.975,2.975,0,0,0,.491-1.63A4.972,4.972,0,0,0,117.622,190.875Zm-.284-.318a2.067,2.067,0,0,0,.59-1.4A5.077,5.077,0,0,0,117.339,190.557Zm.492-1.538c-.139.191-.729,1.273-.729,1.273C117.489,190.309,117.83,189.019,117.83,189.019Zm-.139-.133-.665,1.041C117.345,189.9,117.691,188.886,117.691,188.886Zm2.54-4.364a1.146,1.146,0,0,0-.748.17c-.07.116-.3.085-.3.085.031.077.169.108.169.108-.162.085-.478-.046-.478-.046l-.039.3-.293-.2-.293.2-.038-.3s-.316.131-.478.046c0,0,.139-.031.17-.108,0,0-.232.031-.3-.085a1.146,1.146,0,0,0-.748-.17,2.229,2.229,0,0,1,.555.312,1.681,1.681,0,0,0,.528.27.439.439,0,0,1-.416-.1,1.96,1.96,0,0,1,.181,1.145.546.546,0,0,1-.239-.316.916.916,0,0,0,.143.655.654.654,0,0,1,.069.64.383.383,0,0,0,.181-.239l-.011.6s.193,0,.239-.139a.808.808,0,0,1-.016.389l.054-.015.008.274s.142.016.142-.22l.1.459a.794.794,0,0,0,.119-.439h.1a.793.793,0,0,0,.119.439l.1-.459c0,.235.142.22.142.22l.008-.274.054.015a.8.8,0,0,1-.016-.389c.046.135.239.139.239.139l-.011-.6a.382.382,0,0,0,.181.239.653.653,0,0,1,.069-.64.918.918,0,0,0,.143-.655.547.547,0,0,1-.239.316,1.965,1.965,0,0,1,.181-1.145.438.438,0,0,1-.416.1,1.678,1.678,0,0,0,.528-.27A2.235,2.235,0,0,1,120.232,184.522Z" transform="translate(-72.352 -112.743)" fill="#ec4115"/>
      <path id="Path_4398" data-name="Path 4398" d="M199.986,216.579l-.166.172a.581.581,0,0,1-.067.057.319.319,0,0,0,.03-.084l.04-.194-.168.1a.848.848,0,0,1-.1.051l.16-.168-.186.039a.394.394,0,0,0,.167-.273.9.9,0,0,0-.038-.306l.405,0-.391-.419.323-.246.068,0h0s.339.015.447.183a.087.087,0,0,0-.052.045.089.089,0,0,0,.012.094l.016.017c.021.021.085.081.1.281l-.054.188a.457.457,0,0,0,.213.458l-.016.035a.15.15,0,0,0-.008.092.239.239,0,0,1-.125-.06l-.167-.183.019.247a.331.331,0,0,0,.053.138.152.152,0,0,1-.088-.073l-.162.042.01.135a.324.324,0,0,1-.06-.068l-.045-.143-.1.114c-.033.037-.069.074-.1.105Z" transform="translate(-153.937 -144.892)" fill="url(#linear-gradient)"/>
      <path id="Path_4399" data-name="Path 4399" d="M192.827,218.468a1.066,1.066,0,0,0-.276-.049.225.225,0,0,0-.18.065.111.111,0,0,1,.021-.112.179.179,0,0,1,.112-.03.7.7,0,0,1,.382.146Z" transform="translate(-147.338 -147.687)" fill="url(#linear-gradient-2)"/>
      <path id="Path_4400" data-name="Path 4400" d="M220.512,189.506l-.032.028a1.465,1.465,0,0,0,.02-.307v0a1.907,1.907,0,0,1,0-.412l-.157-.063-.084.154a1.208,1.208,0,0,1,.721-.895,1.874,1.874,0,0,0,1.03-1.129c.2-.774.337-1.115.756-1.126.363-.01.879-.061,1.131-.088a.5.5,0,0,1-.275.189l.011.166a3.281,3.281,0,0,1,.369.082,4.22,4.22,0,0,1-.454.178l-.2.065.188.092c.068.033.165.084.246.13a2.208,2.208,0,0,1-.555.081l-.033.164a2.273,2.273,0,0,1,.376.2,2.31,2.31,0,0,1-.407.039c-.051,0-.1,0-.15-.006l-.047.16a3.581,3.581,0,0,1,.41.252,1.407,1.407,0,0,1-.265.033h-.035l-.2-.014.254.3h-.687l.278.159a1.824,1.824,0,0,1,.219.147,2.351,2.351,0,0,1-.275.029h-.022l-.061.154a1.176,1.176,0,0,1,.171.148l-.4.007.152.279-.288-.012.119.346-.388-.1.07.161a1.3,1.3,0,0,1,.068.206l-.382-.217v.391l-.271-.236-.028.145a2.11,2.11,0,0,1-.083.309.274.274,0,0,1-.049-.079l-.029-.319-.133.293-.084.183a.6.6,0,0,1-.1-.235l-.164-.021a1.808,1.808,0,0,1-.123.263Zm5.108-4.588,0,0,0,0a2.44,2.44,0,0,0,.931-.859,17.471,17.471,0,0,1-2.245,1.286h.035A2.6,2.6,0,0,0,225.62,184.918Zm-.29.768a2.336,2.336,0,0,0,1.027-.761,20.452,20.452,0,0,1-2.1.932.992.992,0,0,0,.236.026A2.228,2.228,0,0,0,225.33,185.686Zm.9-.048a10.583,10.583,0,0,1-1.889.733l.118,0A2.513,2.513,0,0,0,226.225,185.638Zm-.394.8-1.732.44c.086.008.173.012.258.012A2.668,2.668,0,0,0,225.831,186.437Zm-.35.665a5.954,5.954,0,0,0-1.013.117,6.4,6.4,0,0,1-.667.127,1.515,1.515,0,0,0,.444.062A3.2,3.2,0,0,0,225.481,187.1Zm-.47.635h-.167c-.4,0-.9.015-1.221.028a1.737,1.737,0,0,0,.578.089A3.237,3.237,0,0,0,225.011,187.738Zm-.467.458a11.974,11.974,0,0,0-1.212-.1,1.027,1.027,0,0,0,.633.158A3.275,3.275,0,0,0,224.544,188.2Zm-.216.5a9.167,9.167,0,0,0-1.157-.251,1.247,1.247,0,0,0,.862.268A2.785,2.785,0,0,0,224.328,188.7Zm-.95.212c-.182-.067-.362-.127-.485-.165.15.236.633.34.983.378A4.217,4.217,0,0,0,223.378,188.909Zm.071.525a6.4,6.4,0,0,1-.759-.307,1.6,1.6,0,0,0,.98.486A.834.834,0,0,0,223.449,189.434Zm-1.065-.03a1.193,1.193,0,0,0,.739.478A3.193,3.193,0,0,0,222.385,189.4Zm-.027.466a1.522,1.522,0,0,1-.3-.16,1.069,1.069,0,0,0,.617.458A.929.929,0,0,0,222.358,189.87Zm-.7.024a.708.708,0,0,0,.361.358C221.922,190.151,221.792,190.022,221.656,189.894Zm-.392.1a.509.509,0,0,0,.079.244.537.537,0,0,0,.16.156Zm-.4.067a.52.52,0,0,0,.188.476A2.345,2.345,0,0,0,220.868,190.057Zm-.416.028a.575.575,0,0,0,.12.508C220.544,190.449,220.5,190.26,220.451,190.085Z" transform="translate(-173.036 -116.102)" fill="url(#linear-gradient-3)"/>
      <path id="Path_4401" data-name="Path 4401" d="M119.415,189.77a1.793,1.793,0,0,1-.123-.263l-.164.021a.6.6,0,0,1-.1.235l-.217-.474-.029.319a.291.291,0,0,1-.049.078,2.118,2.118,0,0,1-.083-.309l-.028-.145-.271.236v-.391l-.382.217a1.24,1.24,0,0,1,.068-.206l.07-.161-.389.1.12-.346-.288.012.152-.279-.4-.007a1.2,1.2,0,0,1,.171-.148l-.06-.154h-.022a2.349,2.349,0,0,1-.275-.029,1.863,1.863,0,0,1,.219-.147l.279-.159h-.687l.254-.3-.2.014h-.035a1.409,1.409,0,0,1-.265-.033,3.555,3.555,0,0,1,.411-.252l-.047-.161c-.048,0-.1.006-.15.006a2.29,2.29,0,0,1-.408-.039,2.293,2.293,0,0,1,.375-.2l-.033-.164a2.211,2.211,0,0,1-.555-.081c.082-.047.179-.1.246-.13l.188-.092-.2-.065a4.19,4.19,0,0,1-.454-.178,3.283,3.283,0,0,1,.369-.082l.01-.166a.5.5,0,0,1-.275-.189c.253.027.768.079,1.131.088.419.011.553.352.757,1.126a1.874,1.874,0,0,0,1.03,1.129,1.213,1.213,0,0,1,.717.887l-.08-.147-.157.063a1.909,1.909,0,0,1,0,.412v0a1.5,1.5,0,0,0,.02.307l-.031-.028Zm-3.7-4.429h.035a17.46,17.46,0,0,1-2.245-1.286,2.434,2.434,0,0,0,.931.859l0,0,0,0a2.6,2.6,0,0,0,1.273.424Zm-.149.542a.992.992,0,0,0,.236-.026,20.436,20.436,0,0,1-2.1-.933,2.33,2.33,0,0,0,1.028.762,2.229,2.229,0,0,0,.835.2Zm.041.49.118,0a10.59,10.59,0,0,1-1.888-.733,2.513,2.513,0,0,0,1.77.736Zm.1.517c.086,0,.172,0,.259-.012l-1.734-.441a2.664,2.664,0,0,0,1.476.453Zm.111.519a1.515,1.515,0,0,0,.444-.062,6.4,6.4,0,0,1-.667-.127,5.954,5.954,0,0,0-1.012-.117,3.2,3.2,0,0,0,1.236.306Zm.044.445a1.735,1.735,0,0,0,.578-.089c-.318-.013-.825-.028-1.221-.028h-.168a3.237,3.237,0,0,0,.811.116Zm.235.4a1.027,1.027,0,0,0,.633-.158,11.969,11.969,0,0,0-1.212.1,3.271,3.271,0,0,0,.579.059Zm-.068.459a1.247,1.247,0,0,0,.862-.268,9.159,9.159,0,0,0-1.157.251,2.733,2.733,0,0,0,.295.017Zm1.213.044c-.122.039-.3.1-.484.165a4.214,4.214,0,0,0-.5.213C116.611,189.1,117.094,188.993,117.244,188.757Zm.191.377a6.386,6.386,0,0,1-.76.307.841.841,0,0,0-.22.18A1.59,1.59,0,0,0,117.436,189.134Zm.285.257a3.205,3.205,0,0,0-.739.478A1.194,1.194,0,0,0,117.721,189.391Zm.331.32a1.528,1.528,0,0,1-.3.16.924.924,0,0,0-.313.3A1.064,1.064,0,0,0,118.052,189.71Zm.423.171c-.134.127-.262.254-.356.354A.716.716,0,0,0,118.474,189.881Zm.16.5a.538.538,0,0,0,.171-.144.51.51,0,0,0,.1-.238Zm.98-.3c-.048.175-.094.366-.121.51A.572.572,0,0,0,119.614,190.085Z" transform="translate(-74.695 -116.102)" fill="url(#linear-gradient-4)"/>
      <path id="Path_4402" data-name="Path 4402" d="M215.281,269.07a.579.579,0,0,1-.175-.116l-.193-.181.038.192a.811.811,0,0,1-.087-.212.518.518,0,0,0,.152.024l.088,0-.005-.319a.284.284,0,0,0,.124.04l.12.009c.016.025.032.048.05.071a.723.723,0,0,0,.118.12l-.032-.013-.13-.055.012.141a.26.26,0,0,0,.017.066.308.308,0,0,1-.037-.013l-.133-.058.014.144A.411.411,0,0,0,215.281,269.07Z" transform="translate(-168.063 -193.856)" fill="url(#linear-gradient-5)"/>
      <path id="Path_4403" data-name="Path 4403" d="M191.059,269.07a.413.413,0,0,0,.06-.158l.014-.144-.133.058a.319.319,0,0,1-.037.013.252.252,0,0,0,.017-.066l.012-.141-.131.055-.032.013a.726.726,0,0,0,.118-.12c.018-.023.034-.047.05-.071l.12-.009a.284.284,0,0,0,.124-.04l-.005.319.089,0a.528.528,0,0,0,.151-.024.787.787,0,0,1-.087.213l.039-.193-.194.181A.576.576,0,0,1,191.059,269.07Z" transform="translate(-145.922 -193.856)" fill="url(#linear-gradient-5)"/>
      <path id="Path_4404" data-name="Path 4404" d="M193.247,279.54l-.11.23-.039-.175-.167,0-.031.171-.108-.242-.091.3-.054-.148-.078.107.005-.114-.155-.047-.018-.217-.036.04c.035-.158.081-.351.128-.508a.444.444,0,0,1,0,.057v.213l.168-.177a.963.963,0,0,1,.075.317l.168.02c.029-.116.076-.288.12-.418a1.2,1.2,0,0,1,.117.386l.167.025s.046-.152.088-.284l.057.1.066-.16.033-.081a4.512,4.512,0,0,1,.16.539l-.035-.046-.038.235-.19-.285.006.377-.021-.035-.089.151Zm.31,1.043a3.161,3.161,0,0,0,.152.489C193.666,280.918,193.613,280.749,193.557,280.583Zm-.277-.047a3.7,3.7,0,0,0,.212,1.088A8.265,8.265,0,0,0,193.28,280.536Zm-.275-.058a3.894,3.894,0,0,0,.028,1.521A4.77,4.77,0,0,0,193,280.478Zm-.278.14a7.1,7.1,0,0,0-.161.963A4.079,4.079,0,0,0,192.727,280.618Zm-.251-.114a5.252,5.252,0,0,0-.21.761A2.949,2.949,0,0,0,192.476,280.5Zm-.641.816a2.067,2.067,0,0,0,.59-1.4A5.078,5.078,0,0,0,191.835,281.32Zm.447-.979a5.21,5.21,0,0,0-.252.619A1.964,1.964,0,0,0,192.282,280.341Z" transform="translate(-146.848 -203.506)" fill="url(#linear-gradient-7)"/>
      <path id="Path_4405" data-name="Path 4405" d="M192.62,237.424a.762.762,0,0,1-.012-.143v-.087h-.273v.087a.764.764,0,0,1-.011.143l-.04-.181-.147.016,0-.164-.029.008a.722.722,0,0,0-.011-.3l-.08-.239-.082.238a.112.112,0,0,1-.071.062l.01-.492-.132-.019a.946.946,0,0,0-.13-.425,1.174,1.174,0,0,1-.121-.3.722.722,0,0,0,.1.076l.123.075.006-.144a2.823,2.823,0,0,0-.1-.969.513.513,0,0,0,.145.022.337.337,0,0,0,.136-.024l.186-.084.024.19.36-.246.36.246.025-.19.186.084a.339.339,0,0,0,.136.024.511.511,0,0,0,.145-.022,2.818,2.818,0,0,0-.1.969l.007.144.123-.075a.733.733,0,0,0,.1-.076,1.191,1.191,0,0,1-.121.3.945.945,0,0,0-.13.425l-.131.019.009.492a.112.112,0,0,1-.071-.063l-.082-.238-.08.239a.714.714,0,0,0-.011.3l-.029-.008,0,.164-.147-.016Zm-.727-2.916-.072-.025a1.006,1.006,0,0,0,.249-.045l.017.13Zm.982-.07a1.017,1.017,0,0,0,.25.045l-.072.025-.194.06Zm-1.392-.115a.566.566,0,0,1-.084-.065,1.014,1.014,0,0,0-.179-.133.674.674,0,0,1,.24.1.236.236,0,0,0,.094.085Zm1.91-.017a.237.237,0,0,0,.093-.085.67.67,0,0,1,.24-.1,1.008,1.008,0,0,0-.179.133.57.57,0,0,1-.083.064Z" transform="translate(-146.282 -162.228)" fill="url(#linear-gradient-8)"/>
      <path id="Path_4406" data-name="Path 4406" d="M51.286,80.572A7.365,7.365,0,0,1,49.9,78.59c-.093-.265-.3-.854-.442-1.256a1.786,1.786,0,0,0,.271.122l.182.062-.047-.324a1.183,1.183,0,0,0,.548.132c.042,0,.068,0,.071,0l.3-.028-.244-.183a.705.705,0,0,1-.209-.238,1.721,1.721,0,0,0,.187.009c.057,0,.1,0,.1,0l.3-.019-.212-.172a.949.949,0,0,0,.175.017.657.657,0,0,0,.445-.149l.088-.084-.087-.085a.633.633,0,0,1-.156-.469A.758.758,0,0,0,51.55,76a1.116,1.116,0,0,0,.2-.018l.043-.009.027-.035a.761.761,0,0,0,.093-.406,1.061,1.061,0,0,0,.719.259.93.93,0,0,0,.118-.006l.119-.017-.019-.119c-.01-.057-.019-.132-.028-.2a1.894,1.894,0,0,0,.6.077c.158,0,.275-.01.28-.011l.085-.008.019-.083a.572.572,0,0,0-.053-.317,2.75,2.75,0,0,0,.937.233l.092,0,.026-.088a.876.876,0,0,0-.165-.673,4.475,4.475,0,0,0,.941.21l.163.015-.038-.159a1.433,1.433,0,0,0-.208-.463,4.02,4.02,0,0,0,.872.088c.09,0,.146,0,.148,0l.133-.007-.024-.132a1.334,1.334,0,0,0-.492-.7,2.888,2.888,0,0,0,.4.03,1.356,1.356,0,0,0,.588-.1l.087-.045-.029-.094a1.087,1.087,0,0,0-.327-.494H56.9A2.174,2.174,0,0,0,58,72.488l.1-.06-.056-.1a1.316,1.316,0,0,0-.494-.412,2.984,2.984,0,0,0,.954-.389l.1-.059-.055-.084a1.039,1.039,0,0,0-.348-.259,3.239,3.239,0,0,0,1.318-.535l.217-.164-1-.174a3.314,3.314,0,0,0,1.548-.9l.143-.162-.873-.132a3.785,3.785,0,0,0,1.331-1.056l.184-.239-.3.051a3.773,3.773,0,0,1-.515.053,4.021,4.021,0,0,0,1.375-1.566l.175-.37-.345.221a1.758,1.758,0,0,1-.527.209,5.778,5.778,0,0,0,.891-1.419,3.1,3.1,0,0,1-.62.156.25.25,0,0,1-.058,0,3.564,3.564,0,0,0,.766-1.611l.03-.3-.219.207a21.734,21.734,0,0,1-4.073,2.47,6.3,6.3,0,0,0-.848.459,2.1,2.1,0,0,1-.7.335,4.492,4.492,0,0,1-1.146.1l-.108,0c-1.173,0-1.484.9-1.684,1.741A2.975,2.975,0,0,1,52.1,70.326a3.382,3.382,0,0,1-.79.4,1.111,1.111,0,0,0-.235-.024,2.257,2.257,0,0,0-.614.107,1.273,1.273,0,0,1-.155.039,1.465,1.465,0,0,1-.343-.126,1.381,1.381,0,0,1-.6-.451c.2,0,.363-.019.363-.019a.733.733,0,0,1-.348-.6,2.529,2.529,0,0,0-.077-.592l0-.134c.026-.729-1.075-.784-1.126-.786H48.14a1.8,1.8,0,0,0-1.372.433.554.554,0,0,0-.249-.058.705.705,0,0,0-.357.105.425.425,0,0,0-.2.27.8.8,0,0,0,.145.626c.077.116.2.275.2.275a1.117,1.117,0,0,1,0-.226.635.635,0,0,1,.1-.288s-.13.235.341.193a.925.925,0,0,1,.364.022l.006.011a.876.876,0,0,1-.013.824,1.491,1.491,0,0,1-1.07.445,3.071,3.071,0,0,0-.479-.084,1,1,0,0,0-.123-.008.528.528,0,0,0-.224.042,3.4,3.4,0,0,1-.77-.4A2.973,2.973,0,0,1,43.369,68.5c-.2-.843-.511-1.741-1.684-1.741l-.108,0a7.388,7.388,0,0,1-1.146-.1,2.775,2.775,0,0,1-.7-.335,6.3,6.3,0,0,0-.848-.459,26.949,26.949,0,0,1-3.672-2.129,5,5,0,0,1-.65-.551l.059.3a4.439,4.439,0,0,0,.856,1.725,4.519,4.519,0,0,1-.756-.325,5.56,5.56,0,0,0,.88,1.477,1.755,1.755,0,0,1-.527-.209l-.345-.221.175.37a4.021,4.021,0,0,0,1.376,1.566,3.784,3.784,0,0,1-.515-.053l-.3-.051.184.239a3.783,3.783,0,0,0,1.332,1.056l-.873.132.143.162a3.313,3.313,0,0,0,1.548.9l-1,.174.218.164a3.236,3.236,0,0,0,1.317.535c-.35.137-.384.349-.384.349l.081.053a2.994,2.994,0,0,0,.954.389,1.316,1.316,0,0,0-.494.412l-.056.1.1.06a2.175,2.175,0,0,0,1.092.243h.043a1.085,1.085,0,0,0-.327.494l-.029.094.087.045a1.355,1.355,0,0,0,.588.1,2.891,2.891,0,0,0,.4-.03,1.332,1.332,0,0,0-.493.7l-.024.132.134.007s.058,0,.148,0a4.021,4.021,0,0,0,.872-.088,1.447,1.447,0,0,0-.208.463l-.038.159.163-.015a4.472,4.472,0,0,0,.941-.21.876.876,0,0,0-.165.673l.026.088.092,0a2.749,2.749,0,0,0,.937-.233.572.572,0,0,0-.053.317l.019.083.085.008s.122.011.28.011a1.893,1.893,0,0,0,.6-.077c-.009.072-.019.147-.028.2l-.02.119.119.016a.912.912,0,0,0,.118.007,1.061,1.061,0,0,0,.719-.259.761.761,0,0,0,.093.406l.027.035.043.009a1.115,1.115,0,0,0,.2.018.762.762,0,0,0,.372-.085.637.637,0,0,1-.155.469l-.088.085.089.084a.655.655,0,0,0,.445.149.95.95,0,0,0,.175-.017l-.212.172.3.019s.041,0,.1,0a1.716,1.716,0,0,0,.187-.009.7.7,0,0,1-.209.238l-.244.183.3.029s.029,0,.071,0a1.183,1.183,0,0,0,.548-.132l-.047.324.182-.062a1.8,1.8,0,0,0,.272-.122c-.142.4-.349.991-.442,1.256a7.794,7.794,0,0,1-1.47,1.981l.516.893.874.767.559.867,1.12.343,1.12-.343.558-.868.868-.766Z" transform="translate(-1.97 -4.757)" fill="#840c16"/>
      <path id="Path_4407" data-name="Path 4407" d="M49.459,72a1.443,1.443,0,0,1,1.3-.4s.982.035,1.01.664c0,0-.194-.062-.166-.028s.228.159.235.7.262.616.262.616a.527.527,0,0,1-.366-.3s-.145.512.788.934a1.554,1.554,0,0,1-.488-.031.94.94,0,0,0,.315.279s-.546.056-.761-.18c0,0,.014.18.3.456,0,0-.512.049-.657-.263l.042.6a.973.973,0,0,1-.428-.422s-.325.367-.477.4l.048-.581a.968.968,0,0,1-.635.29.974.974,0,0,0,.31-.477,1.237,1.237,0,0,1-.692.194l.27-.283a1.158,1.158,0,0,1-.526,0s.768-.277.788-.678a1.413,1.413,0,0,0-.138-.691l.6-.007-.581-.622.346-.263S49.777,71.934,49.459,72Zm-.589.536c.127-.157.686.011.686.011a3.221,3.221,0,0,0-.507.036c.013.119.067.133.265.139.07,0,.335-.022.557-.02a2.633,2.633,0,0,1,.36.029c-.5-.647-1.234-.846-1.505-.62s.055.685.055.685A.476.476,0,0,1,48.87,72.532Zm4.073,3.615c-.106.07.051.461.051.461a2.014,2.014,0,0,1-.2,1.032l.329-.293.258.493c.164-.059.4-.68.4-.68a1.628,1.628,0,0,0,.364.7L54.4,77.3c.012.129.258.375.258.375.141-.047.281-.774.281-.774l.539.469V76.6l.7.4a1.681,1.681,0,0,0-.152-.7l.668.176-.234-.68.563.023-.281-.516a2.982,2.982,0,0,0,.33,0c.2-.006.418-.033.418-.033a1.543,1.543,0,0,0-.514-.521,4.429,4.429,0,0,0,.844-.094,2.4,2.4,0,0,0-.51-.512s.113.013.391.02c.246.006.493-.011.493-.011a4.072,4.072,0,0,0-.235-.333c-.1-.119-.172-.192-.172-.192a3.206,3.206,0,0,0,.841-.119,3.62,3.62,0,0,0-1.007-.664,8.023,8.023,0,0,0,1.324-.122,2.709,2.709,0,0,0-.9-.586,4.367,4.367,0,0,0,1.348-.246,5.065,5.065,0,0,0-.727-.422,6.479,6.479,0,0,0,1.137-.481,4.193,4.193,0,0,0-1.065-.272c.716-.2.76-.678.76-.678a22.231,22.231,0,0,1-2.286.188c-.891.017-1.149.8-1.5,2.134a3.238,3.238,0,0,1-1.759,1.923,2.48,2.48,0,0,0-1.442,2.369A3.344,3.344,0,0,0,52.943,76.147ZM62.417,69a3.628,3.628,0,0,0,1.953-2.189c-.9.982-4.913,2.911-4.913,2.911A4.32,4.32,0,0,0,62.417,69Zm-.547,1.393a3.826,3.826,0,0,0,2.189-1.84c-3.757,1.866-4.6,1.977-4.6,1.977S60.1,71.123,61.87,70.389Zm2.079-.684a19.564,19.564,0,0,1-4.728,1.828A4.437,4.437,0,0,0,63.948,69.706Zm-.67,1.612-4.419,1.1A4.719,4.719,0,0,0,63.278,71.318Zm-.564,1.307a13.65,13.65,0,0,0-2.487.228,11.6,11.6,0,0,1-1.729.286C60.166,74.171,62.714,72.624,62.714,72.624Zm-.743,1.227a16.247,16.247,0,0,0-3.8.008C59.618,74.842,61.971,73.852,61.971,73.852Zm-1.008.922a13.239,13.239,0,0,0-3.074-.367C58.486,75.5,60.963,74.774,60.963,74.774Zm-.517.942a10.994,10.994,0,0,0-2.855-.724C58.275,76.248,60.446,75.716,60.446,75.716Zm-.849.856a7.181,7.181,0,0,0-2.391-1.07C57.28,76.546,59.6,76.571,59.6,76.571Zm-.557.882a1.05,1.05,0,0,0-.743-.663,5.083,5.083,0,0,1-1.5-.742C56.87,77.243,59.039,77.454,59.039,77.454Zm-.864.56c-.1-.572-1.869-1.288-1.869-1.288C56.331,77.759,58.175,78.014,58.175,78.014Zm-.92.5c0-.485-.709-.9-.709-.9a2.116,2.116,0,0,1-.871-.572C55.7,78.188,57.255,78.512,57.255,78.512Zm-.983.224c-.012-.211-1.294-1.368-1.294-1.368C55,78.524,56.273,78.735,56.273,78.735Zm-.958.274-.908-1.518A1.175,1.175,0,0,0,55.315,79.009Zm-1.008.2c.1-.423-.572-1.567-.572-1.567C53.362,78.909,54.307,79.208,54.307,79.208Zm-.846.261a8.41,8.41,0,0,0-.361-1.741C52.417,78.648,53.461,79.469,53.461,79.469Zm-4.335-2.827a2.48,2.48,0,0,0-1.442-2.369,3.238,3.238,0,0,1-1.759-1.923c-.352-1.337-.609-2.143-1.5-2.134a13.548,13.548,0,0,1-2.286-.188.977.977,0,0,0,.7.668,4.078,4.078,0,0,0-1.008.281,6.478,6.478,0,0,0,1.137.481,5.057,5.057,0,0,0-.727.422,4.368,4.368,0,0,0,1.348.246,3.016,3.016,0,0,0-.947.578,4.192,4.192,0,0,0,1.318.124,4.687,4.687,0,0,0-.957.67,2.37,2.37,0,0,0,.878.108,2.451,2.451,0,0,0-.226.226,2.628,2.628,0,0,0-.218.311,3.656,3.656,0,0,0,.466.042,4.158,4.158,0,0,0,.517-.018,1.387,1.387,0,0,0-.608.479,5.526,5.526,0,0,0,.844.094,1.45,1.45,0,0,0-.488.519,2.509,2.509,0,0,0,.332.044,2.271,2.271,0,0,0,.389,0,1.851,1.851,0,0,0-.137.221c-.081.148-.142.282-.142.282l.563-.023-.235.68.668-.176a1.683,1.683,0,0,0-.152.7l.7-.4v.774L46.7,76.9s.141.727.282.774c0,0,.246-.246.258-.375l.258.563a1.626,1.626,0,0,0,.363-.7s.235.621.4.68l.258-.493.328.293a2.017,2.017,0,0,1-.2-1.032s.059-.786-.047-.856A7.746,7.746,0,0,0,49.127,76.643ZM42.21,69.785s-.34-.218-.81-.456a27.936,27.936,0,0,1-4.059-2.41,3.556,3.556,0,0,0,.464.929,4.79,4.79,0,0,0,1.353,1.134,5.3,5.3,0,0,0,1.8.742A4.509,4.509,0,0,0,42.21,69.785Zm-.027.741s-.847-.116-4.6-1.981a3.83,3.83,0,0,0,2.19,1.844C41.536,71.123,42.183,70.526,42.183,70.526Zm.236,1.008a19.149,19.149,0,0,1-4.806-1.9A4.586,4.586,0,0,0,42.419,71.534Zm.361.883-4.5-1.144A4.894,4.894,0,0,0,42.78,72.417Zm.361.721a11.6,11.6,0,0,1-1.729-.286,13.071,13.071,0,0,0-2.463-.217S41.474,74.171,43.141,73.138Zm.323.722a27.618,27.618,0,0,0-3.773-.012S42.021,74.842,43.464,73.86Zm.286.547a10.044,10.044,0,0,0-3.042.36S43.153,75.5,43.75,74.407Zm.3.584a11.053,11.053,0,0,0-2.854.731S43.365,76.248,44.049,74.991Zm.385.51a6.657,6.657,0,0,0-2.337,1.07S44.36,76.546,44.434,75.5Zm.41.547a1.868,1.868,0,0,1-.262.178,8.642,8.642,0,0,1-1.273.54,1.259,1.259,0,0,0-.69.716S44.77,77.243,44.845,76.049Zm.463.7s-1.744.689-1.843,1.261C43.464,78.014,45.283,77.785,45.308,76.753Zm.657.291a2.116,2.116,0,0,1-.871.572s-.709.411-.709.9C44.385,78.512,45.94,78.188,45.964,77.044Zm.7.324s-1.281,1.157-1.293,1.368C45.367,78.735,46.636,78.524,46.661,77.367Zm.572.124-.908,1.518A1.175,1.175,0,0,0,47.233,77.492Zm.672.149s-.672,1.144-.572,1.567C47.333,79.208,48.278,78.909,47.9,77.641Zm.634.087a8.4,8.4,0,0,0-.361,1.741S49.223,78.648,48.539,77.728Zm4.074,1.446c-.27-.021-.394-.346-.394-.346l.018.825c-.4-.035-.458-.106-.458-.106a1.455,1.455,0,0,0,.571,1.135,3.561,3.561,0,0,0-.062-.429.865.865,0,0,0,.768.29.9.9,0,0,1-.3-.491.8.8,0,0,0,.443.048c-.18-.138-.171-.268-.171-.268.636.27.807-.022.807-.022-1.4-.159-1.148-2.1-1.148-2.1A1.93,1.93,0,0,0,52.613,79.174ZM49,77.715s.256,1.936-1.148,2.1c0,0,.194.263.83-.007a.465.465,0,0,1-.193.3.8.8,0,0,0,.443-.048.906.906,0,0,1-.3.491.864.864,0,0,0,.767-.29,3.553,3.553,0,0,0-.062.429,1.242,1.242,0,0,0,.551-1.059,1.425,1.425,0,0,1-.433.049l.014-.844s-.125.325-.394.346A1.93,1.93,0,0,0,49,77.715Zm.6,4.229.041.5.239-.394-.031.715.27-.374.156.425.176-.581.228.508.145-.788.166.747.218-.456.166.55.171-.394.233.362-.01-.715.27.4L52.1,82l.173.193c-.04-.274-.049-.313-.084-.5a10.565,10.565,0,0,0-.41-1.4c-.052.176-.2.529-.2.529l-.114-.2c-.073.176-.269.83-.269.83a3.406,3.406,0,0,0-.374-1.068,6.966,6.966,0,0,0-.353,1.089,2.353,2.353,0,0,0-.239-.84l-.2.207a.729.729,0,0,0-.176-.519,13.808,13.808,0,0,0-.477,1.846Zm3.966,2s-.716-1.028-.882-1.294a5.84,5.84,0,0,1-.326-.631A2.9,2.9,0,0,0,53.56,83.948Zm-.162.544-1.241-2.207A3.634,3.634,0,0,0,53.4,84.492Zm-.463.552A7.391,7.391,0,0,0,51.9,82.514,4.913,4.913,0,0,0,52.934,85.045Zm-1.349-2.376a5.516,5.516,0,0,0,.8,2.925A8.583,8.583,0,0,0,51.586,82.669Zm.312,3.6a17.279,17.279,0,0,0-.685-3.553A6.14,6.14,0,0,0,51.9,86.274Zm-1.112.347a7.762,7.762,0,0,0,.043-3.879A6.755,6.755,0,0,0,50.785,86.621Zm-.984-.373a7.14,7.14,0,0,0,.674-3.516A11.812,11.812,0,0,0,49.8,86.248Zm-.591-.664c.83-.82.882-2.925.882-2.925A8.922,8.922,0,0,0,49.21,85.584Zm-.508-.571a3.708,3.708,0,0,0,1.058-2.52A9.105,9.105,0,0,0,48.7,85.013Zm.857-2.83c-.249.342-1.32,2.335-1.32,2.335A4.635,4.635,0,0,0,49.559,82.184Zm-.246-.177s-.37.614-.549.906-.723.962-.723.962C48.85,83.663,49.313,82.007,49.313,82.007Zm4.579-7.819a1.732,1.732,0,0,0-1.342.3c-.125.207-.539.152-.539.152.055.138.3.193.3.193-.29.152-.857-.083-.857-.083l-.069.54-.525-.359-.526.359-.069-.54s-.567.235-.857.083c0,0,.249-.055.3-.193,0,0-.415.055-.539-.152a2.057,2.057,0,0,0-1.342-.3,4.012,4.012,0,0,1,1,.56,3.015,3.015,0,0,0,.947.484.786.786,0,0,1-.747-.18,3.519,3.519,0,0,1,.325,2.054.98.98,0,0,1-.429-.567,1.645,1.645,0,0,0,.256,1.175,1.171,1.171,0,0,1,.125,1.148.686.686,0,0,0,.325-.429l-.021,1.072s.346-.007.429-.249a1.445,1.445,0,0,1-.028.7l.1-.028.014.491s.256.028.256-.394l.18.823a1.422,1.422,0,0,0,.214-.788h.18a1.422,1.422,0,0,0,.214.788l.18-.823c0,.422.256.394.256.394l.014-.491.1.028a1.447,1.447,0,0,1-.028-.7c.083.242.429.249.429.249l-.021-1.072a.685.685,0,0,0,.325.429,1.172,1.172,0,0,1,.125-1.148,1.644,1.644,0,0,0,.255-1.175.979.979,0,0,1-.429.567,3.519,3.519,0,0,1,.325-2.054.786.786,0,0,1-.747.18,3.017,3.017,0,0,0,.947-.484A4.009,4.009,0,0,1,53.892,74.188Z" transform="translate(-4.529 -8.094)" fill="#e50028"/>
      <path id="Path_4408" data-name="Path 4408" d="M196.139,131.7l-.3.309a1.019,1.019,0,0,1-.119.1.573.573,0,0,0,.054-.151l.071-.348-.3.187a1.487,1.487,0,0,1-.179.091l.288-.3-.334.071a.708.708,0,0,0,.3-.489,1.61,1.61,0,0,0-.068-.549l.727-.009-.7-.752.58-.441c.04,0,.08,0,.121.007h.007c.007,0,.608.027.8.328a.158.158,0,0,0-.073.25.3.3,0,0,0,.029.031c.039.037.152.145.171.5l-.1.338a.819.819,0,0,0,.382.822l-.174-.01a1.013,1.013,0,0,0,.131.237.817.817,0,0,1-.363-.2,1.878,1.878,0,0,1-.161-.232,2.456,2.456,0,0,0,.015.332.854.854,0,0,0,.115.359c-.067-.026-.084.009-.208-.134a1.383,1.383,0,0,1-.193-.292s-.022.158-.033.318a1.922,1.922,0,0,0,0,.294.557.557,0,0,1-.107-.122l-.081-.257-.178.2c-.059.067-.123.132-.183.189Z" transform="translate(-150.06 -65.769)" fill="url(#linear-gradient-9)"/>
      <path id="Path_4409" data-name="Path 4409" d="M183.292,135.085A1.908,1.908,0,0,0,182.8,135a.4.4,0,0,0-.322.117.2.2,0,0,1,.038-.2.317.317,0,0,1,.2-.055,1.253,1.253,0,0,1,.686.262Z" transform="translate(-138.217 -70.782)" fill="#ffd400"/>
      <path id="Path_4410" data-name="Path 4410" d="M232.957,83.131l-.057.051a2.662,2.662,0,0,0,.036-.55v-.006c-.016-.217-.106-.339-.07-.469l-.179-.119c-.055.1-.13-.07-.176.012a2.166,2.166,0,0,1,1.294-1.605,3.361,3.361,0,0,0,1.847-2.025c.365-1.389.6-2,1.357-2.02a14.118,14.118,0,0,0,2.029-.158,1.015,1.015,0,0,1-.494.363,4.239,4.239,0,0,1-.584.192l.6.082a5.992,5.992,0,0,1,.662.146,3.631,3.631,0,0,1-.814.32,3.868,3.868,0,0,1-.5.082,3.727,3.727,0,0,1,.464.166,4.713,4.713,0,0,1,.461.268,4.7,4.7,0,0,1-1,.176l-.484.033.471.212a4.77,4.77,0,0,1,.6.371,4.715,4.715,0,0,1-.7.067c-.232.006-.63.047-.716.04l.418.239a7.657,7.657,0,0,1,.681.45,3.1,3.1,0,0,1-.475.059,2.341,2.341,0,0,1-.458-.038s.1.09.2.186a1.834,1.834,0,0,1,.291.366,2.028,2.028,0,0,1-.424.012c-.251-.024-.683-.06-.683-.06s.189.137.387.265a1.623,1.623,0,0,1,.382.332,6.528,6.528,0,0,1-.948.093s.179.106.312.206a2.183,2.183,0,0,1,.3.294s-.017.018-.21.025-.5-.013-.5-.013l.273.5-.517-.022.214.621-.7-.183.126.289a2.258,2.258,0,0,1,.122.37l-.634-.236-.051.549-.486-.423-.05.26a3.735,3.735,0,0,1-.148.553.511.511,0,0,1-.089-.142l-.052-.572-.239.524-.151.328a1.078,1.078,0,0,1-.18-.422l-.3-.038a3.2,3.2,0,0,1-.221.471Zm9.163-8.231,0,0,.005,0a4.375,4.375,0,0,0,1.671-1.542,31.393,31.393,0,0,1-4.027,2.307h.063A4.671,4.671,0,0,0,242.121,74.9Zm-.519,1.378a4.439,4.439,0,0,0,1.894-1.363,34.962,34.962,0,0,1-3.815,1.67,1.781,1.781,0,0,0,.424.047A4.011,4.011,0,0,0,241.6,76.277Zm1.605-.086a18.985,18.985,0,0,1-3.388,1.315c.071,0,.142,0,.212,0A4.508,4.508,0,0,0,243.207,76.191Zm-.708,1.435-3.108.79c.155.015.31.023.463.023A4.783,4.783,0,0,0,242.5,77.626Zm-.627,1.194a10.673,10.673,0,0,0-1.816.21,11.462,11.462,0,0,1-1.2.228,2.712,2.712,0,0,0,.8.111A5.741,5.741,0,0,0,241.872,78.819Zm-.843,1.139-.3,0c-.711,0-1.62.026-2.191.05a3.111,3.111,0,0,0,1.037.16A5.8,5.8,0,0,0,241.029,79.958Zm-.838.821a21.767,21.767,0,0,0-2.174-.179,1.839,1.839,0,0,0,1.136.285A5.863,5.863,0,0,0,240.191,80.779Zm-.387.9a16.455,16.455,0,0,0-2.075-.45,2.235,2.235,0,0,0,1.546.48A4.876,4.876,0,0,0,239.8,81.679Zm-1.7.381c-.327-.121-.649-.227-.869-.3.27.424,1.136.611,1.763.678A7.582,7.582,0,0,0,238.1,82.06Zm.128.942a11.44,11.44,0,0,1-1.363-.55,2.862,2.862,0,0,0,1.759.872A1.08,1.08,0,0,0,238.227,83Zm-1.91-.055a2.141,2.141,0,0,0,1.326.858A5.761,5.761,0,0,0,236.317,82.947Zm-.048.836a2.765,2.765,0,0,1-.546-.286,1.919,1.919,0,0,0,1.106.822A1.67,1.67,0,0,0,236.269,83.783Zm-1.26.043a1.271,1.271,0,0,0,.647.643C235.487,84.288,235.253,84.057,235.009,83.826Zm-.7.175a.917.917,0,0,0,.142.438.97.97,0,0,0,.288.281Zm-.711.12a.934.934,0,0,0,.338.853A4.209,4.209,0,0,0,233.6,84.12Zm-.747.049a1.031,1.031,0,0,0,.215.911C233.016,84.823,232.933,84.483,232.849,84.17Z" transform="translate(-184.319 -14.123)" fill="url(#linear-gradient-10)"/>
      <path id="Path_4411" data-name="Path 4411" d="M51.76,83.608a3.208,3.208,0,0,1-.221-.471l-.3.038a1.075,1.075,0,0,1-.18.422l-.39-.85-.052.572a.511.511,0,0,1-.089.14,3.791,3.791,0,0,1-.148-.554l-.051-.26-.486.423-.011-.555-.675.243a2.235,2.235,0,0,1,.122-.37l.126-.289-.7.183.214-.621-.517.022s.1-.187.193-.326.133-.186.133-.186-.27.026-.411.026a2.043,2.043,0,0,1-.35-.027,2.66,2.66,0,0,1,.3-.292c.124-.1.371-.248.371-.248s-.283.009-.513,0a3.008,3.008,0,0,1-.493-.052,2.927,2.927,0,0,1,.343-.243,4.575,4.575,0,0,1,.57-.283s-.566.015-.884.013a1.66,1.66,0,0,1-.407-.031,2.074,2.074,0,0,1,.2-.27,3.015,3.015,0,0,1,.3-.277,3.234,3.234,0,0,1-.9-.032,8.221,8.221,0,0,1,1.1-.708s-.818-.009-1.45-.089a8.055,8.055,0,0,1,1.114-.587,9.148,9.148,0,0,1-1.5-.2c.146-.084.3-.176.482-.262s.363-.155.363-.155a3.224,3.224,0,0,1-.423-.1,5.807,5.807,0,0,1-.814-.32,7.642,7.642,0,0,1,1.193-.257,3.89,3.89,0,0,1-.579-.194.952.952,0,0,1-.426-.332,8.376,8.376,0,0,0,2.029.158c.753-.017.991.631,1.357,2.02a3.36,3.36,0,0,0,1.848,2.025,2.176,2.176,0,0,1,1.286,1.591q-.066-.118-.144-.263l-.282.113a3.412,3.412,0,0,1,.007.74v.006a2.651,2.651,0,0,0,.036.55l-.057-.051ZM45.275,75.7a32.511,32.511,0,0,1-4.11-2.343A4.375,4.375,0,0,0,42.836,74.9l0,0,0,0a4.551,4.551,0,0,0,2.287.8Zm-.412.936a1.781,1.781,0,0,0,.424-.047,34.1,34.1,0,0,1-3.8-1.659,4.329,4.329,0,0,0,1.878,1.352,4.012,4.012,0,0,0,1.5.354Zm.074.879q.1,0,.211,0a19.01,19.01,0,0,1-3.388-1.315,4.51,4.51,0,0,0,3.176,1.319Zm.176.928q.23,0,.463-.023l-3.111-.791a4.777,4.777,0,0,0,2.647.813Zm.2.93a2.713,2.713,0,0,0,.8-.111,11.435,11.435,0,0,1-1.2-.228,10.681,10.681,0,0,0-1.816-.21,5.736,5.736,0,0,0,2.217.549Zm.079.8a3.11,3.11,0,0,0,1.037-.16c-.571-.024-1.48-.05-2.191-.05l-.3,0a5.8,5.8,0,0,0,1.455.208Zm.422.719a1.839,1.839,0,0,0,1.136-.285,7.294,7.294,0,0,0-2.175.179,5.868,5.868,0,0,0,1.038.106Zm-.121.825a2.236,2.236,0,0,0,1.546-.48,16.426,16.426,0,0,0-2.075.45,4.861,4.861,0,0,0,.529.03Zm2.044.054c-.219.07-.541.176-.868.3a7.6,7.6,0,0,0-.9.382C46.6,82.377,47.466,82.19,47.736,81.766Zm.366.688a5.086,5.086,0,0,1-1.208.477,1.3,1.3,0,0,0-.55.4A2.532,2.532,0,0,0,48.1,82.454Zm.547.5a5.73,5.73,0,0,0-1.326.858A2.142,2.142,0,0,0,48.649,82.95Zm.594.55a2.765,2.765,0,0,1-.547.286,1.659,1.659,0,0,0-.561.537A1.909,1.909,0,0,0,49.244,83.5Zm.711.331c-.241.227-.471.455-.639.634A1.286,1.286,0,0,0,49.955,83.831Zm.276.891a.967.967,0,0,0,.287-.281A.915.915,0,0,0,50.66,84Zm1.14-.6a4.2,4.2,0,0,0-.338.853A.933.933,0,0,0,51.371,84.123Zm.747.048c-.085.315-.168.656-.216.915A1.027,1.027,0,0,0,52.118,84.172Z" transform="translate(-8.051 -14.126)" fill="url(#linear-gradient-11)"/>
      <path id="Path_4412" data-name="Path 4412" d="M223.575,225.864a1.045,1.045,0,0,1-.314-.208l-.347-.325.068.344a1.423,1.423,0,0,1-.156-.38.926.926,0,0,0,.272.044l.159,0-.01-.573a.736.736,0,0,0,.223.072l.216.016a1.51,1.51,0,0,0,.089.128,1.289,1.289,0,0,0,.212.215l-.058-.024-.234-.1.022.253a.441.441,0,0,0,.031.119.527.527,0,0,1-.066-.024l-.238-.1.025.259A.739.739,0,0,0,223.575,225.864Z" transform="translate(-175.398 -153.608)" fill="url(#linear-gradient-5)"/>
      <path id="Path_4413" data-name="Path 4413" d="M180.12,225.864a.735.735,0,0,0,.107-.283l.025-.259-.239.1a.54.54,0,0,1-.066.024.451.451,0,0,0,.031-.119l.022-.253-.234.1-.058.024a1.284,1.284,0,0,0,.212-.215,1.506,1.506,0,0,0,.089-.128l.216-.016a.5.5,0,0,0,.223-.072l-.009.573.159,0a.929.929,0,0,0,.272-.044,1.4,1.4,0,0,1-.156.383l.07-.347-.348.325A1.04,1.04,0,0,1,180.12,225.864Z" transform="translate(-135.677 -153.608)" fill="url(#linear-gradient-5)"/>
      <path id="Path_4414" data-name="Path 4414" d="M188.149,244.647l-.2.413-.07-.314-.3.006-.056.306-.194-.433-.162.534-.1-.207-.15.15,0-.305h-.246l-.032-.389-.065.072c.063-.284.145-.629.229-.911a.841.841,0,0,1,.006.1v.383l.3-.317a1.732,1.732,0,0,1,.134.567l.3.037c.052-.209.137-.517.216-.75a2.161,2.161,0,0,1,.209.692l.3.044s.083-.273.158-.508l.1.176.118-.287c0-.006.027-.065.059-.146a8.138,8.138,0,0,1,.287.967l-.064-.083-.067.422-.341-.511.017.7-.124-.124-.1.265Zm.5,1.666a2.532,2.532,0,0,0,.334,1.081A5.531,5.531,0,0,0,188.644,246.314Zm-.434.119a6.685,6.685,0,0,0,.417,1.968A15.321,15.321,0,0,0,188.21,246.433Zm-.494-.1a7.163,7.163,0,0,0-.013,2.574A7.911,7.911,0,0,0,187.716,246.329Zm-.5.25a7.227,7.227,0,0,0-.289,1.727A6.541,6.541,0,0,0,187.217,246.58Zm-.45-.2a9.441,9.441,0,0,0-.375,1.366A5.262,5.262,0,0,0,186.767,246.375Zm-.347-.292a9.345,9.345,0,0,0-.452,1.11A3.538,3.538,0,0,0,186.42,246.083Zm3.133,1.128a9.859,9.859,0,0,0-.467-1.128A3.687,3.687,0,0,0,189.553,247.211Z" transform="translate(-141.444 -170.919)" fill="url(#linear-gradient-14)"/>
      <path id="Path_4415" data-name="Path 4415" d="M182.917,169.1a1.323,1.323,0,0,1-.021-.256l0-.155h-.49l0,.155a1.336,1.336,0,0,1-.021.256l-.071-.325-.263.029-.008-.294-.052.015a1.293,1.293,0,0,0-.019-.533l-.143-.429-.146.428a.2.2,0,0,1-.128.112l.017-.882-.236-.035a1.692,1.692,0,0,0-.233-.762,2.127,2.127,0,0,1-.217-.539,1.332,1.332,0,0,0,.176.136l.221.135.012-.258a5.037,5.037,0,0,0-.172-1.738.81.81,0,0,0,.622-.051,1.59,1.59,0,0,0,.216-.1l.044.342.646-.441.645.441.044-.342.2.118a1.007,1.007,0,0,0,.374.077.916.916,0,0,0,.26-.039,5.058,5.058,0,0,0-.172,1.738l.012.258.221-.135a1.359,1.359,0,0,0,.176-.136,2.133,2.133,0,0,1-.217.539,1.689,1.689,0,0,0-.233.762l-.236.035.017.883a.2.2,0,0,1-.128-.112l-.147-.428-.143.429a1.286,1.286,0,0,0-.019.533l-.052-.015-.008.294-.264-.029Zm-1.3-5.23c-.033-.01-.078-.026-.13-.045a1.8,1.8,0,0,0,.448-.081l.03.234Zm1.762-.125a1.8,1.8,0,0,0,.448.081c-.052.019-.1.034-.13.045l-.348.108Zm-2.5-.206a.982.982,0,0,1-.15-.117,1.823,1.823,0,0,0-.322-.237,1.2,1.2,0,0,1,.432.172.42.42,0,0,0,.168.153Zm3.426-.03a.417.417,0,0,0,.167-.152,1.2,1.2,0,0,1,.432-.172,1.825,1.825,0,0,0-.322.237.952.952,0,0,1-.148.115Z" transform="translate(-136.319 -96.876)" fill="url(#linear-gradient-15)"/>
      <path id="Path_4416" data-name="Path 4416" d="M218.245,238.956" transform="translate(-171.177 -166.677)" fill="#2d1a10"/>
      <g id="Group_9603" data-name="Group 9603" transform="translate(41.126 71.311)">
        <path id="Path_4417" data-name="Path 4417" d="M151.487,226.668a.716.716,0,0,0-.3.069,10.463,10.463,0,0,1-2.414.7l-.064.011-.058,0c-.265.027-.528.045-.8.054s-.534-.016-.8-.038l-.056,0-.064-.01a10.468,10.468,0,0,1-2.427-.651.716.716,0,0,0-.948.364.759.759,0,0,0-.067.41c-.149.115-.247.187-.424.311l-.22.155.239.123c.339.173.675.327,1.027.47a.828.828,0,0,0,.313.06.766.766,0,0,0,.1-.007.786.786,0,0,0,.337.2h0a12.78,12.78,0,0,0,2.321.4h0l.164.007c.163.006.334.009.508.007h.025c.174,0,.345-.008.508-.017l.159-.009h.008a12.808,12.808,0,0,0,2.313-.447h0a.784.784,0,0,0,.333-.211.793.793,0,0,0,.1.005.824.824,0,0,0,.309-.065c.352-.151.685-.311,1.02-.491l.237-.127-.223-.15c-.178-.12-.277-.19-.429-.3a.757.757,0,0,0-.075-.408.719.719,0,0,0-.655-.413Z" transform="translate(-142.845 -226.668)" fill="#1a1818"/>
        <path id="Path_4418" data-name="Path 4418" d="M155.148,228.724a.553.553,0,0,1,.507.32.563.563,0,0,1,.043.408c.2.151.305.225.518.369-.329.177-.662.337-1,.484a.678.678,0,0,1-.249.053.547.547,0,0,1-.158-.021.62.62,0,0,1-.319.234,12.683,12.683,0,0,1-2.284.442l-.047,0a.432.432,0,0,0-.113.009c-.166.01-.333.015-.5.017h-.026q-.25,0-.5-.007a.421.421,0,0,0-.114-.007h-.047a12.715,12.715,0,0,1-2.292-.4.617.617,0,0,1-.324-.228.553.553,0,0,1-.158.024.675.675,0,0,1-.251-.048c-.346-.14-.681-.294-1.014-.464.209-.148.312-.223.511-.379a.56.56,0,0,1,.035-.408.552.552,0,0,1,.736-.281,11.34,11.34,0,0,0,2.6.676c.273.023.544.035.817.039s.543-.027.816-.055a12.291,12.291,0,0,0,2.584-.727.552.552,0,0,1,.234-.054" transform="translate(-146.504 -228.562)" fill="#9d101c"/>
        <g id="Group_9602" data-name="Group 9602" transform="translate(0.991 0.53)">
          <g id="Group_9601" data-name="Group 9601">
            <path id="Path_4419" data-name="Path 4419" d="M160.54,235.652l0-.053v-.051l-.006-.005-.043-.036-.143,0h-.182v.147h-.054l-.161,0-.054,0h0l-.049,0a8.008,8.008,0,0,1-.81-.072l-.053-.007.006-.053.005-.044-.013.009-.091.061-.017.012-.021,0c-.291-.044-.433-.071-.721-.136l-.052-.012.012-.052.072-.324-.01.006c-.079.044-.118.066-.2.109l-.019.01-.02-.005-.093-.025-.04.15-.014.053-.053-.015-.158-.045-.051-.015.015-.052.043-.15-.094-.029-.02-.006-.011-.017c-.047-.078-.07-.117-.116-.2l-.006-.012-.1.31-.017.052-.051-.018-.156-.055-.051-.018.018-.051.02-.058.033-.093c-.133-.048-.218-.082-.352-.138h0l-.061.145-.021.05-.05-.021-.151-.065-.049-.022.022-.049.049-.112.177-.4.022-.049.049.022.141.06.05.021-.021.05-.057.137,0,.009c.128.053.21.085.34.132l.009-.024.045-.126.018-.051.051.018.144.05.051.017h0l.041.013.146.046.052.016-.016.052-.022.071-.012.04.031.052c.1.03.158.047.261.073l.053-.028.028-.113.013-.053.052.013.147.036.041.01h0l.053.012c.264.059.4.083.669.122l.021,0,.014.017.066.082,0,.006,0-.038.007-.053.053.006a7.418,7.418,0,0,0,.752.061l.054,0h.042c.145,0,.244.005.341,0s.193,0,.336-.011h.022l.016.014.08.07.011.01.01-.011.07-.079.015-.016.022,0c.239-.018.357-.031.6-.065l.022,0,.018.013.006,0,.08.058.006,0-.007-.04-.009-.053.053-.009c.269-.044.4-.07.667-.134l.022-.005.019.011.092.055.013.008.008-.013.054-.092.011-.019.022-.006c.235-.064.349-.1.58-.179l.021-.007.02.01.1.046.007,0-.015-.041-.019-.051.051-.019c.26-.1.385-.147.637-.262l.02-.009.021.007.1.038.021.008.009.021.2.423.01.021-.008.022c-.017.043-.026.064-.043.106l-.008.02-.02.009c-.27.121-.406.175-.689.278l-.047.017-.051.018-.155.052-.051.017-.017-.051-.018-.053-.014-.041c-.136.045-.222.071-.361.109l.026.094.015.052-.053.014-.157.041-.052.014-.014-.052-.012-.047-.009.013-.061.094-.012.018-.021,0c-.282.066-.43.095-.72.14l-.053.008h0l-.049.007-.161.022-.053.007-.007-.053-.01-.074,0-.021c-.141.018-.23.027-.371.038l0,.02.006.074,0,.055-.054,0-.161.011-.049,0h0l-.055,0-.162.006-.054,0Zm-.715-.263.026,0,.046,0,0-.1,0-.087-.045,0h-.024v.02l0,.041,0,.105v.021Zm-1.436-.179c.138.028.225.044.363.067l.027-.181c-.134-.021-.223-.037-.354-.064l-.036.178Zm1.774.04h.183c.055,0,.11,0,.176,0v-.04l-.19,0h-.168v.039Zm.872-.074,0,.02,0,.021c.136-.011.223-.02.358-.037l-.006-.042c-.134.017-.22.027-.356.038Zm1.721-.317.006.021.006.021c.133-.037.218-.063.348-.106l-.015-.043c-.129.043-.213.068-.346.106Zm.836-.282.027.071.045.117c.132-.051.216-.085.348-.143l-.014-.032-.068-.154c-.129.056-.21.09-.338.14Z" transform="translate(-156.25 -234.075)" fill="#fff"/>
            <path id="Path_4420" data-name="Path 4420" d="M155.79,233.575l.142.06-.082.2c.176.073.265.108.443.172l.072-.2.145.05-.182.539c-.062-.021-.093-.032-.155-.055l.072-.2c-.181-.066-.271-.1-.449-.176l-.082.2-.15-.065.227-.515m7.346-.068.1.038.2.423-.043.1c-.271.122-.409.177-.686.277l-.212-.579c.259-.1.388-.148.641-.264m-.331.643c.181-.069.272-.106.45-.185l-.126-.285c-.173.077-.26.113-.435.181l.111.289m-6.2-.266.146.046-.041.133.055.091c.121.036.181.053.3.085l.093-.05.034-.136.148.036-.048.207c-.078.044-.118.066-.2.109l-.145-.039-.054.2-.157-.045.058-.2-.145-.044c-.047-.078-.07-.116-.115-.194l.065-.2m5.729-.054.1.046.18.508-.155.052-.048-.145c-.184.061-.276.089-.462.14l.041.146-.157.041-.136-.516.055-.093c.235-.064.352-.1.584-.18m-.429.454c.183-.051.274-.078.454-.138l-.049-.146c-.178.059-.267.087-.447.137l.042.147m-4.467-.174c.268.059.4.084.673.123l.066.082-.057.433-.09.061c-.288-.044-.432-.071-.717-.136l.124-.563m.534.543.043-.288c-.183-.028-.275-.045-.458-.082-.023.113-.035.17-.057.284.188.039.282.057.472.087m3.535-.582.093.055c.045.177.067.266.112.443l-.061.093c-.285.067-.428.095-.716.139l-.1-.595c.269-.044.4-.071.67-.136m-.481.334c.184-.033.276-.052.459-.094-.007-.03-.01-.045-.017-.074-.181.042-.273.06-.455.093.005.03.008.045.014.075m.041.223c.189-.033.283-.052.471-.095l-.018-.075c-.186.043-.279.061-.467.094l.014.076m-2.785-.373a7.529,7.529,0,0,0,.756.062l-.005.147c-.247-.01-.37-.019-.616-.046,0,.029,0,.044-.008.073.217.024.325.033.542.043,0,.059,0,.088-.006.146-.221-.011-.331-.02-.551-.045l-.007.074c.254.028.381.039.636.05,0,.058,0,.088-.005.146a7.958,7.958,0,0,1-.8-.071c.028-.231.042-.347.07-.579m2.384-.022.087.063.08.521-.161.022-.02-.148c-.19.024-.285.034-.476.049.005.059.008.089.013.148l-.16.011c-.015-.208-.022-.312-.036-.521l.071-.079c.242-.019.362-.032.6-.066m-.5.358c.188-.015.281-.025.469-.049-.008-.06-.013-.089-.02-.149-.184.025-.276.035-.461.05.005.06.008.089.013.149m-1.029-.27c.137,0,.24.005.343,0s.2,0,.338-.011l.081.07c.007.119.011.178.017.3l-.079,0,.084.072c0,.059.006.089.009.148l-.161.007c0-.03,0-.045,0-.075l-.082-.071-.163,0c-.073,0-.14,0-.235,0,0,.059,0,.088,0,.147l-.16,0c.006-.236.009-.354.015-.589m.369.152h-.22c0,.059,0,.089,0,.148.1,0,.166,0,.238,0s.14,0,.233-.006c0-.059,0-.089-.006-.149-.1,0-.169.006-.243.006m-3.767-1.039-.043.1-.138.315-.088.2-.043.1.1.044.152.066.1.042.042-.1.04-.1c.091.037.163.066.254.1l0,.009-.032.091-.036.1.1.037.156.055.1.035.035-.1.067-.2.063.105.021.035.039.012.044.014-.028.1-.029.1.1.03.158.045.105.029L157,234.6l.014-.053.012-.045.042.011.041.01.037-.02.1-.057-.045.207-.023.1.1.024c.286.065.434.094.725.138l.041.006.037.006.106.014a8.013,8.013,0,0,0,.811.072h0l.075,0,.037,0h0l.157,0,.109,0v-.147h.13l.123,0,.015.013v.028l0,.107.107,0,.16-.007h0l.033,0,.078,0h0l.157-.01.109-.008-.009-.109,0-.04c.094-.008.171-.016.266-.027l.006.042.015.106.106-.014.159-.022h0l.051-.008.06-.009h0c.287-.045.436-.073.719-.14l.042-.01.036-.008.1-.027.158-.041.106-.028-.03-.105-.012-.042c.093-.026.167-.049.26-.079l.015.043.034.1.1-.034.154-.052h0l.054-.02.05-.017h0c.278-.1.421-.157.69-.278l.039-.018.016-.04c.018-.042.026-.064.043-.106l.017-.043-.02-.042-.043-.093-.154-.331-.019-.041-.042-.015-.1-.037-.042-.015-.04.019c-.25.114-.374.165-.634.261l-.1.037-.019.006-.042.014c-.23.08-.343.115-.577.178l-.043.011-.022.039-.035.059-.058-.035-.038-.023-.043.011c-.265.064-.4.09-.662.134l-.107.017-.018,0-.044.006c-.239.034-.356.047-.6.065l-.044,0-.029.033-.045.05-.052-.045-.033-.029-.043,0c-.142.007-.239.01-.334.011s-.194,0-.339,0H159.1l-.058,0a7.356,7.356,0,0,1-.747-.061l-.108-.013-.019,0-.042-.006c-.271-.039-.4-.063-.665-.121l-.106-.023h0l-.134-.033-.1-.026-.026.1-.023.09-.013.007c-.081-.022-.136-.037-.219-.061l-.008-.014v0l.026-.084.032-.1-.1-.031-.133-.042h0l-.1-.035-.144-.05-.1-.036-.037.1-.035.1v0c-.085-.032-.152-.057-.236-.092l.04-.1.042-.1-.1-.042-.14-.059-.1-.043Zm7.1.49c.087-.034.156-.063.241-.1l.022.049.017.038c-.088.038-.157.066-.245.1l-.034-.088Zm-5.209.56.014-.072c.089.018.161.031.251.045l-.011.074c-.092-.015-.164-.028-.254-.047Z" transform="translate(-155.421 -233.39)" fill="#1a1818"/>
          </g>
        </g>
      </g>
      <path id="Path_4421" data-name="Path 4421" d="M102.584,183.5a.766.766,0,0,1-.321-.066c-.349-.154-.529-.229-.866-.363h0l-.468-.176c-.1-.037-.183-.07-.253-.1s-.21-.08-.21-.08l-.5-.16c-.332-.107-.493-.156-.82-.246l-.174-.048-.036-.009c-.5-.126-.992-.234-1.489-.329l-.384-.074h-.018a.691.691,0,0,1-.1-.008c-.345-.05-.512-.07-.854-.1a.73.73,0,0,1-.08-.012l-.391-.024c-.231-.014-.367-.021-.536-.025l-.358-.008c-.113,0-.217.007-.284.005s-.28,0-.28,0l-.538.029c-.351.023-.522.039-.872.081l-.2.024-.238.034-.228.033-.007,0-.5.1c-.313.06-.467.093-.785.168l-.492.117a2,2,0,0,1-.2.067c-.166.046-.25.07-.427.123-.113.03-.255.067-.317.076a1.484,1.484,0,0,1-.214.016,1.214,1.214,0,0,1-.254-.026.88.88,0,0,1-.349.3c-.241.107-.483.211-.722.293-.143.049-.286.111-.427.157a.963.963,0,0,1-1.233-.273c-.123-.144-.173-.224-.284-.374l-.437-.593c-.137-.19-.234-.328-.391-.555a.665.665,0,0,1-.113-.431.8.8,0,0,1,.142-.393.851.851,0,0,1,.233-.25c.036-.024.074-.048.115-.072l.092-.049c.472-.2.942-.39,1.4-.572a1.462,1.462,0,0,1,.264-.075,1.019,1.019,0,0,1,.181-.016,1.217,1.217,0,0,1,.166.012,1.031,1.031,0,0,1,.255.067c.215-.076.368-.128.526-.18h0l.146-.048.147-.046.2-.06.443-.132c.192-.056.363-.1.625-.169l.561-.137.061-.015.671-.139c.25-.048.414-.078.593-.106l-.038-.309.579-.069c.6-.072,1.2-.123,1.788-.152h.037a1,1,0,0,1,.238.031,1.094,1.094,0,0,1,.269.1.97.97,0,0,1,.211.154H94.9c.368,0,.559.011.928.033l.579.035v.009c.2.018.615.046,1,.1.35.051.675.129.675.129.584.114,1.185.251,1.786.408l.561.146,0,.016c.434.133.873.277,1.309.428a1.009,1.009,0,0,1,.243.129,1.185,1.185,0,0,1,.2.182l.024.028.012,0a1.056,1.056,0,0,1,.181-.017c.025,0,.05,0,.074,0s.059.006.094.012h.01l.056.015.026.008.044.01.041.016c.388.154.783.321,1.173.5a1.293,1.293,0,0,1,.219.123.974.974,0,0,1,.241.247.774.774,0,0,1,.153.439,1.03,1.03,0,0,1-.024.236.436.436,0,0,1-.041.115c-.022.043-.051.092-.051.092-.1.146-.154.219-.258.364,0,0-.514.689-.669.891a.828.828,0,0,1-.109.111,1.217,1.217,0,0,1-.255.158,1.51,1.51,0,0,1-.225.081,1.244,1.244,0,0,1-.251.042Z" transform="translate(-48.37 -110.633)" fill="#840c16"/>
      <path id="Path_4422" data-name="Path 4422" d="M104.286,185.049a.626.626,0,0,1-.261-.053c-.369-.163-.992-.409-.992-.409l-.351-.132c-.1-.037-.179-.069-.247-.1a1.445,1.445,0,0,1-.224-.116.821.821,0,0,1-.094-.071l-.028.062-.372-.12c-.334-.108-.5-.156-.826-.248l-.174-.048-.039-.01c-.508-.127-1-.235-1.5-.331l-.51-.082c-.348-.051-.517-.071-.862-.1l-.475-.036c-.23-.014-.637-.023-.637-.023H96.4c-.112,0-.187,0-.252,0a1.327,1.327,0,0,1-.26-.033.845.845,0,0,1-.136-.045l.007.081-.443.029c-.354.023-.527.039-.88.081l-.2.024L94,183.4l-.171.025-.147-.1.03.118-.454.086c-.316.06-.471.093-.791.169l-.392.093s-.215.067-.305.092c-.167.046-.252.07-.43.124-.073.019-.237.062-.3.071a1.345,1.345,0,0,1-.193.015,1.009,1.009,0,0,1-.319-.049.808.808,0,0,1-.353.337,5.889,5.889,0,0,1-.7.284c-.145.05-.267.1-.435.161a.834.834,0,0,1-1.062-.227c-.116-.149-.171-.223-.283-.372l-.332-.442s-.3-.421-.492-.7a.522.522,0,0,1-.088-.339.658.658,0,0,1,.119-.324.722.722,0,0,1,.193-.21c.033-.022.074-.047.107-.067s1.015-.43,1.467-.61a1.309,1.309,0,0,1,.236-.067.9.9,0,0,1,.155-.014,1.1,1.1,0,0,1,.146.01.827.827,0,0,1,.268.08h0c.3-.106.486-.169.72-.244l.146-.048.2-.06.314-.094c.255-.075.438-.125.748-.2l.421-.1.148-.035.142.071.191.1-.046-.235.43-.083c.3-.058.483-.09.728-.127l-.038-.3.435-.052c.592-.071,1.19-.122,1.778-.151h.03a.857.857,0,0,1,.2.027.957.957,0,0,1,.233.091.843.843,0,0,1,.219.171H96.6c.365,0,.554.01.92.033l.435.026s.7.057,1.361.162c.172.028.435.085.435.085.581.113,1.179.25,1.777.406l.423.11s.953.311,1.432.477a.845.845,0,0,1,.207.11,1.047,1.047,0,0,1,.179.159.87.87,0,0,1,.073.095c.031-.009.064-.016.1-.022a.921.921,0,0,1,.155-.015l.061,0a.936.936,0,0,1,.1.014h.005l.028.007.031.009.039.009.031.012c.386.153.778.319,1.166.493a1.209,1.209,0,0,1,.2.11.833.833,0,0,1,.2.211.633.633,0,0,1,.127.359.866.866,0,0,1-.02.2.4.4,0,0,1-.026.084.357.357,0,0,1-.042.072c-.1.145-.153.218-.257.363l-.21.291-.457.6a.471.471,0,0,1-.089.09,1.128,1.128,0,0,1-.219.136,1.343,1.343,0,0,1-.2.073,1.062,1.062,0,0,1-.221.037Z" transform="translate(-50.072 -112.332)" fill="#fff"/>
      <path id="Path_4423" data-name="Path 4423" d="M107.241,184.2a.711.711,0,0,0-.175-.182,1.092,1.092,0,0,0-.177-.1c-.386-.174-.776-.339-1.16-.491l-.022-.008h0l-.032-.007-.034-.01h-.008a.71.71,0,0,0-.1-.015l-.05,0a.8.8,0,0,0-.134.013.768.768,0,0,0-.172.05.719.719,0,0,0-.108-.16.933.933,0,0,0-.158-.141.744.744,0,0,0-.178-.1c-.514-.178-1.031-.345-1.538-.5l0-.006-.026-.007-.284-.074c-.6-.156-1.191-.291-1.77-.4l-.29-.057L100.8,182l0,.027-.01.055a.592.592,0,0,0-.14-.08.846.846,0,0,0-.188-.049c-.43-.064-.639-.088-1.065-.126l-.029,0h-.005l-.04,0a.483.483,0,0,0-.1.012v-.031l-.027,0-.29-.018c-.363-.022-.551-.029-.914-.032l-.181,0a.476.476,0,0,0-.03-.037.721.721,0,0,0-.189-.148.834.834,0,0,0-.2-.08.734.734,0,0,0-.176-.023H97.18c-.584.029-1.18.079-1.769.15l-.29.035-.027,0,0,.027.034.274c-.307.045-.492.076-.837.143l-.286.055-.027.005.005.027.065.335c-.136-.074-.273-.145-.407-.212l-.094-.047-.009,0-.009,0-.1.024-.132.032-.281.07c-.359.092-.546.144-.873.242l-.184.056-.2.059c-.31.1-.5.163-.861.29l-.055.02-.011-.007a.671.671,0,0,0-.262-.086.958.958,0,0,0-.129-.009.787.787,0,0,0-.134.012,1.185,1.185,0,0,0-.213.061c-.454.181-.922.373-1.392.57a.991.991,0,0,0-.159.095.61.61,0,0,0-.162.177.549.549,0,0,0-.1.266.406.406,0,0,0,.067.264c.2.285.3.425.507.715.026.035.072.1.072.1l.02.027.221.294c.113.15.168.223.282.371a.764.764,0,0,0,.922.191c.145-.061.3-.113.443-.163.229-.079.461-.175.684-.276a.721.721,0,0,0,.349-.385.844.844,0,0,0,.379.083,1.235,1.235,0,0,0,.176-.013c.059-.009.257-.061.279-.067.18-.054.264-.078.434-.125a1.684,1.684,0,0,0,.242-.087.653.653,0,0,0,.153-.1l.014.042.008.024.024-.006.261-.062c.323-.077.479-.11.8-.17l.3-.058.028-.005-.007-.028-.068-.273c.09.061.179.123.264.183l.095.067.009.006.011,0,.114-.017.244-.035.2-.024c.356-.042.53-.059.887-.082l.3-.019.027,0,0-.027L97,184.3a.539.539,0,0,0,.073.064.655.655,0,0,0,.229.1,1.159,1.159,0,0,0,.236.03c.063,0,.137,0,.249,0h.32v0c.211,0,.36.011.617.027l.289.018.026,0,0-.027h0a.5.5,0,0,0,.161.044c.347.032.517.052.869.1a.4.4,0,0,0,.062,0,.46.46,0,0,0,.142-.023l0,.013-.006.027.027.005.292.056c.5.1.994.2,1.5.332l.043.011.173.048c.332.092.5.141.831.249l.248.08.023.007.01-.022.05-.111.006.009a.613.613,0,0,0,.185.179,1.326,1.326,0,0,0,.206.106c.066.028.146.06.243.1l.234.088.022.008.011-.02.006-.012a.529.529,0,0,0,.151.093c.373.147.554.223.926.387a.511.511,0,0,0,.212.043l.042,0a.981.981,0,0,0,.2-.033,1.24,1.24,0,0,0,.185-.066.829.829,0,0,0,.189-.116.868.868,0,0,0,.083-.086c.037-.045.233-.3.4-.525l.015-.02,0,0v0l.011-.022a.68.68,0,0,0,.042-.105l.016.008.02.009.013-.018.14-.194c.1-.146.156-.219.256-.361a.356.356,0,0,0,.05-.113.728.728,0,0,0,.017-.174A.521.521,0,0,0,107.241,184.2Z" transform="translate(-51.457 -113.718)" fill="#ffbe00"/>
      <path id="Path_4424" data-name="Path 4424" d="M108.6,185.734a.589.589,0,0,0-.144-.151.949.949,0,0,0-.157-.088c-.385-.174-.773-.338-1.154-.488l-.067-.019s-.07-.014-.1-.017l-.038,0a.67.67,0,0,0-.113.011.77.77,0,0,0-.254.1s-.026-.057-.036-.083a.569.569,0,0,0-.1-.169.807.807,0,0,0-.133-.127.607.607,0,0,0-.15-.074c-.527-.183-1.055-.353-1.572-.507l-.076-.023v0l-.19-.049c-.593-.155-1.186-.29-1.762-.4l-.192-.038-.008.047s-.013.073-.027.153a.519.519,0,0,0-.1-.12.534.534,0,0,0-.166-.109.742.742,0,0,0-.16-.042c-.427-.063-.636-.087-1.059-.125h-.019l-.032,0h-.008a.409.409,0,0,0-.106.016.468.468,0,0,0-.132.062l0,0,.006-.109-.192-.011c-.361-.022-.549-.029-.908-.032l-.166,0-.058.06a.366.366,0,0,0-.079-.137.6.6,0,0,0-.157-.123.725.725,0,0,0-.173-.068.621.621,0,0,0-.146-.02h-.018c-.582.029-1.174.079-1.761.149l-.192.023.006.047s.02.164.031.251l-.02,0c-.374.054-.558.085-.932.156l-.19.037.045.229c.02.1.032.166.054.273-.211-.119-.424-.232-.638-.339l-.047-.024-.016-.007-.068.016-.147.035-.079.02h0l-.184.048c-.381.1-.57.151-.955.267h0l-.1.03-.048.014-.049.014h0c-.377.117-.569.181-.955.318l-.115.041a.662.662,0,0,0-.058-.039.554.554,0,0,0-.213-.068.782.782,0,0,0-.112-.008.63.63,0,0,0-.112.01,1.031,1.031,0,0,0-.188.053c-.452.181-.92.372-1.391.57l-.043.024a.63.63,0,0,0-.221.2.341.341,0,0,0-.034.392c.195.282.294.423.505.712a.427.427,0,0,0,.189.144.743.743,0,0,0,.1.032l-.064.028-.055.024.146.195c.111.148.167.221.281.369.168.229.427.261.774.152.455-.17.76-.283,1.117-.435a.575.575,0,0,0,.325-.483.647.647,0,0,0,.462.165,1.084,1.084,0,0,0,.158-.012c.055-.008.259-.062.26-.063.181-.055.266-.079.437-.126a1.483,1.483,0,0,0,.223-.08.545.545,0,0,0,.226-.193.318.318,0,0,0,.029-.042l.041.127.013.042.173-.041c.324-.077.481-.11.8-.172l.2-.038-.05-.2-.07-.282,0-.008c.181.12.36.242.536.366l.063.044.076-.011.23-.033h0l.084-.01h0l.129-.016c.359-.043.533-.059.893-.082l.2-.013-.052-.627h0c.018-.007.067-.012.072,0a.96.96,0,0,0,.106.34.464.464,0,0,0,.135.158.534.534,0,0,0,.186.082,1.055,1.055,0,0,0,.211.027c.061,0,.135,0,.245,0l.194,0c.3,0,.449.01.75.029l.191.012.008-.118a.625.625,0,0,0,.12.088.4.4,0,0,0,.163.055c.35.032.52.053.875.1a.3.3,0,0,0,.044,0,.361.361,0,0,0,.152-.036.614.614,0,0,0,.136-.087l.036-.032v.006l-.041.193.193.037c.5.1,1,.206,1.51.334l.045.011.174.048c.334.093.5.141.836.251l.164.053.071-.158.085-.191a1.142,1.142,0,0,1,.019.115l0,.037h0a.4.4,0,0,0,.059.158.491.491,0,0,0,.149.142,1.224,1.224,0,0,0,.187.1c.065.028.142.058.238.094l.155.058.02-.036.031-.055a.359.359,0,0,0,.075.1.4.4,0,0,0,.146.086c.373.148.555.224.931.389a.384.384,0,0,0,.161.031h.034a.886.886,0,0,0,.173-.029,1.093,1.093,0,0,0,.166-.06.747.747,0,0,0,.158-.1.644.644,0,0,0,.058-.055l.019-.025c.162-.211.222-.292.384-.512l.007-.01,0,0,.007-.015a.473.473,0,0,0,.053-.212c0-.007,0-.014,0-.021l.061.028.036.016.093-.129c.1-.144.146-.209.247-.353a.406.406,0,0,0,.053-.21v-.009A.405.405,0,0,0,108.6,185.734Z" transform="translate(-52.922 -115.18)" fill="#840c16"/>
      <g id="Group_9606" data-name="Group 9606" transform="translate(37.151 68.067)">
        <g id="Group_9605" data-name="Group 9605" transform="translate(0 0)">
          <g id="Group_9604" data-name="Group 9604">
            <path id="Path_4425" data-name="Path 4425" d="M95.17,189.086c-.4.178-.663.264-1.119.435-.224.067-.428.072-.547-.092-.113-.147-.169-.22-.28-.367.215-.094.323-.14.536-.228.085.126.128.189.215.314.314-.129.47-.191.781-.307-.123-.207-.182-.311-.3-.518-.4.153-.607.235-1.018.41a.475.475,0,0,1-.275.042.425.425,0,0,1-.25-.134c-.207-.283-.289-.394-.484-.678a.179.179,0,0,1,.02-.207.407.407,0,0,1,.158-.14c.008,0,.069-.031.077-.035.461-.193.865-.359,1.329-.544a.832.832,0,0,1,.152-.043.489.489,0,0,1,.16-.008.433.433,0,0,1,.15.046.24.24,0,0,1,.086.088c.076.164.1.224.181.388-.237.085-.356.13-.6.222-.063-.117-.095-.176-.157-.294-.35.136-.526.207-.881.358.118.189.178.283.3.472q.531-.225,1.071-.424a.457.457,0,0,1,.268-.023.364.364,0,0,1,.225.17c.131.263.2.394.337.657A.333.333,0,0,1,95.17,189.086Zm.724-.363a.331.331,0,0,1-.216-.186c-.209-.429-.38-.8-.572-1.241l-.167.058c-.055-.121-.082-.182-.135-.3.39-.138.582-.2.965-.32.045.125.068.187.114.312l-.18.056q.241.623.5,1.236c.194-.059.29-.087.482-.141q-.237-.623-.454-1.256l-.179.053c-.045-.125-.067-.188-.111-.313.382-.115.571-.168.947-.265.036.129.054.193.091.322l-.162.042c.14.468.248.8.4,1.264a.367.367,0,0,1-.016.274.5.5,0,0,1-.028.043l0,0a.36.36,0,0,1-.154.137,1.335,1.335,0,0,1-.2.07c-.175.048-.378.1-.554.153A.7.7,0,0,1,95.894,188.723Zm1.548-.676.174-.041q-.242-.826-.463-1.658l.146-.035q.613.306,1.2.673c-.044-.223-.066-.334-.108-.557l-.174.033c-.027-.132-.04-.2-.065-.331.371-.072.556-.1.923-.155.02.146.03.219.052.366l-.19.028q.135.845.282,1.687l-.1.014q-.566-.4-1.151-.76c.061.248.092.372.156.621l.159-.032c.029.12.044.18.074.3-.323.061-.485.1-.81.173C97.5,188.242,97.482,188.177,97.441,188.047Zm4.146-.482h-.173c0-.25,0-.375-.008-.625-.16-.18-.249-.275-.25-.281a.054.054,0,0,1,.021-.036c.013-.011.034-.031.065-.056a.829.829,0,0,0,.078-.063.2.2,0,0,0,.066-.1c0-.259,0-.388-.008-.648a.163.163,0,0,0-.045-.11.4.4,0,0,0-.106-.083.518.518,0,0,0-.127-.05.412.412,0,0,0-.109-.014q-.876.043-1.747.148c.016.126.024.189.039.315l.206-.026c.03.256.045.383.076.639l-.266.033c.023.17.036.255.06.426l.259-.032c.034.266.051.4.087.664l-.185.021c.019.127.028.191.048.318.362-.043.543-.06.9-.083-.011-.129-.016-.193-.026-.322l-.215.016c-.025-.265-.038-.4-.062-.662.271-.022.407-.031.677-.042,0,.041,0,.062.005.1.014.179.028.325.043.438a.776.776,0,0,0,.084.272.278.278,0,0,0,.078.094.348.348,0,0,0,.12.051.871.871,0,0,0,.172.021q.1,0,.239,0C101.587,187.765,101.587,187.7,101.587,187.565Zm-1.425-1.058c-.019-.228-.029-.342-.047-.57.266-.023.4-.032.665-.044.01.229.015.344.026.573C100.548,186.478,100.42,186.486,100.162,186.507Zm1.6,1.041.15,0q.015-.707.029-1.413l-.163,0c0-.137,0-.206,0-.343.359,0,.538.01.9.032-.008.137-.012.206-.02.343l-.191-.011q-.034.706-.073,1.412l.175.01c-.009.138-.014.207-.023.345-.315-.02-.473-.026-.787-.03C101.756,187.755,101.757,187.686,101.759,187.548Zm2.5.221a.4.4,0,0,1-.343.3c-.355-.052-.532-.073-.886-.105a.324.324,0,0,1-.2-.083.349.349,0,0,1-.084-.234c.014-.169.02-.254.033-.423.188.014.282.022.47.041-.014.128-.021.193-.035.321.224.023.335.036.559.066.027-.176.04-.264.065-.44-.3-.041-.455-.058-.757-.085a.233.233,0,0,1-.091-.03.376.376,0,0,1-.09-.069.385.385,0,0,1-.068-.1.217.217,0,0,1-.022-.116c.022-.3.033-.449.054-.749a.162.162,0,0,1,.028-.069.3.3,0,0,1,.089-.083.285.285,0,0,1,.077-.038.229.229,0,0,1,.062-.01h.007a.025.025,0,0,0,.013,0h.015c.418.037.627.062,1.048.124a1.15,1.15,0,0,1,.118.03.272.272,0,0,1,.206.273c-.029.171-.043.257-.073.429-.209-.034-.313-.05-.522-.079.016-.116.025-.173.04-.289-.243-.033-.364-.048-.606-.072-.017.165-.025.248-.043.413.319.033.479.053.8.1a.389.389,0,0,1,.185.122.313.313,0,0,1,.067.218C104.331,187.386,104.307,187.514,104.259,187.769Zm5.644,1.783a.418.418,0,0,1-.151.122.494.494,0,0,1-.411.011c-.378-.167-.52-.227-.893-.374-.185-.092-.247-.243-.178-.384s.125-.225.207-.375c.2.076.3.116.5.2-.067.112-.1.168-.17.28.237.1.357.146.6.249.1-.15.154-.225.255-.375-.327-.142-.489-.209-.812-.337a.279.279,0,0,1-.175-.377c.14-.266.181-.346.314-.611a.411.411,0,0,1,.083-.106.312.312,0,0,1,.122-.047.419.419,0,0,1,.106,0,.448.448,0,0,1,.114.023q.578.229,1.147.485a.755.755,0,0,1,.125.07.411.411,0,0,1,.1.1.294.294,0,0,1,.049.117.173.173,0,0,1-.01.1c-.1.144-.151.215-.254.358-.229-.105-.343-.156-.569-.255l.158-.246c-.266-.116-.4-.172-.659-.279-.081.144-.122.216-.206.36.343.14.516.214.865.369a.406.406,0,0,1,.164.174.217.217,0,0,1-.012.22C110.147,189.231,110.066,189.338,109.9,189.552Zm-5.388-1.739.131.023c.043-.2.065-.3.106-.5l-.218-.04c.033-.168.049-.251.08-.419l.224.041c.038-.187.057-.28.093-.468l-.143-.026c.025-.135.037-.2.061-.336q.881.172,1.751.4c-.072.247-.109.37-.185.617-.2-.055-.3-.08-.5-.129.027-.1.04-.148.066-.246-.19-.047-.284-.069-.473-.11-.038.166-.058.248-.1.414.18.039.27.06.45.1-.045.164-.068.246-.114.41-.175-.042-.263-.063-.438-.1-.045.178-.068.268-.114.446.173.037.259.057.433.1.036-.124.055-.187.09-.311.191.046.287.07.479.122-.089.272-.135.408-.228.681-.506-.126-1.01-.238-1.521-.336C104.472,188.016,104.486,187.948,104.514,187.813Zm4.179-.487a.371.371,0,0,0-.07-.111.6.6,0,0,0-.1-.092.77.77,0,0,0-.207-.1c-.517-.184-.931-.3-1.456-.461-.04.13-.061.194-.1.324l.177.051c-.059.18-.09.27-.152.449l-.23-.065c-.054.165-.081.247-.137.412l.223.063c-.067.188-.1.282-.171.47l-.161-.046c-.047.131-.07.2-.118.327.336.093.5.144.844.253.057-.127.085-.191.141-.318l-.188-.06c.077-.183.115-.275.189-.458.212.067.318.1.531.175l-.022.049q-.09.215-.139.354a.585.585,0,0,0-.04.244v0a.211.211,0,0,0,.032.109.294.294,0,0,0,.092.086,1.03,1.03,0,0,0,.157.08c.064.027.14.057.23.091.07-.126.1-.189.173-.314l-.155-.058c.1-.181.125-.251.235-.452-.032-.083-.058-.149-.077-.195a.934.934,0,0,1-.036-.09s.011,0,.018,0a.161.161,0,0,0,.028-.006l.037-.01h0a1.1,1.1,0,0,0,.113-.032c.035-.012.084-.026.1-.051.1-.2.147-.3.242-.5A.138.138,0,0,0,108.693,187.326Zm-.822.4c-.2-.069-.3-.1-.5-.167.061-.154.09-.231.149-.385.206.066.31.1.518.173C107.97,187.494,107.937,187.57,107.871,187.722Z" transform="translate(-92.405 -185.503)" fill="#fff"/>
          </g>
        </g>
      </g>
    </g>
  </g>
</svg>
