<?xml version="1.0" encoding="UTF-8"?>
<svg width="275px" height="119px" viewBox="0 0 275 119" version="1.1" xmlns="http://www.w3.org/2000/svg" xmlns:xlink="http://www.w3.org/1999/xlink">
    <!-- Generator: Sketch 53.2 (72643) - https://sketchapp.com -->
    <title>Group 7</title>
    <desc>Created with Sketch.</desc>
    <g id="Page-1" stroke="none" stroke-width="1" fill="none" fill-rule="evenodd">
        <g id="Select-match-enter-voucher" transform="translate(-50.000000, -274.000000)">
            <g id="Group-7" transform="translate(50.000000, 271.000000)">
                <g id="cricket" transform="translate(0.000000, 5.000000)" fill-rule="nonzero">
                    <path d="M17.9999794,9.32142857 C18.0032672,10.8240923 17.6132518,12.3015495 16.8688389,13.606945 C16.7670541,13.7864043 16.6593787,13.9629868 16.5426617,14.1365555 C16.4167663,14.3290291 16.2808706,14.514927 16.1356594,14.6931534 C16.0040104,14.8638453 15.8603061,15.0313863 15.713725,15.1930367 C15.5371427,15.3845514 15.3515189,15.5670245 15.1600045,15.743607 C14.9834222,15.9052574 14.7979355,16.0608802 14.6064211,16.2044477 C14.4687444,16.3152741 14.3250401,16.416922 14.1814728,16.5156932 C13.9569434,16.6652883 13.7295372,16.8059789 13.4930896,16.9376281 L13.4871989,16.9376281 C13.0882791,17.1553082 12.6730573,17.3413431 12.2452322,17.494363 C11.9296033,17.6092992 11.6067139,17.7032756 11.2786188,17.7756073 C10.9328517,17.8576654 10.581879,17.915613 10.2281664,17.949176 C10.2065218,17.9536967 10.1844661,17.9567106 10.1624104,17.9582175 C9.88404328,17.9850679 9.60567615,18 9.32141837,18 C9.1657958,18 9.01318707,17.9971231 8.86057834,17.9880817 C4.25258859,17.7439622 0.641761459,13.9358624 0.642857392,9.32142857 C0.642857392,8.44591358 0.773958438,7.5754673 1.03177679,6.73872101 C1.1472608,6.37404866 1.28630738,6.01718487 1.4478206,5.67045846 C1.58727813,5.36989833 1.7431747,5.0771467 1.91468831,4.79357356 L1.92071594,4.78453208 C2.17168473,4.37506342 2.45703845,3.98765043 2.77348925,3.6264029 C2.94746869,3.42214803 3.13336645,3.22830454 3.33022351,3.04583141 L3.33611416,3.03994075 C3.6105085,2.77266962 3.90462968,2.52663224 4.21601184,2.30374647 C4.40752621,2.16305582 4.60506826,2.03140665 4.80548708,1.90564814 C5.0150844,1.78002661 5.23043535,1.66330951 5.44893711,1.55549694 C5.64264335,1.45453395 5.84141831,1.36357135 6.04443999,1.28315712 L6.04745383,1.28315712 C6.24800967,1.19945509 6.45144233,1.12465755 6.66103965,1.05876443 C6.85543084,0.995885161 7.05598668,0.939033565 7.25654253,0.891223414 C7.78286465,0.763272998 8.31973508,0.684228703 8.86057834,0.654775444 L8.86948279,0.654775444 C9.0192147,0.645733998 9.16880964,0.642857143 9.32141837,0.642857143 C14.1144839,0.642857143 17.9999794,4.52835732 17.9999794,9.32142857 Z" id="Path" fill="#C52828"></path>
                    <path d="M16.7142665,9.32142857 C16.7174661,10.8261587 16.3214119,12.3056477 15.5654728,13.6128384 C15.4622511,13.7925445 15.3527693,13.9693698 15.2342452,14.1431772 C15.1064005,14.3359155 14.9685397,14.5220691 14.820941,14.7005406 C14.8027172,14.7215292 14.7875539,14.7455357 14.7662697,14.7665243 C14.650806,14.9133072 14.5231004,15.0602272 14.3924735,15.2011113 C14.2131571,15.3928893 14.0247983,15.5756134 13.8303186,15.7524388 C13.6510022,15.9143115 13.4625043,16.0701482 13.2680246,16.2139131 C13.1282162,16.3248919 12.982426,16.4266797 12.8364966,16.5255867 L12.6815249,16.6244936 C12.505269,16.7383532 12.3228921,16.8463141 12.1375938,16.9481018 L12.1314728,16.9481018 C11.7263763,17.1660812 11.3047253,17.352372 10.870276,17.5056024 C10.5497601,17.6206966 10.2218711,17.7148022 9.88869597,17.7872334 C9.53771431,17.8694044 9.18130725,17.9274317 8.82211796,17.9610408 C8.79999902,17.9655677 8.77760186,17.9685857 8.75520471,17.9700947 C8.6184568,17.9820294 8.48170888,17.9939641 8.34496101,18 C3.66562305,17.7555448 -0.00111264929,13.9422082 2.53267838e-07,9.32142857 C2.53267838e-07,8.44470958 0.133131213,7.57306628 0.394941523,6.7351693 C0.51221364,6.36999545 0.653413161,6.01264091 0.817427185,5.66543768 C0.959044018,5.36446423 1.11735443,5.07131 1.29152368,4.7873469 L1.29764464,4.77829299 C1.54526546,4.37800103 1.82696891,3.99910916 2.13941632,3.64559566 C2.14845865,3.63654178 2.15457961,3.62762507 2.16362194,3.61857116 C2.3402952,3.41403539 2.52907132,3.21992533 2.72897644,3.03720127 L2.7349583,3.03130251 C3.01360125,2.76366383 3.31227648,2.5172881 3.62847995,2.29409582 C3.82295966,2.15321169 4.02356036,2.02138148 4.22708239,1.89545003 C4.43992502,1.76965575 4.65861038,1.65277814 4.88049533,1.54481731 C5.07107988,1.44659624 5.26681163,1.35866368 5.46699498,1.28115684 L5.48521874,1.27210297 L5.48827924,1.27210297 C5.69194041,1.18828582 5.89852293,1.11338542 6.11136557,1.0474017 C6.30876663,0.984435951 6.5124278,0.927506173 6.71608897,0.879630274 C7.25056044,0.751503902 7.79574356,0.672350906 8.34496101,0.642857143 L8.35400333,0.642857143 C13.0397404,0.878807175 16.7157967,4.69475022 16.7142665,9.32142857 Z" id="Path" fill="#F44335"></path>
                    <path d="M15.4396099,5.39325185 C14.7341901,4.59824572 13.7257309,4.2733947 13.1870258,4.66764277 C12.6483207,5.06189078 12.7836421,6.02602777 13.4889185,6.82103387 C14.1943383,7.61604 15.2029409,7.94089098 15.7415026,7.54664298 C16.2802076,7.15226471 16.1450297,6.18825795 15.4396099,5.39325185 Z" id="Path" fill="#C52828"></path>
                    <path d="M11.407628,2.59209782 C10.8822013,2.50314403 10.385825,2.70953134 10.298822,3.05322741 C10.2118191,3.3968023 10.5670935,3.7475274 11.092372,3.83648119 C11.6177987,3.92543495 12.114175,3.71892645 12.201178,3.3753516 C12.2881809,3.0316555 11.9329065,2.68105158 11.407628,2.59209782 Z" id="Path" fill="#C52828"></path>
                    <path d="M15.4285714,14.8461461 C15.3111346,14.9949432 15.1813792,15.1414239 15.048202,15.2831354 C14.8658875,15.4756724 14.6742657,15.6597611 14.4766214,15.8374455 C14.29417,16.0002776 14.1025481,16.1568416 13.9046301,16.3014146 C13.7622824,16.4131487 13.6139124,16.5154808 13.4656792,16.6149514 L13.307728,16.7142857 C7.20867774,15.6778838 2.57142857,10.4931491 2.57142857,4.24830306 C2.57142857,4.05249584 2.57443975,3.8565524 2.5837471,3.66374294 C2.59305445,3.65474973 2.59921372,3.64562022 2.60852106,3.63662701 C2.78850875,3.43046394 2.98040435,3.23506555 3.18352356,3.05138559 L3.18981969,3.04552636 C3.47355692,2.77613818 3.77741445,2.52827923 4.09851797,2.30426599 C4.29643596,2.16255445 4.50065012,2.02983616 4.70760174,1.90338586 C4.92399757,1.77679928 5.14641583,1.65920598 5.37225587,1.5508784 C5.56675206,1.45195282 5.76631256,1.36338313 5.97025299,1.28571429 C5.76590193,2.10682367 5.66269989,2.94959854 5.66283675,3.79564368 C5.66283675,9.2203342 9.84854267,13.7552397 15.4285714,14.8461461 L15.4285714,14.8461461 Z" id="Path" fill="#FFECB3"></path>
                    <path d="M8.99806419,1.15913729e-06 C8.17851381,0.000138487185 7.36280912,0.112747478 6.57374979,0.334532285 C6.56042713,0.337278846 6.5472418,0.340986712 6.53446849,0.345655848 C5.66327555,0.594082313 4.83479758,0.973107726 4.07746545,1.46996059 C4.06249462,1.47778828 4.04834786,1.48685195 4.03516253,1.49728888 C3.5202481,1.83841175 3.04186799,2.23130729 2.60716429,2.66993305 C2.58848508,2.68517648 2.57172871,2.70275447 2.55744461,2.72211775 C2.02357629,3.26991932 1.56126579,3.88308905 1.18150095,4.54707017 C1.17243602,4.56025366 1.1644699,4.57398647 1.1577399,4.58840591 C-0.657577317,7.81163253 -0.314758848,11.8173544 2.02192809,14.685176 C4.35861506,17.553135 8.21271324,18.6985882 11.7367663,17.5726355 C11.7461058,17.5696143 11.7551708,17.5670051 11.7638236,17.5634346 C12.4527569,17.3404138 13.1120232,17.0348589 13.7273384,16.6532242 C13.763598,16.6386675 13.796836,16.6173816 13.8251296,16.5904653 C14.1642397,16.374311 14.4886536,16.1357721 14.7960365,15.8764968 C14.8122435,15.8653732 14.8270769,15.8524644 14.8403996,15.8380449 C15.1988757,15.5313914 15.5330413,15.1972723 15.8396001,14.8388461 C15.8536095,14.8255252 15.8663828,14.8108311 15.8773706,14.7950384 C16.1586575,14.4622926 16.4154967,14.1096341 16.6458278,13.739947 C16.6603866,13.7220944 16.6728852,13.7027311 16.6829115,13.6819946 C18.3781873,10.9043975 18.4410924,7.42807527 16.8474534,4.59101515 C15.2539519,1.75395499 12.2523674,-0.00164677744 8.99806419,1.15913729e-06 Z M0.596951506,8.99993213 C0.596264779,7.82591465 0.843352264,6.66494331 1.32186971,5.59282327 C1.34521874,5.60133759 1.36966652,5.60669339 1.39452634,5.60875329 L1.4001576,5.60875329 C1.56373802,5.60875329 1.69710211,5.47787966 1.7002611,5.31445931 C1.70314538,5.14403517 1.71221031,4.97457238 1.72388481,4.80442292 C1.9476233,4.41756981 2.20185287,4.04911865 2.48423859,3.70263998 C2.53519439,3.762927 2.60785102,3.80069222 2.68641359,3.80783328 L2.71347097,3.80783328 C2.86881059,3.80769596 2.99832896,3.68904453 3.0119263,3.53427581 C3.02607306,3.37346465 3.04585105,3.21443879 3.06659048,3.05431427 C3.30461307,2.81797271 3.55637041,2.59605058 3.82062628,2.3895092 C3.0377476,8.83774771 7.46705561,14.7607064 13.8742998,15.8335131 C13.7633233,15.9135754 13.6501493,15.9903418 13.534915,16.0639496 C13.3760044,16.0504914 13.2166817,16.0357973 13.0594192,16.0157475 C12.9393778,16.0003667 12.8218087,16.0588684 12.7615133,16.1637871 C12.7010805,16.2687057 12.7097334,16.3995794 12.7833515,16.495709 C12.4070203,16.6863203 12.0169544,16.8483674 11.6161755,16.980477 C11.4464144,16.9561699 11.2774774,16.9298029 11.1103259,16.8986295 C11.0320381,16.8839354 10.9511406,16.9009641 10.8854886,16.9460077 C10.8198367,16.9910513 10.7747868,17.0602646 10.7602281,17.1385416 C10.7569317,17.1633979 10.7569317,17.188529 10.7602281,17.213248 C8.27905192,17.7460809 5.69005825,17.1287913 3.71651716,15.5338633 C1.7428387,13.9389354 0.596264779,11.5372051 0.596951506,8.99993213 L0.596951506,8.99993213 Z M16.2590583,13.2172765 C16.13627,13.1939307 16.0133442,13.1716836 15.8920667,13.1447673 C15.7865841,13.1186749 15.6751956,13.151771 15.6010281,13.2311466 C15.5267233,13.3105222 15.5013141,13.4239552 15.5344148,13.5273632 C15.5676527,13.6309085 15.6541815,13.7083616 15.7606255,13.7300594 C15.8113066,13.7414577 15.8636358,13.7498347 15.9145916,13.7599969 C15.7883696,13.9426432 15.6552802,14.1200711 15.5151862,14.2925551 C15.377839,14.2726425 15.2398051,14.2535539 15.1038314,14.2288349 C14.9983488,14.2101583 14.8906687,14.2491594 14.8217204,14.3311443 C14.7526348,14.4132665 14.7325821,14.5258755 14.7691165,14.6266742 C14.8056508,14.727473 14.8932783,14.8010809 14.9988982,14.8198948 L15.0417505,14.8264866 C14.8761099,14.9981466 14.7034646,15.1625283 14.5235398,15.3200436 C11.3811745,14.9467859 8.5292984,13.3010466 6.63390782,10.7672068 C4.73865462,8.23336694 3.96566486,5.03307411 4.4956875,1.91366752 C4.68289166,1.79364279 4.87490298,1.68144578 5.07172143,1.57680179 C5.06993589,1.59355583 5.06691427,1.6100352 5.06540345,1.62692655 C5.05702528,1.70630215 5.08064899,1.78567778 5.1310554,1.84761274 C5.18132443,1.90954766 5.25425578,1.9488235 5.33364241,1.95692583 L5.36372144,1.95692583 C5.51768762,1.95678851 5.64651922,1.84005969 5.6619021,1.6869389 C5.67604886,1.54590299 5.69582685,1.40665237 5.71505545,1.26685239 C5.90830286,1.18473024 6.10512134,1.1115344 6.30578551,1.04369433 C6.3022145,1.09766424 6.29589651,1.15108488 6.29314957,1.20505479 C6.28449669,1.37053508 6.41154279,1.51170831 6.57704612,1.52035999 L6.59297839,1.52035999 C6.75271313,1.52063463 6.88470372,1.39552877 6.89294455,1.23595359 C6.89953721,1.10933715 6.91162376,0.983956616 6.92302358,0.858301443 C10.2020493,0.0195017596 13.6640214,1.23128446 15.7039011,3.9317032 C17.7439183,6.63212194 17.9627122,10.2931503 16.2590583,13.2172765 L16.2590583,13.2172765 Z" id="Shape" fill="#000000"></path>
                    <path d="M8.79578648,11.0028606 C8.69195794,10.9002054 8.53083231,10.9044347 8.4319081,11.0124725 C8.33298393,11.1205103 8.3321466,11.2931401 8.4298746,11.4023314 C8.67891954,11.6646723 8.9436345,11.9168887 9.21672268,12.15206 C9.32916375,12.2493324 9.49399753,12.2304931 9.5847877,12.1100239 C9.67557787,11.9894265 9.65799399,11.8129519 9.54543334,11.7156795 C9.28418733,11.4919143 9.03275,11.2531546 8.79578648,11.0028606 L8.79578648,11.0028606 Z" id="Path" fill="#000000"></path>
                    <path d="M7.60757814,9.10936538 C7.51653751,8.99538259 7.33418772,8.9657174 7.20004379,9.04307507 C7.06603416,9.12031868 7.03112183,9.27537635 7.12202817,9.38924503 C7.34211015,9.66467489 7.58166246,9.93462812 7.83370264,10.1911179 C7.89976751,10.2622003 8.00611585,10.2971139 8.11138996,10.2823954 C8.21666407,10.267791 8.30421346,10.2056082 8.34006575,10.1202638 C8.375918,10.0349193 8.35443349,9.93976248 8.28393744,9.87176073 C8.04425086,9.62782161 7.8166493,9.37133182 7.60757814,9.10936538 Z" id="Path" fill="#000000"></path>
                    <path d="M5.5200034,4.49925259 C5.59758383,4.4910314 5.6691138,4.44887917 5.71872763,4.38191389 C5.76820701,4.31509808 5.79187106,4.22899987 5.78434159,4.14275219 C5.74857662,3.73393514 5.73055965,3.31719588 5.73029076,2.89238492 C5.73015628,2.80643618 5.69896276,2.72407486 5.64370185,2.66368653 C5.58857535,2.6034477 5.5139529,2.570264 5.4366414,2.57145981 C5.27341321,2.57415036 5.14258866,2.72213168 5.14285756,2.90344613 C5.14285756,3.33782359 5.16195016,3.77638635 5.19986641,4.20613004 C5.21492535,4.37279586 5.341044,4.4998505 5.49176786,4.5 C5.5006419,4.49925259 5.51032265,4.49925259 5.5200034,4.49925259 Z" id="Path" fill="#000000"></path>
                    <path d="M6.45385213,7.28499748 C6.40581115,7.17030069 6.30050271,7.09001294 6.17721868,7.07424216 C6.05409376,7.05847134 5.93192327,7.10976631 5.85668022,7.20885158 C5.7814372,7.30777755 5.76473422,7.43936028 5.81277524,7.55405707 C5.99237221,7.98273635 6.19503521,8.40807027 6.41837814,8.81795199 C6.47771353,8.92723257 6.59065762,8.99652851 6.71473703,8.99987387 C6.83881643,9.00321918 6.95526018,8.93981736 7.02016325,8.8338821 C7.08506632,8.72794688 7.08856597,8.59524907 7.02938968,8.4859685 C6.81765931,8.09552149 6.62549531,7.69471996 6.45385213,7.28499748 Z" id="Path" fill="#000000"></path>
                    <path d="M5.77623696,6.6424494 C5.69494448,6.23701548 5.62716764,5.82565726 5.5730058,5.40989381 C5.55780074,5.29368661 5.50324135,5.19859422 5.42970049,5.1604661 C5.356259,5.12233799 5.27506592,5.14709848 5.21673015,5.22532946 C5.15849373,5.30356041 5.13186001,5.42341333 5.14706507,5.5397724 C5.20410894,5.97725824 5.27546344,6.41018696 5.36083047,6.83688755 C5.38885549,6.97633618 5.47302997,7.07142857 5.56843433,7.07142857 C5.58999968,7.07127668 5.61136629,7.06641572 5.63203723,7.05684571 C5.68709351,7.03117381 5.73320562,6.97299426 5.76033623,6.89537089 C5.78736746,6.81759563 5.79303209,6.72660464 5.77623696,6.6424494 Z" id="Path" fill="#000000"></path>
                    <path d="M12.0254394,12.8923704 C11.6225693,12.7033024 11.2234736,12.4936707 10.842429,12.2674696 C10.676358,12.1692371 10.4535076,12.2109563 10.3447081,12.3606722 C10.2357445,12.51024 10.2820212,12.7111433 10.4480923,12.8093758 C10.8506341,13.0459327 11.2704067,13.2672518 11.6959228,13.4660838 C11.8711836,13.5446403 12.0838596,13.4822093 12.1739516,13.3255403 C12.2640435,13.1690192 12.1982386,12.9762527 12.0260958,12.8923704 L12.0254394,12.8923704 Z" id="Path" fill="#000000"></path>
                    <path d="M13.8981728,14.0149548 C13.4870455,13.8776478 13.0762264,13.714067 12.6777303,13.5290714 C12.5658987,13.4758042 12.4380472,13.4966792 12.3430058,13.5839583 C12.2479644,13.6710573 12.2002127,13.8110637 12.217927,13.9507102 C12.2356414,14.0903567 12.3162032,14.2082284 12.428805,14.2593361 C12.8493285,14.4547692 13.278016,14.6251883 13.7131732,14.7704135 C13.7432106,14.780671 13.7743262,14.7858897 13.80575,14.7857098 C13.9738053,14.7862497 14.1162905,14.6417443 14.1395502,14.447211 C14.1629639,14.2528577 14.0599126,14.0680421 13.8981728,14.0144149 L13.8981728,14.0149548 Z" id="Path" fill="#000000"></path>
                    <path d="M10.0573483,16.6283053 C9.6312021,16.4784207 9.21241849,16.3021659 8.80276443,16.1002214 C8.63990414,16.0216213 8.45245279,16.1094084 8.38309729,16.2970619 C8.31374177,16.4847155 8.38810383,16.7018016 8.54993339,16.7836342 C8.98108617,16.9969774 9.42181029,17.1829296 9.87048603,17.3411506 C9.90081985,17.3516987 9.93233172,17.3569727 9.96399083,17.3571429 C10.1234643,17.3571429 10.2587886,17.2220595 10.2822016,17.0398502 C10.3056146,16.8576408 10.209901,16.6832574 10.0573483,16.6298365 L10.0573483,16.6283053 Z" id="Path" fill="#000000"></path>
                    <path d="M2.53617273,9.82658199 C2.33229415,9.42021147 2.1539004,9.00446883 2.00182977,8.58125772 C1.96259658,8.47216006 1.85965129,8.38956799 1.73189187,8.36481967 C1.60396476,8.33992488 1.47084012,8.37653486 1.38231389,8.46073773 C1.29361997,8.54494064 1.26327293,8.66414268 1.30267381,8.77309391 C1.46295993,9.21885674 1.65074283,9.6567118 1.86518421,10.0847554 C1.91481255,10.1929745 2.02798529,10.2691232 2.16060693,10.2833278 C2.29306096,10.2975325 2.42400599,10.2475965 2.50213707,10.1529964 C2.58026819,10.0585427 2.59334591,9.93421527 2.53617273,9.8287786 L2.53617273,9.82658199 Z" id="Path" fill="#000000"></path>
                    <path d="M1.9237861,7.98754315 C1.85731249,7.56736631 1.80903998,7.14294523 1.77908165,6.71611911 C1.77286387,6.60463781 1.7190519,6.50603066 1.63833396,6.45821257 C1.55761599,6.41053594 1.46254065,6.42086351 1.38973622,6.48565844 C1.31693179,6.55031191 1.27770331,6.65910521 1.28708649,6.77030351 C1.31851448,7.21905806 1.36927411,7.66554903 1.43925229,8.10751284 C1.45620983,8.21602317 1.51827447,8.30486865 1.60181869,8.34052002 C1.68547595,8.37631285 1.77795113,8.35339413 1.84431169,8.28053517 C1.9107853,8.20767621 1.9410828,8.09605348 1.9237861,7.98754315 Z" id="Path" fill="#000000"></path>
                    <path d="M7.53870657,15.5099389 C7.12266199,15.3058763 6.71939207,15.082863 6.33047394,14.8415857 C6.23032672,14.7792409 6.09958338,14.768255 5.98745004,14.8127478 C5.87547445,14.8571032 5.79914177,14.9502085 5.78731335,15.0569089 C5.77548493,15.1636092 5.82989565,15.2677004 5.93004282,15.3299079 C6.33899037,15.5836816 6.76307832,15.8183674 7.20072946,16.0328666 C7.36648492,16.1140248 7.57671518,16.0629404 7.66992306,15.9184762 C7.76328865,15.7741492 7.70446203,15.5912344 7.53870657,15.5099389 Z" id="Path" fill="#000000"></path>
                    <path d="M4.94232788,13.5796019 C4.84604252,13.4785628 4.68733034,13.4730086 4.58434378,13.5669572 C4.48123966,13.6607876 4.47136424,13.8202047 4.56188897,13.9263253 C4.81312445,14.2049803 5.07882037,14.4700452 5.35803619,14.7203384 C5.46407945,14.8152324 5.62643611,14.8056603 5.72072291,14.6991852 C5.81500967,14.5927102 5.80560451,14.4295114 5.69967884,14.3347357 C5.43398292,14.0967326 5.18121908,13.8446668 4.94232788,13.5796019 Z" id="Path" fill="#000000"></path>
                    <path d="M3.12733779,11.1017203 C3.04506701,10.9362548 2.86295433,10.879465 2.72047878,10.9748528 C2.57800323,11.0702407 2.52910386,11.2817393 2.61137465,11.4473631 C2.82740355,11.8842808 3.06359156,12.3072779 3.31884891,12.7147725 C3.3749674,12.8044656 3.46459354,12.8573007 3.55994047,12.8571425 C3.6717688,12.8569843 3.77419866,12.7840593 3.82486875,12.6681068 C3.87553883,12.5523125 3.86600416,12.4131063 3.80007852,12.3080689 C3.55735248,11.9201897 3.33274234,11.5175989 3.12733779,11.1017203 Z" id="Path" fill="#000000"></path>
                    <path d="M5.00899665,11.6668774 C4.91404,11.5610673 4.74149834,11.5402049 4.61767587,11.6195049 C4.49398405,11.6988048 4.46302841,11.850028 4.54766655,11.9625233 C4.77859283,12.243531 5.02545409,12.51405 5.28746658,12.7730427 C5.39248057,12.8767782 5.57285906,12.8857686 5.69041207,12.7932135 C5.807965,12.7005432 5.81815295,12.541367 5.71326956,12.4376316 C5.46392666,12.1913176 5.22895132,11.9340537 5.00899665,11.6668774 L5.00899665,11.6668774 Z" id="Path" fill="#000000"></path>
                    <path d="M4.33288618,10.8831263 C4.40984559,10.8369561 4.46591383,10.7611164 4.48880195,10.6722665 C4.51153651,10.5834167 4.49940118,10.488855 4.45470019,10.4093661 C4.23380668,10.0158881 4.03288263,9.61098659 3.85223535,9.19624806 C3.77327899,9.02695736 3.57803859,8.95349755 3.41213803,9.03060652 C3.24623747,9.10787418 3.1700461,9.30746909 3.24055385,9.48088499 C3.43041782,9.916884 3.64209463,10.3424114 3.87450906,10.7560393 C3.96744409,10.9213635 4.17266923,10.977688 4.33288618,10.881857 L4.33288618,10.8831263 Z" id="Path" fill="#000000"></path>
                    <path d="M2.89960964,6.43628233 C2.67403183,6.47525414 2.53156164,6.65002773 2.58134961,6.82659999 C2.70620251,7.26788078 2.85977927,7.70391536 3.04150534,8.13275514 C3.09818702,8.26675823 3.25827449,8.35714286 3.43846862,8.35714286 C3.48327782,8.35714286 3.527704,8.35159688 3.57021524,8.340355 C3.67553592,8.31307472 3.76285635,8.25416734 3.81264437,8.17652352 C3.86243229,8.09887967 3.87085799,8.00894472 3.83581491,7.92650434 C3.66308894,7.51894918 3.51717192,7.10479875 3.39863825,6.68555202 C3.37489322,6.60071337 3.30882843,6.52666696 3.21518876,6.47990079 C3.12154905,6.4332845 3.00799419,6.41754589 2.89960964,6.43628233 Z" id="Path" fill="#000000"></path>
                    <path d="M2.92988173,6.42855311 C2.94080221,6.42869968 2.9518527,6.42796679 2.96277322,6.4263544 C3.03765656,6.41668011 3.1059096,6.3737322 3.15284169,6.30718493 C3.19964377,6.24078419 3.22109472,6.15591445 3.21238436,6.07163098 C3.16935243,5.6546111 3.14491134,5.23539251 3.13945108,4.81573417 C3.13542092,4.63969169 3.00762521,4.49956128 2.85148825,4.50000103 C2.77608485,4.50117367 2.70432165,4.53605968 2.65179934,4.59689035 C2.59927696,4.6578676 2.57041569,4.73980575 2.57145574,4.82467554 C2.576916,5.26602771 2.60213711,5.70679355 2.6469891,6.14521412 C2.66362984,6.30703836 2.78531527,6.42899286 2.92988173,6.42855311 Z" id="Path" fill="#000000"></path>
                    <path d="M6.85010038,12.9309143 C6.78374879,12.8630187 6.69009626,12.8399574 6.60439212,12.8702334 C6.51868798,12.9006383 6.45383393,12.9797424 6.43448138,13.0779141 C6.41512883,13.1762145 6.44404244,13.2785088 6.51039403,13.3462756 C6.76646972,13.6080666 7.03441036,13.8551705 7.31294881,14.0865566 C7.35603128,14.1230167 7.40855962,14.1427283 7.46258548,14.1428571 C7.57098278,14.1428571 7.66705434,14.065299 7.70138209,13.9503789 C7.73559462,13.8354589 7.70023013,13.7089437 7.61360444,13.6362813 C7.34865888,13.4155884 7.0938503,13.1802084 6.85010038,12.9309143 L6.85010038,12.9309143 Z" id="Path" fill="#000000"></path>
                    <path d="M9.79062373,15.3963528 C9.90309218,15.4475258 10.0355199,15.4372306 10.1376919,15.3691009 C10.2397056,15.3009711 10.2957814,15.1857561 10.2842178,15.0672104 C10.2726541,14.948816 10.1955102,14.8454102 10.0820913,14.7963567 C9.67086857,14.6139204 9.26994222,14.4113479 8.88057956,14.1895477 C8.71631224,14.0959828 8.50388936,14.1474587 8.40599429,14.3044599 C8.30809918,14.4614611 8.36195732,14.6644878 8.52622468,14.7580527 C8.93618014,14.9910564 9.35817451,15.2042269 9.79062373,15.3963528 L9.79062373,15.3963528 Z" id="Path" fill="#000000"></path>
                    <path d="M11.8869661,16.7142786 C12.0533034,16.7140901 12.1931167,16.5570343 12.2121481,16.3492607 C12.2310296,16.1412985 12.1229852,15.9486082 11.9609937,15.9010956 C11.5435019,15.778543 11.1312551,15.6292175 10.7259014,15.4538731 C10.6147102,15.4024011 10.4900321,15.4306824 10.40012,15.5275932 C10.3102079,15.6245039 10.2688484,15.7751492 10.2920757,15.9212696 C10.315303,16.0673899 10.3993708,16.1863601 10.5120606,16.2323644 C10.9386934,16.4173245 11.372669,16.5747573 11.8120393,16.7039088 C11.8366153,16.7108849 11.8617907,16.7144672 11.8869661,16.7142786 L11.8869661,16.7142786 Z" id="Path" fill="#000000"></path>
                    <path d="M6.44097158,4.9001665 C6.58970325,5.34996426 6.7675842,5.79273625 6.97408766,6.22657959 C7.03203504,6.34850654 7.1735672,6.42857143 7.33090317,6.42857143 C7.45803625,6.42857143 7.57674063,6.37602427 7.64820905,6.28834809 C7.71950194,6.20067195 7.7340766,6.08928367 7.68719187,5.99092243 C7.4912243,5.57859562 7.32212324,5.15792564 7.18059112,4.73037626 C7.12194131,4.56263523 6.91245269,4.46515219 6.71033917,4.51155175 C6.50822569,4.55795136 6.38829212,4.73096174 6.44097158,4.9001665 Z" id="Path" fill="#000000"></path>
                    <path d="M6.8093463,3.85714231 C6.8860992,3.85728377 6.95914015,3.81753292 7.00895169,3.74849939 C7.05876323,3.67932438 7.08043603,3.58793986 7.06798315,3.49825285 C7.01014907,3.07556399 6.9714733,2.64933859 6.95219529,2.22169855 C6.94453197,2.05109523 6.8212005,1.91995982 6.67667518,1.9290134 C6.53226962,1.93806698 6.42139104,2.08377299 6.42893462,2.25451776 C6.44917055,2.70436735 6.48976217,3.15266085 6.55058973,3.59755929 C6.57118488,3.7473677 6.68086606,3.85742522 6.8093463,3.85714231 Z" id="Path" fill="#000000"></path>
                    <path d="M8.86531782,8.94004516 C9.00537814,8.83456599 9.04214751,8.62282747 8.94741731,8.46694921 C8.70939894,8.07577126 8.49074761,7.67055023 8.29230543,7.25315851 C8.21315309,7.08666996 8.02748191,7.02300798 7.87773803,7.11101131 C7.72799419,7.19901465 7.67073506,7.40529195 7.74988739,7.57178054 C7.95899549,8.01132911 8.18915477,8.43808288 8.43938282,8.85001339 C8.48499364,8.92490985 8.55544485,8.97671323 8.63529888,8.99387702 C8.71515291,9.01088475 8.79795413,8.99216063 8.86531782,8.9414495 L8.86531782,8.94004516 Z" id="Path" fill="#000000"></path>
                    <path d="M10.1946059,9.84643707 C9.93558291,9.60773288 9.6899189,9.35602092 9.45879616,9.09209987 C9.39980369,9.02204043 9.30629058,8.98826584 9.21419613,9.0036698 C9.12210171,9.01907373 9.0457307,9.08126007 9.01463847,9.16638115 C8.98366449,9.25150226 9.00257991,9.34620802 9.06440969,9.41387132 C9.30782745,9.69148475 9.56637758,9.9563186 9.83923249,10.2071178 C9.90472714,10.2744387 10.0035602,10.301253 10.0958911,10.2768349 C10.188222,10.2523027 10.2589183,10.1805317 10.2796071,10.0902759 C10.3002958,10.0000202 10.2675485,9.90622722 10.1946059,9.84643707 L10.1946059,9.84643707 Z" id="Path" fill="#000000"></path>
                    <path d="M14.5674971,12.8071105 C14.1445915,12.64705 13.729813,12.4617253 13.3250826,12.2522774 C13.2201689,12.1940883 13.0948636,12.203216 12.9977815,12.2764005 C12.9008472,12.3494221 12.8475037,12.4749278 12.8585862,12.6038564 C12.8696686,12.732785 12.9434037,12.8450883 13.0509772,12.8967575 C13.4769858,13.117289 13.9133381,13.3120674 14.3584085,13.4804407 C14.3919514,13.4933172 14.4274151,13.5 14.4630267,13.5 C14.6206927,13.5 14.7554551,13.3740053 14.7813141,13.2023721 C14.8071731,13.030739 14.7168883,12.8635066 14.5674971,12.8071105 Z" id="Path" fill="#000000"></path>
                    <path d="M12.6944208,11.672837 C12.277333,11.4614484 11.8742772,11.2315265 11.4870275,10.9840112 C11.3325147,10.8912097 11.1173581,10.9175326 11.0013928,11.0433719 C10.8854276,11.1692112 10.9105883,11.3490392 11.0581658,11.4493614 C11.4650925,11.7096353 11.8884705,11.95151 12.3265255,12.1740455 C12.4924897,12.2548942 12.7057109,12.2101722 12.8057087,12.0734546 C12.9057066,11.936737 12.8555464,11.7583863 12.6929692,11.672837 L12.6944208,11.672837 Z" id="Path" fill="#000000"></path>
                    <path d="M12.6726589,4.09281391 C12.3075712,4.39573331 12.1438271,4.85495537 12.2425615,5.29918409 C12.3298152,5.81320496 12.5666056,6.29564687 12.9275315,6.6948954 C13.2728149,7.10582023 13.7323317,7.42227346 14.2571453,7.6102878 C14.4513134,7.6766302 14.6563882,7.71165898 14.8634722,7.71404733 C15.1388666,7.71935472 15.407516,7.63589596 15.623641,7.47813375 C16.308037,6.96822608 16.1960997,5.8259427 15.3687685,4.87605226 C14.5414373,3.92616181 13.3573419,3.5827736 12.6726589,4.09281391 L12.6726589,4.09281391 Z M14.8796887,5.23987398 C15.5174442,5.97136523 15.575996,6.76880083 15.2295645,7.02674006 C14.9972229,7.15451553 14.7119264,7.16844746 14.4662384,7.06415719 C14.05164,6.91064089 13.6888484,6.65761099 13.4153197,6.33107372 C13.1284445,6.01435511 12.9382947,5.63248829 12.8645309,5.22501328 C12.8065531,4.98100594 12.8818955,4.72611846 13.0661615,4.5432788 C13.1722149,4.47109827 13.3019473,4.43447727 13.4335454,4.43978466 C14.0166237,4.50466751 14.5422983,4.79551258 14.8796887,5.23987398 Z" id="Shape" fill="#000000"></path>
                    <path d="M10.7044421,3.82718272 C10.8051351,3.84570505 10.9077532,3.85509483 11.0106674,3.85522349 C11.5557427,3.88442186 12.049731,3.57777436 12.1946994,3.12050431 C12.3176042,2.60458017 11.8492334,2.08273917 11.1504531,1.95719891 C10.8366757,1.89751584 10.5086829,1.93173072 10.2200788,2.05444119 C9.93636129,2.17329279 9.73038473,2.39787608 9.6604919,2.66477775 C9.60259341,2.93373743 9.68892288,3.21105793 9.8950475,3.41801926 C10.1039856,3.62986844 10.3891839,3.77405965 10.7044421,3.82718272 L10.7044421,3.82718272 Z M10.2939698,2.77796978 C10.3250661,2.67892674 10.4054725,2.59699115 10.5132733,2.55454416 C10.6155952,2.51158262 10.7281345,2.48984462 10.8418585,2.49113087 C10.9013859,2.49100225 10.9607652,2.49627596 11.0191079,2.50682342 C11.3626489,2.56856453 11.6105316,2.79739251 11.5609254,3.00589737 C11.5114674,3.21440223 11.1788841,3.33878484 10.835343,3.27730097 C10.6641648,3.24926024 10.5085348,3.17234109 10.3931821,3.05889182 C10.3135161,2.98287307 10.2770889,2.87984261 10.2939698,2.77796978 Z" id="Shape" fill="#000000"></path>
                </g>
                <g id="cricket-copy" transform="translate(0.000000, 66.000000)" fill-rule="nonzero">
                    <path d="M17.9999794,9.32142857 C18.0032672,10.8240923 17.6132518,12.3015495 16.8688389,13.606945 C16.7670541,13.7864043 16.6593787,13.9629868 16.5426617,14.1365555 C16.4167663,14.3290291 16.2808706,14.514927 16.1356594,14.6931534 C16.0040104,14.8638453 15.8603061,15.0313863 15.713725,15.1930367 C15.5371427,15.3845514 15.3515189,15.5670245 15.1600045,15.743607 C14.9834222,15.9052574 14.7979355,16.0608802 14.6064211,16.2044477 C14.4687444,16.3152741 14.3250401,16.416922 14.1814728,16.5156932 C13.9569434,16.6652883 13.7295372,16.8059789 13.4930896,16.9376281 L13.4871989,16.9376281 C13.0882791,17.1553082 12.6730573,17.3413431 12.2452322,17.494363 C11.9296033,17.6092992 11.6067139,17.7032756 11.2786188,17.7756073 C10.9328517,17.8576654 10.581879,17.915613 10.2281664,17.949176 C10.2065218,17.9536967 10.1844661,17.9567106 10.1624104,17.9582175 C9.88404328,17.9850679 9.60567615,18 9.32141837,18 C9.1657958,18 9.01318707,17.9971231 8.86057834,17.9880817 C4.25258859,17.7439622 0.641761459,13.9358624 0.642857392,9.32142857 C0.642857392,8.44591358 0.773958438,7.5754673 1.03177679,6.73872101 C1.1472608,6.37404866 1.28630738,6.01718487 1.4478206,5.67045846 C1.58727813,5.36989833 1.7431747,5.0771467 1.91468831,4.79357356 L1.92071594,4.78453208 C2.17168473,4.37506342 2.45703845,3.98765043 2.77348925,3.6264029 C2.94746869,3.42214803 3.13336645,3.22830454 3.33022351,3.04583141 L3.33611416,3.03994075 C3.6105085,2.77266962 3.90462968,2.52663224 4.21601184,2.30374647 C4.40752621,2.16305582 4.60506826,2.03140665 4.80548708,1.90564814 C5.0150844,1.78002661 5.23043535,1.66330951 5.44893711,1.55549694 C5.64264335,1.45453395 5.84141831,1.36357135 6.04443999,1.28315712 L6.04745383,1.28315712 C6.24800967,1.19945509 6.45144233,1.12465755 6.66103965,1.05876443 C6.85543084,0.995885161 7.05598668,0.939033565 7.25654253,0.891223414 C7.78286465,0.763272998 8.31973508,0.684228703 8.86057834,0.654775444 L8.86948279,0.654775444 C9.0192147,0.645733998 9.16880964,0.642857143 9.32141837,0.642857143 C14.1144839,0.642857143 17.9999794,4.52835732 17.9999794,9.32142857 Z" id="Path" fill="#C52828"></path>
                    <path d="M16.7142665,9.32142857 C16.7174661,10.8261587 16.3214119,12.3056477 15.5654728,13.6128384 C15.4622511,13.7925445 15.3527693,13.9693698 15.2342452,14.1431772 C15.1064005,14.3359155 14.9685397,14.5220691 14.820941,14.7005406 C14.8027172,14.7215292 14.7875539,14.7455357 14.7662697,14.7665243 C14.650806,14.9133072 14.5231004,15.0602272 14.3924735,15.2011113 C14.2131571,15.3928893 14.0247983,15.5756134 13.8303186,15.7524388 C13.6510022,15.9143115 13.4625043,16.0701482 13.2680246,16.2139131 C13.1282162,16.3248919 12.982426,16.4266797 12.8364966,16.5255867 L12.6815249,16.6244936 C12.505269,16.7383532 12.3228921,16.8463141 12.1375938,16.9481018 L12.1314728,16.9481018 C11.7263763,17.1660812 11.3047253,17.352372 10.870276,17.5056024 C10.5497601,17.6206966 10.2218711,17.7148022 9.88869597,17.7872334 C9.53771431,17.8694044 9.18130725,17.9274317 8.82211796,17.9610408 C8.79999902,17.9655677 8.77760186,17.9685857 8.75520471,17.9700947 C8.6184568,17.9820294 8.48170888,17.9939641 8.34496101,18 C3.66562305,17.7555448 -0.00111264929,13.9422082 2.53267838e-07,9.32142857 C2.53267838e-07,8.44470958 0.133131213,7.57306628 0.394941523,6.7351693 C0.51221364,6.36999545 0.653413161,6.01264091 0.817427185,5.66543768 C0.959044018,5.36446423 1.11735443,5.07131 1.29152368,4.7873469 L1.29764464,4.77829299 C1.54526546,4.37800103 1.82696891,3.99910916 2.13941632,3.64559566 C2.14845865,3.63654178 2.15457961,3.62762507 2.16362194,3.61857116 C2.3402952,3.41403539 2.52907132,3.21992533 2.72897644,3.03720127 L2.7349583,3.03130251 C3.01360125,2.76366383 3.31227648,2.5172881 3.62847995,2.29409582 C3.82295966,2.15321169 4.02356036,2.02138148 4.22708239,1.89545003 C4.43992502,1.76965575 4.65861038,1.65277814 4.88049533,1.54481731 C5.07107988,1.44659624 5.26681163,1.35866368 5.46699498,1.28115684 L5.48521874,1.27210297 L5.48827924,1.27210297 C5.69194041,1.18828582 5.89852293,1.11338542 6.11136557,1.0474017 C6.30876663,0.984435951 6.5124278,0.927506173 6.71608897,0.879630274 C7.25056044,0.751503902 7.79574356,0.672350906 8.34496101,0.642857143 L8.35400333,0.642857143 C13.0397404,0.878807175 16.7157967,4.69475022 16.7142665,9.32142857 Z" id="Path" fill="#F44335"></path>
                    <path d="M15.4396099,5.39325185 C14.7341901,4.59824572 13.7257309,4.2733947 13.1870258,4.66764277 C12.6483207,5.06189078 12.7836421,6.02602777 13.4889185,6.82103387 C14.1943383,7.61604 15.2029409,7.94089098 15.7415026,7.54664298 C16.2802076,7.15226471 16.1450297,6.18825795 15.4396099,5.39325185 Z" id="Path" fill="#C52828"></path>
                    <path d="M11.407628,2.59209782 C10.8822013,2.50314403 10.385825,2.70953134 10.298822,3.05322741 C10.2118191,3.3968023 10.5670935,3.7475274 11.092372,3.83648119 C11.6177987,3.92543495 12.114175,3.71892645 12.201178,3.3753516 C12.2881809,3.0316555 11.9329065,2.68105158 11.407628,2.59209782 Z" id="Path" fill="#C52828"></path>
                    <path d="M15.4285714,14.8461461 C15.3111346,14.9949432 15.1813792,15.1414239 15.048202,15.2831354 C14.8658875,15.4756724 14.6742657,15.6597611 14.4766214,15.8374455 C14.29417,16.0002776 14.1025481,16.1568416 13.9046301,16.3014146 C13.7622824,16.4131487 13.6139124,16.5154808 13.4656792,16.6149514 L13.307728,16.7142857 C7.20867774,15.6778838 2.57142857,10.4931491 2.57142857,4.24830306 C2.57142857,4.05249584 2.57443975,3.8565524 2.5837471,3.66374294 C2.59305445,3.65474973 2.59921372,3.64562022 2.60852106,3.63662701 C2.78850875,3.43046394 2.98040435,3.23506555 3.18352356,3.05138559 L3.18981969,3.04552636 C3.47355692,2.77613818 3.77741445,2.52827923 4.09851797,2.30426599 C4.29643596,2.16255445 4.50065012,2.02983616 4.70760174,1.90338586 C4.92399757,1.77679928 5.14641583,1.65920598 5.37225587,1.5508784 C5.56675206,1.45195282 5.76631256,1.36338313 5.97025299,1.28571429 C5.76590193,2.10682367 5.66269989,2.94959854 5.66283675,3.79564368 C5.66283675,9.2203342 9.84854267,13.7552397 15.4285714,14.8461461 L15.4285714,14.8461461 Z" id="Path" fill="#FFECB3"></path>
                    <path d="M8.99806419,1.15913729e-06 C8.17851381,0.000138487185 7.36280912,0.112747478 6.57374979,0.334532285 C6.56042713,0.337278846 6.5472418,0.340986712 6.53446849,0.345655848 C5.66327555,0.594082313 4.83479758,0.973107726 4.07746545,1.46996059 C4.06249462,1.47778828 4.04834786,1.48685195 4.03516253,1.49728888 C3.5202481,1.83841175 3.04186799,2.23130729 2.60716429,2.66993305 C2.58848508,2.68517648 2.57172871,2.70275447 2.55744461,2.72211775 C2.02357629,3.26991932 1.56126579,3.88308905 1.18150095,4.54707017 C1.17243602,4.56025366 1.1644699,4.57398647 1.1577399,4.58840591 C-0.657577317,7.81163253 -0.314758848,11.8173544 2.02192809,14.685176 C4.35861506,17.553135 8.21271324,18.6985882 11.7367663,17.5726355 C11.7461058,17.5696143 11.7551708,17.5670051 11.7638236,17.5634346 C12.4527569,17.3404138 13.1120232,17.0348589 13.7273384,16.6532242 C13.763598,16.6386675 13.796836,16.6173816 13.8251296,16.5904653 C14.1642397,16.374311 14.4886536,16.1357721 14.7960365,15.8764968 C14.8122435,15.8653732 14.8270769,15.8524644 14.8403996,15.8380449 C15.1988757,15.5313914 15.5330413,15.1972723 15.8396001,14.8388461 C15.8536095,14.8255252 15.8663828,14.8108311 15.8773706,14.7950384 C16.1586575,14.4622926 16.4154967,14.1096341 16.6458278,13.739947 C16.6603866,13.7220944 16.6728852,13.7027311 16.6829115,13.6819946 C18.3781873,10.9043975 18.4410924,7.42807527 16.8474534,4.59101515 C15.2539519,1.75395499 12.2523674,-0.00164677744 8.99806419,1.15913729e-06 Z M0.596951506,8.99993213 C0.596264779,7.82591465 0.843352264,6.66494331 1.32186971,5.59282327 C1.34521874,5.60133759 1.36966652,5.60669339 1.39452634,5.60875329 L1.4001576,5.60875329 C1.56373802,5.60875329 1.69710211,5.47787966 1.7002611,5.31445931 C1.70314538,5.14403517 1.71221031,4.97457238 1.72388481,4.80442292 C1.9476233,4.41756981 2.20185287,4.04911865 2.48423859,3.70263998 C2.53519439,3.762927 2.60785102,3.80069222 2.68641359,3.80783328 L2.71347097,3.80783328 C2.86881059,3.80769596 2.99832896,3.68904453 3.0119263,3.53427581 C3.02607306,3.37346465 3.04585105,3.21443879 3.06659048,3.05431427 C3.30461307,2.81797271 3.55637041,2.59605058 3.82062628,2.3895092 C3.0377476,8.83774771 7.46705561,14.7607064 13.8742998,15.8335131 C13.7633233,15.9135754 13.6501493,15.9903418 13.534915,16.0639496 C13.3760044,16.0504914 13.2166817,16.0357973 13.0594192,16.0157475 C12.9393778,16.0003667 12.8218087,16.0588684 12.7615133,16.1637871 C12.7010805,16.2687057 12.7097334,16.3995794 12.7833515,16.495709 C12.4070203,16.6863203 12.0169544,16.8483674 11.6161755,16.980477 C11.4464144,16.9561699 11.2774774,16.9298029 11.1103259,16.8986295 C11.0320381,16.8839354 10.9511406,16.9009641 10.8854886,16.9460077 C10.8198367,16.9910513 10.7747868,17.0602646 10.7602281,17.1385416 C10.7569317,17.1633979 10.7569317,17.188529 10.7602281,17.213248 C8.27905192,17.7460809 5.69005825,17.1287913 3.71651716,15.5338633 C1.7428387,13.9389354 0.596264779,11.5372051 0.596951506,8.99993213 L0.596951506,8.99993213 Z M16.2590583,13.2172765 C16.13627,13.1939307 16.0133442,13.1716836 15.8920667,13.1447673 C15.7865841,13.1186749 15.6751956,13.151771 15.6010281,13.2311466 C15.5267233,13.3105222 15.5013141,13.4239552 15.5344148,13.5273632 C15.5676527,13.6309085 15.6541815,13.7083616 15.7606255,13.7300594 C15.8113066,13.7414577 15.8636358,13.7498347 15.9145916,13.7599969 C15.7883696,13.9426432 15.6552802,14.1200711 15.5151862,14.2925551 C15.377839,14.2726425 15.2398051,14.2535539 15.1038314,14.2288349 C14.9983488,14.2101583 14.8906687,14.2491594 14.8217204,14.3311443 C14.7526348,14.4132665 14.7325821,14.5258755 14.7691165,14.6266742 C14.8056508,14.727473 14.8932783,14.8010809 14.9988982,14.8198948 L15.0417505,14.8264866 C14.8761099,14.9981466 14.7034646,15.1625283 14.5235398,15.3200436 C11.3811745,14.9467859 8.5292984,13.3010466 6.63390782,10.7672068 C4.73865462,8.23336694 3.96566486,5.03307411 4.4956875,1.91366752 C4.68289166,1.79364279 4.87490298,1.68144578 5.07172143,1.57680179 C5.06993589,1.59355583 5.06691427,1.6100352 5.06540345,1.62692655 C5.05702528,1.70630215 5.08064899,1.78567778 5.1310554,1.84761274 C5.18132443,1.90954766 5.25425578,1.9488235 5.33364241,1.95692583 L5.36372144,1.95692583 C5.51768762,1.95678851 5.64651922,1.84005969 5.6619021,1.6869389 C5.67604886,1.54590299 5.69582685,1.40665237 5.71505545,1.26685239 C5.90830286,1.18473024 6.10512134,1.1115344 6.30578551,1.04369433 C6.3022145,1.09766424 6.29589651,1.15108488 6.29314957,1.20505479 C6.28449669,1.37053508 6.41154279,1.51170831 6.57704612,1.52035999 L6.59297839,1.52035999 C6.75271313,1.52063463 6.88470372,1.39552877 6.89294455,1.23595359 C6.89953721,1.10933715 6.91162376,0.983956616 6.92302358,0.858301443 C10.2020493,0.0195017596 13.6640214,1.23128446 15.7039011,3.9317032 C17.7439183,6.63212194 17.9627122,10.2931503 16.2590583,13.2172765 L16.2590583,13.2172765 Z" id="Shape" fill="#000000"></path>
                    <path d="M8.79578648,11.0028606 C8.69195794,10.9002054 8.53083231,10.9044347 8.4319081,11.0124725 C8.33298393,11.1205103 8.3321466,11.2931401 8.4298746,11.4023314 C8.67891954,11.6646723 8.9436345,11.9168887 9.21672268,12.15206 C9.32916375,12.2493324 9.49399753,12.2304931 9.5847877,12.1100239 C9.67557787,11.9894265 9.65799399,11.8129519 9.54543334,11.7156795 C9.28418733,11.4919143 9.03275,11.2531546 8.79578648,11.0028606 L8.79578648,11.0028606 Z" id="Path" fill="#000000"></path>
                    <path d="M7.60757814,9.10936538 C7.51653751,8.99538259 7.33418772,8.9657174 7.20004379,9.04307507 C7.06603416,9.12031868 7.03112183,9.27537635 7.12202817,9.38924503 C7.34211015,9.66467489 7.58166246,9.93462812 7.83370264,10.1911179 C7.89976751,10.2622003 8.00611585,10.2971139 8.11138996,10.2823954 C8.21666407,10.267791 8.30421346,10.2056082 8.34006575,10.1202638 C8.375918,10.0349193 8.35443349,9.93976248 8.28393744,9.87176073 C8.04425086,9.62782161 7.8166493,9.37133182 7.60757814,9.10936538 Z" id="Path" fill="#000000"></path>
                    <path d="M5.5200034,4.49925259 C5.59758383,4.4910314 5.6691138,4.44887917 5.71872763,4.38191389 C5.76820701,4.31509808 5.79187106,4.22899987 5.78434159,4.14275219 C5.74857662,3.73393514 5.73055965,3.31719588 5.73029076,2.89238492 C5.73015628,2.80643618 5.69896276,2.72407486 5.64370185,2.66368653 C5.58857535,2.6034477 5.5139529,2.570264 5.4366414,2.57145981 C5.27341321,2.57415036 5.14258866,2.72213168 5.14285756,2.90344613 C5.14285756,3.33782359 5.16195016,3.77638635 5.19986641,4.20613004 C5.21492535,4.37279586 5.341044,4.4998505 5.49176786,4.5 C5.5006419,4.49925259 5.51032265,4.49925259 5.5200034,4.49925259 Z" id="Path" fill="#000000"></path>
                    <path d="M6.45385213,7.28499748 C6.40581115,7.17030069 6.30050271,7.09001294 6.17721868,7.07424216 C6.05409376,7.05847134 5.93192327,7.10976631 5.85668022,7.20885158 C5.7814372,7.30777755 5.76473422,7.43936028 5.81277524,7.55405707 C5.99237221,7.98273635 6.19503521,8.40807027 6.41837814,8.81795199 C6.47771353,8.92723257 6.59065762,8.99652851 6.71473703,8.99987387 C6.83881643,9.00321918 6.95526018,8.93981736 7.02016325,8.8338821 C7.08506632,8.72794688 7.08856597,8.59524907 7.02938968,8.4859685 C6.81765931,8.09552149 6.62549531,7.69471996 6.45385213,7.28499748 Z" id="Path" fill="#000000"></path>
                    <path d="M5.77623696,6.6424494 C5.69494448,6.23701548 5.62716764,5.82565726 5.5730058,5.40989381 C5.55780074,5.29368661 5.50324135,5.19859422 5.42970049,5.1604661 C5.356259,5.12233799 5.27506592,5.14709848 5.21673015,5.22532946 C5.15849373,5.30356041 5.13186001,5.42341333 5.14706507,5.5397724 C5.20410894,5.97725824 5.27546344,6.41018696 5.36083047,6.83688755 C5.38885549,6.97633618 5.47302997,7.07142857 5.56843433,7.07142857 C5.58999968,7.07127668 5.61136629,7.06641572 5.63203723,7.05684571 C5.68709351,7.03117381 5.73320562,6.97299426 5.76033623,6.89537089 C5.78736746,6.81759563 5.79303209,6.72660464 5.77623696,6.6424494 Z" id="Path" fill="#000000"></path>
                    <path d="M12.0254394,12.8923704 C11.6225693,12.7033024 11.2234736,12.4936707 10.842429,12.2674696 C10.676358,12.1692371 10.4535076,12.2109563 10.3447081,12.3606722 C10.2357445,12.51024 10.2820212,12.7111433 10.4480923,12.8093758 C10.8506341,13.0459327 11.2704067,13.2672518 11.6959228,13.4660838 C11.8711836,13.5446403 12.0838596,13.4822093 12.1739516,13.3255403 C12.2640435,13.1690192 12.1982386,12.9762527 12.0260958,12.8923704 L12.0254394,12.8923704 Z" id="Path" fill="#000000"></path>
                    <path d="M13.8981728,14.0149548 C13.4870455,13.8776478 13.0762264,13.714067 12.6777303,13.5290714 C12.5658987,13.4758042 12.4380472,13.4966792 12.3430058,13.5839583 C12.2479644,13.6710573 12.2002127,13.8110637 12.217927,13.9507102 C12.2356414,14.0903567 12.3162032,14.2082284 12.428805,14.2593361 C12.8493285,14.4547692 13.278016,14.6251883 13.7131732,14.7704135 C13.7432106,14.780671 13.7743262,14.7858897 13.80575,14.7857098 C13.9738053,14.7862497 14.1162905,14.6417443 14.1395502,14.447211 C14.1629639,14.2528577 14.0599126,14.0680421 13.8981728,14.0144149 L13.8981728,14.0149548 Z" id="Path" fill="#000000"></path>
                    <path d="M10.0573483,16.6283053 C9.6312021,16.4784207 9.21241849,16.3021659 8.80276443,16.1002214 C8.63990414,16.0216213 8.45245279,16.1094084 8.38309729,16.2970619 C8.31374177,16.4847155 8.38810383,16.7018016 8.54993339,16.7836342 C8.98108617,16.9969774 9.42181029,17.1829296 9.87048603,17.3411506 C9.90081985,17.3516987 9.93233172,17.3569727 9.96399083,17.3571429 C10.1234643,17.3571429 10.2587886,17.2220595 10.2822016,17.0398502 C10.3056146,16.8576408 10.209901,16.6832574 10.0573483,16.6298365 L10.0573483,16.6283053 Z" id="Path" fill="#000000"></path>
                    <path d="M2.53617273,9.82658199 C2.33229415,9.42021147 2.1539004,9.00446883 2.00182977,8.58125772 C1.96259658,8.47216006 1.85965129,8.38956799 1.73189187,8.36481967 C1.60396476,8.33992488 1.47084012,8.37653486 1.38231389,8.46073773 C1.29361997,8.54494064 1.26327293,8.66414268 1.30267381,8.77309391 C1.46295993,9.21885674 1.65074283,9.6567118 1.86518421,10.0847554 C1.91481255,10.1929745 2.02798529,10.2691232 2.16060693,10.2833278 C2.29306096,10.2975325 2.42400599,10.2475965 2.50213707,10.1529964 C2.58026819,10.0585427 2.59334591,9.93421527 2.53617273,9.8287786 L2.53617273,9.82658199 Z" id="Path" fill="#000000"></path>
                    <path d="M1.9237861,7.98754315 C1.85731249,7.56736631 1.80903998,7.14294523 1.77908165,6.71611911 C1.77286387,6.60463781 1.7190519,6.50603066 1.63833396,6.45821257 C1.55761599,6.41053594 1.46254065,6.42086351 1.38973622,6.48565844 C1.31693179,6.55031191 1.27770331,6.65910521 1.28708649,6.77030351 C1.31851448,7.21905806 1.36927411,7.66554903 1.43925229,8.10751284 C1.45620983,8.21602317 1.51827447,8.30486865 1.60181869,8.34052002 C1.68547595,8.37631285 1.77795113,8.35339413 1.84431169,8.28053517 C1.9107853,8.20767621 1.9410828,8.09605348 1.9237861,7.98754315 Z" id="Path" fill="#000000"></path>
                    <path d="M7.53870657,15.5099389 C7.12266199,15.3058763 6.71939207,15.082863 6.33047394,14.8415857 C6.23032672,14.7792409 6.09958338,14.768255 5.98745004,14.8127478 C5.87547445,14.8571032 5.79914177,14.9502085 5.78731335,15.0569089 C5.77548493,15.1636092 5.82989565,15.2677004 5.93004282,15.3299079 C6.33899037,15.5836816 6.76307832,15.8183674 7.20072946,16.0328666 C7.36648492,16.1140248 7.57671518,16.0629404 7.66992306,15.9184762 C7.76328865,15.7741492 7.70446203,15.5912344 7.53870657,15.5099389 Z" id="Path" fill="#000000"></path>
                    <path d="M4.94232788,13.5796019 C4.84604252,13.4785628 4.68733034,13.4730086 4.58434378,13.5669572 C4.48123966,13.6607876 4.47136424,13.8202047 4.56188897,13.9263253 C4.81312445,14.2049803 5.07882037,14.4700452 5.35803619,14.7203384 C5.46407945,14.8152324 5.62643611,14.8056603 5.72072291,14.6991852 C5.81500967,14.5927102 5.80560451,14.4295114 5.69967884,14.3347357 C5.43398292,14.0967326 5.18121908,13.8446668 4.94232788,13.5796019 Z" id="Path" fill="#000000"></path>
                    <path d="M3.12733779,11.1017203 C3.04506701,10.9362548 2.86295433,10.879465 2.72047878,10.9748528 C2.57800323,11.0702407 2.52910386,11.2817393 2.61137465,11.4473631 C2.82740355,11.8842808 3.06359156,12.3072779 3.31884891,12.7147725 C3.3749674,12.8044656 3.46459354,12.8573007 3.55994047,12.8571425 C3.6717688,12.8569843 3.77419866,12.7840593 3.82486875,12.6681068 C3.87553883,12.5523125 3.86600416,12.4131063 3.80007852,12.3080689 C3.55735248,11.9201897 3.33274234,11.5175989 3.12733779,11.1017203 Z" id="Path" fill="#000000"></path>
                    <path d="M5.00899665,11.6668774 C4.91404,11.5610673 4.74149834,11.5402049 4.61767587,11.6195049 C4.49398405,11.6988048 4.46302841,11.850028 4.54766655,11.9625233 C4.77859283,12.243531 5.02545409,12.51405 5.28746658,12.7730427 C5.39248057,12.8767782 5.57285906,12.8857686 5.69041207,12.7932135 C5.807965,12.7005432 5.81815295,12.541367 5.71326956,12.4376316 C5.46392666,12.1913176 5.22895132,11.9340537 5.00899665,11.6668774 L5.00899665,11.6668774 Z" id="Path" fill="#000000"></path>
                    <path d="M4.33288618,10.8831263 C4.40984559,10.8369561 4.46591383,10.7611164 4.48880195,10.6722665 C4.51153651,10.5834167 4.49940118,10.488855 4.45470019,10.4093661 C4.23380668,10.0158881 4.03288263,9.61098659 3.85223535,9.19624806 C3.77327899,9.02695736 3.57803859,8.95349755 3.41213803,9.03060652 C3.24623747,9.10787418 3.1700461,9.30746909 3.24055385,9.48088499 C3.43041782,9.916884 3.64209463,10.3424114 3.87450906,10.7560393 C3.96744409,10.9213635 4.17266923,10.977688 4.33288618,10.881857 L4.33288618,10.8831263 Z" id="Path" fill="#000000"></path>
                    <path d="M2.89960964,6.43628233 C2.67403183,6.47525414 2.53156164,6.65002773 2.58134961,6.82659999 C2.70620251,7.26788078 2.85977927,7.70391536 3.04150534,8.13275514 C3.09818702,8.26675823 3.25827449,8.35714286 3.43846862,8.35714286 C3.48327782,8.35714286 3.527704,8.35159688 3.57021524,8.340355 C3.67553592,8.31307472 3.76285635,8.25416734 3.81264437,8.17652352 C3.86243229,8.09887967 3.87085799,8.00894472 3.83581491,7.92650434 C3.66308894,7.51894918 3.51717192,7.10479875 3.39863825,6.68555202 C3.37489322,6.60071337 3.30882843,6.52666696 3.21518876,6.47990079 C3.12154905,6.4332845 3.00799419,6.41754589 2.89960964,6.43628233 Z" id="Path" fill="#000000"></path>
                    <path d="M2.92988173,6.42855311 C2.94080221,6.42869968 2.9518527,6.42796679 2.96277322,6.4263544 C3.03765656,6.41668011 3.1059096,6.3737322 3.15284169,6.30718493 C3.19964377,6.24078419 3.22109472,6.15591445 3.21238436,6.07163098 C3.16935243,5.6546111 3.14491134,5.23539251 3.13945108,4.81573417 C3.13542092,4.63969169 3.00762521,4.49956128 2.85148825,4.50000103 C2.77608485,4.50117367 2.70432165,4.53605968 2.65179934,4.59689035 C2.59927696,4.6578676 2.57041569,4.73980575 2.57145574,4.82467554 C2.576916,5.26602771 2.60213711,5.70679355 2.6469891,6.14521412 C2.66362984,6.30703836 2.78531527,6.42899286 2.92988173,6.42855311 Z" id="Path" fill="#000000"></path>
                    <path d="M6.85010038,12.9309143 C6.78374879,12.8630187 6.69009626,12.8399574 6.60439212,12.8702334 C6.51868798,12.9006383 6.45383393,12.9797424 6.43448138,13.0779141 C6.41512883,13.1762145 6.44404244,13.2785088 6.51039403,13.3462756 C6.76646972,13.6080666 7.03441036,13.8551705 7.31294881,14.0865566 C7.35603128,14.1230167 7.40855962,14.1427283 7.46258548,14.1428571 C7.57098278,14.1428571 7.66705434,14.065299 7.70138209,13.9503789 C7.73559462,13.8354589 7.70023013,13.7089437 7.61360444,13.6362813 C7.34865888,13.4155884 7.0938503,13.1802084 6.85010038,12.9309143 L6.85010038,12.9309143 Z" id="Path" fill="#000000"></path>
                    <path d="M9.79062373,15.3963528 C9.90309218,15.4475258 10.0355199,15.4372306 10.1376919,15.3691009 C10.2397056,15.3009711 10.2957814,15.1857561 10.2842178,15.0672104 C10.2726541,14.948816 10.1955102,14.8454102 10.0820913,14.7963567 C9.67086857,14.6139204 9.26994222,14.4113479 8.88057956,14.1895477 C8.71631224,14.0959828 8.50388936,14.1474587 8.40599429,14.3044599 C8.30809918,14.4614611 8.36195732,14.6644878 8.52622468,14.7580527 C8.93618014,14.9910564 9.35817451,15.2042269 9.79062373,15.3963528 L9.79062373,15.3963528 Z" id="Path" fill="#000000"></path>
                    <path d="M11.8869661,16.7142786 C12.0533034,16.7140901 12.1931167,16.5570343 12.2121481,16.3492607 C12.2310296,16.1412985 12.1229852,15.9486082 11.9609937,15.9010956 C11.5435019,15.778543 11.1312551,15.6292175 10.7259014,15.4538731 C10.6147102,15.4024011 10.4900321,15.4306824 10.40012,15.5275932 C10.3102079,15.6245039 10.2688484,15.7751492 10.2920757,15.9212696 C10.315303,16.0673899 10.3993708,16.1863601 10.5120606,16.2323644 C10.9386934,16.4173245 11.372669,16.5747573 11.8120393,16.7039088 C11.8366153,16.7108849 11.8617907,16.7144672 11.8869661,16.7142786 L11.8869661,16.7142786 Z" id="Path" fill="#000000"></path>
                    <path d="M6.44097158,4.9001665 C6.58970325,5.34996426 6.7675842,5.79273625 6.97408766,6.22657959 C7.03203504,6.34850654 7.1735672,6.42857143 7.33090317,6.42857143 C7.45803625,6.42857143 7.57674063,6.37602427 7.64820905,6.28834809 C7.71950194,6.20067195 7.7340766,6.08928367 7.68719187,5.99092243 C7.4912243,5.57859562 7.32212324,5.15792564 7.18059112,4.73037626 C7.12194131,4.56263523 6.91245269,4.46515219 6.71033917,4.51155175 C6.50822569,4.55795136 6.38829212,4.73096174 6.44097158,4.9001665 Z" id="Path" fill="#000000"></path>
                    <path d="M6.8093463,3.85714231 C6.8860992,3.85728377 6.95914015,3.81753292 7.00895169,3.74849939 C7.05876323,3.67932438 7.08043603,3.58793986 7.06798315,3.49825285 C7.01014907,3.07556399 6.9714733,2.64933859 6.95219529,2.22169855 C6.94453197,2.05109523 6.8212005,1.91995982 6.67667518,1.9290134 C6.53226962,1.93806698 6.42139104,2.08377299 6.42893462,2.25451776 C6.44917055,2.70436735 6.48976217,3.15266085 6.55058973,3.59755929 C6.57118488,3.7473677 6.68086606,3.85742522 6.8093463,3.85714231 Z" id="Path" fill="#000000"></path>
                    <path d="M8.86531782,8.94004516 C9.00537814,8.83456599 9.04214751,8.62282747 8.94741731,8.46694921 C8.70939894,8.07577126 8.49074761,7.67055023 8.29230543,7.25315851 C8.21315309,7.08666996 8.02748191,7.02300798 7.87773803,7.11101131 C7.72799419,7.19901465 7.67073506,7.40529195 7.74988739,7.57178054 C7.95899549,8.01132911 8.18915477,8.43808288 8.43938282,8.85001339 C8.48499364,8.92490985 8.55544485,8.97671323 8.63529888,8.99387702 C8.71515291,9.01088475 8.79795413,8.99216063 8.86531782,8.9414495 L8.86531782,8.94004516 Z" id="Path" fill="#000000"></path>
                    <path d="M10.1946059,9.84643707 C9.93558291,9.60773288 9.6899189,9.35602092 9.45879616,9.09209987 C9.39980369,9.02204043 9.30629058,8.98826584 9.21419613,9.0036698 C9.12210171,9.01907373 9.0457307,9.08126007 9.01463847,9.16638115 C8.98366449,9.25150226 9.00257991,9.34620802 9.06440969,9.41387132 C9.30782745,9.69148475 9.56637758,9.9563186 9.83923249,10.2071178 C9.90472714,10.2744387 10.0035602,10.301253 10.0958911,10.2768349 C10.188222,10.2523027 10.2589183,10.1805317 10.2796071,10.0902759 C10.3002958,10.0000202 10.2675485,9.90622722 10.1946059,9.84643707 L10.1946059,9.84643707 Z" id="Path" fill="#000000"></path>
                    <path d="M14.5674971,12.8071105 C14.1445915,12.64705 13.729813,12.4617253 13.3250826,12.2522774 C13.2201689,12.1940883 13.0948636,12.203216 12.9977815,12.2764005 C12.9008472,12.3494221 12.8475037,12.4749278 12.8585862,12.6038564 C12.8696686,12.732785 12.9434037,12.8450883 13.0509772,12.8967575 C13.4769858,13.117289 13.9133381,13.3120674 14.3584085,13.4804407 C14.3919514,13.4933172 14.4274151,13.5 14.4630267,13.5 C14.6206927,13.5 14.7554551,13.3740053 14.7813141,13.2023721 C14.8071731,13.030739 14.7168883,12.8635066 14.5674971,12.8071105 Z" id="Path" fill="#000000"></path>
                    <path d="M12.6944208,11.672837 C12.277333,11.4614484 11.8742772,11.2315265 11.4870275,10.9840112 C11.3325147,10.8912097 11.1173581,10.9175326 11.0013928,11.0433719 C10.8854276,11.1692112 10.9105883,11.3490392 11.0581658,11.4493614 C11.4650925,11.7096353 11.8884705,11.95151 12.3265255,12.1740455 C12.4924897,12.2548942 12.7057109,12.2101722 12.8057087,12.0734546 C12.9057066,11.936737 12.8555464,11.7583863 12.6929692,11.672837 L12.6944208,11.672837 Z" id="Path" fill="#000000"></path>
                    <path d="M12.6726589,4.09281391 C12.3075712,4.39573331 12.1438271,4.85495537 12.2425615,5.29918409 C12.3298152,5.81320496 12.5666056,6.29564687 12.9275315,6.6948954 C13.2728149,7.10582023 13.7323317,7.42227346 14.2571453,7.6102878 C14.4513134,7.6766302 14.6563882,7.71165898 14.8634722,7.71404733 C15.1388666,7.71935472 15.407516,7.63589596 15.623641,7.47813375 C16.308037,6.96822608 16.1960997,5.8259427 15.3687685,4.87605226 C14.5414373,3.92616181 13.3573419,3.5827736 12.6726589,4.09281391 L12.6726589,4.09281391 Z M14.8796887,5.23987398 C15.5174442,5.97136523 15.575996,6.76880083 15.2295645,7.02674006 C14.9972229,7.15451553 14.7119264,7.16844746 14.4662384,7.06415719 C14.05164,6.91064089 13.6888484,6.65761099 13.4153197,6.33107372 C13.1284445,6.01435511 12.9382947,5.63248829 12.8645309,5.22501328 C12.8065531,4.98100594 12.8818955,4.72611846 13.0661615,4.5432788 C13.1722149,4.47109827 13.3019473,4.43447727 13.4335454,4.43978466 C14.0166237,4.50466751 14.5422983,4.79551258 14.8796887,5.23987398 Z" id="Shape" fill="#000000"></path>
                    <path d="M10.7044421,3.82718272 C10.8051351,3.84570505 10.9077532,3.85509483 11.0106674,3.85522349 C11.5557427,3.88442186 12.049731,3.57777436 12.1946994,3.12050431 C12.3176042,2.60458017 11.8492334,2.08273917 11.1504531,1.95719891 C10.8366757,1.89751584 10.5086829,1.93173072 10.2200788,2.05444119 C9.93636129,2.17329279 9.73038473,2.39787608 9.6604919,2.66477775 C9.60259341,2.93373743 9.68892288,3.21105793 9.8950475,3.41801926 C10.1039856,3.62986844 10.3891839,3.77405965 10.7044421,3.82718272 L10.7044421,3.82718272 Z M10.2939698,2.77796978 C10.3250661,2.67892674 10.4054725,2.59699115 10.5132733,2.55454416 C10.6155952,2.51158262 10.7281345,2.48984462 10.8418585,2.49113087 C10.9013859,2.49100225 10.9607652,2.49627596 11.0191079,2.50682342 C11.3626489,2.56856453 11.6105316,2.79739251 11.5609254,3.00589737 C11.5114674,3.21440223 11.1788841,3.33878484 10.835343,3.27730097 C10.6641648,3.24926024 10.5085348,3.17234109 10.3931821,3.05889182 C10.3135161,2.98287307 10.2770889,2.87984261 10.2939698,2.77796978 Z" id="Shape" fill="#000000"></path>
                </g>
                <text id="This-voucher-code-ca" font-family="Avenir-Medium, Avenir" font-size="16" font-weight="400" fill="#4A4A4A">
                    <tspan x="32" y="16">This voucher code can be used to </tspan>
                    <tspan x="32" y="38">play one inninngs of the match.</tspan>
                </text>
                <text id="Bring-out-your-crick" font-family="Avenir-Medium, Avenir" font-size="16" font-weight="400" fill="#4A4A4A">
                    <tspan x="32" y="77">Bring out your cricket expert and </tspan>
                    <tspan x="32" y="99">answer questions to win exciting </tspan>
                    <tspan x="32" y="121">rewards</tspan>
                </text>
            </g>
        </g>
    </g>
</svg>